G04 #@! TF.GenerationSoftware,KiCad,Pcbnew,5.1.7-a382d34a8~87~ubuntu18.04.1*
G04 #@! TF.CreationDate,2020-12-04T06:27:14+00:00*
G04 #@! TF.ProjectId,dc_load_unit,64635f6c-6f61-4645-9f75-6e69742e6b69,1.0*
G04 #@! TF.SameCoordinates,Original*
G04 #@! TF.FileFunction,Legend,Top*
G04 #@! TF.FilePolarity,Positive*
%FSLAX46Y46*%
G04 Gerber Fmt 4.6, Leading zero omitted, Abs format (unit mm)*
G04 Created by KiCad (PCBNEW 5.1.7-a382d34a8~87~ubuntu18.04.1) date 2020-12-04 06:27:14*
%MOMM*%
%LPD*%
G01*
G04 APERTURE LIST*
%ADD10C,0.300000*%
%ADD11C,0.127000*%
%ADD12C,0.120000*%
%ADD13C,0.500000*%
%ADD14C,0.150000*%
%ADD15C,0.203200*%
%ADD16C,0.100000*%
%ADD17C,0.101600*%
G04 APERTURE END LIST*
D10*
X105200000Y-78378571D02*
X105700000Y-79878571D01*
X106200000Y-78378571D01*
X107557142Y-79735714D02*
X107485714Y-79807142D01*
X107271428Y-79878571D01*
X107128571Y-79878571D01*
X106914285Y-79807142D01*
X106771428Y-79664285D01*
X106700000Y-79521428D01*
X106628571Y-79235714D01*
X106628571Y-79021428D01*
X106700000Y-78735714D01*
X106771428Y-78592857D01*
X106914285Y-78450000D01*
X107128571Y-78378571D01*
X107271428Y-78378571D01*
X107485714Y-78450000D01*
X107557142Y-78521428D01*
X109057142Y-79735714D02*
X108985714Y-79807142D01*
X108771428Y-79878571D01*
X108628571Y-79878571D01*
X108414285Y-79807142D01*
X108271428Y-79664285D01*
X108200000Y-79521428D01*
X108128571Y-79235714D01*
X108128571Y-79021428D01*
X108200000Y-78735714D01*
X108271428Y-78592857D01*
X108414285Y-78450000D01*
X108628571Y-78378571D01*
X108771428Y-78378571D01*
X108985714Y-78450000D01*
X109057142Y-78521428D01*
X106035714Y-82278571D02*
X105535714Y-81564285D01*
X105178571Y-82278571D02*
X105178571Y-80778571D01*
X105750000Y-80778571D01*
X105892857Y-80850000D01*
X105964285Y-80921428D01*
X106035714Y-81064285D01*
X106035714Y-81278571D01*
X105964285Y-81421428D01*
X105892857Y-81492857D01*
X105750000Y-81564285D01*
X105178571Y-81564285D01*
X106535714Y-80778571D02*
X107535714Y-82278571D01*
X107535714Y-80778571D02*
X106535714Y-82278571D01*
X108035714Y-80921428D02*
X108107142Y-80850000D01*
X108250000Y-80778571D01*
X108607142Y-80778571D01*
X108750000Y-80850000D01*
X108821428Y-80921428D01*
X108892857Y-81064285D01*
X108892857Y-81207142D01*
X108821428Y-81421428D01*
X107964285Y-82278571D01*
X108892857Y-82278571D01*
X105142857Y-83378571D02*
X106000000Y-83378571D01*
X105571428Y-84878571D02*
X105571428Y-83378571D01*
X106357142Y-83378571D02*
X107357142Y-84878571D01*
X107357142Y-83378571D02*
X106357142Y-84878571D01*
X108714285Y-84878571D02*
X107857142Y-84878571D01*
X108285714Y-84878571D02*
X108285714Y-83378571D01*
X108142857Y-83592857D01*
X108000000Y-83735714D01*
X107857142Y-83807142D01*
X105857142Y-85750000D02*
X105714285Y-85678571D01*
X105500000Y-85678571D01*
X105285714Y-85750000D01*
X105142857Y-85892857D01*
X105071428Y-86035714D01*
X105000000Y-86321428D01*
X105000000Y-86535714D01*
X105071428Y-86821428D01*
X105142857Y-86964285D01*
X105285714Y-87107142D01*
X105500000Y-87178571D01*
X105642857Y-87178571D01*
X105857142Y-87107142D01*
X105928571Y-87035714D01*
X105928571Y-86535714D01*
X105642857Y-86535714D01*
X106571428Y-87178571D02*
X106571428Y-85678571D01*
X107428571Y-87178571D01*
X107428571Y-85678571D01*
X108142857Y-87178571D02*
X108142857Y-85678571D01*
X108500000Y-85678571D01*
X108714285Y-85750000D01*
X108857142Y-85892857D01*
X108928571Y-86035714D01*
X109000000Y-86321428D01*
X109000000Y-86535714D01*
X108928571Y-86821428D01*
X108857142Y-86964285D01*
X108714285Y-87107142D01*
X108500000Y-87178571D01*
X108142857Y-87178571D01*
X118250000Y-82928571D02*
X117750000Y-82214285D01*
X117392857Y-82928571D02*
X117392857Y-81428571D01*
X117964285Y-81428571D01*
X118107142Y-81500000D01*
X118178571Y-81571428D01*
X118250000Y-81714285D01*
X118250000Y-81928571D01*
X118178571Y-82071428D01*
X118107142Y-82142857D01*
X117964285Y-82214285D01*
X117392857Y-82214285D01*
X118750000Y-81428571D02*
X119750000Y-82928571D01*
X119750000Y-81428571D02*
X118750000Y-82928571D01*
X114357142Y-81428571D02*
X115214285Y-81428571D01*
X114785714Y-82928571D02*
X114785714Y-81428571D01*
X115571428Y-81428571D02*
X116571428Y-82928571D01*
X116571428Y-81428571D02*
X115571428Y-82928571D01*
X110607142Y-81500000D02*
X110464285Y-81428571D01*
X110250000Y-81428571D01*
X110035714Y-81500000D01*
X109892857Y-81642857D01*
X109821428Y-81785714D01*
X109750000Y-82071428D01*
X109750000Y-82285714D01*
X109821428Y-82571428D01*
X109892857Y-82714285D01*
X110035714Y-82857142D01*
X110250000Y-82928571D01*
X110392857Y-82928571D01*
X110607142Y-82857142D01*
X110678571Y-82785714D01*
X110678571Y-82285714D01*
X110392857Y-82285714D01*
X111321428Y-82928571D02*
X111321428Y-81428571D01*
X112178571Y-82928571D01*
X112178571Y-81428571D01*
X112892857Y-82928571D02*
X112892857Y-81428571D01*
X113250000Y-81428571D01*
X113464285Y-81500000D01*
X113607142Y-81642857D01*
X113678571Y-81785714D01*
X113750000Y-82071428D01*
X113750000Y-82285714D01*
X113678571Y-82571428D01*
X113607142Y-82714285D01*
X113464285Y-82857142D01*
X113250000Y-82928571D01*
X112892857Y-82928571D01*
X158321428Y-108928571D02*
X157821428Y-108214285D01*
X157464285Y-108928571D02*
X157464285Y-107428571D01*
X158035714Y-107428571D01*
X158178571Y-107500000D01*
X158250000Y-107571428D01*
X158321428Y-107714285D01*
X158321428Y-107928571D01*
X158250000Y-108071428D01*
X158178571Y-108142857D01*
X158035714Y-108214285D01*
X157464285Y-108214285D01*
X158964285Y-108142857D02*
X159464285Y-108142857D01*
X159678571Y-108928571D02*
X158964285Y-108928571D01*
X158964285Y-107428571D01*
X159678571Y-107428571D01*
X160250000Y-108857142D02*
X160464285Y-108928571D01*
X160821428Y-108928571D01*
X160964285Y-108857142D01*
X161035714Y-108785714D01*
X161107142Y-108642857D01*
X161107142Y-108500000D01*
X161035714Y-108357142D01*
X160964285Y-108285714D01*
X160821428Y-108214285D01*
X160535714Y-108142857D01*
X160392857Y-108071428D01*
X160321428Y-108000000D01*
X160250000Y-107857142D01*
X160250000Y-107714285D01*
X160321428Y-107571428D01*
X160392857Y-107500000D01*
X160535714Y-107428571D01*
X160892857Y-107428571D01*
X161107142Y-107500000D01*
X161750000Y-108142857D02*
X162250000Y-108142857D01*
X162464285Y-108928571D02*
X161750000Y-108928571D01*
X161750000Y-107428571D01*
X162464285Y-107428571D01*
X162892857Y-107428571D02*
X163750000Y-107428571D01*
X163321428Y-108928571D02*
X163321428Y-107428571D01*
X187785714Y-101607142D02*
X188000000Y-101678571D01*
X188357142Y-101678571D01*
X188500000Y-101607142D01*
X188571428Y-101535714D01*
X188642857Y-101392857D01*
X188642857Y-101250000D01*
X188571428Y-101107142D01*
X188500000Y-101035714D01*
X188357142Y-100964285D01*
X188071428Y-100892857D01*
X187928571Y-100821428D01*
X187857142Y-100750000D01*
X187785714Y-100607142D01*
X187785714Y-100464285D01*
X187857142Y-100321428D01*
X187928571Y-100250000D01*
X188071428Y-100178571D01*
X188428571Y-100178571D01*
X188642857Y-100250000D01*
X189071428Y-100178571D02*
X189928571Y-100178571D01*
X189500000Y-101678571D02*
X189500000Y-100178571D01*
X190357142Y-101250000D02*
X191071428Y-101250000D01*
X190214285Y-101678571D02*
X190714285Y-100178571D01*
X191214285Y-101678571D01*
X191500000Y-100178571D02*
X192357142Y-100178571D01*
X191928571Y-101678571D02*
X191928571Y-100178571D01*
X192857142Y-100178571D02*
X192857142Y-101392857D01*
X192928571Y-101535714D01*
X193000000Y-101607142D01*
X193142857Y-101678571D01*
X193428571Y-101678571D01*
X193571428Y-101607142D01*
X193642857Y-101535714D01*
X193714285Y-101392857D01*
X193714285Y-100178571D01*
X194357142Y-101607142D02*
X194571428Y-101678571D01*
X194928571Y-101678571D01*
X195071428Y-101607142D01*
X195142857Y-101535714D01*
X195214285Y-101392857D01*
X195214285Y-101250000D01*
X195142857Y-101107142D01*
X195071428Y-101035714D01*
X194928571Y-100964285D01*
X194642857Y-100892857D01*
X194500000Y-100821428D01*
X194428571Y-100750000D01*
X194357142Y-100607142D01*
X194357142Y-100464285D01*
X194428571Y-100321428D01*
X194500000Y-100250000D01*
X194642857Y-100178571D01*
X195000000Y-100178571D01*
X195214285Y-100250000D01*
X183928571Y-107178571D02*
X184285714Y-108678571D01*
X184571428Y-107607142D01*
X184857142Y-108678571D01*
X185214285Y-107178571D01*
X185785714Y-108678571D02*
X185785714Y-107178571D01*
X187000000Y-107892857D02*
X186500000Y-107892857D01*
X186500000Y-108678571D02*
X186500000Y-107178571D01*
X187214285Y-107178571D01*
X187785714Y-108678571D02*
X187785714Y-107178571D01*
X189571428Y-108607142D02*
X189785714Y-108678571D01*
X190142857Y-108678571D01*
X190285714Y-108607142D01*
X190357142Y-108535714D01*
X190428571Y-108392857D01*
X190428571Y-108250000D01*
X190357142Y-108107142D01*
X190285714Y-108035714D01*
X190142857Y-107964285D01*
X189857142Y-107892857D01*
X189714285Y-107821428D01*
X189642857Y-107750000D01*
X189571428Y-107607142D01*
X189571428Y-107464285D01*
X189642857Y-107321428D01*
X189714285Y-107250000D01*
X189857142Y-107178571D01*
X190214285Y-107178571D01*
X190428571Y-107250000D01*
X191071428Y-107892857D02*
X191571428Y-107892857D01*
X191785714Y-108678571D02*
X191071428Y-108678571D01*
X191071428Y-107178571D01*
X191785714Y-107178571D01*
X192214285Y-107178571D02*
X193071428Y-107178571D01*
X192642857Y-108678571D02*
X192642857Y-107178571D01*
X193571428Y-107178571D02*
X193571428Y-108392857D01*
X193642857Y-108535714D01*
X193714285Y-108607142D01*
X193857142Y-108678571D01*
X194142857Y-108678571D01*
X194285714Y-108607142D01*
X194357142Y-108535714D01*
X194428571Y-108392857D01*
X194428571Y-107178571D01*
X195142857Y-108678571D02*
X195142857Y-107178571D01*
X195714285Y-107178571D01*
X195857142Y-107250000D01*
X195928571Y-107321428D01*
X196000000Y-107464285D01*
X196000000Y-107678571D01*
X195928571Y-107821428D01*
X195857142Y-107892857D01*
X195714285Y-107964285D01*
X195142857Y-107964285D01*
D11*
X154314000Y-87063500D02*
X154314000Y-103823500D01*
X154314000Y-103823500D02*
X176414000Y-103823500D01*
X176414000Y-103823500D02*
X176414000Y-87063500D01*
X176414000Y-87063500D02*
X154314000Y-87063500D01*
D12*
X113150000Y-110055000D02*
X131470000Y-110055000D01*
X131470000Y-110055000D02*
X131470000Y-119405000D01*
X131470000Y-119405000D02*
X113150000Y-119405000D01*
X113150000Y-119405000D02*
X113150000Y-110055000D01*
X112900000Y-119655000D02*
X115440000Y-119655000D01*
X112900000Y-119655000D02*
X112900000Y-117115000D01*
X151930000Y-63549000D02*
X168070000Y-63549000D01*
X151930000Y-68820000D02*
X168070000Y-68820000D01*
X151930000Y-63549000D02*
X151930000Y-68820000D01*
X168070000Y-63549000D02*
X168070000Y-68820000D01*
X158196000Y-63549000D02*
X158196000Y-68820000D01*
X161805000Y-63549000D02*
X161805000Y-68820000D01*
X185960000Y-123380000D02*
X185960000Y-122450000D01*
X185960000Y-120220000D02*
X185960000Y-121150000D01*
X185960000Y-120220000D02*
X183800000Y-120220000D01*
X185960000Y-123380000D02*
X184500000Y-123380000D01*
X171160000Y-123580000D02*
X171160000Y-122650000D01*
X171160000Y-120420000D02*
X171160000Y-121350000D01*
X171160000Y-120420000D02*
X169000000Y-120420000D01*
X171160000Y-123580000D02*
X169700000Y-123580000D01*
X155160000Y-123580000D02*
X155160000Y-122650000D01*
X155160000Y-120420000D02*
X155160000Y-121350000D01*
X155160000Y-120420000D02*
X153000000Y-120420000D01*
X155160000Y-123580000D02*
X153700000Y-123580000D01*
X139160000Y-123380000D02*
X139160000Y-122450000D01*
X139160000Y-120220000D02*
X139160000Y-121150000D01*
X139160000Y-120220000D02*
X137000000Y-120220000D01*
X139160000Y-123380000D02*
X137700000Y-123380000D01*
X123160000Y-123380000D02*
X123160000Y-122450000D01*
X123160000Y-120220000D02*
X123160000Y-121150000D01*
X123160000Y-120220000D02*
X121000000Y-120220000D01*
X123160000Y-123380000D02*
X121700000Y-123380000D01*
X146390000Y-124290000D02*
X146390000Y-128310000D01*
X146390000Y-128310000D02*
X154110000Y-128310000D01*
X154110000Y-128310000D02*
X154110000Y-124290000D01*
X154110000Y-124290000D02*
X146390000Y-124290000D01*
X146390000Y-126000000D02*
X146890000Y-126000000D01*
X146890000Y-126000000D02*
X146890000Y-124790000D01*
X146890000Y-124790000D02*
X153610000Y-124790000D01*
X153610000Y-124790000D02*
X153610000Y-126000000D01*
X153610000Y-126000000D02*
X154110000Y-126000000D01*
X146390000Y-126810000D02*
X147390000Y-126810000D01*
X147390000Y-126810000D02*
X147390000Y-128310000D01*
X154110000Y-126810000D02*
X153110000Y-126810000D01*
X153110000Y-126810000D02*
X153110000Y-128310000D01*
X146090000Y-126110000D02*
X146090000Y-128610000D01*
X146090000Y-128610000D02*
X148590000Y-128610000D01*
X157760000Y-118078733D02*
X157760000Y-118421267D01*
X156740000Y-118078733D02*
X156740000Y-118421267D01*
D13*
X106479981Y-108706000D02*
G75*
G03*
X106479981Y-108706000I-283981J0D01*
G01*
D14*
X106050000Y-89800000D02*
X106050000Y-107800000D01*
X100050000Y-107800000D02*
X125550000Y-107800000D01*
X100050000Y-89800000D02*
X125550000Y-89800000D01*
X125550000Y-89800000D02*
X125550000Y-107800000D01*
X100050000Y-89800000D02*
X100050000Y-107800000D01*
D12*
X112997936Y-121490000D02*
X114202064Y-121490000D01*
X112997936Y-123310000D02*
X114202064Y-123310000D01*
X118228733Y-122290000D02*
X118571267Y-122290000D01*
X118228733Y-123310000D02*
X118571267Y-123310000D01*
X151160000Y-92385436D02*
X151160000Y-93589564D01*
X149340000Y-92385436D02*
X149340000Y-93589564D01*
X143510000Y-89428733D02*
X143510000Y-89771267D01*
X142490000Y-89428733D02*
X142490000Y-89771267D01*
X108171267Y-110760000D02*
X107828733Y-110760000D01*
X108171267Y-109740000D02*
X107828733Y-109740000D01*
X125971267Y-84910000D02*
X125628733Y-84910000D01*
X125971267Y-83890000D02*
X125628733Y-83890000D01*
X129371267Y-84910000D02*
X129028733Y-84910000D01*
X129371267Y-83890000D02*
X129028733Y-83890000D01*
X119921267Y-73760000D02*
X119578733Y-73760000D01*
X119921267Y-72740000D02*
X119578733Y-72740000D01*
X130990000Y-70921267D02*
X130990000Y-70578733D01*
X132010000Y-70921267D02*
X132010000Y-70578733D01*
X127990000Y-70921267D02*
X127990000Y-70578733D01*
X129010000Y-70921267D02*
X129010000Y-70578733D01*
X129240000Y-66671267D02*
X129240000Y-66328733D01*
X130260000Y-66671267D02*
X130260000Y-66328733D01*
X124500000Y-122600000D02*
X124500000Y-128300000D01*
X124500000Y-128300000D02*
X127500000Y-128300000D01*
X127500000Y-128300000D02*
X127500000Y-122600000D01*
X140500000Y-122600000D02*
X140500000Y-128300000D01*
X140500000Y-128300000D02*
X143500000Y-128300000D01*
X143500000Y-128300000D02*
X143500000Y-122600000D01*
X182090000Y-96089564D02*
X182090000Y-94885436D01*
X183910000Y-96089564D02*
X183910000Y-94885436D01*
X156500000Y-122600000D02*
X156500000Y-128300000D01*
X156500000Y-128300000D02*
X159500000Y-128300000D01*
X159500000Y-128300000D02*
X159500000Y-122600000D01*
X172500000Y-122600000D02*
X172500000Y-128300000D01*
X172500000Y-128300000D02*
X175500000Y-128300000D01*
X175500000Y-128300000D02*
X175500000Y-122600000D01*
X187300000Y-122400000D02*
X187300000Y-128100000D01*
X187300000Y-128100000D02*
X190300000Y-128100000D01*
X190300000Y-128100000D02*
X190300000Y-122400000D01*
X195000000Y-94730000D02*
G75*
G03*
X195000000Y-94730000I-4000000J0D01*
G01*
X188858000Y-98790000D02*
X193142000Y-98790000D01*
X190999514Y-90140000D02*
G75*
G02*
X193141145Y-98790000I486J-4590000D01*
G01*
X191000486Y-90140000D02*
G75*
G03*
X188858855Y-98790000I-486J-4590000D01*
G01*
X114390000Y-124290000D02*
X114390000Y-128310000D01*
X114390000Y-128310000D02*
X122110000Y-128310000D01*
X122110000Y-128310000D02*
X122110000Y-124290000D01*
X122110000Y-124290000D02*
X114390000Y-124290000D01*
X114390000Y-126000000D02*
X114890000Y-126000000D01*
X114890000Y-126000000D02*
X114890000Y-124790000D01*
X114890000Y-124790000D02*
X121610000Y-124790000D01*
X121610000Y-124790000D02*
X121610000Y-126000000D01*
X121610000Y-126000000D02*
X122110000Y-126000000D01*
X114390000Y-126810000D02*
X115390000Y-126810000D01*
X115390000Y-126810000D02*
X115390000Y-128310000D01*
X122110000Y-126810000D02*
X121110000Y-126810000D01*
X121110000Y-126810000D02*
X121110000Y-128310000D01*
X114090000Y-126110000D02*
X114090000Y-128610000D01*
X114090000Y-128610000D02*
X116590000Y-128610000D01*
X130390000Y-124290000D02*
X130390000Y-128310000D01*
X130390000Y-128310000D02*
X138110000Y-128310000D01*
X138110000Y-128310000D02*
X138110000Y-124290000D01*
X138110000Y-124290000D02*
X130390000Y-124290000D01*
X130390000Y-126000000D02*
X130890000Y-126000000D01*
X130890000Y-126000000D02*
X130890000Y-124790000D01*
X130890000Y-124790000D02*
X137610000Y-124790000D01*
X137610000Y-124790000D02*
X137610000Y-126000000D01*
X137610000Y-126000000D02*
X138110000Y-126000000D01*
X130390000Y-126810000D02*
X131390000Y-126810000D01*
X131390000Y-126810000D02*
X131390000Y-128310000D01*
X138110000Y-126810000D02*
X137110000Y-126810000D01*
X137110000Y-126810000D02*
X137110000Y-128310000D01*
X130090000Y-126110000D02*
X130090000Y-128610000D01*
X130090000Y-128610000D02*
X132590000Y-128610000D01*
X162390000Y-124290000D02*
X162390000Y-128310000D01*
X162390000Y-128310000D02*
X170110000Y-128310000D01*
X170110000Y-128310000D02*
X170110000Y-124290000D01*
X170110000Y-124290000D02*
X162390000Y-124290000D01*
X162390000Y-126000000D02*
X162890000Y-126000000D01*
X162890000Y-126000000D02*
X162890000Y-124790000D01*
X162890000Y-124790000D02*
X169610000Y-124790000D01*
X169610000Y-124790000D02*
X169610000Y-126000000D01*
X169610000Y-126000000D02*
X170110000Y-126000000D01*
X162390000Y-126810000D02*
X163390000Y-126810000D01*
X163390000Y-126810000D02*
X163390000Y-128310000D01*
X170110000Y-126810000D02*
X169110000Y-126810000D01*
X169110000Y-126810000D02*
X169110000Y-128310000D01*
X162090000Y-126110000D02*
X162090000Y-128610000D01*
X162090000Y-128610000D02*
X164590000Y-128610000D01*
X178390000Y-124290000D02*
X178390000Y-128310000D01*
X178390000Y-128310000D02*
X186110000Y-128310000D01*
X186110000Y-128310000D02*
X186110000Y-124290000D01*
X186110000Y-124290000D02*
X178390000Y-124290000D01*
X178390000Y-126000000D02*
X178890000Y-126000000D01*
X178890000Y-126000000D02*
X178890000Y-124790000D01*
X178890000Y-124790000D02*
X185610000Y-124790000D01*
X185610000Y-124790000D02*
X185610000Y-126000000D01*
X185610000Y-126000000D02*
X186110000Y-126000000D01*
X178390000Y-126810000D02*
X179390000Y-126810000D01*
X179390000Y-126810000D02*
X179390000Y-128310000D01*
X186110000Y-126810000D02*
X185110000Y-126810000D01*
X185110000Y-126810000D02*
X185110000Y-128310000D01*
X178090000Y-126110000D02*
X178090000Y-128610000D01*
X178090000Y-128610000D02*
X180590000Y-128610000D01*
X130730000Y-63549000D02*
X146870000Y-63549000D01*
X130730000Y-68820000D02*
X146870000Y-68820000D01*
X130730000Y-63549000D02*
X130730000Y-68820000D01*
X146870000Y-63549000D02*
X146870000Y-68820000D01*
X136996000Y-63549000D02*
X136996000Y-68820000D01*
X140605000Y-63549000D02*
X140605000Y-68820000D01*
X172930000Y-63549000D02*
X189070000Y-63549000D01*
X172930000Y-68820000D02*
X189070000Y-68820000D01*
X172930000Y-63549000D02*
X172930000Y-68820000D01*
X189070000Y-63549000D02*
X189070000Y-68820000D01*
X179196000Y-63549000D02*
X179196000Y-68820000D01*
X182805000Y-63549000D02*
X182805000Y-68820000D01*
X151171267Y-109510000D02*
X150828733Y-109510000D01*
X151171267Y-108490000D02*
X150828733Y-108490000D01*
X134828733Y-105490000D02*
X135171267Y-105490000D01*
X134828733Y-106510000D02*
X135171267Y-106510000D01*
X158740000Y-118421267D02*
X158740000Y-118078733D01*
X159760000Y-118421267D02*
X159760000Y-118078733D01*
X125971267Y-83310000D02*
X125628733Y-83310000D01*
X125971267Y-82290000D02*
X125628733Y-82290000D01*
X129371267Y-83310000D02*
X129028733Y-83310000D01*
X129371267Y-82290000D02*
X129028733Y-82290000D01*
X145428733Y-85890000D02*
X145771267Y-85890000D01*
X145428733Y-86910000D02*
X145771267Y-86910000D01*
X148828733Y-85890000D02*
X149171267Y-85890000D01*
X148828733Y-86910000D02*
X149171267Y-86910000D01*
X183760000Y-90828733D02*
X183760000Y-91171267D01*
X182740000Y-90828733D02*
X182740000Y-91171267D01*
X132428733Y-88490000D02*
X132771267Y-88490000D01*
X132428733Y-89510000D02*
X132771267Y-89510000D01*
X132771267Y-87910000D02*
X132428733Y-87910000D01*
X132771267Y-86890000D02*
X132428733Y-86890000D01*
X118328733Y-79240000D02*
X118671267Y-79240000D01*
X118328733Y-80260000D02*
X118671267Y-80260000D01*
X121828733Y-79240000D02*
X122171267Y-79240000D01*
X121828733Y-80260000D02*
X122171267Y-80260000D01*
X128260000Y-77328733D02*
X128260000Y-77671267D01*
X127240000Y-77328733D02*
X127240000Y-77671267D01*
X131510000Y-77328733D02*
X131510000Y-77671267D01*
X130490000Y-77328733D02*
X130490000Y-77671267D01*
D15*
X161747520Y-113000000D02*
G75*
G03*
X161747520Y-113000000I-1747520J0D01*
G01*
X156901200Y-113998220D02*
X156901200Y-112001780D01*
X161498600Y-116098800D02*
X158501400Y-116098800D01*
X163098800Y-113998220D02*
X163098800Y-112001780D01*
X161498600Y-109901200D02*
X158501400Y-109901200D01*
X192747520Y-113000000D02*
G75*
G03*
X192747520Y-113000000I-1747520J0D01*
G01*
X194098800Y-112001780D02*
X194098800Y-113998220D01*
X189501400Y-109901200D02*
X192498600Y-109901200D01*
X187901200Y-112001780D02*
X187901200Y-113998220D01*
X189501400Y-116098800D02*
X192498600Y-116098800D01*
D12*
X146110000Y-98610000D02*
X146110000Y-97350000D01*
X146110000Y-91790000D02*
X146110000Y-93050000D01*
X142350000Y-98610000D02*
X146110000Y-98610000D01*
X140100000Y-91790000D02*
X146110000Y-91790000D01*
X146310000Y-106610000D02*
X146310000Y-105350000D01*
X146310000Y-99790000D02*
X146310000Y-101050000D01*
X142550000Y-106610000D02*
X146310000Y-106610000D01*
X140300000Y-99790000D02*
X146310000Y-99790000D01*
D14*
X124825000Y-72225000D02*
X124825000Y-72050000D01*
X121575000Y-72225000D02*
X121575000Y-71950000D01*
X121575000Y-68975000D02*
X121575000Y-69250000D01*
X124825000Y-68975000D02*
X124825000Y-69250000D01*
X124825000Y-72225000D02*
X121575000Y-72225000D01*
X124825000Y-68975000D02*
X121575000Y-68975000D01*
X124825000Y-72050000D02*
X125900000Y-72050000D01*
D12*
X136250000Y-69190000D02*
X134300000Y-69190000D01*
X136250000Y-69190000D02*
X138200000Y-69190000D01*
X136250000Y-74310000D02*
X134300000Y-74310000D01*
X136250000Y-74310000D02*
X139700000Y-74310000D01*
X128030000Y-63650000D02*
X124430000Y-63650000D01*
X124391522Y-63661522D02*
G75*
G03*
X126230000Y-68100000I1838478J-1838478D01*
G01*
X128068478Y-63661522D02*
G75*
G02*
X126230000Y-68100000I-1838478J-1838478D01*
G01*
X142797369Y-79460000D02*
X141202631Y-79460000D01*
X142797369Y-75040000D02*
X141202631Y-75040000D01*
X132771267Y-92710000D02*
X132428733Y-92710000D01*
X132771267Y-91690000D02*
X132428733Y-91690000D01*
X132771267Y-91110000D02*
X132428733Y-91110000D01*
X132771267Y-90090000D02*
X132428733Y-90090000D01*
X110028733Y-68690000D02*
X110371267Y-68690000D01*
X110028733Y-69710000D02*
X110371267Y-69710000D01*
X110371267Y-72910000D02*
X110028733Y-72910000D01*
X110371267Y-71890000D02*
X110028733Y-71890000D01*
X110600000Y-111400000D02*
X110600000Y-113500000D01*
X96200000Y-111400000D02*
X110600000Y-111400000D01*
X110600000Y-120600000D02*
X109700000Y-120600000D01*
X110600000Y-118500000D02*
X110600000Y-120600000D01*
X96200000Y-120600000D02*
X96200000Y-111400000D01*
X104900000Y-120600000D02*
X96200000Y-120600000D01*
X109750000Y-111200000D02*
X110800000Y-111200000D01*
X110800000Y-112250000D02*
X110800000Y-111200000D01*
X151171267Y-107760000D02*
X150828733Y-107760000D01*
X151171267Y-106740000D02*
X150828733Y-106740000D01*
X174753733Y-106090000D02*
X175096267Y-106090000D01*
X174753733Y-107110000D02*
X175096267Y-107110000D01*
X147078733Y-107240000D02*
X147421267Y-107240000D01*
X147078733Y-108260000D02*
X147421267Y-108260000D01*
X140600000Y-81990000D02*
X139100000Y-81990000D01*
X140600000Y-81990000D02*
X142100000Y-81990000D01*
X140600000Y-85210000D02*
X139100000Y-85210000D01*
X140600000Y-85210000D02*
X143475000Y-85210000D01*
X132000000Y-97110000D02*
X138935000Y-97110000D01*
X138935000Y-97110000D02*
X138935000Y-93690000D01*
X138935000Y-93690000D02*
X132000000Y-93690000D01*
X169550000Y-111510000D02*
X176485000Y-111510000D01*
X176485000Y-111510000D02*
X176485000Y-108090000D01*
X176485000Y-108090000D02*
X169550000Y-108090000D01*
X132000000Y-104910000D02*
X138935000Y-104910000D01*
X138935000Y-104910000D02*
X138935000Y-101490000D01*
X138935000Y-101490000D02*
X132000000Y-101490000D01*
X112421267Y-63740000D02*
X112078733Y-63740000D01*
X112421267Y-64760000D02*
X112078733Y-64760000D01*
X136500000Y-99100000D02*
X132700000Y-99100000D01*
X136500000Y-100900000D02*
X136500000Y-99100000D01*
X132700000Y-100900000D02*
X136500000Y-100900000D01*
X119850000Y-74350000D02*
X116050000Y-74350000D01*
X116050000Y-74350000D02*
X116050000Y-76150000D01*
X116050000Y-76150000D02*
X119850000Y-76150000D01*
X123150000Y-68650000D02*
X123150000Y-64850000D01*
X121350000Y-68650000D02*
X123150000Y-68650000D01*
X121350000Y-64850000D02*
X121350000Y-68650000D01*
X117900000Y-72300000D02*
X117900000Y-68500000D01*
X117900000Y-68500000D02*
X116100000Y-68500000D01*
X116100000Y-68500000D02*
X116100000Y-72300000D01*
X110390000Y-83540000D02*
X110390000Y-87560000D01*
X110390000Y-87560000D02*
X120610000Y-87560000D01*
X120610000Y-87560000D02*
X120610000Y-83540000D01*
X120610000Y-83540000D02*
X110390000Y-83540000D01*
X110390000Y-85250000D02*
X110890000Y-85250000D01*
X110890000Y-85250000D02*
X110890000Y-84040000D01*
X110890000Y-84040000D02*
X120110000Y-84040000D01*
X120110000Y-84040000D02*
X120110000Y-85250000D01*
X120110000Y-85250000D02*
X120610000Y-85250000D01*
X110390000Y-86060000D02*
X111390000Y-86060000D01*
X111390000Y-86060000D02*
X111390000Y-87560000D01*
X120610000Y-86060000D02*
X119610000Y-86060000D01*
X119610000Y-86060000D02*
X119610000Y-87560000D01*
X110090000Y-85360000D02*
X110090000Y-87860000D01*
X110090000Y-87860000D02*
X112590000Y-87860000D01*
X132150000Y-119655000D02*
X132150000Y-117115000D01*
X132150000Y-119655000D02*
X134690000Y-119655000D01*
X132400000Y-119405000D02*
X132400000Y-110055000D01*
X153260000Y-119405000D02*
X132400000Y-119405000D01*
X153260000Y-110055000D02*
X153260000Y-119405000D01*
X132400000Y-110055000D02*
X153260000Y-110055000D01*
X145353733Y-89710000D02*
X145696267Y-89710000D01*
X145353733Y-88690000D02*
X145696267Y-88690000D01*
X148828733Y-89710000D02*
X149171267Y-89710000D01*
X148828733Y-88690000D02*
X149171267Y-88690000D01*
X148828733Y-82890000D02*
X149171267Y-82890000D01*
X148828733Y-83910000D02*
X149171267Y-83910000D01*
X148828733Y-81290000D02*
X149171267Y-81290000D01*
X148828733Y-82310000D02*
X149171267Y-82310000D01*
X139028733Y-87090000D02*
X139371267Y-87090000D01*
X139028733Y-88110000D02*
X139371267Y-88110000D01*
X139028733Y-91110000D02*
X139371267Y-91110000D01*
X139028733Y-90090000D02*
X139371267Y-90090000D01*
X110371267Y-66710000D02*
X110028733Y-66710000D01*
X110371267Y-65690000D02*
X110028733Y-65690000D01*
X114171267Y-75090000D02*
X113828733Y-75090000D01*
X114171267Y-76110000D02*
X113828733Y-76110000D01*
X107371267Y-76110000D02*
X107028733Y-76110000D01*
X107371267Y-75090000D02*
X107028733Y-75090000D01*
X110771267Y-75090000D02*
X110428733Y-75090000D01*
X110771267Y-76110000D02*
X110428733Y-76110000D01*
X115578733Y-64760000D02*
X115921267Y-64760000D01*
X115578733Y-63740000D02*
X115921267Y-63740000D01*
D16*
X112620000Y-65680000D02*
X113000000Y-65410000D01*
X112620000Y-65700000D02*
X112620000Y-65680000D01*
X112620000Y-65740000D02*
X112620000Y-65700000D01*
X112620000Y-66580000D02*
X112620000Y-65740000D01*
X112460000Y-66580000D02*
X112620000Y-66580000D01*
X115400000Y-69650000D02*
X114900000Y-69650000D01*
X115400000Y-69650000D02*
X115400000Y-69150000D01*
X112600000Y-69600000D02*
X112600000Y-69100000D01*
X115400000Y-65350000D02*
X115400000Y-65850000D01*
X115400000Y-65350000D02*
X114900000Y-65350000D01*
X112600000Y-69650000D02*
X113000000Y-69650000D01*
X113000000Y-69650000D02*
X113100000Y-69650000D01*
D12*
X115171267Y-80260000D02*
X114828733Y-80260000D01*
X115171267Y-79240000D02*
X114828733Y-79240000D01*
X111328733Y-80260000D02*
X111671267Y-80260000D01*
X111328733Y-79240000D02*
X111671267Y-79240000D01*
X104810000Y-89510000D02*
X104810000Y-87010000D01*
X102310000Y-89510000D02*
X104810000Y-89510000D01*
X103010000Y-77490000D02*
X104510000Y-77490000D01*
X103010000Y-76490000D02*
X103010000Y-77490000D01*
X103010000Y-88210000D02*
X104510000Y-88210000D01*
X103010000Y-89210000D02*
X103010000Y-88210000D01*
X102200000Y-76990000D02*
X102200000Y-76490000D01*
X100990000Y-76990000D02*
X102200000Y-76990000D01*
X100990000Y-88710000D02*
X100990000Y-76990000D01*
X102200000Y-88710000D02*
X100990000Y-88710000D01*
X102200000Y-89210000D02*
X102200000Y-88710000D01*
X100490000Y-76490000D02*
X100490000Y-89210000D01*
X104510000Y-76490000D02*
X100490000Y-76490000D01*
X104510000Y-89210000D02*
X104510000Y-76490000D01*
X100490000Y-89210000D02*
X104510000Y-89210000D01*
D16*
X175448600Y-102047500D02*
G75*
G03*
X175448600Y-102047500I-813600J0D01*
G01*
X175448600Y-99507500D02*
G75*
G03*
X175448600Y-99507500I-813600J0D01*
G01*
X175448600Y-91379500D02*
G75*
G03*
X175448600Y-91379500I-813600J0D01*
G01*
X175448600Y-88839500D02*
G75*
G03*
X175448600Y-88839500I-813600J0D01*
G01*
X156906600Y-102047500D02*
G75*
G03*
X156906600Y-102047500I-813600J0D01*
G01*
X156906600Y-99507500D02*
G75*
G03*
X156906600Y-99507500I-813600J0D01*
G01*
X156906600Y-91379500D02*
G75*
G03*
X156906600Y-91379500I-813600J0D01*
G01*
X156906600Y-88839500D02*
G75*
G03*
X156906600Y-88839500I-813600J0D01*
G01*
D14*
X151900095Y-86737880D02*
X151900095Y-87547404D01*
X151947714Y-87642642D01*
X151995333Y-87690261D01*
X152090571Y-87737880D01*
X152281047Y-87737880D01*
X152376285Y-87690261D01*
X152423904Y-87642642D01*
X152471523Y-87547404D01*
X152471523Y-86737880D01*
X153471523Y-87737880D02*
X152900095Y-87737880D01*
X153185809Y-87737880D02*
X153185809Y-86737880D01*
X153090571Y-86880738D01*
X152995333Y-86975976D01*
X152900095Y-87023595D01*
X157236142Y-100594928D02*
X157998047Y-100594928D01*
X157617095Y-100975880D02*
X157617095Y-100213976D01*
X158474238Y-100975880D02*
X158474238Y-99975880D01*
X158950428Y-100975880D02*
X158950428Y-99975880D01*
X159521857Y-100975880D01*
X159521857Y-99975880D01*
X157236142Y-89799928D02*
X157998047Y-89799928D01*
X158474238Y-90180880D02*
X158474238Y-89180880D01*
X158950428Y-90180880D02*
X158950428Y-89180880D01*
X159521857Y-90180880D01*
X159521857Y-89180880D01*
X169269476Y-90434928D02*
X170031380Y-90434928D01*
X170698047Y-89815880D02*
X170888523Y-89815880D01*
X170983761Y-89863500D01*
X171079000Y-89958738D01*
X171126619Y-90149214D01*
X171126619Y-90482547D01*
X171079000Y-90673023D01*
X170983761Y-90768261D01*
X170888523Y-90815880D01*
X170698047Y-90815880D01*
X170602809Y-90768261D01*
X170507571Y-90673023D01*
X170459952Y-90482547D01*
X170459952Y-90149214D01*
X170507571Y-89958738D01*
X170602809Y-89863500D01*
X170698047Y-89815880D01*
X171555190Y-89815880D02*
X171555190Y-90625404D01*
X171602809Y-90720642D01*
X171650428Y-90768261D01*
X171745666Y-90815880D01*
X171936142Y-90815880D01*
X172031380Y-90768261D01*
X172079000Y-90720642D01*
X172126619Y-90625404D01*
X172126619Y-89815880D01*
X172459952Y-89815880D02*
X173031380Y-89815880D01*
X172745666Y-90815880D02*
X172745666Y-89815880D01*
X169269476Y-100594928D02*
X170031380Y-100594928D01*
X169650428Y-100975880D02*
X169650428Y-100213976D01*
X170698047Y-99975880D02*
X170888523Y-99975880D01*
X170983761Y-100023500D01*
X171079000Y-100118738D01*
X171126619Y-100309214D01*
X171126619Y-100642547D01*
X171079000Y-100833023D01*
X170983761Y-100928261D01*
X170888523Y-100975880D01*
X170698047Y-100975880D01*
X170602809Y-100928261D01*
X170507571Y-100833023D01*
X170459952Y-100642547D01*
X170459952Y-100309214D01*
X170507571Y-100118738D01*
X170602809Y-100023500D01*
X170698047Y-99975880D01*
X171555190Y-99975880D02*
X171555190Y-100785404D01*
X171602809Y-100880642D01*
X171650428Y-100928261D01*
X171745666Y-100975880D01*
X171936142Y-100975880D01*
X172031380Y-100928261D01*
X172079000Y-100880642D01*
X172126619Y-100785404D01*
X172126619Y-99975880D01*
X172459952Y-99975880D02*
X173031380Y-99975880D01*
X172745666Y-100975880D02*
X172745666Y-99975880D01*
X111348380Y-115539523D02*
X112062666Y-115539523D01*
X112205523Y-115587142D01*
X112300761Y-115682380D01*
X112348380Y-115825238D01*
X112348380Y-115920476D01*
X112348380Y-114539523D02*
X112348380Y-115110952D01*
X112348380Y-114825238D02*
X111348380Y-114825238D01*
X111491238Y-114920476D01*
X111586476Y-115015714D01*
X111634095Y-115110952D01*
X111348380Y-114206190D02*
X111348380Y-113587142D01*
X111729333Y-113920476D01*
X111729333Y-113777619D01*
X111776952Y-113682380D01*
X111824571Y-113634761D01*
X111919809Y-113587142D01*
X112157904Y-113587142D01*
X112253142Y-113634761D01*
X112300761Y-113682380D01*
X112348380Y-113777619D01*
X112348380Y-114063333D01*
X112300761Y-114158571D01*
X112253142Y-114206190D01*
X159904761Y-63097619D02*
X159809523Y-63050000D01*
X159714285Y-62954761D01*
X159571428Y-62811904D01*
X159476190Y-62764285D01*
X159380952Y-62764285D01*
X159428571Y-63002380D02*
X159333333Y-62954761D01*
X159238095Y-62859523D01*
X159190476Y-62669047D01*
X159190476Y-62335714D01*
X159238095Y-62145238D01*
X159333333Y-62050000D01*
X159428571Y-62002380D01*
X159619047Y-62002380D01*
X159714285Y-62050000D01*
X159809523Y-62145238D01*
X159857142Y-62335714D01*
X159857142Y-62669047D01*
X159809523Y-62859523D01*
X159714285Y-62954761D01*
X159619047Y-63002380D01*
X159428571Y-63002380D01*
X160428571Y-62430952D02*
X160333333Y-62383333D01*
X160285714Y-62335714D01*
X160238095Y-62240476D01*
X160238095Y-62192857D01*
X160285714Y-62097619D01*
X160333333Y-62050000D01*
X160428571Y-62002380D01*
X160619047Y-62002380D01*
X160714285Y-62050000D01*
X160761904Y-62097619D01*
X160809523Y-62192857D01*
X160809523Y-62240476D01*
X160761904Y-62335714D01*
X160714285Y-62383333D01*
X160619047Y-62430952D01*
X160428571Y-62430952D01*
X160333333Y-62478571D01*
X160285714Y-62526190D01*
X160238095Y-62621428D01*
X160238095Y-62811904D01*
X160285714Y-62907142D01*
X160333333Y-62954761D01*
X160428571Y-63002380D01*
X160619047Y-63002380D01*
X160714285Y-62954761D01*
X160761904Y-62907142D01*
X160809523Y-62811904D01*
X160809523Y-62621428D01*
X160761904Y-62526190D01*
X160714285Y-62478571D01*
X160619047Y-62430952D01*
X187904761Y-121147619D02*
X187809523Y-121100000D01*
X187714285Y-121004761D01*
X187571428Y-120861904D01*
X187476190Y-120814285D01*
X187380952Y-120814285D01*
X187428571Y-121052380D02*
X187333333Y-121004761D01*
X187238095Y-120909523D01*
X187190476Y-120719047D01*
X187190476Y-120385714D01*
X187238095Y-120195238D01*
X187333333Y-120100000D01*
X187428571Y-120052380D01*
X187619047Y-120052380D01*
X187714285Y-120100000D01*
X187809523Y-120195238D01*
X187857142Y-120385714D01*
X187857142Y-120719047D01*
X187809523Y-120909523D01*
X187714285Y-121004761D01*
X187619047Y-121052380D01*
X187428571Y-121052380D01*
X188190476Y-120052380D02*
X188857142Y-120052380D01*
X188428571Y-121052380D01*
X173104761Y-121347619D02*
X173009523Y-121300000D01*
X172914285Y-121204761D01*
X172771428Y-121061904D01*
X172676190Y-121014285D01*
X172580952Y-121014285D01*
X172628571Y-121252380D02*
X172533333Y-121204761D01*
X172438095Y-121109523D01*
X172390476Y-120919047D01*
X172390476Y-120585714D01*
X172438095Y-120395238D01*
X172533333Y-120300000D01*
X172628571Y-120252380D01*
X172819047Y-120252380D01*
X172914285Y-120300000D01*
X173009523Y-120395238D01*
X173057142Y-120585714D01*
X173057142Y-120919047D01*
X173009523Y-121109523D01*
X172914285Y-121204761D01*
X172819047Y-121252380D01*
X172628571Y-121252380D01*
X173961904Y-120252380D02*
X173485714Y-120252380D01*
X173438095Y-120728571D01*
X173485714Y-120680952D01*
X173580952Y-120633333D01*
X173819047Y-120633333D01*
X173914285Y-120680952D01*
X173961904Y-120728571D01*
X174009523Y-120823809D01*
X174009523Y-121061904D01*
X173961904Y-121157142D01*
X173914285Y-121204761D01*
X173819047Y-121252380D01*
X173580952Y-121252380D01*
X173485714Y-121204761D01*
X173438095Y-121157142D01*
X157104761Y-121347619D02*
X157009523Y-121300000D01*
X156914285Y-121204761D01*
X156771428Y-121061904D01*
X156676190Y-121014285D01*
X156580952Y-121014285D01*
X156628571Y-121252380D02*
X156533333Y-121204761D01*
X156438095Y-121109523D01*
X156390476Y-120919047D01*
X156390476Y-120585714D01*
X156438095Y-120395238D01*
X156533333Y-120300000D01*
X156628571Y-120252380D01*
X156819047Y-120252380D01*
X156914285Y-120300000D01*
X157009523Y-120395238D01*
X157057142Y-120585714D01*
X157057142Y-120919047D01*
X157009523Y-121109523D01*
X156914285Y-121204761D01*
X156819047Y-121252380D01*
X156628571Y-121252380D01*
X157390476Y-120252380D02*
X158009523Y-120252380D01*
X157676190Y-120633333D01*
X157819047Y-120633333D01*
X157914285Y-120680952D01*
X157961904Y-120728571D01*
X158009523Y-120823809D01*
X158009523Y-121061904D01*
X157961904Y-121157142D01*
X157914285Y-121204761D01*
X157819047Y-121252380D01*
X157533333Y-121252380D01*
X157438095Y-121204761D01*
X157390476Y-121157142D01*
X141104761Y-121347619D02*
X141009523Y-121300000D01*
X140914285Y-121204761D01*
X140771428Y-121061904D01*
X140676190Y-121014285D01*
X140580952Y-121014285D01*
X140628571Y-121252380D02*
X140533333Y-121204761D01*
X140438095Y-121109523D01*
X140390476Y-120919047D01*
X140390476Y-120585714D01*
X140438095Y-120395238D01*
X140533333Y-120300000D01*
X140628571Y-120252380D01*
X140819047Y-120252380D01*
X140914285Y-120300000D01*
X141009523Y-120395238D01*
X141057142Y-120585714D01*
X141057142Y-120919047D01*
X141009523Y-121109523D01*
X140914285Y-121204761D01*
X140819047Y-121252380D01*
X140628571Y-121252380D01*
X141438095Y-120347619D02*
X141485714Y-120300000D01*
X141580952Y-120252380D01*
X141819047Y-120252380D01*
X141914285Y-120300000D01*
X141961904Y-120347619D01*
X142009523Y-120442857D01*
X142009523Y-120538095D01*
X141961904Y-120680952D01*
X141390476Y-121252380D01*
X142009523Y-121252380D01*
X125104761Y-121347619D02*
X125009523Y-121300000D01*
X124914285Y-121204761D01*
X124771428Y-121061904D01*
X124676190Y-121014285D01*
X124580952Y-121014285D01*
X124628571Y-121252380D02*
X124533333Y-121204761D01*
X124438095Y-121109523D01*
X124390476Y-120919047D01*
X124390476Y-120585714D01*
X124438095Y-120395238D01*
X124533333Y-120300000D01*
X124628571Y-120252380D01*
X124819047Y-120252380D01*
X124914285Y-120300000D01*
X125009523Y-120395238D01*
X125057142Y-120585714D01*
X125057142Y-120919047D01*
X125009523Y-121109523D01*
X124914285Y-121204761D01*
X124819047Y-121252380D01*
X124628571Y-121252380D01*
X126009523Y-121252380D02*
X125438095Y-121252380D01*
X125723809Y-121252380D02*
X125723809Y-120252380D01*
X125628571Y-120395238D01*
X125533333Y-120490476D01*
X125438095Y-120538095D01*
X153266666Y-129052380D02*
X153266666Y-129766666D01*
X153219047Y-129909523D01*
X153123809Y-130004761D01*
X152980952Y-130052380D01*
X152885714Y-130052380D01*
X154171428Y-129385714D02*
X154171428Y-130052380D01*
X153933333Y-129004761D02*
X153695238Y-129719047D01*
X154314285Y-129719047D01*
X156202380Y-118416666D02*
X155726190Y-118750000D01*
X156202380Y-118988095D02*
X155202380Y-118988095D01*
X155202380Y-118607142D01*
X155250000Y-118511904D01*
X155297619Y-118464285D01*
X155392857Y-118416666D01*
X155535714Y-118416666D01*
X155630952Y-118464285D01*
X155678571Y-118511904D01*
X155726190Y-118607142D01*
X155726190Y-118988095D01*
X155535714Y-117559523D02*
X156202380Y-117559523D01*
X155154761Y-117797619D02*
X155869047Y-118035714D01*
X155869047Y-117416666D01*
X127252380Y-98811904D02*
X128061904Y-98811904D01*
X128157142Y-98764285D01*
X128204761Y-98716666D01*
X128252380Y-98621428D01*
X128252380Y-98430952D01*
X128204761Y-98335714D01*
X128157142Y-98288095D01*
X128061904Y-98240476D01*
X127252380Y-98240476D01*
X127252380Y-97288095D02*
X127252380Y-97764285D01*
X127728571Y-97811904D01*
X127680952Y-97764285D01*
X127633333Y-97669047D01*
X127633333Y-97430952D01*
X127680952Y-97335714D01*
X127728571Y-97288095D01*
X127823809Y-97240476D01*
X128061904Y-97240476D01*
X128157142Y-97288095D01*
X128204761Y-97335714D01*
X128252380Y-97430952D01*
X128252380Y-97669047D01*
X128204761Y-97764285D01*
X128157142Y-97811904D01*
X107093619Y-93521571D02*
X107426952Y-93521571D01*
X107569809Y-94045380D02*
X107093619Y-94045380D01*
X107093619Y-93045380D01*
X107569809Y-93045380D01*
X107950761Y-93997761D02*
X108093619Y-94045380D01*
X108331714Y-94045380D01*
X108426952Y-93997761D01*
X108474571Y-93950142D01*
X108522190Y-93854904D01*
X108522190Y-93759666D01*
X108474571Y-93664428D01*
X108426952Y-93616809D01*
X108331714Y-93569190D01*
X108141238Y-93521571D01*
X108046000Y-93473952D01*
X107998380Y-93426333D01*
X107950761Y-93331095D01*
X107950761Y-93235857D01*
X107998380Y-93140619D01*
X108046000Y-93093000D01*
X108141238Y-93045380D01*
X108379333Y-93045380D01*
X108522190Y-93093000D01*
X108950761Y-94045380D02*
X108950761Y-93045380D01*
X109331714Y-93045380D01*
X109426952Y-93093000D01*
X109474571Y-93140619D01*
X109522190Y-93235857D01*
X109522190Y-93378714D01*
X109474571Y-93473952D01*
X109426952Y-93521571D01*
X109331714Y-93569190D01*
X108950761Y-93569190D01*
X109855523Y-93045380D02*
X110474571Y-93045380D01*
X110141238Y-93426333D01*
X110284095Y-93426333D01*
X110379333Y-93473952D01*
X110426952Y-93521571D01*
X110474571Y-93616809D01*
X110474571Y-93854904D01*
X110426952Y-93950142D01*
X110379333Y-93997761D01*
X110284095Y-94045380D01*
X109998380Y-94045380D01*
X109903142Y-93997761D01*
X109855523Y-93950142D01*
X110855523Y-93140619D02*
X110903142Y-93093000D01*
X110998380Y-93045380D01*
X111236476Y-93045380D01*
X111331714Y-93093000D01*
X111379333Y-93140619D01*
X111426952Y-93235857D01*
X111426952Y-93331095D01*
X111379333Y-93473952D01*
X110807904Y-94045380D01*
X111426952Y-94045380D01*
X111855523Y-93664428D02*
X112617428Y-93664428D01*
X112998380Y-93045380D02*
X113236476Y-94045380D01*
X113426952Y-93331095D01*
X113617428Y-94045380D01*
X113855523Y-93045380D01*
X114807904Y-94045380D02*
X114474571Y-93569190D01*
X114236476Y-94045380D02*
X114236476Y-93045380D01*
X114617428Y-93045380D01*
X114712666Y-93093000D01*
X114760285Y-93140619D01*
X114807904Y-93235857D01*
X114807904Y-93378714D01*
X114760285Y-93473952D01*
X114712666Y-93521571D01*
X114617428Y-93569190D01*
X114236476Y-93569190D01*
X115426952Y-93045380D02*
X115617428Y-93045380D01*
X115712666Y-93093000D01*
X115807904Y-93188238D01*
X115855523Y-93378714D01*
X115855523Y-93712047D01*
X115807904Y-93902523D01*
X115712666Y-93997761D01*
X115617428Y-94045380D01*
X115426952Y-94045380D01*
X115331714Y-93997761D01*
X115236476Y-93902523D01*
X115188857Y-93712047D01*
X115188857Y-93378714D01*
X115236476Y-93188238D01*
X115331714Y-93093000D01*
X115426952Y-93045380D01*
X116474571Y-93045380D02*
X116665047Y-93045380D01*
X116760285Y-93093000D01*
X116855523Y-93188238D01*
X116903142Y-93378714D01*
X116903142Y-93712047D01*
X116855523Y-93902523D01*
X116760285Y-93997761D01*
X116665047Y-94045380D01*
X116474571Y-94045380D01*
X116379333Y-93997761D01*
X116284095Y-93902523D01*
X116236476Y-93712047D01*
X116236476Y-93378714D01*
X116284095Y-93188238D01*
X116379333Y-93093000D01*
X116474571Y-93045380D01*
X117331714Y-94045380D02*
X117331714Y-93045380D01*
X117665047Y-93759666D01*
X117998380Y-93045380D01*
X117998380Y-94045380D01*
X107117571Y-91870571D02*
X107450904Y-91870571D01*
X107593761Y-92394380D02*
X107117571Y-92394380D01*
X107117571Y-91394380D01*
X107593761Y-91394380D01*
X107974714Y-92346761D02*
X108069952Y-92394380D01*
X108260428Y-92394380D01*
X108355666Y-92346761D01*
X108403285Y-92251523D01*
X108403285Y-92203904D01*
X108355666Y-92108666D01*
X108260428Y-92061047D01*
X108117571Y-92061047D01*
X108022333Y-92013428D01*
X107974714Y-91918190D01*
X107974714Y-91870571D01*
X108022333Y-91775333D01*
X108117571Y-91727714D01*
X108260428Y-91727714D01*
X108355666Y-91775333D01*
X108831857Y-91727714D02*
X108831857Y-92727714D01*
X108831857Y-91775333D02*
X108927095Y-91727714D01*
X109117571Y-91727714D01*
X109212809Y-91775333D01*
X109260428Y-91822952D01*
X109308047Y-91918190D01*
X109308047Y-92203904D01*
X109260428Y-92299142D01*
X109212809Y-92346761D01*
X109117571Y-92394380D01*
X108927095Y-92394380D01*
X108831857Y-92346761D01*
X109736619Y-92394380D02*
X109736619Y-91727714D01*
X109736619Y-91918190D02*
X109784238Y-91822952D01*
X109831857Y-91775333D01*
X109927095Y-91727714D01*
X110022333Y-91727714D01*
X110736619Y-92346761D02*
X110641380Y-92394380D01*
X110450904Y-92394380D01*
X110355666Y-92346761D01*
X110308047Y-92251523D01*
X110308047Y-91870571D01*
X110355666Y-91775333D01*
X110450904Y-91727714D01*
X110641380Y-91727714D01*
X110736619Y-91775333D01*
X110784238Y-91870571D01*
X110784238Y-91965809D01*
X110308047Y-92061047D01*
X111165190Y-92346761D02*
X111260428Y-92394380D01*
X111450904Y-92394380D01*
X111546142Y-92346761D01*
X111593761Y-92251523D01*
X111593761Y-92203904D01*
X111546142Y-92108666D01*
X111450904Y-92061047D01*
X111308047Y-92061047D01*
X111212809Y-92013428D01*
X111165190Y-91918190D01*
X111165190Y-91870571D01*
X111212809Y-91775333D01*
X111308047Y-91727714D01*
X111450904Y-91727714D01*
X111546142Y-91775333D01*
X111974714Y-92346761D02*
X112069952Y-92394380D01*
X112260428Y-92394380D01*
X112355666Y-92346761D01*
X112403285Y-92251523D01*
X112403285Y-92203904D01*
X112355666Y-92108666D01*
X112260428Y-92061047D01*
X112117571Y-92061047D01*
X112022333Y-92013428D01*
X111974714Y-91918190D01*
X111974714Y-91870571D01*
X112022333Y-91775333D01*
X112117571Y-91727714D01*
X112260428Y-91727714D01*
X112355666Y-91775333D01*
X112831857Y-92394380D02*
X112831857Y-91727714D01*
X112831857Y-91394380D02*
X112784238Y-91442000D01*
X112831857Y-91489619D01*
X112879476Y-91442000D01*
X112831857Y-91394380D01*
X112831857Y-91489619D01*
X113165190Y-91727714D02*
X113546142Y-91727714D01*
X113308047Y-92394380D02*
X113308047Y-91537238D01*
X113355666Y-91442000D01*
X113450904Y-91394380D01*
X113546142Y-91394380D01*
X114593761Y-92346761D02*
X114736619Y-92394380D01*
X114974714Y-92394380D01*
X115069952Y-92346761D01*
X115117571Y-92299142D01*
X115165190Y-92203904D01*
X115165190Y-92108666D01*
X115117571Y-92013428D01*
X115069952Y-91965809D01*
X114974714Y-91918190D01*
X114784238Y-91870571D01*
X114689000Y-91822952D01*
X114641380Y-91775333D01*
X114593761Y-91680095D01*
X114593761Y-91584857D01*
X114641380Y-91489619D01*
X114689000Y-91442000D01*
X114784238Y-91394380D01*
X115022333Y-91394380D01*
X115165190Y-91442000D01*
X115498523Y-91727714D02*
X115736619Y-92394380D01*
X115974714Y-91727714D02*
X115736619Y-92394380D01*
X115641380Y-92632476D01*
X115593761Y-92680095D01*
X115498523Y-92727714D01*
X116308047Y-92346761D02*
X116403285Y-92394380D01*
X116593761Y-92394380D01*
X116689000Y-92346761D01*
X116736619Y-92251523D01*
X116736619Y-92203904D01*
X116689000Y-92108666D01*
X116593761Y-92061047D01*
X116450904Y-92061047D01*
X116355666Y-92013428D01*
X116308047Y-91918190D01*
X116308047Y-91870571D01*
X116355666Y-91775333D01*
X116450904Y-91727714D01*
X116593761Y-91727714D01*
X116689000Y-91775333D01*
X117022333Y-91727714D02*
X117403285Y-91727714D01*
X117165190Y-91394380D02*
X117165190Y-92251523D01*
X117212809Y-92346761D01*
X117308047Y-92394380D01*
X117403285Y-92394380D01*
X118117571Y-92346761D02*
X118022333Y-92394380D01*
X117831857Y-92394380D01*
X117736619Y-92346761D01*
X117689000Y-92251523D01*
X117689000Y-91870571D01*
X117736619Y-91775333D01*
X117831857Y-91727714D01*
X118022333Y-91727714D01*
X118117571Y-91775333D01*
X118165190Y-91870571D01*
X118165190Y-91965809D01*
X117689000Y-92061047D01*
X118593761Y-92394380D02*
X118593761Y-91727714D01*
X118593761Y-91822952D02*
X118641380Y-91775333D01*
X118736619Y-91727714D01*
X118879476Y-91727714D01*
X118974714Y-91775333D01*
X119022333Y-91870571D01*
X119022333Y-92394380D01*
X119022333Y-91870571D02*
X119069952Y-91775333D01*
X119165190Y-91727714D01*
X119308047Y-91727714D01*
X119403285Y-91775333D01*
X119450904Y-91870571D01*
X119450904Y-92394380D01*
X119879476Y-92346761D02*
X119974714Y-92394380D01*
X120165190Y-92394380D01*
X120260428Y-92346761D01*
X120308047Y-92251523D01*
X120308047Y-92203904D01*
X120260428Y-92108666D01*
X120165190Y-92061047D01*
X120022333Y-92061047D01*
X119927095Y-92013428D01*
X119879476Y-91918190D01*
X119879476Y-91870571D01*
X119927095Y-91775333D01*
X120022333Y-91727714D01*
X120165190Y-91727714D01*
X120260428Y-91775333D01*
X113433333Y-120937142D02*
X113385714Y-120984761D01*
X113242857Y-121032380D01*
X113147619Y-121032380D01*
X113004761Y-120984761D01*
X112909523Y-120889523D01*
X112861904Y-120794285D01*
X112814285Y-120603809D01*
X112814285Y-120460952D01*
X112861904Y-120270476D01*
X112909523Y-120175238D01*
X113004761Y-120080000D01*
X113147619Y-120032380D01*
X113242857Y-120032380D01*
X113385714Y-120080000D01*
X113433333Y-120127619D01*
X114385714Y-121032380D02*
X113814285Y-121032380D01*
X114100000Y-121032380D02*
X114100000Y-120032380D01*
X114004761Y-120175238D01*
X113909523Y-120270476D01*
X113814285Y-120318095D01*
X118233333Y-121727142D02*
X118185714Y-121774761D01*
X118042857Y-121822380D01*
X117947619Y-121822380D01*
X117804761Y-121774761D01*
X117709523Y-121679523D01*
X117661904Y-121584285D01*
X117614285Y-121393809D01*
X117614285Y-121250952D01*
X117661904Y-121060476D01*
X117709523Y-120965238D01*
X117804761Y-120870000D01*
X117947619Y-120822380D01*
X118042857Y-120822380D01*
X118185714Y-120870000D01*
X118233333Y-120917619D01*
X118614285Y-120917619D02*
X118661904Y-120870000D01*
X118757142Y-120822380D01*
X118995238Y-120822380D01*
X119090476Y-120870000D01*
X119138095Y-120917619D01*
X119185714Y-121012857D01*
X119185714Y-121108095D01*
X119138095Y-121250952D01*
X118566666Y-121822380D01*
X119185714Y-121822380D01*
X152427142Y-93154166D02*
X152474761Y-93201785D01*
X152522380Y-93344642D01*
X152522380Y-93439880D01*
X152474761Y-93582738D01*
X152379523Y-93677976D01*
X152284285Y-93725595D01*
X152093809Y-93773214D01*
X151950952Y-93773214D01*
X151760476Y-93725595D01*
X151665238Y-93677976D01*
X151570000Y-93582738D01*
X151522380Y-93439880D01*
X151522380Y-93344642D01*
X151570000Y-93201785D01*
X151617619Y-93154166D01*
X151522380Y-92820833D02*
X151522380Y-92201785D01*
X151903333Y-92535119D01*
X151903333Y-92392261D01*
X151950952Y-92297023D01*
X151998571Y-92249404D01*
X152093809Y-92201785D01*
X152331904Y-92201785D01*
X152427142Y-92249404D01*
X152474761Y-92297023D01*
X152522380Y-92392261D01*
X152522380Y-92677976D01*
X152474761Y-92773214D01*
X152427142Y-92820833D01*
X141857142Y-90016666D02*
X141904761Y-90064285D01*
X141952380Y-90207142D01*
X141952380Y-90302380D01*
X141904761Y-90445238D01*
X141809523Y-90540476D01*
X141714285Y-90588095D01*
X141523809Y-90635714D01*
X141380952Y-90635714D01*
X141190476Y-90588095D01*
X141095238Y-90540476D01*
X141000000Y-90445238D01*
X140952380Y-90302380D01*
X140952380Y-90207142D01*
X141000000Y-90064285D01*
X141047619Y-90016666D01*
X141285714Y-89159523D02*
X141952380Y-89159523D01*
X140904761Y-89397619D02*
X141619047Y-89635714D01*
X141619047Y-89016666D01*
X107833333Y-112357142D02*
X107785714Y-112404761D01*
X107642857Y-112452380D01*
X107547619Y-112452380D01*
X107404761Y-112404761D01*
X107309523Y-112309523D01*
X107261904Y-112214285D01*
X107214285Y-112023809D01*
X107214285Y-111880952D01*
X107261904Y-111690476D01*
X107309523Y-111595238D01*
X107404761Y-111500000D01*
X107547619Y-111452380D01*
X107642857Y-111452380D01*
X107785714Y-111500000D01*
X107833333Y-111547619D01*
X108404761Y-111880952D02*
X108309523Y-111833333D01*
X108261904Y-111785714D01*
X108214285Y-111690476D01*
X108214285Y-111642857D01*
X108261904Y-111547619D01*
X108309523Y-111500000D01*
X108404761Y-111452380D01*
X108595238Y-111452380D01*
X108690476Y-111500000D01*
X108738095Y-111547619D01*
X108785714Y-111642857D01*
X108785714Y-111690476D01*
X108738095Y-111785714D01*
X108690476Y-111833333D01*
X108595238Y-111880952D01*
X108404761Y-111880952D01*
X108309523Y-111928571D01*
X108261904Y-111976190D01*
X108214285Y-112071428D01*
X108214285Y-112261904D01*
X108261904Y-112357142D01*
X108309523Y-112404761D01*
X108404761Y-112452380D01*
X108595238Y-112452380D01*
X108690476Y-112404761D01*
X108738095Y-112357142D01*
X108785714Y-112261904D01*
X108785714Y-112071428D01*
X108738095Y-111976190D01*
X108690476Y-111928571D01*
X108595238Y-111880952D01*
X125633333Y-86157142D02*
X125585714Y-86204761D01*
X125442857Y-86252380D01*
X125347619Y-86252380D01*
X125204761Y-86204761D01*
X125109523Y-86109523D01*
X125061904Y-86014285D01*
X125014285Y-85823809D01*
X125014285Y-85680952D01*
X125061904Y-85490476D01*
X125109523Y-85395238D01*
X125204761Y-85300000D01*
X125347619Y-85252380D01*
X125442857Y-85252380D01*
X125585714Y-85300000D01*
X125633333Y-85347619D01*
X126109523Y-86252380D02*
X126300000Y-86252380D01*
X126395238Y-86204761D01*
X126442857Y-86157142D01*
X126538095Y-86014285D01*
X126585714Y-85823809D01*
X126585714Y-85442857D01*
X126538095Y-85347619D01*
X126490476Y-85300000D01*
X126395238Y-85252380D01*
X126204761Y-85252380D01*
X126109523Y-85300000D01*
X126061904Y-85347619D01*
X126014285Y-85442857D01*
X126014285Y-85680952D01*
X126061904Y-85776190D01*
X126109523Y-85823809D01*
X126204761Y-85871428D01*
X126395238Y-85871428D01*
X126490476Y-85823809D01*
X126538095Y-85776190D01*
X126585714Y-85680952D01*
X128557142Y-86187142D02*
X128509523Y-86234761D01*
X128366666Y-86282380D01*
X128271428Y-86282380D01*
X128128571Y-86234761D01*
X128033333Y-86139523D01*
X127985714Y-86044285D01*
X127938095Y-85853809D01*
X127938095Y-85710952D01*
X127985714Y-85520476D01*
X128033333Y-85425238D01*
X128128571Y-85330000D01*
X128271428Y-85282380D01*
X128366666Y-85282380D01*
X128509523Y-85330000D01*
X128557142Y-85377619D01*
X129509523Y-86282380D02*
X128938095Y-86282380D01*
X129223809Y-86282380D02*
X129223809Y-85282380D01*
X129128571Y-85425238D01*
X129033333Y-85520476D01*
X128938095Y-85568095D01*
X130128571Y-85282380D02*
X130223809Y-85282380D01*
X130319047Y-85330000D01*
X130366666Y-85377619D01*
X130414285Y-85472857D01*
X130461904Y-85663333D01*
X130461904Y-85901428D01*
X130414285Y-86091904D01*
X130366666Y-86187142D01*
X130319047Y-86234761D01*
X130223809Y-86282380D01*
X130128571Y-86282380D01*
X130033333Y-86234761D01*
X129985714Y-86187142D01*
X129938095Y-86091904D01*
X129890476Y-85901428D01*
X129890476Y-85663333D01*
X129938095Y-85472857D01*
X129985714Y-85377619D01*
X130033333Y-85330000D01*
X130128571Y-85282380D01*
X122107142Y-73607142D02*
X122059523Y-73654761D01*
X121916666Y-73702380D01*
X121821428Y-73702380D01*
X121678571Y-73654761D01*
X121583333Y-73559523D01*
X121535714Y-73464285D01*
X121488095Y-73273809D01*
X121488095Y-73130952D01*
X121535714Y-72940476D01*
X121583333Y-72845238D01*
X121678571Y-72750000D01*
X121821428Y-72702380D01*
X121916666Y-72702380D01*
X122059523Y-72750000D01*
X122107142Y-72797619D01*
X123059523Y-73702380D02*
X122488095Y-73702380D01*
X122773809Y-73702380D02*
X122773809Y-72702380D01*
X122678571Y-72845238D01*
X122583333Y-72940476D01*
X122488095Y-72988095D01*
X124011904Y-73702380D02*
X123440476Y-73702380D01*
X123726190Y-73702380D02*
X123726190Y-72702380D01*
X123630952Y-72845238D01*
X123535714Y-72940476D01*
X123440476Y-72988095D01*
X130427142Y-71392857D02*
X130474761Y-71440476D01*
X130522380Y-71583333D01*
X130522380Y-71678571D01*
X130474761Y-71821428D01*
X130379523Y-71916666D01*
X130284285Y-71964285D01*
X130093809Y-72011904D01*
X129950952Y-72011904D01*
X129760476Y-71964285D01*
X129665238Y-71916666D01*
X129570000Y-71821428D01*
X129522380Y-71678571D01*
X129522380Y-71583333D01*
X129570000Y-71440476D01*
X129617619Y-71392857D01*
X130522380Y-70440476D02*
X130522380Y-71011904D01*
X130522380Y-70726190D02*
X129522380Y-70726190D01*
X129665238Y-70821428D01*
X129760476Y-70916666D01*
X129808095Y-71011904D01*
X129617619Y-70059523D02*
X129570000Y-70011904D01*
X129522380Y-69916666D01*
X129522380Y-69678571D01*
X129570000Y-69583333D01*
X129617619Y-69535714D01*
X129712857Y-69488095D01*
X129808095Y-69488095D01*
X129950952Y-69535714D01*
X130522380Y-70107142D01*
X130522380Y-69488095D01*
X127427142Y-71392857D02*
X127474761Y-71440476D01*
X127522380Y-71583333D01*
X127522380Y-71678571D01*
X127474761Y-71821428D01*
X127379523Y-71916666D01*
X127284285Y-71964285D01*
X127093809Y-72011904D01*
X126950952Y-72011904D01*
X126760476Y-71964285D01*
X126665238Y-71916666D01*
X126570000Y-71821428D01*
X126522380Y-71678571D01*
X126522380Y-71583333D01*
X126570000Y-71440476D01*
X126617619Y-71392857D01*
X127522380Y-70440476D02*
X127522380Y-71011904D01*
X127522380Y-70726190D02*
X126522380Y-70726190D01*
X126665238Y-70821428D01*
X126760476Y-70916666D01*
X126808095Y-71011904D01*
X126522380Y-70107142D02*
X126522380Y-69488095D01*
X126903333Y-69821428D01*
X126903333Y-69678571D01*
X126950952Y-69583333D01*
X126998571Y-69535714D01*
X127093809Y-69488095D01*
X127331904Y-69488095D01*
X127427142Y-69535714D01*
X127474761Y-69583333D01*
X127522380Y-69678571D01*
X127522380Y-69964285D01*
X127474761Y-70059523D01*
X127427142Y-70107142D01*
X130107142Y-63892857D02*
X130154761Y-63940476D01*
X130202380Y-64083333D01*
X130202380Y-64178571D01*
X130154761Y-64321428D01*
X130059523Y-64416666D01*
X129964285Y-64464285D01*
X129773809Y-64511904D01*
X129630952Y-64511904D01*
X129440476Y-64464285D01*
X129345238Y-64416666D01*
X129250000Y-64321428D01*
X129202380Y-64178571D01*
X129202380Y-64083333D01*
X129250000Y-63940476D01*
X129297619Y-63892857D01*
X130202380Y-62940476D02*
X130202380Y-63511904D01*
X130202380Y-63226190D02*
X129202380Y-63226190D01*
X129345238Y-63321428D01*
X129440476Y-63416666D01*
X129488095Y-63511904D01*
X129535714Y-62083333D02*
X130202380Y-62083333D01*
X129154761Y-62321428D02*
X129869047Y-62559523D01*
X129869047Y-61940476D01*
X123952380Y-125738095D02*
X122952380Y-125738095D01*
X122952380Y-125500000D01*
X123000000Y-125357142D01*
X123095238Y-125261904D01*
X123190476Y-125214285D01*
X123380952Y-125166666D01*
X123523809Y-125166666D01*
X123714285Y-125214285D01*
X123809523Y-125261904D01*
X123904761Y-125357142D01*
X123952380Y-125500000D01*
X123952380Y-125738095D01*
X123952380Y-124214285D02*
X123952380Y-124785714D01*
X123952380Y-124500000D02*
X122952380Y-124500000D01*
X123095238Y-124595238D01*
X123190476Y-124690476D01*
X123238095Y-124785714D01*
X139952380Y-125738095D02*
X138952380Y-125738095D01*
X138952380Y-125500000D01*
X139000000Y-125357142D01*
X139095238Y-125261904D01*
X139190476Y-125214285D01*
X139380952Y-125166666D01*
X139523809Y-125166666D01*
X139714285Y-125214285D01*
X139809523Y-125261904D01*
X139904761Y-125357142D01*
X139952380Y-125500000D01*
X139952380Y-125738095D01*
X139047619Y-124785714D02*
X139000000Y-124738095D01*
X138952380Y-124642857D01*
X138952380Y-124404761D01*
X139000000Y-124309523D01*
X139047619Y-124261904D01*
X139142857Y-124214285D01*
X139238095Y-124214285D01*
X139380952Y-124261904D01*
X139952380Y-124833333D01*
X139952380Y-124214285D01*
X181632380Y-96225595D02*
X180632380Y-96225595D01*
X180632380Y-95987500D01*
X180680000Y-95844642D01*
X180775238Y-95749404D01*
X180870476Y-95701785D01*
X181060952Y-95654166D01*
X181203809Y-95654166D01*
X181394285Y-95701785D01*
X181489523Y-95749404D01*
X181584761Y-95844642D01*
X181632380Y-95987500D01*
X181632380Y-96225595D01*
X180632380Y-95320833D02*
X180632380Y-94701785D01*
X181013333Y-95035119D01*
X181013333Y-94892261D01*
X181060952Y-94797023D01*
X181108571Y-94749404D01*
X181203809Y-94701785D01*
X181441904Y-94701785D01*
X181537142Y-94749404D01*
X181584761Y-94797023D01*
X181632380Y-94892261D01*
X181632380Y-95177976D01*
X181584761Y-95273214D01*
X181537142Y-95320833D01*
X155952380Y-125738095D02*
X154952380Y-125738095D01*
X154952380Y-125500000D01*
X155000000Y-125357142D01*
X155095238Y-125261904D01*
X155190476Y-125214285D01*
X155380952Y-125166666D01*
X155523809Y-125166666D01*
X155714285Y-125214285D01*
X155809523Y-125261904D01*
X155904761Y-125357142D01*
X155952380Y-125500000D01*
X155952380Y-125738095D01*
X155285714Y-124309523D02*
X155952380Y-124309523D01*
X154904761Y-124547619D02*
X155619047Y-124785714D01*
X155619047Y-124166666D01*
X171952380Y-125738095D02*
X170952380Y-125738095D01*
X170952380Y-125500000D01*
X171000000Y-125357142D01*
X171095238Y-125261904D01*
X171190476Y-125214285D01*
X171380952Y-125166666D01*
X171523809Y-125166666D01*
X171714285Y-125214285D01*
X171809523Y-125261904D01*
X171904761Y-125357142D01*
X171952380Y-125500000D01*
X171952380Y-125738095D01*
X170952380Y-124261904D02*
X170952380Y-124738095D01*
X171428571Y-124785714D01*
X171380952Y-124738095D01*
X171333333Y-124642857D01*
X171333333Y-124404761D01*
X171380952Y-124309523D01*
X171428571Y-124261904D01*
X171523809Y-124214285D01*
X171761904Y-124214285D01*
X171857142Y-124261904D01*
X171904761Y-124309523D01*
X171952380Y-124404761D01*
X171952380Y-124642857D01*
X171904761Y-124738095D01*
X171857142Y-124785714D01*
X186752380Y-125538095D02*
X185752380Y-125538095D01*
X185752380Y-125300000D01*
X185800000Y-125157142D01*
X185895238Y-125061904D01*
X185990476Y-125014285D01*
X186180952Y-124966666D01*
X186323809Y-124966666D01*
X186514285Y-125014285D01*
X186609523Y-125061904D01*
X186704761Y-125157142D01*
X186752380Y-125300000D01*
X186752380Y-125538095D01*
X185752380Y-124109523D02*
X185752380Y-124300000D01*
X185800000Y-124395238D01*
X185847619Y-124442857D01*
X185990476Y-124538095D01*
X186180952Y-124585714D01*
X186561904Y-124585714D01*
X186657142Y-124538095D01*
X186704761Y-124490476D01*
X186752380Y-124395238D01*
X186752380Y-124204761D01*
X186704761Y-124109523D01*
X186657142Y-124061904D01*
X186561904Y-124014285D01*
X186323809Y-124014285D01*
X186228571Y-124061904D01*
X186180952Y-124109523D01*
X186133333Y-124204761D01*
X186133333Y-124395238D01*
X186180952Y-124490476D01*
X186228571Y-124538095D01*
X186323809Y-124585714D01*
X185892380Y-95468095D02*
X184892380Y-95468095D01*
X184892380Y-95230000D01*
X184940000Y-95087142D01*
X185035238Y-94991904D01*
X185130476Y-94944285D01*
X185320952Y-94896666D01*
X185463809Y-94896666D01*
X185654285Y-94944285D01*
X185749523Y-94991904D01*
X185844761Y-95087142D01*
X185892380Y-95230000D01*
X185892380Y-95468095D01*
X185320952Y-94325238D02*
X185273333Y-94420476D01*
X185225714Y-94468095D01*
X185130476Y-94515714D01*
X185082857Y-94515714D01*
X184987619Y-94468095D01*
X184940000Y-94420476D01*
X184892380Y-94325238D01*
X184892380Y-94134761D01*
X184940000Y-94039523D01*
X184987619Y-93991904D01*
X185082857Y-93944285D01*
X185130476Y-93944285D01*
X185225714Y-93991904D01*
X185273333Y-94039523D01*
X185320952Y-94134761D01*
X185320952Y-94325238D01*
X185368571Y-94420476D01*
X185416190Y-94468095D01*
X185511428Y-94515714D01*
X185701904Y-94515714D01*
X185797142Y-94468095D01*
X185844761Y-94420476D01*
X185892380Y-94325238D01*
X185892380Y-94134761D01*
X185844761Y-94039523D01*
X185797142Y-93991904D01*
X185701904Y-93944285D01*
X185511428Y-93944285D01*
X185416190Y-93991904D01*
X185368571Y-94039523D01*
X185320952Y-94134761D01*
X121266666Y-129052380D02*
X121266666Y-129766666D01*
X121219047Y-129909523D01*
X121123809Y-130004761D01*
X120980952Y-130052380D01*
X120885714Y-130052380D01*
X121695238Y-129147619D02*
X121742857Y-129100000D01*
X121838095Y-129052380D01*
X122076190Y-129052380D01*
X122171428Y-129100000D01*
X122219047Y-129147619D01*
X122266666Y-129242857D01*
X122266666Y-129338095D01*
X122219047Y-129480952D01*
X121647619Y-130052380D01*
X122266666Y-130052380D01*
X137466666Y-129052380D02*
X137466666Y-129766666D01*
X137419047Y-129909523D01*
X137323809Y-130004761D01*
X137180952Y-130052380D01*
X137085714Y-130052380D01*
X137847619Y-129052380D02*
X138466666Y-129052380D01*
X138133333Y-129433333D01*
X138276190Y-129433333D01*
X138371428Y-129480952D01*
X138419047Y-129528571D01*
X138466666Y-129623809D01*
X138466666Y-129861904D01*
X138419047Y-129957142D01*
X138371428Y-130004761D01*
X138276190Y-130052380D01*
X137990476Y-130052380D01*
X137895238Y-130004761D01*
X137847619Y-129957142D01*
X169266666Y-129052380D02*
X169266666Y-129766666D01*
X169219047Y-129909523D01*
X169123809Y-130004761D01*
X168980952Y-130052380D01*
X168885714Y-130052380D01*
X170219047Y-129052380D02*
X169742857Y-129052380D01*
X169695238Y-129528571D01*
X169742857Y-129480952D01*
X169838095Y-129433333D01*
X170076190Y-129433333D01*
X170171428Y-129480952D01*
X170219047Y-129528571D01*
X170266666Y-129623809D01*
X170266666Y-129861904D01*
X170219047Y-129957142D01*
X170171428Y-130004761D01*
X170076190Y-130052380D01*
X169838095Y-130052380D01*
X169742857Y-130004761D01*
X169695238Y-129957142D01*
X185466666Y-129052380D02*
X185466666Y-129766666D01*
X185419047Y-129909523D01*
X185323809Y-130004761D01*
X185180952Y-130052380D01*
X185085714Y-130052380D01*
X186371428Y-129052380D02*
X186180952Y-129052380D01*
X186085714Y-129100000D01*
X186038095Y-129147619D01*
X185942857Y-129290476D01*
X185895238Y-129480952D01*
X185895238Y-129861904D01*
X185942857Y-129957142D01*
X185990476Y-130004761D01*
X186085714Y-130052380D01*
X186276190Y-130052380D01*
X186371428Y-130004761D01*
X186419047Y-129957142D01*
X186466666Y-129861904D01*
X186466666Y-129623809D01*
X186419047Y-129528571D01*
X186371428Y-129480952D01*
X186276190Y-129433333D01*
X186085714Y-129433333D01*
X185990476Y-129480952D01*
X185942857Y-129528571D01*
X185895238Y-129623809D01*
X138704761Y-63097619D02*
X138609523Y-63050000D01*
X138514285Y-62954761D01*
X138371428Y-62811904D01*
X138276190Y-62764285D01*
X138180952Y-62764285D01*
X138228571Y-63002380D02*
X138133333Y-62954761D01*
X138038095Y-62859523D01*
X137990476Y-62669047D01*
X137990476Y-62335714D01*
X138038095Y-62145238D01*
X138133333Y-62050000D01*
X138228571Y-62002380D01*
X138419047Y-62002380D01*
X138514285Y-62050000D01*
X138609523Y-62145238D01*
X138657142Y-62335714D01*
X138657142Y-62669047D01*
X138609523Y-62859523D01*
X138514285Y-62954761D01*
X138419047Y-63002380D01*
X138228571Y-63002380D01*
X139514285Y-62335714D02*
X139514285Y-63002380D01*
X139276190Y-61954761D02*
X139038095Y-62669047D01*
X139657142Y-62669047D01*
X180904761Y-63097619D02*
X180809523Y-63050000D01*
X180714285Y-62954761D01*
X180571428Y-62811904D01*
X180476190Y-62764285D01*
X180380952Y-62764285D01*
X180428571Y-63002380D02*
X180333333Y-62954761D01*
X180238095Y-62859523D01*
X180190476Y-62669047D01*
X180190476Y-62335714D01*
X180238095Y-62145238D01*
X180333333Y-62050000D01*
X180428571Y-62002380D01*
X180619047Y-62002380D01*
X180714285Y-62050000D01*
X180809523Y-62145238D01*
X180857142Y-62335714D01*
X180857142Y-62669047D01*
X180809523Y-62859523D01*
X180714285Y-62954761D01*
X180619047Y-63002380D01*
X180428571Y-63002380D01*
X181714285Y-62002380D02*
X181523809Y-62002380D01*
X181428571Y-62050000D01*
X181380952Y-62097619D01*
X181285714Y-62240476D01*
X181238095Y-62430952D01*
X181238095Y-62811904D01*
X181285714Y-62907142D01*
X181333333Y-62954761D01*
X181428571Y-63002380D01*
X181619047Y-63002380D01*
X181714285Y-62954761D01*
X181761904Y-62907142D01*
X181809523Y-62811904D01*
X181809523Y-62573809D01*
X181761904Y-62478571D01*
X181714285Y-62430952D01*
X181619047Y-62383333D01*
X181428571Y-62383333D01*
X181333333Y-62430952D01*
X181285714Y-62478571D01*
X181238095Y-62573809D01*
X153483333Y-109352380D02*
X153150000Y-108876190D01*
X152911904Y-109352380D02*
X152911904Y-108352380D01*
X153292857Y-108352380D01*
X153388095Y-108400000D01*
X153435714Y-108447619D01*
X153483333Y-108542857D01*
X153483333Y-108685714D01*
X153435714Y-108780952D01*
X153388095Y-108828571D01*
X153292857Y-108876190D01*
X152911904Y-108876190D01*
X154435714Y-109352380D02*
X153864285Y-109352380D01*
X154150000Y-109352380D02*
X154150000Y-108352380D01*
X154054761Y-108495238D01*
X153959523Y-108590476D01*
X153864285Y-108638095D01*
X132083333Y-106452380D02*
X131750000Y-105976190D01*
X131511904Y-106452380D02*
X131511904Y-105452380D01*
X131892857Y-105452380D01*
X131988095Y-105500000D01*
X132035714Y-105547619D01*
X132083333Y-105642857D01*
X132083333Y-105785714D01*
X132035714Y-105880952D01*
X131988095Y-105928571D01*
X131892857Y-105976190D01*
X131511904Y-105976190D01*
X132416666Y-105452380D02*
X133035714Y-105452380D01*
X132702380Y-105833333D01*
X132845238Y-105833333D01*
X132940476Y-105880952D01*
X132988095Y-105928571D01*
X133035714Y-106023809D01*
X133035714Y-106261904D01*
X132988095Y-106357142D01*
X132940476Y-106404761D01*
X132845238Y-106452380D01*
X132559523Y-106452380D01*
X132464285Y-106404761D01*
X132416666Y-106357142D01*
X161452380Y-118666666D02*
X160976190Y-119000000D01*
X161452380Y-119238095D02*
X160452380Y-119238095D01*
X160452380Y-118857142D01*
X160500000Y-118761904D01*
X160547619Y-118714285D01*
X160642857Y-118666666D01*
X160785714Y-118666666D01*
X160880952Y-118714285D01*
X160928571Y-118761904D01*
X160976190Y-118857142D01*
X160976190Y-119238095D01*
X160452380Y-117761904D02*
X160452380Y-118238095D01*
X160928571Y-118285714D01*
X160880952Y-118238095D01*
X160833333Y-118142857D01*
X160833333Y-117904761D01*
X160880952Y-117809523D01*
X160928571Y-117761904D01*
X161023809Y-117714285D01*
X161261904Y-117714285D01*
X161357142Y-117761904D01*
X161404761Y-117809523D01*
X161452380Y-117904761D01*
X161452380Y-118142857D01*
X161404761Y-118238095D01*
X161357142Y-118285714D01*
X122833333Y-83252380D02*
X122500000Y-82776190D01*
X122261904Y-83252380D02*
X122261904Y-82252380D01*
X122642857Y-82252380D01*
X122738095Y-82300000D01*
X122785714Y-82347619D01*
X122833333Y-82442857D01*
X122833333Y-82585714D01*
X122785714Y-82680952D01*
X122738095Y-82728571D01*
X122642857Y-82776190D01*
X122261904Y-82776190D01*
X123690476Y-82252380D02*
X123500000Y-82252380D01*
X123404761Y-82300000D01*
X123357142Y-82347619D01*
X123261904Y-82490476D01*
X123214285Y-82680952D01*
X123214285Y-83061904D01*
X123261904Y-83157142D01*
X123309523Y-83204761D01*
X123404761Y-83252380D01*
X123595238Y-83252380D01*
X123690476Y-83204761D01*
X123738095Y-83157142D01*
X123785714Y-83061904D01*
X123785714Y-82823809D01*
X123738095Y-82728571D01*
X123690476Y-82680952D01*
X123595238Y-82633333D01*
X123404761Y-82633333D01*
X123309523Y-82680952D01*
X123261904Y-82728571D01*
X123214285Y-82823809D01*
X131783333Y-83252380D02*
X131450000Y-82776190D01*
X131211904Y-83252380D02*
X131211904Y-82252380D01*
X131592857Y-82252380D01*
X131688095Y-82300000D01*
X131735714Y-82347619D01*
X131783333Y-82442857D01*
X131783333Y-82585714D01*
X131735714Y-82680952D01*
X131688095Y-82728571D01*
X131592857Y-82776190D01*
X131211904Y-82776190D01*
X132116666Y-82252380D02*
X132783333Y-82252380D01*
X132354761Y-83252380D01*
X145433333Y-85422380D02*
X145100000Y-84946190D01*
X144861904Y-85422380D02*
X144861904Y-84422380D01*
X145242857Y-84422380D01*
X145338095Y-84470000D01*
X145385714Y-84517619D01*
X145433333Y-84612857D01*
X145433333Y-84755714D01*
X145385714Y-84850952D01*
X145338095Y-84898571D01*
X145242857Y-84946190D01*
X144861904Y-84946190D01*
X146004761Y-84850952D02*
X145909523Y-84803333D01*
X145861904Y-84755714D01*
X145814285Y-84660476D01*
X145814285Y-84612857D01*
X145861904Y-84517619D01*
X145909523Y-84470000D01*
X146004761Y-84422380D01*
X146195238Y-84422380D01*
X146290476Y-84470000D01*
X146338095Y-84517619D01*
X146385714Y-84612857D01*
X146385714Y-84660476D01*
X146338095Y-84755714D01*
X146290476Y-84803333D01*
X146195238Y-84850952D01*
X146004761Y-84850952D01*
X145909523Y-84898571D01*
X145861904Y-84946190D01*
X145814285Y-85041428D01*
X145814285Y-85231904D01*
X145861904Y-85327142D01*
X145909523Y-85374761D01*
X146004761Y-85422380D01*
X146195238Y-85422380D01*
X146290476Y-85374761D01*
X146338095Y-85327142D01*
X146385714Y-85231904D01*
X146385714Y-85041428D01*
X146338095Y-84946190D01*
X146290476Y-84898571D01*
X146195238Y-84850952D01*
X148833333Y-85422380D02*
X148500000Y-84946190D01*
X148261904Y-85422380D02*
X148261904Y-84422380D01*
X148642857Y-84422380D01*
X148738095Y-84470000D01*
X148785714Y-84517619D01*
X148833333Y-84612857D01*
X148833333Y-84755714D01*
X148785714Y-84850952D01*
X148738095Y-84898571D01*
X148642857Y-84946190D01*
X148261904Y-84946190D01*
X149309523Y-85422380D02*
X149500000Y-85422380D01*
X149595238Y-85374761D01*
X149642857Y-85327142D01*
X149738095Y-85184285D01*
X149785714Y-84993809D01*
X149785714Y-84612857D01*
X149738095Y-84517619D01*
X149690476Y-84470000D01*
X149595238Y-84422380D01*
X149404761Y-84422380D01*
X149309523Y-84470000D01*
X149261904Y-84517619D01*
X149214285Y-84612857D01*
X149214285Y-84850952D01*
X149261904Y-84946190D01*
X149309523Y-84993809D01*
X149404761Y-85041428D01*
X149595238Y-85041428D01*
X149690476Y-84993809D01*
X149738095Y-84946190D01*
X149785714Y-84850952D01*
X181952380Y-91642857D02*
X181476190Y-91976190D01*
X181952380Y-92214285D02*
X180952380Y-92214285D01*
X180952380Y-91833333D01*
X181000000Y-91738095D01*
X181047619Y-91690476D01*
X181142857Y-91642857D01*
X181285714Y-91642857D01*
X181380952Y-91690476D01*
X181428571Y-91738095D01*
X181476190Y-91833333D01*
X181476190Y-92214285D01*
X181952380Y-90690476D02*
X181952380Y-91261904D01*
X181952380Y-90976190D02*
X180952380Y-90976190D01*
X181095238Y-91071428D01*
X181190476Y-91166666D01*
X181238095Y-91261904D01*
X180952380Y-90071428D02*
X180952380Y-89976190D01*
X181000000Y-89880952D01*
X181047619Y-89833333D01*
X181142857Y-89785714D01*
X181333333Y-89738095D01*
X181571428Y-89738095D01*
X181761904Y-89785714D01*
X181857142Y-89833333D01*
X181904761Y-89880952D01*
X181952380Y-89976190D01*
X181952380Y-90071428D01*
X181904761Y-90166666D01*
X181857142Y-90214285D01*
X181761904Y-90261904D01*
X181571428Y-90309523D01*
X181333333Y-90309523D01*
X181142857Y-90261904D01*
X181047619Y-90214285D01*
X181000000Y-90166666D01*
X180952380Y-90071428D01*
X128957142Y-89652380D02*
X128623809Y-89176190D01*
X128385714Y-89652380D02*
X128385714Y-88652380D01*
X128766666Y-88652380D01*
X128861904Y-88700000D01*
X128909523Y-88747619D01*
X128957142Y-88842857D01*
X128957142Y-88985714D01*
X128909523Y-89080952D01*
X128861904Y-89128571D01*
X128766666Y-89176190D01*
X128385714Y-89176190D01*
X129909523Y-89652380D02*
X129338095Y-89652380D01*
X129623809Y-89652380D02*
X129623809Y-88652380D01*
X129528571Y-88795238D01*
X129433333Y-88890476D01*
X129338095Y-88938095D01*
X130861904Y-89652380D02*
X130290476Y-89652380D01*
X130576190Y-89652380D02*
X130576190Y-88652380D01*
X130480952Y-88795238D01*
X130385714Y-88890476D01*
X130290476Y-88938095D01*
X128957142Y-88052380D02*
X128623809Y-87576190D01*
X128385714Y-88052380D02*
X128385714Y-87052380D01*
X128766666Y-87052380D01*
X128861904Y-87100000D01*
X128909523Y-87147619D01*
X128957142Y-87242857D01*
X128957142Y-87385714D01*
X128909523Y-87480952D01*
X128861904Y-87528571D01*
X128766666Y-87576190D01*
X128385714Y-87576190D01*
X129909523Y-88052380D02*
X129338095Y-88052380D01*
X129623809Y-88052380D02*
X129623809Y-87052380D01*
X129528571Y-87195238D01*
X129433333Y-87290476D01*
X129338095Y-87338095D01*
X130290476Y-87147619D02*
X130338095Y-87100000D01*
X130433333Y-87052380D01*
X130671428Y-87052380D01*
X130766666Y-87100000D01*
X130814285Y-87147619D01*
X130861904Y-87242857D01*
X130861904Y-87338095D01*
X130814285Y-87480952D01*
X130242857Y-88052380D01*
X130861904Y-88052380D01*
X117607142Y-78702380D02*
X117273809Y-78226190D01*
X117035714Y-78702380D02*
X117035714Y-77702380D01*
X117416666Y-77702380D01*
X117511904Y-77750000D01*
X117559523Y-77797619D01*
X117607142Y-77892857D01*
X117607142Y-78035714D01*
X117559523Y-78130952D01*
X117511904Y-78178571D01*
X117416666Y-78226190D01*
X117035714Y-78226190D01*
X118559523Y-78702380D02*
X117988095Y-78702380D01*
X118273809Y-78702380D02*
X118273809Y-77702380D01*
X118178571Y-77845238D01*
X118083333Y-77940476D01*
X117988095Y-77988095D01*
X118892857Y-77702380D02*
X119511904Y-77702380D01*
X119178571Y-78083333D01*
X119321428Y-78083333D01*
X119416666Y-78130952D01*
X119464285Y-78178571D01*
X119511904Y-78273809D01*
X119511904Y-78511904D01*
X119464285Y-78607142D01*
X119416666Y-78654761D01*
X119321428Y-78702380D01*
X119035714Y-78702380D01*
X118940476Y-78654761D01*
X118892857Y-78607142D01*
X121357142Y-78772380D02*
X121023809Y-78296190D01*
X120785714Y-78772380D02*
X120785714Y-77772380D01*
X121166666Y-77772380D01*
X121261904Y-77820000D01*
X121309523Y-77867619D01*
X121357142Y-77962857D01*
X121357142Y-78105714D01*
X121309523Y-78200952D01*
X121261904Y-78248571D01*
X121166666Y-78296190D01*
X120785714Y-78296190D01*
X122309523Y-78772380D02*
X121738095Y-78772380D01*
X122023809Y-78772380D02*
X122023809Y-77772380D01*
X121928571Y-77915238D01*
X121833333Y-78010476D01*
X121738095Y-78058095D01*
X123166666Y-78105714D02*
X123166666Y-78772380D01*
X122928571Y-77724761D02*
X122690476Y-78439047D01*
X123309523Y-78439047D01*
X126702380Y-78142857D02*
X126226190Y-78476190D01*
X126702380Y-78714285D02*
X125702380Y-78714285D01*
X125702380Y-78333333D01*
X125750000Y-78238095D01*
X125797619Y-78190476D01*
X125892857Y-78142857D01*
X126035714Y-78142857D01*
X126130952Y-78190476D01*
X126178571Y-78238095D01*
X126226190Y-78333333D01*
X126226190Y-78714285D01*
X126702380Y-77190476D02*
X126702380Y-77761904D01*
X126702380Y-77476190D02*
X125702380Y-77476190D01*
X125845238Y-77571428D01*
X125940476Y-77666666D01*
X125988095Y-77761904D01*
X125702380Y-76285714D02*
X125702380Y-76761904D01*
X126178571Y-76809523D01*
X126130952Y-76761904D01*
X126083333Y-76666666D01*
X126083333Y-76428571D01*
X126130952Y-76333333D01*
X126178571Y-76285714D01*
X126273809Y-76238095D01*
X126511904Y-76238095D01*
X126607142Y-76285714D01*
X126654761Y-76333333D01*
X126702380Y-76428571D01*
X126702380Y-76666666D01*
X126654761Y-76761904D01*
X126607142Y-76809523D01*
X129852380Y-78142857D02*
X129376190Y-78476190D01*
X129852380Y-78714285D02*
X128852380Y-78714285D01*
X128852380Y-78333333D01*
X128900000Y-78238095D01*
X128947619Y-78190476D01*
X129042857Y-78142857D01*
X129185714Y-78142857D01*
X129280952Y-78190476D01*
X129328571Y-78238095D01*
X129376190Y-78333333D01*
X129376190Y-78714285D01*
X129852380Y-77190476D02*
X129852380Y-77761904D01*
X129852380Y-77476190D02*
X128852380Y-77476190D01*
X128995238Y-77571428D01*
X129090476Y-77666666D01*
X129138095Y-77761904D01*
X128852380Y-76333333D02*
X128852380Y-76523809D01*
X128900000Y-76619047D01*
X128947619Y-76666666D01*
X129090476Y-76761904D01*
X129280952Y-76809523D01*
X129661904Y-76809523D01*
X129757142Y-76761904D01*
X129804761Y-76714285D01*
X129852380Y-76619047D01*
X129852380Y-76428571D01*
X129804761Y-76333333D01*
X129757142Y-76285714D01*
X129661904Y-76238095D01*
X129423809Y-76238095D01*
X129328571Y-76285714D01*
X129280952Y-76333333D01*
X129233333Y-76428571D01*
X129233333Y-76619047D01*
X129280952Y-76714285D01*
X129328571Y-76761904D01*
X129423809Y-76809523D01*
D17*
X165782380Y-111264047D02*
X165963809Y-111324523D01*
X166266190Y-111324523D01*
X166387142Y-111264047D01*
X166447619Y-111203571D01*
X166508095Y-111082619D01*
X166508095Y-110961666D01*
X166447619Y-110840714D01*
X166387142Y-110780238D01*
X166266190Y-110719761D01*
X166024285Y-110659285D01*
X165903333Y-110598809D01*
X165842857Y-110538333D01*
X165782380Y-110417380D01*
X165782380Y-110296428D01*
X165842857Y-110175476D01*
X165903333Y-110115000D01*
X166024285Y-110054523D01*
X166326666Y-110054523D01*
X166508095Y-110115000D01*
X167717619Y-111324523D02*
X166991904Y-111324523D01*
X167354761Y-111324523D02*
X167354761Y-110054523D01*
X167233809Y-110235952D01*
X167112857Y-110356904D01*
X166991904Y-110417380D01*
X196782380Y-111014047D02*
X196963809Y-111074523D01*
X197266190Y-111074523D01*
X197387142Y-111014047D01*
X197447619Y-110953571D01*
X197508095Y-110832619D01*
X197508095Y-110711666D01*
X197447619Y-110590714D01*
X197387142Y-110530238D01*
X197266190Y-110469761D01*
X197024285Y-110409285D01*
X196903333Y-110348809D01*
X196842857Y-110288333D01*
X196782380Y-110167380D01*
X196782380Y-110046428D01*
X196842857Y-109925476D01*
X196903333Y-109865000D01*
X197024285Y-109804523D01*
X197326666Y-109804523D01*
X197508095Y-109865000D01*
X197991904Y-109925476D02*
X198052380Y-109865000D01*
X198173333Y-109804523D01*
X198475714Y-109804523D01*
X198596666Y-109865000D01*
X198657142Y-109925476D01*
X198717619Y-110046428D01*
X198717619Y-110167380D01*
X198657142Y-110348809D01*
X197931428Y-111074523D01*
X198717619Y-111074523D01*
D14*
X146838095Y-90452380D02*
X146838095Y-91261904D01*
X146885714Y-91357142D01*
X146933333Y-91404761D01*
X147028571Y-91452380D01*
X147219047Y-91452380D01*
X147314285Y-91404761D01*
X147361904Y-91357142D01*
X147409523Y-91261904D01*
X147409523Y-90452380D01*
X147838095Y-90547619D02*
X147885714Y-90500000D01*
X147980952Y-90452380D01*
X148219047Y-90452380D01*
X148314285Y-90500000D01*
X148361904Y-90547619D01*
X148409523Y-90642857D01*
X148409523Y-90738095D01*
X148361904Y-90880952D01*
X147790476Y-91452380D01*
X148409523Y-91452380D01*
X143638095Y-98152380D02*
X143638095Y-98961904D01*
X143685714Y-99057142D01*
X143733333Y-99104761D01*
X143828571Y-99152380D01*
X144019047Y-99152380D01*
X144114285Y-99104761D01*
X144161904Y-99057142D01*
X144209523Y-98961904D01*
X144209523Y-98152380D01*
X144590476Y-98152380D02*
X145209523Y-98152380D01*
X144876190Y-98533333D01*
X145019047Y-98533333D01*
X145114285Y-98580952D01*
X145161904Y-98628571D01*
X145209523Y-98723809D01*
X145209523Y-98961904D01*
X145161904Y-99057142D01*
X145114285Y-99104761D01*
X145019047Y-99152380D01*
X144733333Y-99152380D01*
X144638095Y-99104761D01*
X144590476Y-99057142D01*
X119238095Y-67952380D02*
X119238095Y-68761904D01*
X119285714Y-68857142D01*
X119333333Y-68904761D01*
X119428571Y-68952380D01*
X119619047Y-68952380D01*
X119714285Y-68904761D01*
X119761904Y-68857142D01*
X119809523Y-68761904D01*
X119809523Y-67952380D01*
X120714285Y-67952380D02*
X120523809Y-67952380D01*
X120428571Y-68000000D01*
X120380952Y-68047619D01*
X120285714Y-68190476D01*
X120238095Y-68380952D01*
X120238095Y-68761904D01*
X120285714Y-68857142D01*
X120333333Y-68904761D01*
X120428571Y-68952380D01*
X120619047Y-68952380D01*
X120714285Y-68904761D01*
X120761904Y-68857142D01*
X120809523Y-68761904D01*
X120809523Y-68523809D01*
X120761904Y-68428571D01*
X120714285Y-68380952D01*
X120619047Y-68333333D01*
X120428571Y-68333333D01*
X120333333Y-68380952D01*
X120285714Y-68428571D01*
X120238095Y-68523809D01*
X140238095Y-69452380D02*
X140238095Y-70261904D01*
X140285714Y-70357142D01*
X140333333Y-70404761D01*
X140428571Y-70452380D01*
X140619047Y-70452380D01*
X140714285Y-70404761D01*
X140761904Y-70357142D01*
X140809523Y-70261904D01*
X140809523Y-69452380D01*
X141190476Y-69452380D02*
X141857142Y-69452380D01*
X141428571Y-70452380D01*
X127338095Y-62102380D02*
X127338095Y-62911904D01*
X127385714Y-63007142D01*
X127433333Y-63054761D01*
X127528571Y-63102380D01*
X127719047Y-63102380D01*
X127814285Y-63054761D01*
X127861904Y-63007142D01*
X127909523Y-62911904D01*
X127909523Y-62102380D01*
X128528571Y-62530952D02*
X128433333Y-62483333D01*
X128385714Y-62435714D01*
X128338095Y-62340476D01*
X128338095Y-62292857D01*
X128385714Y-62197619D01*
X128433333Y-62150000D01*
X128528571Y-62102380D01*
X128719047Y-62102380D01*
X128814285Y-62150000D01*
X128861904Y-62197619D01*
X128909523Y-62292857D01*
X128909523Y-62340476D01*
X128861904Y-62435714D01*
X128814285Y-62483333D01*
X128719047Y-62530952D01*
X128528571Y-62530952D01*
X128433333Y-62578571D01*
X128385714Y-62626190D01*
X128338095Y-62721428D01*
X128338095Y-62911904D01*
X128385714Y-63007142D01*
X128433333Y-63054761D01*
X128528571Y-63102380D01*
X128719047Y-63102380D01*
X128814285Y-63054761D01*
X128861904Y-63007142D01*
X128909523Y-62911904D01*
X128909523Y-62721428D01*
X128861904Y-62626190D01*
X128814285Y-62578571D01*
X128719047Y-62530952D01*
X141833333Y-80882380D02*
X141500000Y-80406190D01*
X141261904Y-80882380D02*
X141261904Y-79882380D01*
X141642857Y-79882380D01*
X141738095Y-79930000D01*
X141785714Y-79977619D01*
X141833333Y-80072857D01*
X141833333Y-80215714D01*
X141785714Y-80310952D01*
X141738095Y-80358571D01*
X141642857Y-80406190D01*
X141261904Y-80406190D01*
X142214285Y-79977619D02*
X142261904Y-79930000D01*
X142357142Y-79882380D01*
X142595238Y-79882380D01*
X142690476Y-79930000D01*
X142738095Y-79977619D01*
X142785714Y-80072857D01*
X142785714Y-80168095D01*
X142738095Y-80310952D01*
X142166666Y-80882380D01*
X142785714Y-80882380D01*
X134957142Y-92652380D02*
X134623809Y-92176190D01*
X134385714Y-92652380D02*
X134385714Y-91652380D01*
X134766666Y-91652380D01*
X134861904Y-91700000D01*
X134909523Y-91747619D01*
X134957142Y-91842857D01*
X134957142Y-91985714D01*
X134909523Y-92080952D01*
X134861904Y-92128571D01*
X134766666Y-92176190D01*
X134385714Y-92176190D01*
X135909523Y-92652380D02*
X135338095Y-92652380D01*
X135623809Y-92652380D02*
X135623809Y-91652380D01*
X135528571Y-91795238D01*
X135433333Y-91890476D01*
X135338095Y-91938095D01*
X136385714Y-92652380D02*
X136576190Y-92652380D01*
X136671428Y-92604761D01*
X136719047Y-92557142D01*
X136814285Y-92414285D01*
X136861904Y-92223809D01*
X136861904Y-91842857D01*
X136814285Y-91747619D01*
X136766666Y-91700000D01*
X136671428Y-91652380D01*
X136480952Y-91652380D01*
X136385714Y-91700000D01*
X136338095Y-91747619D01*
X136290476Y-91842857D01*
X136290476Y-92080952D01*
X136338095Y-92176190D01*
X136385714Y-92223809D01*
X136480952Y-92271428D01*
X136671428Y-92271428D01*
X136766666Y-92223809D01*
X136814285Y-92176190D01*
X136861904Y-92080952D01*
X128957142Y-91052380D02*
X128623809Y-90576190D01*
X128385714Y-91052380D02*
X128385714Y-90052380D01*
X128766666Y-90052380D01*
X128861904Y-90100000D01*
X128909523Y-90147619D01*
X128957142Y-90242857D01*
X128957142Y-90385714D01*
X128909523Y-90480952D01*
X128861904Y-90528571D01*
X128766666Y-90576190D01*
X128385714Y-90576190D01*
X129338095Y-90147619D02*
X129385714Y-90100000D01*
X129480952Y-90052380D01*
X129719047Y-90052380D01*
X129814285Y-90100000D01*
X129861904Y-90147619D01*
X129909523Y-90242857D01*
X129909523Y-90338095D01*
X129861904Y-90480952D01*
X129290476Y-91052380D01*
X129909523Y-91052380D01*
X130528571Y-90052380D02*
X130623809Y-90052380D01*
X130719047Y-90100000D01*
X130766666Y-90147619D01*
X130814285Y-90242857D01*
X130861904Y-90433333D01*
X130861904Y-90671428D01*
X130814285Y-90861904D01*
X130766666Y-90957142D01*
X130719047Y-91004761D01*
X130623809Y-91052380D01*
X130528571Y-91052380D01*
X130433333Y-91004761D01*
X130385714Y-90957142D01*
X130338095Y-90861904D01*
X130290476Y-90671428D01*
X130290476Y-90433333D01*
X130338095Y-90242857D01*
X130385714Y-90147619D01*
X130433333Y-90100000D01*
X130528571Y-90052380D01*
X109557142Y-68222380D02*
X109223809Y-67746190D01*
X108985714Y-68222380D02*
X108985714Y-67222380D01*
X109366666Y-67222380D01*
X109461904Y-67270000D01*
X109509523Y-67317619D01*
X109557142Y-67412857D01*
X109557142Y-67555714D01*
X109509523Y-67650952D01*
X109461904Y-67698571D01*
X109366666Y-67746190D01*
X108985714Y-67746190D01*
X110509523Y-68222380D02*
X109938095Y-68222380D01*
X110223809Y-68222380D02*
X110223809Y-67222380D01*
X110128571Y-67365238D01*
X110033333Y-67460476D01*
X109938095Y-67508095D01*
X111080952Y-67650952D02*
X110985714Y-67603333D01*
X110938095Y-67555714D01*
X110890476Y-67460476D01*
X110890476Y-67412857D01*
X110938095Y-67317619D01*
X110985714Y-67270000D01*
X111080952Y-67222380D01*
X111271428Y-67222380D01*
X111366666Y-67270000D01*
X111414285Y-67317619D01*
X111461904Y-67412857D01*
X111461904Y-67460476D01*
X111414285Y-67555714D01*
X111366666Y-67603333D01*
X111271428Y-67650952D01*
X111080952Y-67650952D01*
X110985714Y-67698571D01*
X110938095Y-67746190D01*
X110890476Y-67841428D01*
X110890476Y-68031904D01*
X110938095Y-68127142D01*
X110985714Y-68174761D01*
X111080952Y-68222380D01*
X111271428Y-68222380D01*
X111366666Y-68174761D01*
X111414285Y-68127142D01*
X111461904Y-68031904D01*
X111461904Y-67841428D01*
X111414285Y-67746190D01*
X111366666Y-67698571D01*
X111271428Y-67650952D01*
X109557142Y-71252380D02*
X109223809Y-70776190D01*
X108985714Y-71252380D02*
X108985714Y-70252380D01*
X109366666Y-70252380D01*
X109461904Y-70300000D01*
X109509523Y-70347619D01*
X109557142Y-70442857D01*
X109557142Y-70585714D01*
X109509523Y-70680952D01*
X109461904Y-70728571D01*
X109366666Y-70776190D01*
X108985714Y-70776190D01*
X110509523Y-71252380D02*
X109938095Y-71252380D01*
X110223809Y-71252380D02*
X110223809Y-70252380D01*
X110128571Y-70395238D01*
X110033333Y-70490476D01*
X109938095Y-70538095D01*
X110842857Y-70252380D02*
X111509523Y-70252380D01*
X111080952Y-71252380D01*
X101216666Y-121202380D02*
X101216666Y-121916666D01*
X101169047Y-122059523D01*
X101073809Y-122154761D01*
X100930952Y-122202380D01*
X100835714Y-122202380D01*
X102216666Y-122202380D02*
X101645238Y-122202380D01*
X101930952Y-122202380D02*
X101930952Y-121202380D01*
X101835714Y-121345238D01*
X101740476Y-121440476D01*
X101645238Y-121488095D01*
X153507142Y-107702380D02*
X153173809Y-107226190D01*
X152935714Y-107702380D02*
X152935714Y-106702380D01*
X153316666Y-106702380D01*
X153411904Y-106750000D01*
X153459523Y-106797619D01*
X153507142Y-106892857D01*
X153507142Y-107035714D01*
X153459523Y-107130952D01*
X153411904Y-107178571D01*
X153316666Y-107226190D01*
X152935714Y-107226190D01*
X153888095Y-106797619D02*
X153935714Y-106750000D01*
X154030952Y-106702380D01*
X154269047Y-106702380D01*
X154364285Y-106750000D01*
X154411904Y-106797619D01*
X154459523Y-106892857D01*
X154459523Y-106988095D01*
X154411904Y-107130952D01*
X153840476Y-107702380D01*
X154459523Y-107702380D01*
X155411904Y-107702380D02*
X154840476Y-107702380D01*
X155126190Y-107702380D02*
X155126190Y-106702380D01*
X155030952Y-106845238D01*
X154935714Y-106940476D01*
X154840476Y-106988095D01*
X174282142Y-105622380D02*
X173948809Y-105146190D01*
X173710714Y-105622380D02*
X173710714Y-104622380D01*
X174091666Y-104622380D01*
X174186904Y-104670000D01*
X174234523Y-104717619D01*
X174282142Y-104812857D01*
X174282142Y-104955714D01*
X174234523Y-105050952D01*
X174186904Y-105098571D01*
X174091666Y-105146190D01*
X173710714Y-105146190D01*
X174663095Y-104717619D02*
X174710714Y-104670000D01*
X174805952Y-104622380D01*
X175044047Y-104622380D01*
X175139285Y-104670000D01*
X175186904Y-104717619D01*
X175234523Y-104812857D01*
X175234523Y-104908095D01*
X175186904Y-105050952D01*
X174615476Y-105622380D01*
X175234523Y-105622380D01*
X175615476Y-104717619D02*
X175663095Y-104670000D01*
X175758333Y-104622380D01*
X175996428Y-104622380D01*
X176091666Y-104670000D01*
X176139285Y-104717619D01*
X176186904Y-104812857D01*
X176186904Y-104908095D01*
X176139285Y-105050952D01*
X175567857Y-105622380D01*
X176186904Y-105622380D01*
X143207142Y-108202380D02*
X142873809Y-107726190D01*
X142635714Y-108202380D02*
X142635714Y-107202380D01*
X143016666Y-107202380D01*
X143111904Y-107250000D01*
X143159523Y-107297619D01*
X143207142Y-107392857D01*
X143207142Y-107535714D01*
X143159523Y-107630952D01*
X143111904Y-107678571D01*
X143016666Y-107726190D01*
X142635714Y-107726190D01*
X143588095Y-107297619D02*
X143635714Y-107250000D01*
X143730952Y-107202380D01*
X143969047Y-107202380D01*
X144064285Y-107250000D01*
X144111904Y-107297619D01*
X144159523Y-107392857D01*
X144159523Y-107488095D01*
X144111904Y-107630952D01*
X143540476Y-108202380D01*
X144159523Y-108202380D01*
X144492857Y-107202380D02*
X145111904Y-107202380D01*
X144778571Y-107583333D01*
X144921428Y-107583333D01*
X145016666Y-107630952D01*
X145064285Y-107678571D01*
X145111904Y-107773809D01*
X145111904Y-108011904D01*
X145064285Y-108107142D01*
X145016666Y-108154761D01*
X144921428Y-108202380D01*
X144635714Y-108202380D01*
X144540476Y-108154761D01*
X144492857Y-108107142D01*
X141838095Y-85852380D02*
X141838095Y-86661904D01*
X141885714Y-86757142D01*
X141933333Y-86804761D01*
X142028571Y-86852380D01*
X142219047Y-86852380D01*
X142314285Y-86804761D01*
X142361904Y-86757142D01*
X142409523Y-86661904D01*
X142409523Y-85852380D01*
X143314285Y-86185714D02*
X143314285Y-86852380D01*
X143076190Y-85804761D02*
X142838095Y-86519047D01*
X143457142Y-86519047D01*
X134833333Y-98307142D02*
X134785714Y-98354761D01*
X134642857Y-98402380D01*
X134547619Y-98402380D01*
X134404761Y-98354761D01*
X134309523Y-98259523D01*
X134261904Y-98164285D01*
X134214285Y-97973809D01*
X134214285Y-97830952D01*
X134261904Y-97640476D01*
X134309523Y-97545238D01*
X134404761Y-97450000D01*
X134547619Y-97402380D01*
X134642857Y-97402380D01*
X134785714Y-97450000D01*
X134833333Y-97497619D01*
X135738095Y-97402380D02*
X135261904Y-97402380D01*
X135214285Y-97878571D01*
X135261904Y-97830952D01*
X135357142Y-97783333D01*
X135595238Y-97783333D01*
X135690476Y-97830952D01*
X135738095Y-97878571D01*
X135785714Y-97973809D01*
X135785714Y-98211904D01*
X135738095Y-98307142D01*
X135690476Y-98354761D01*
X135595238Y-98402380D01*
X135357142Y-98402380D01*
X135261904Y-98354761D01*
X135214285Y-98307142D01*
X172383333Y-112707142D02*
X172335714Y-112754761D01*
X172192857Y-112802380D01*
X172097619Y-112802380D01*
X171954761Y-112754761D01*
X171859523Y-112659523D01*
X171811904Y-112564285D01*
X171764285Y-112373809D01*
X171764285Y-112230952D01*
X171811904Y-112040476D01*
X171859523Y-111945238D01*
X171954761Y-111850000D01*
X172097619Y-111802380D01*
X172192857Y-111802380D01*
X172335714Y-111850000D01*
X172383333Y-111897619D01*
X173240476Y-111802380D02*
X173050000Y-111802380D01*
X172954761Y-111850000D01*
X172907142Y-111897619D01*
X172811904Y-112040476D01*
X172764285Y-112230952D01*
X172764285Y-112611904D01*
X172811904Y-112707142D01*
X172859523Y-112754761D01*
X172954761Y-112802380D01*
X173145238Y-112802380D01*
X173240476Y-112754761D01*
X173288095Y-112707142D01*
X173335714Y-112611904D01*
X173335714Y-112373809D01*
X173288095Y-112278571D01*
X173240476Y-112230952D01*
X173145238Y-112183333D01*
X172954761Y-112183333D01*
X172859523Y-112230952D01*
X172811904Y-112278571D01*
X172764285Y-112373809D01*
X138033333Y-100957142D02*
X137985714Y-101004761D01*
X137842857Y-101052380D01*
X137747619Y-101052380D01*
X137604761Y-101004761D01*
X137509523Y-100909523D01*
X137461904Y-100814285D01*
X137414285Y-100623809D01*
X137414285Y-100480952D01*
X137461904Y-100290476D01*
X137509523Y-100195238D01*
X137604761Y-100100000D01*
X137747619Y-100052380D01*
X137842857Y-100052380D01*
X137985714Y-100100000D01*
X138033333Y-100147619D01*
X138366666Y-100052380D02*
X139033333Y-100052380D01*
X138604761Y-101052380D01*
X111357142Y-63107142D02*
X111309523Y-63154761D01*
X111166666Y-63202380D01*
X111071428Y-63202380D01*
X110928571Y-63154761D01*
X110833333Y-63059523D01*
X110785714Y-62964285D01*
X110738095Y-62773809D01*
X110738095Y-62630952D01*
X110785714Y-62440476D01*
X110833333Y-62345238D01*
X110928571Y-62250000D01*
X111071428Y-62202380D01*
X111166666Y-62202380D01*
X111309523Y-62250000D01*
X111357142Y-62297619D01*
X112309523Y-63202380D02*
X111738095Y-63202380D01*
X112023809Y-63202380D02*
X112023809Y-62202380D01*
X111928571Y-62345238D01*
X111833333Y-62440476D01*
X111738095Y-62488095D01*
X113214285Y-62202380D02*
X112738095Y-62202380D01*
X112690476Y-62678571D01*
X112738095Y-62630952D01*
X112833333Y-62583333D01*
X113071428Y-62583333D01*
X113166666Y-62630952D01*
X113214285Y-62678571D01*
X113261904Y-62773809D01*
X113261904Y-63011904D01*
X113214285Y-63107142D01*
X113166666Y-63154761D01*
X113071428Y-63202380D01*
X112833333Y-63202380D01*
X112738095Y-63154761D01*
X112690476Y-63107142D01*
X128861904Y-100652380D02*
X128861904Y-99652380D01*
X129100000Y-99652380D01*
X129242857Y-99700000D01*
X129338095Y-99795238D01*
X129385714Y-99890476D01*
X129433333Y-100080952D01*
X129433333Y-100223809D01*
X129385714Y-100414285D01*
X129338095Y-100509523D01*
X129242857Y-100604761D01*
X129100000Y-100652380D01*
X128861904Y-100652380D01*
X129766666Y-99652380D02*
X130433333Y-99652380D01*
X130004761Y-100652380D01*
X118011904Y-77452380D02*
X118011904Y-76452380D01*
X118250000Y-76452380D01*
X118392857Y-76500000D01*
X118488095Y-76595238D01*
X118535714Y-76690476D01*
X118583333Y-76880952D01*
X118583333Y-77023809D01*
X118535714Y-77214285D01*
X118488095Y-77309523D01*
X118392857Y-77404761D01*
X118250000Y-77452380D01*
X118011904Y-77452380D01*
X119059523Y-77452380D02*
X119250000Y-77452380D01*
X119345238Y-77404761D01*
X119392857Y-77357142D01*
X119488095Y-77214285D01*
X119535714Y-77023809D01*
X119535714Y-76642857D01*
X119488095Y-76547619D01*
X119440476Y-76500000D01*
X119345238Y-76452380D01*
X119154761Y-76452380D01*
X119059523Y-76500000D01*
X119011904Y-76547619D01*
X118964285Y-76642857D01*
X118964285Y-76880952D01*
X119011904Y-76976190D01*
X119059523Y-77023809D01*
X119154761Y-77071428D01*
X119345238Y-77071428D01*
X119440476Y-77023809D01*
X119488095Y-76976190D01*
X119535714Y-76880952D01*
X121102380Y-67164285D02*
X120102380Y-67164285D01*
X120102380Y-66926190D01*
X120150000Y-66783333D01*
X120245238Y-66688095D01*
X120340476Y-66640476D01*
X120530952Y-66592857D01*
X120673809Y-66592857D01*
X120864285Y-66640476D01*
X120959523Y-66688095D01*
X121054761Y-66783333D01*
X121102380Y-66926190D01*
X121102380Y-67164285D01*
X121102380Y-65640476D02*
X121102380Y-66211904D01*
X121102380Y-65926190D02*
X120102380Y-65926190D01*
X120245238Y-66021428D01*
X120340476Y-66116666D01*
X120388095Y-66211904D01*
X120102380Y-65021428D02*
X120102380Y-64926190D01*
X120150000Y-64830952D01*
X120197619Y-64783333D01*
X120292857Y-64735714D01*
X120483333Y-64688095D01*
X120721428Y-64688095D01*
X120911904Y-64735714D01*
X121007142Y-64783333D01*
X121054761Y-64830952D01*
X121102380Y-64926190D01*
X121102380Y-65021428D01*
X121054761Y-65116666D01*
X121007142Y-65164285D01*
X120911904Y-65211904D01*
X120721428Y-65259523D01*
X120483333Y-65259523D01*
X120292857Y-65211904D01*
X120197619Y-65164285D01*
X120150000Y-65116666D01*
X120102380Y-65021428D01*
X119052380Y-72414285D02*
X118052380Y-72414285D01*
X118052380Y-72176190D01*
X118100000Y-72033333D01*
X118195238Y-71938095D01*
X118290476Y-71890476D01*
X118480952Y-71842857D01*
X118623809Y-71842857D01*
X118814285Y-71890476D01*
X118909523Y-71938095D01*
X119004761Y-72033333D01*
X119052380Y-72176190D01*
X119052380Y-72414285D01*
X119052380Y-70890476D02*
X119052380Y-71461904D01*
X119052380Y-71176190D02*
X118052380Y-71176190D01*
X118195238Y-71271428D01*
X118290476Y-71366666D01*
X118338095Y-71461904D01*
X119052380Y-69938095D02*
X119052380Y-70509523D01*
X119052380Y-70223809D02*
X118052380Y-70223809D01*
X118195238Y-70319047D01*
X118290476Y-70414285D01*
X118338095Y-70509523D01*
X122190476Y-86452380D02*
X122190476Y-87166666D01*
X122142857Y-87309523D01*
X122047619Y-87404761D01*
X121904761Y-87452380D01*
X121809523Y-87452380D01*
X123190476Y-87452380D02*
X122619047Y-87452380D01*
X122904761Y-87452380D02*
X122904761Y-86452380D01*
X122809523Y-86595238D01*
X122714285Y-86690476D01*
X122619047Y-86738095D01*
X123571428Y-86547619D02*
X123619047Y-86500000D01*
X123714285Y-86452380D01*
X123952380Y-86452380D01*
X124047619Y-86500000D01*
X124095238Y-86547619D01*
X124142857Y-86642857D01*
X124142857Y-86738095D01*
X124095238Y-86880952D01*
X123523809Y-87452380D01*
X124142857Y-87452380D01*
X141240476Y-108702380D02*
X141240476Y-109416666D01*
X141192857Y-109559523D01*
X141097619Y-109654761D01*
X140954761Y-109702380D01*
X140859523Y-109702380D01*
X142240476Y-109702380D02*
X141669047Y-109702380D01*
X141954761Y-109702380D02*
X141954761Y-108702380D01*
X141859523Y-108845238D01*
X141764285Y-108940476D01*
X141669047Y-108988095D01*
X143097619Y-109035714D02*
X143097619Y-109702380D01*
X142859523Y-108654761D02*
X142621428Y-109369047D01*
X143240476Y-109369047D01*
X144882142Y-88222380D02*
X144548809Y-87746190D01*
X144310714Y-88222380D02*
X144310714Y-87222380D01*
X144691666Y-87222380D01*
X144786904Y-87270000D01*
X144834523Y-87317619D01*
X144882142Y-87412857D01*
X144882142Y-87555714D01*
X144834523Y-87650952D01*
X144786904Y-87698571D01*
X144691666Y-87746190D01*
X144310714Y-87746190D01*
X145263095Y-87317619D02*
X145310714Y-87270000D01*
X145405952Y-87222380D01*
X145644047Y-87222380D01*
X145739285Y-87270000D01*
X145786904Y-87317619D01*
X145834523Y-87412857D01*
X145834523Y-87508095D01*
X145786904Y-87650952D01*
X145215476Y-88222380D01*
X145834523Y-88222380D01*
X146691666Y-87555714D02*
X146691666Y-88222380D01*
X146453571Y-87174761D02*
X146215476Y-87889047D01*
X146834523Y-87889047D01*
X148357142Y-88222380D02*
X148023809Y-87746190D01*
X147785714Y-88222380D02*
X147785714Y-87222380D01*
X148166666Y-87222380D01*
X148261904Y-87270000D01*
X148309523Y-87317619D01*
X148357142Y-87412857D01*
X148357142Y-87555714D01*
X148309523Y-87650952D01*
X148261904Y-87698571D01*
X148166666Y-87746190D01*
X147785714Y-87746190D01*
X148738095Y-87317619D02*
X148785714Y-87270000D01*
X148880952Y-87222380D01*
X149119047Y-87222380D01*
X149214285Y-87270000D01*
X149261904Y-87317619D01*
X149309523Y-87412857D01*
X149309523Y-87508095D01*
X149261904Y-87650952D01*
X148690476Y-88222380D01*
X149309523Y-88222380D01*
X150214285Y-87222380D02*
X149738095Y-87222380D01*
X149690476Y-87698571D01*
X149738095Y-87650952D01*
X149833333Y-87603333D01*
X150071428Y-87603333D01*
X150166666Y-87650952D01*
X150214285Y-87698571D01*
X150261904Y-87793809D01*
X150261904Y-88031904D01*
X150214285Y-88127142D01*
X150166666Y-88174761D01*
X150071428Y-88222380D01*
X149833333Y-88222380D01*
X149738095Y-88174761D01*
X149690476Y-88127142D01*
X151557142Y-83852380D02*
X151223809Y-83376190D01*
X150985714Y-83852380D02*
X150985714Y-82852380D01*
X151366666Y-82852380D01*
X151461904Y-82900000D01*
X151509523Y-82947619D01*
X151557142Y-83042857D01*
X151557142Y-83185714D01*
X151509523Y-83280952D01*
X151461904Y-83328571D01*
X151366666Y-83376190D01*
X150985714Y-83376190D01*
X151938095Y-82947619D02*
X151985714Y-82900000D01*
X152080952Y-82852380D01*
X152319047Y-82852380D01*
X152414285Y-82900000D01*
X152461904Y-82947619D01*
X152509523Y-83042857D01*
X152509523Y-83138095D01*
X152461904Y-83280952D01*
X151890476Y-83852380D01*
X152509523Y-83852380D01*
X153366666Y-82852380D02*
X153176190Y-82852380D01*
X153080952Y-82900000D01*
X153033333Y-82947619D01*
X152938095Y-83090476D01*
X152890476Y-83280952D01*
X152890476Y-83661904D01*
X152938095Y-83757142D01*
X152985714Y-83804761D01*
X153080952Y-83852380D01*
X153271428Y-83852380D01*
X153366666Y-83804761D01*
X153414285Y-83757142D01*
X153461904Y-83661904D01*
X153461904Y-83423809D01*
X153414285Y-83328571D01*
X153366666Y-83280952D01*
X153271428Y-83233333D01*
X153080952Y-83233333D01*
X152985714Y-83280952D01*
X152938095Y-83328571D01*
X152890476Y-83423809D01*
X151557142Y-82252380D02*
X151223809Y-81776190D01*
X150985714Y-82252380D02*
X150985714Y-81252380D01*
X151366666Y-81252380D01*
X151461904Y-81300000D01*
X151509523Y-81347619D01*
X151557142Y-81442857D01*
X151557142Y-81585714D01*
X151509523Y-81680952D01*
X151461904Y-81728571D01*
X151366666Y-81776190D01*
X150985714Y-81776190D01*
X151938095Y-81347619D02*
X151985714Y-81300000D01*
X152080952Y-81252380D01*
X152319047Y-81252380D01*
X152414285Y-81300000D01*
X152461904Y-81347619D01*
X152509523Y-81442857D01*
X152509523Y-81538095D01*
X152461904Y-81680952D01*
X151890476Y-82252380D01*
X152509523Y-82252380D01*
X152842857Y-81252380D02*
X153509523Y-81252380D01*
X153080952Y-82252380D01*
X138557142Y-86622380D02*
X138223809Y-86146190D01*
X137985714Y-86622380D02*
X137985714Y-85622380D01*
X138366666Y-85622380D01*
X138461904Y-85670000D01*
X138509523Y-85717619D01*
X138557142Y-85812857D01*
X138557142Y-85955714D01*
X138509523Y-86050952D01*
X138461904Y-86098571D01*
X138366666Y-86146190D01*
X137985714Y-86146190D01*
X138938095Y-85717619D02*
X138985714Y-85670000D01*
X139080952Y-85622380D01*
X139319047Y-85622380D01*
X139414285Y-85670000D01*
X139461904Y-85717619D01*
X139509523Y-85812857D01*
X139509523Y-85908095D01*
X139461904Y-86050952D01*
X138890476Y-86622380D01*
X139509523Y-86622380D01*
X140080952Y-86050952D02*
X139985714Y-86003333D01*
X139938095Y-85955714D01*
X139890476Y-85860476D01*
X139890476Y-85812857D01*
X139938095Y-85717619D01*
X139985714Y-85670000D01*
X140080952Y-85622380D01*
X140271428Y-85622380D01*
X140366666Y-85670000D01*
X140414285Y-85717619D01*
X140461904Y-85812857D01*
X140461904Y-85860476D01*
X140414285Y-85955714D01*
X140366666Y-86003333D01*
X140271428Y-86050952D01*
X140080952Y-86050952D01*
X139985714Y-86098571D01*
X139938095Y-86146190D01*
X139890476Y-86241428D01*
X139890476Y-86431904D01*
X139938095Y-86527142D01*
X139985714Y-86574761D01*
X140080952Y-86622380D01*
X140271428Y-86622380D01*
X140366666Y-86574761D01*
X140414285Y-86527142D01*
X140461904Y-86431904D01*
X140461904Y-86241428D01*
X140414285Y-86146190D01*
X140366666Y-86098571D01*
X140271428Y-86050952D01*
X138557142Y-89622380D02*
X138223809Y-89146190D01*
X137985714Y-89622380D02*
X137985714Y-88622380D01*
X138366666Y-88622380D01*
X138461904Y-88670000D01*
X138509523Y-88717619D01*
X138557142Y-88812857D01*
X138557142Y-88955714D01*
X138509523Y-89050952D01*
X138461904Y-89098571D01*
X138366666Y-89146190D01*
X137985714Y-89146190D01*
X138938095Y-88717619D02*
X138985714Y-88670000D01*
X139080952Y-88622380D01*
X139319047Y-88622380D01*
X139414285Y-88670000D01*
X139461904Y-88717619D01*
X139509523Y-88812857D01*
X139509523Y-88908095D01*
X139461904Y-89050952D01*
X138890476Y-89622380D01*
X139509523Y-89622380D01*
X139985714Y-89622380D02*
X140176190Y-89622380D01*
X140271428Y-89574761D01*
X140319047Y-89527142D01*
X140414285Y-89384285D01*
X140461904Y-89193809D01*
X140461904Y-88812857D01*
X140414285Y-88717619D01*
X140366666Y-88670000D01*
X140271428Y-88622380D01*
X140080952Y-88622380D01*
X139985714Y-88670000D01*
X139938095Y-88717619D01*
X139890476Y-88812857D01*
X139890476Y-89050952D01*
X139938095Y-89146190D01*
X139985714Y-89193809D01*
X140080952Y-89241428D01*
X140271428Y-89241428D01*
X140366666Y-89193809D01*
X140414285Y-89146190D01*
X140461904Y-89050952D01*
X108357142Y-65202380D02*
X108023809Y-64726190D01*
X107785714Y-65202380D02*
X107785714Y-64202380D01*
X108166666Y-64202380D01*
X108261904Y-64250000D01*
X108309523Y-64297619D01*
X108357142Y-64392857D01*
X108357142Y-64535714D01*
X108309523Y-64630952D01*
X108261904Y-64678571D01*
X108166666Y-64726190D01*
X107785714Y-64726190D01*
X108690476Y-64202380D02*
X109309523Y-64202380D01*
X108976190Y-64583333D01*
X109119047Y-64583333D01*
X109214285Y-64630952D01*
X109261904Y-64678571D01*
X109309523Y-64773809D01*
X109309523Y-65011904D01*
X109261904Y-65107142D01*
X109214285Y-65154761D01*
X109119047Y-65202380D01*
X108833333Y-65202380D01*
X108738095Y-65154761D01*
X108690476Y-65107142D01*
X109928571Y-64202380D02*
X110023809Y-64202380D01*
X110119047Y-64250000D01*
X110166666Y-64297619D01*
X110214285Y-64392857D01*
X110261904Y-64583333D01*
X110261904Y-64821428D01*
X110214285Y-65011904D01*
X110166666Y-65107142D01*
X110119047Y-65154761D01*
X110023809Y-65202380D01*
X109928571Y-65202380D01*
X109833333Y-65154761D01*
X109785714Y-65107142D01*
X109738095Y-65011904D01*
X109690476Y-64821428D01*
X109690476Y-64583333D01*
X109738095Y-64392857D01*
X109785714Y-64297619D01*
X109833333Y-64250000D01*
X109928571Y-64202380D01*
X113107142Y-74452380D02*
X112773809Y-73976190D01*
X112535714Y-74452380D02*
X112535714Y-73452380D01*
X112916666Y-73452380D01*
X113011904Y-73500000D01*
X113059523Y-73547619D01*
X113107142Y-73642857D01*
X113107142Y-73785714D01*
X113059523Y-73880952D01*
X113011904Y-73928571D01*
X112916666Y-73976190D01*
X112535714Y-73976190D01*
X113440476Y-73452380D02*
X114059523Y-73452380D01*
X113726190Y-73833333D01*
X113869047Y-73833333D01*
X113964285Y-73880952D01*
X114011904Y-73928571D01*
X114059523Y-74023809D01*
X114059523Y-74261904D01*
X114011904Y-74357142D01*
X113964285Y-74404761D01*
X113869047Y-74452380D01*
X113583333Y-74452380D01*
X113488095Y-74404761D01*
X113440476Y-74357142D01*
X115011904Y-74452380D02*
X114440476Y-74452380D01*
X114726190Y-74452380D02*
X114726190Y-73452380D01*
X114630952Y-73595238D01*
X114535714Y-73690476D01*
X114440476Y-73738095D01*
X106557142Y-74452380D02*
X106223809Y-73976190D01*
X105985714Y-74452380D02*
X105985714Y-73452380D01*
X106366666Y-73452380D01*
X106461904Y-73500000D01*
X106509523Y-73547619D01*
X106557142Y-73642857D01*
X106557142Y-73785714D01*
X106509523Y-73880952D01*
X106461904Y-73928571D01*
X106366666Y-73976190D01*
X105985714Y-73976190D01*
X106890476Y-73452380D02*
X107509523Y-73452380D01*
X107176190Y-73833333D01*
X107319047Y-73833333D01*
X107414285Y-73880952D01*
X107461904Y-73928571D01*
X107509523Y-74023809D01*
X107509523Y-74261904D01*
X107461904Y-74357142D01*
X107414285Y-74404761D01*
X107319047Y-74452380D01*
X107033333Y-74452380D01*
X106938095Y-74404761D01*
X106890476Y-74357142D01*
X107890476Y-73547619D02*
X107938095Y-73500000D01*
X108033333Y-73452380D01*
X108271428Y-73452380D01*
X108366666Y-73500000D01*
X108414285Y-73547619D01*
X108461904Y-73642857D01*
X108461904Y-73738095D01*
X108414285Y-73880952D01*
X107842857Y-74452380D01*
X108461904Y-74452380D01*
X110107142Y-74452380D02*
X109773809Y-73976190D01*
X109535714Y-74452380D02*
X109535714Y-73452380D01*
X109916666Y-73452380D01*
X110011904Y-73500000D01*
X110059523Y-73547619D01*
X110107142Y-73642857D01*
X110107142Y-73785714D01*
X110059523Y-73880952D01*
X110011904Y-73928571D01*
X109916666Y-73976190D01*
X109535714Y-73976190D01*
X110440476Y-73452380D02*
X111059523Y-73452380D01*
X110726190Y-73833333D01*
X110869047Y-73833333D01*
X110964285Y-73880952D01*
X111011904Y-73928571D01*
X111059523Y-74023809D01*
X111059523Y-74261904D01*
X111011904Y-74357142D01*
X110964285Y-74404761D01*
X110869047Y-74452380D01*
X110583333Y-74452380D01*
X110488095Y-74404761D01*
X110440476Y-74357142D01*
X111392857Y-73452380D02*
X112011904Y-73452380D01*
X111678571Y-73833333D01*
X111821428Y-73833333D01*
X111916666Y-73880952D01*
X111964285Y-73928571D01*
X112011904Y-74023809D01*
X112011904Y-74261904D01*
X111964285Y-74357142D01*
X111916666Y-74404761D01*
X111821428Y-74452380D01*
X111535714Y-74452380D01*
X111440476Y-74404761D01*
X111392857Y-74357142D01*
X115107142Y-63202380D02*
X114773809Y-62726190D01*
X114535714Y-63202380D02*
X114535714Y-62202380D01*
X114916666Y-62202380D01*
X115011904Y-62250000D01*
X115059523Y-62297619D01*
X115107142Y-62392857D01*
X115107142Y-62535714D01*
X115059523Y-62630952D01*
X115011904Y-62678571D01*
X114916666Y-62726190D01*
X114535714Y-62726190D01*
X115440476Y-62202380D02*
X116059523Y-62202380D01*
X115726190Y-62583333D01*
X115869047Y-62583333D01*
X115964285Y-62630952D01*
X116011904Y-62678571D01*
X116059523Y-62773809D01*
X116059523Y-63011904D01*
X116011904Y-63107142D01*
X115964285Y-63154761D01*
X115869047Y-63202380D01*
X115583333Y-63202380D01*
X115488095Y-63154761D01*
X115440476Y-63107142D01*
X116916666Y-62535714D02*
X116916666Y-63202380D01*
X116678571Y-62154761D02*
X116440476Y-62869047D01*
X117059523Y-62869047D01*
X116052380Y-68261904D02*
X116861904Y-68261904D01*
X116957142Y-68214285D01*
X117004761Y-68166666D01*
X117052380Y-68071428D01*
X117052380Y-67880952D01*
X117004761Y-67785714D01*
X116957142Y-67738095D01*
X116861904Y-67690476D01*
X116052380Y-67690476D01*
X117052380Y-67166666D02*
X117052380Y-66976190D01*
X117004761Y-66880952D01*
X116957142Y-66833333D01*
X116814285Y-66738095D01*
X116623809Y-66690476D01*
X116242857Y-66690476D01*
X116147619Y-66738095D01*
X116100000Y-66785714D01*
X116052380Y-66880952D01*
X116052380Y-67071428D01*
X116100000Y-67166666D01*
X116147619Y-67214285D01*
X116242857Y-67261904D01*
X116480952Y-67261904D01*
X116576190Y-67214285D01*
X116623809Y-67166666D01*
X116671428Y-67071428D01*
X116671428Y-66880952D01*
X116623809Y-66785714D01*
X116576190Y-66738095D01*
X116480952Y-66690476D01*
X114357142Y-78652380D02*
X114023809Y-78176190D01*
X113785714Y-78652380D02*
X113785714Y-77652380D01*
X114166666Y-77652380D01*
X114261904Y-77700000D01*
X114309523Y-77747619D01*
X114357142Y-77842857D01*
X114357142Y-77985714D01*
X114309523Y-78080952D01*
X114261904Y-78128571D01*
X114166666Y-78176190D01*
X113785714Y-78176190D01*
X114690476Y-77652380D02*
X115309523Y-77652380D01*
X114976190Y-78033333D01*
X115119047Y-78033333D01*
X115214285Y-78080952D01*
X115261904Y-78128571D01*
X115309523Y-78223809D01*
X115309523Y-78461904D01*
X115261904Y-78557142D01*
X115214285Y-78604761D01*
X115119047Y-78652380D01*
X114833333Y-78652380D01*
X114738095Y-78604761D01*
X114690476Y-78557142D01*
X116214285Y-77652380D02*
X115738095Y-77652380D01*
X115690476Y-78128571D01*
X115738095Y-78080952D01*
X115833333Y-78033333D01*
X116071428Y-78033333D01*
X116166666Y-78080952D01*
X116214285Y-78128571D01*
X116261904Y-78223809D01*
X116261904Y-78461904D01*
X116214285Y-78557142D01*
X116166666Y-78604761D01*
X116071428Y-78652380D01*
X115833333Y-78652380D01*
X115738095Y-78604761D01*
X115690476Y-78557142D01*
X110857142Y-78772380D02*
X110523809Y-78296190D01*
X110285714Y-78772380D02*
X110285714Y-77772380D01*
X110666666Y-77772380D01*
X110761904Y-77820000D01*
X110809523Y-77867619D01*
X110857142Y-77962857D01*
X110857142Y-78105714D01*
X110809523Y-78200952D01*
X110761904Y-78248571D01*
X110666666Y-78296190D01*
X110285714Y-78296190D01*
X111190476Y-77772380D02*
X111809523Y-77772380D01*
X111476190Y-78153333D01*
X111619047Y-78153333D01*
X111714285Y-78200952D01*
X111761904Y-78248571D01*
X111809523Y-78343809D01*
X111809523Y-78581904D01*
X111761904Y-78677142D01*
X111714285Y-78724761D01*
X111619047Y-78772380D01*
X111333333Y-78772380D01*
X111238095Y-78724761D01*
X111190476Y-78677142D01*
X112666666Y-77772380D02*
X112476190Y-77772380D01*
X112380952Y-77820000D01*
X112333333Y-77867619D01*
X112238095Y-78010476D01*
X112190476Y-78200952D01*
X112190476Y-78581904D01*
X112238095Y-78677142D01*
X112285714Y-78724761D01*
X112380952Y-78772380D01*
X112571428Y-78772380D01*
X112666666Y-78724761D01*
X112714285Y-78677142D01*
X112761904Y-78581904D01*
X112761904Y-78343809D01*
X112714285Y-78248571D01*
X112666666Y-78200952D01*
X112571428Y-78153333D01*
X112380952Y-78153333D01*
X112285714Y-78200952D01*
X112238095Y-78248571D01*
X112190476Y-78343809D01*
X102190476Y-74452380D02*
X102190476Y-75166666D01*
X102142857Y-75309523D01*
X102047619Y-75404761D01*
X101904761Y-75452380D01*
X101809523Y-75452380D01*
X103190476Y-75452380D02*
X102619047Y-75452380D01*
X102904761Y-75452380D02*
X102904761Y-74452380D01*
X102809523Y-74595238D01*
X102714285Y-74690476D01*
X102619047Y-74738095D01*
X104142857Y-75452380D02*
X103571428Y-75452380D01*
X103857142Y-75452380D02*
X103857142Y-74452380D01*
X103761904Y-74595238D01*
X103666666Y-74690476D01*
X103571428Y-74738095D01*
M02*
