M48
; DRILL file {KiCad 5.1.7-a382d34a8~87~ubuntu18.04.1} date Fri Dec  4 06:27:18 2020
; FORMAT={-:-/ absolute / inch / decimal}
; #@! TF.CreationDate,2020-12-04T06:27:18+00:00
; #@! TF.GenerationSoftware,Kicad,Pcbnew,5.1.7-a382d34a8~87~ubuntu18.04.1
; #@! TF.FileFunction,Plated,1,2,PTH
FMAT,2
INCH
T1C0.0157
T2C0.0197
T3C0.0295
T4C0.0354
T5C0.0374
T6C0.0393
T7C0.0394
T8C0.0400
T9C0.0433
T10C0.0472
T11C0.0591
T12C0.0827
T13C0.0866
T14C0.1024
T15C0.1260
%
G90
G05
T1
X4.3441Y-4.3197
X4.4471Y-4.477
X4.5577Y-3.6034
X4.5748Y-3.2126
X4.6031Y-3.6092
X4.6041Y-3.4381
X4.6155Y-4.3531
X4.6299Y-3.2126
X4.6678Y-4.3171
X4.6991Y-3.6096
X4.7073Y-3.7123
X4.7076Y-3.6604
X4.7094Y-4.1786
X4.7172Y-4.3183
X4.7596Y-2.5295
X4.7638Y-3.2126
X4.7952Y-2.9157
X4.8077Y-2.9654
X4.8115Y-2.7992
X4.8163Y-3.4625
X4.8388Y-3.1827
X4.875Y-3.615
X4.882Y-3.125
X4.9471Y-4.2441
X5.0249Y-2.8746
X5.0295Y-2.9688
X5.0491Y-4.1153
X5.0704Y-2.8643
X5.0797Y-3.6605
X5.1128Y-3.4376
X5.1459Y-2.9707
X5.1796Y-4.7493
X5.2704Y-4.5353
X5.2947Y-3.3303
X5.2949Y-3.3999
X5.3071Y-3.5118
X5.3228Y-3.8268
X5.3299Y-2.7998
X5.3602Y-2.7737
X5.4178Y-3.2194
X5.4323Y-4.3146
X5.4459Y-3.4915
X5.6725Y-3.2862
X5.6929Y-4.252
X5.7087Y-3.5827
X5.7213Y-3.2607
X5.7915Y-4.766
X5.9482Y-4.7493
X6.0315Y-3.6142
X6.0315Y-3.8268
X6.0709Y-4.2205
X6.1176Y-4.6393
X6.1767Y-3.7806
X6.6693Y-4.0709
X7.1998Y-4.7372
X7.1201Y-3.0413
X7.1391Y-2.9954
X7.1391Y-3.0873
X7.185Y-2.9764
X7.185Y-3.1063
X7.231Y-2.9954
X7.231Y-3.0873
X7.25Y-3.0413
X5.2303Y-3.0413
X5.2493Y-2.9954
X5.2493Y-3.0873
X5.2953Y-2.9764
X5.2953Y-3.1063
X5.3412Y-2.9954
X5.3412Y-3.0873
X5.3602Y-3.0413
T2
X6.4606Y-3.0413
X6.4883Y-2.9745
X6.4883Y-3.1082
X6.5551Y-2.9469
X6.5551Y-3.1358
X6.6219Y-2.9745
X6.6219Y-3.1082
X6.6496Y-3.0413
X5.8307Y-3.0413
X5.8584Y-2.9745
X5.8584Y-3.1082
X5.9252Y-2.9469
X5.9252Y-3.1358
X5.992Y-2.9745
X5.992Y-3.1082
X6.0197Y-3.0413
T3
X4.9197Y-2.5787
X4.9697Y-2.6287
X5.0197Y-2.5787
T4
X7.5197Y-3.6795
X7.5197Y-3.7795
T5
X4.0236Y-3.1142
X4.0236Y-3.2126
X4.0236Y-3.311
X4.0236Y-3.4094
X4.4488Y-3.3563
X4.5472Y-3.3563
X4.6457Y-3.3563
T6
X6.1713Y-4.3603
X6.1713Y-4.5373
X6.4271Y-4.3603
X6.4271Y-4.5373
X7.3918Y-4.3603
X7.3918Y-4.5373
X7.6476Y-4.3603
X7.6476Y-4.5373
T7
X6.4961Y-4.9606
X6.5945Y-4.9606
X4.6063Y-4.9606
X4.7047Y-4.9606
X5.2362Y-4.9606
X5.3346Y-4.9606
X7.126Y-4.9606
X7.2244Y-4.9606
X5.8661Y-4.9606
X5.9646Y-4.9606
T8
X5.4232Y-4.4669
X5.4232Y-4.5669
X5.5232Y-4.4669
X5.5232Y-4.5669
X5.6232Y-4.4669
X5.6232Y-4.5669
X5.7232Y-4.4669
X5.7232Y-4.5669
X5.8232Y-4.4669
X5.8232Y-4.5669
X4.6654Y-4.4669
X4.6654Y-4.5669
X4.7654Y-4.4669
X4.7654Y-4.5669
X4.8654Y-4.4669
X4.8654Y-4.5669
X4.9654Y-4.4669
X4.9654Y-4.5669
T9
X6.1454Y-3.4976
X6.1454Y-3.5976
X6.1454Y-4.0176
X6.8754Y-3.4976
X6.8754Y-3.5976
X6.8754Y-3.9176
X6.8754Y-4.0176
T10
X6.1454Y-3.9176
T11
X6.9114Y-2.5984
X7.126Y-2.5984
X7.3406Y-2.5984
X5.25Y-2.5984
X5.4646Y-2.5984
X5.6791Y-2.5984
X6.0846Y-2.5984
X6.2992Y-2.5984
X6.5138Y-2.5984
T12
X4.2244Y-4.7559
T13
X7.185Y-3.0413
X5.2953Y-3.0413
T14
X4.0866Y-4.5669
X4.3228Y-4.5669
T15
X6.5551Y-3.0413
X5.9252Y-3.0413
T0
M30
