M48
; DRILL file {KiCad 5.1.9-73d0e3b20d~88~ubuntu20.04.1} date Thu Mar  4 19:57:16 2021
; FORMAT={-:-/ absolute / inch / decimal}
; #@! TF.CreationDate,2021-03-04T19:57:16+00:00
; #@! TF.GenerationSoftware,Kicad,Pcbnew,5.1.9-73d0e3b20d~88~ubuntu20.04.1
; #@! TF.FileFunction,Plated,1,2,PTH
FMAT,2
INCH
T1C0.0157
T2C0.0197
T3C0.0295
T4C0.0354
T5C0.0374
T6C0.0393
T7C0.0394
T8C0.0400
T9C0.0433
T10C0.0472
T11C0.0591
T12C0.0827
T13C0.0866
T14C0.1024
T15C0.1260
%
G90
G05
T1
X4.3441Y-4.3197
X4.4471Y-4.477
X4.5577Y-3.6034
X4.5748Y-3.2126
X4.6031Y-3.6092
X4.6041Y-3.4381
X4.6155Y-4.3531
X4.6299Y-3.2126
X4.6678Y-4.3171
X4.6991Y-3.6096
X4.7073Y-3.7123
X4.7076Y-3.6604
X4.7094Y-4.1786
X4.7172Y-4.3183
X4.7382Y-2.6437
X4.7421Y-2.5177
X4.7441Y-2.5827
X4.7638Y-3.2126
X4.7952Y-2.9157
X4.8077Y-2.9654
X4.8115Y-2.7992
X4.8163Y-3.4625
X4.8388Y-3.1827
X4.875Y-3.615
X4.882Y-3.125
X4.9471Y-4.2441
X5.0249Y-2.8746
X5.0295Y-2.9688
X5.0491Y-4.1153
X5.0797Y-3.6605
X5.1128Y-3.4376
X5.1459Y-2.9707
X5.1796Y-4.7493
X5.25Y-3.0906
X5.269Y-3.0446
X5.269Y-3.1365
X5.2704Y-4.5353
X5.2947Y-3.3303
X5.2949Y-3.3999
X5.3071Y-3.5118
X5.315Y-3.0256
X5.315Y-3.1555
X5.3228Y-3.8268
X5.3609Y-3.0446
X5.3609Y-3.1365
X5.3799Y-3.0906
X5.4178Y-3.2194
X5.4323Y-4.3146
X5.4459Y-3.4915
X5.6725Y-3.2862
X5.6929Y-4.252
X5.7087Y-3.5827
X5.7126Y-4.1575
X5.7213Y-3.2607
X5.7915Y-4.766
X5.9482Y-4.7493
X5.9646Y-3.1299
X6.0315Y-3.6142
X6.0315Y-3.8268
X6.0709Y-4.2205
X6.1024Y-3.1299
X6.1176Y-4.6393
X6.1767Y-3.7806
X6.2343Y-3.2677
X6.2533Y-3.2218
X6.2533Y-3.3137
X6.2992Y-3.2028
X6.2992Y-3.3327
X6.3451Y-3.2218
X6.3451Y-3.3137
X6.3642Y-3.2677
X6.5945Y-3.1496
X6.6496Y-3.7087
X6.6496Y-3.8937
X6.6693Y-4.0709
X6.7913Y-3.1299
X7.1998Y-4.7372
T2
X5.3308Y-2.7637
X5.3585Y-2.6969
X5.3585Y-2.8305
X5.4253Y-2.6692
X5.4253Y-2.8582
X5.4921Y-2.6969
X5.4921Y-2.8305
X5.5198Y-2.7637
X5.6339Y-2.7559
X5.6615Y-2.6891
X5.6615Y-2.8227
X5.7283Y-2.6614
X5.7283Y-2.8504
X5.7952Y-2.6891
X5.7952Y-2.8227
X5.8228Y-2.7559
X6.1654Y-2.7559
X6.193Y-2.6891
X6.193Y-2.8227
X6.2598Y-2.6614
X6.2598Y-2.8504
X6.3267Y-2.6891
X6.3267Y-2.8227
X6.3543Y-2.7559
X6.4803Y-2.7559
X6.508Y-2.6891
X6.508Y-2.8227
X6.5748Y-2.6614
X6.5748Y-2.8504
X6.6416Y-2.6891
X6.6416Y-2.8227
X6.6693Y-2.7559
X6.9961Y-2.7657
X7.0237Y-2.6989
X7.0237Y-2.8326
X7.0906Y-2.6713
X7.0906Y-2.8602
X7.1574Y-2.6989
X7.1574Y-2.8326
X7.185Y-2.7657
X7.3071Y-2.7657
X7.3348Y-2.6989
X7.3348Y-2.8326
X7.4016Y-2.6713
X7.4016Y-2.8602
X7.4684Y-2.6989
X7.4684Y-2.8326
X7.4961Y-2.7657
T3
X4.9197Y-2.5787
X4.9697Y-2.6287
X5.0197Y-2.5787
X5.8055Y-3.0118
X5.8555Y-3.0118
X5.9055Y-3.0118
X6.6126Y-3.0118
X6.6626Y-3.0118
X6.7126Y-3.0118
X6.9571Y-3.1398
X7.0071Y-3.1398
X7.0571Y-3.1398
T4
X7.5197Y-3.6795
X7.5197Y-3.7795
T5
X4.0236Y-3.1142
X4.0236Y-3.2126
X4.0236Y-3.311
X4.0236Y-3.4094
X4.4488Y-3.3563
X4.5472Y-3.3563
X4.6457Y-3.3563
T6
X6.1713Y-4.3603
X6.1713Y-4.5373
X6.4271Y-4.3603
X6.4271Y-4.5373
X7.3918Y-4.3603
X7.3918Y-4.5373
X7.6476Y-4.3603
X7.6476Y-4.5373
T7
X4.6063Y-5.0
X4.7047Y-5.0
X5.2362Y-5.0
X5.3346Y-5.0
X5.8661Y-5.0
X5.9646Y-5.0
X6.4961Y-5.0
X6.5945Y-5.0
X7.126Y-5.0
X7.2244Y-5.0
X7.3622Y-3.1969
X7.6772Y-3.1969
T8
X4.6654Y-4.4669
X4.6654Y-4.5669
X4.7654Y-4.4669
X4.7654Y-4.5669
X4.8654Y-4.4669
X4.8654Y-4.5669
X4.9654Y-4.4669
X4.9654Y-4.5669
X5.4232Y-4.4669
X5.4232Y-4.5669
X5.5232Y-4.4669
X5.5232Y-4.5669
X5.6232Y-4.4669
X5.6232Y-4.5669
X5.7232Y-4.4669
X5.7232Y-4.5669
X5.8232Y-4.4669
X5.8232Y-4.5669
T9
X6.1454Y-3.4976
X6.1454Y-3.5976
X6.1454Y-4.0176
X6.8754Y-3.4976
X6.8754Y-3.5976
X6.8754Y-3.9176
X6.8754Y-4.0176
T10
X6.1454Y-3.9176
T11
X5.248Y-2.5984
X5.4626Y-2.5984
X5.6772Y-2.5984
X6.0827Y-2.5984
X6.2972Y-2.5984
X6.5118Y-2.5984
X6.9094Y-2.5984
X7.124Y-2.5984
X7.3386Y-2.5984
T12
X4.2244Y-4.7559
T13
X5.315Y-3.0906
X6.2992Y-3.2677
T14
X4.0866Y-4.5669
X4.3228Y-4.5669
T15
X5.4253Y-2.7637
X5.7283Y-2.7559
X6.2598Y-2.7559
X6.5748Y-2.7559
X7.0906Y-2.7657
X7.4016Y-2.7657
T0
M30
