G04 #@! TF.GenerationSoftware,KiCad,Pcbnew,5.1.9-73d0e3b20d~88~ubuntu20.04.1*
G04 #@! TF.CreationDate,2021-03-04T19:57:15+00:00*
G04 #@! TF.ProjectId,dc_load_unit,64635f6c-6f61-4645-9f75-6e69742e6b69,1.2*
G04 #@! TF.SameCoordinates,Original*
G04 #@! TF.FileFunction,Soldermask,Bot*
G04 #@! TF.FilePolarity,Negative*
%FSLAX46Y46*%
G04 Gerber Fmt 4.6, Leading zero omitted, Abs format (unit mm)*
G04 Created by KiCad (PCBNEW 5.1.9-73d0e3b20d~88~ubuntu20.04.1) date 2021-03-04 19:57:15*
%MOMM*%
%LPD*%
G01*
G04 APERTURE LIST*
%ADD10C,3.200000*%
%ADD11O,1.050000X1.500000*%
%ADD12R,1.050000X1.500000*%
%ADD13C,1.727200*%
%ADD14R,1.727200X1.727200*%
%ADD15O,1.727200X1.727200*%
%ADD16O,1.700000X2.000000*%
%ADD17C,1.800000*%
%ADD18R,1.800000X1.800000*%
%ADD19O,2.500000X4.500000*%
%ADD20R,2.500000X4.500000*%
%ADD21O,3.014980X1.506220*%
%ADD22R,1.300000X1.300000*%
%ADD23C,1.300000*%
%ADD24C,0.700000*%
%ADD25C,4.400000*%
%ADD26C,0.800000*%
%ADD27C,6.400000*%
%ADD28C,4.500000*%
%ADD29C,5.000000*%
%ADD30O,1.700000X1.950000*%
%ADD31O,1.950000X1.700000*%
%ADD32C,2.000000*%
G04 APERTURE END LIST*
D10*
X104000000Y-65000000D03*
X104000000Y-127000000D03*
X196000000Y-127000000D03*
X196000000Y-65000000D03*
D11*
X148730000Y-76500000D03*
X147460000Y-76500000D03*
D12*
X150000000Y-76500000D03*
D13*
X174635000Y-102047500D03*
X174635000Y-99507500D03*
X174635000Y-91379500D03*
X174635000Y-88839500D03*
X156093000Y-102047500D03*
X156093000Y-99507500D03*
X156093000Y-91379500D03*
X156093000Y-88839500D03*
D14*
X118500000Y-116000000D03*
D15*
X118500000Y-113460000D03*
X121040000Y-116000000D03*
X121040000Y-113460000D03*
X123580000Y-116000000D03*
X123580000Y-113460000D03*
X126120000Y-116000000D03*
X126120000Y-113460000D03*
D16*
X151500000Y-127000000D03*
G36*
G01*
X148150000Y-127750000D02*
X148150000Y-126250000D01*
G75*
G02*
X148400000Y-126000000I250000J0D01*
G01*
X149600000Y-126000000D01*
G75*
G02*
X149850000Y-126250000I0J-250000D01*
G01*
X149850000Y-127750000D01*
G75*
G02*
X149600000Y-128000000I-250000J0D01*
G01*
X148400000Y-128000000D01*
G75*
G02*
X148150000Y-127750000I0J250000D01*
G01*
G37*
D17*
X191000000Y-93460000D03*
D18*
X191000000Y-96000000D03*
D16*
X119500000Y-127000000D03*
G36*
G01*
X116150000Y-127750000D02*
X116150000Y-126250000D01*
G75*
G02*
X116400000Y-126000000I250000J0D01*
G01*
X117600000Y-126000000D01*
G75*
G02*
X117850000Y-126250000I0J-250000D01*
G01*
X117850000Y-127750000D01*
G75*
G02*
X117600000Y-128000000I-250000J0D01*
G01*
X116400000Y-128000000D01*
G75*
G02*
X116150000Y-127750000I0J250000D01*
G01*
G37*
X135500000Y-127000000D03*
G36*
G01*
X132150000Y-127750000D02*
X132150000Y-126250000D01*
G75*
G02*
X132400000Y-126000000I250000J0D01*
G01*
X133600000Y-126000000D01*
G75*
G02*
X133850000Y-126250000I0J-250000D01*
G01*
X133850000Y-127750000D01*
G75*
G02*
X133600000Y-128000000I-250000J0D01*
G01*
X132400000Y-128000000D01*
G75*
G02*
X132150000Y-127750000I0J250000D01*
G01*
G37*
X167500000Y-127000000D03*
G36*
G01*
X164150000Y-127750000D02*
X164150000Y-126250000D01*
G75*
G02*
X164400000Y-126000000I250000J0D01*
G01*
X165600000Y-126000000D01*
G75*
G02*
X165850000Y-126250000I0J-250000D01*
G01*
X165850000Y-127750000D01*
G75*
G02*
X165600000Y-128000000I-250000J0D01*
G01*
X164400000Y-128000000D01*
G75*
G02*
X164150000Y-127750000I0J250000D01*
G01*
G37*
X183500000Y-127000000D03*
G36*
G01*
X180150000Y-127750000D02*
X180150000Y-126250000D01*
G75*
G02*
X180400000Y-126000000I250000J0D01*
G01*
X181600000Y-126000000D01*
G75*
G02*
X181850000Y-126250000I0J-250000D01*
G01*
X181850000Y-127750000D01*
G75*
G02*
X181600000Y-128000000I-250000J0D01*
G01*
X180400000Y-128000000D01*
G75*
G02*
X180150000Y-127750000I0J250000D01*
G01*
G37*
D19*
X144200000Y-66000000D03*
X138750000Y-66000000D03*
D20*
X133300000Y-66000000D03*
D21*
X163248660Y-115247900D03*
X156751340Y-115247900D03*
X163248660Y-110752100D03*
X156751340Y-110752100D03*
X187751340Y-110752100D03*
X194248660Y-110752100D03*
X187751340Y-115247900D03*
X194248660Y-115247900D03*
D22*
X127500000Y-65500000D03*
D23*
X124960000Y-65500000D03*
X126230000Y-66770000D03*
D24*
X161166726Y-81833274D03*
X160000000Y-81350000D03*
X158833274Y-81833274D03*
X158350000Y-83000000D03*
X158833274Y-84166726D03*
X160000000Y-84650000D03*
X161166726Y-84166726D03*
X161650000Y-83000000D03*
D25*
X160000000Y-83000000D03*
D26*
X139500000Y-68500000D03*
X137802944Y-67797056D03*
X136105888Y-68500000D03*
X135402944Y-70197056D03*
X136105888Y-71894112D03*
X137802944Y-72597056D03*
X139500000Y-71894112D03*
X140202944Y-70197056D03*
D27*
X137802944Y-70197056D03*
D28*
X107300000Y-120800000D03*
D29*
X103800000Y-116000000D03*
X109800000Y-116000000D03*
D30*
X118000000Y-85250000D03*
X115500000Y-85250000D03*
G36*
G01*
X112150000Y-85975000D02*
X112150000Y-84525000D01*
G75*
G02*
X112400000Y-84275000I250000J0D01*
G01*
X113600000Y-84275000D01*
G75*
G02*
X113850000Y-84525000I0J-250000D01*
G01*
X113850000Y-85975000D01*
G75*
G02*
X113600000Y-86225000I-250000J0D01*
G01*
X112400000Y-86225000D01*
G75*
G02*
X112150000Y-85975000I0J250000D01*
G01*
G37*
D14*
X137750000Y-116000000D03*
D15*
X137750000Y-113460000D03*
X140290000Y-116000000D03*
X140290000Y-113460000D03*
X142830000Y-116000000D03*
X142830000Y-113460000D03*
X145370000Y-116000000D03*
X145370000Y-113460000D03*
X147910000Y-116000000D03*
X147910000Y-113460000D03*
G36*
G01*
X102925000Y-87450000D02*
X101475000Y-87450000D01*
G75*
G02*
X101225000Y-87200000I0J250000D01*
G01*
X101225000Y-86000000D01*
G75*
G02*
X101475000Y-85750000I250000J0D01*
G01*
X102925000Y-85750000D01*
G75*
G02*
X103175000Y-86000000I0J-250000D01*
G01*
X103175000Y-87200000D01*
G75*
G02*
X102925000Y-87450000I-250000J0D01*
G01*
G37*
D31*
X102200000Y-84100000D03*
X102200000Y-81600000D03*
X102200000Y-79100000D03*
D25*
X135000000Y-78500000D03*
D24*
X136650000Y-78500000D03*
X136166726Y-79666726D03*
X135000000Y-80150000D03*
X133833274Y-79666726D03*
X133350000Y-78500000D03*
X133833274Y-77333274D03*
X135000000Y-76850000D03*
X136166726Y-77333274D03*
D27*
X167000000Y-70000000D03*
D26*
X169400000Y-70000000D03*
X168697056Y-71697056D03*
X167000000Y-72400000D03*
X165302944Y-71697056D03*
X164600000Y-70000000D03*
X165302944Y-68302944D03*
X167000000Y-67600000D03*
X168697056Y-68302944D03*
X160697056Y-68302944D03*
X159000000Y-67600000D03*
X157302944Y-68302944D03*
X156600000Y-70000000D03*
X157302944Y-71697056D03*
X159000000Y-72400000D03*
X160697056Y-71697056D03*
X161400000Y-70000000D03*
D27*
X159000000Y-70000000D03*
X145500000Y-70000000D03*
D26*
X147900000Y-70000000D03*
X147197056Y-71697056D03*
X145500000Y-72400000D03*
X143802944Y-71697056D03*
X143100000Y-70000000D03*
X143802944Y-68302944D03*
X145500000Y-67600000D03*
X147197056Y-68302944D03*
D12*
X170500000Y-76500000D03*
D11*
X167960000Y-76500000D03*
X169230000Y-76500000D03*
D20*
X154500000Y-66000000D03*
D19*
X159950000Y-66000000D03*
X165400000Y-66000000D03*
D32*
X187000000Y-81200000D03*
X195000000Y-81200000D03*
D26*
X181797056Y-68552944D03*
X180100000Y-67850000D03*
X178402944Y-68552944D03*
X177700000Y-70250000D03*
X178402944Y-71947056D03*
X180100000Y-72650000D03*
X181797056Y-71947056D03*
X182500000Y-70250000D03*
D27*
X180100000Y-70250000D03*
X188000000Y-70250000D03*
D26*
X190400000Y-70250000D03*
X189697056Y-71947056D03*
X188000000Y-72650000D03*
X186302944Y-71947056D03*
X185600000Y-70250000D03*
X186302944Y-68552944D03*
X188000000Y-67850000D03*
X189697056Y-68552944D03*
D11*
X177980000Y-79750000D03*
X176710000Y-79750000D03*
D12*
X179250000Y-79750000D03*
D20*
X175500000Y-66000000D03*
D19*
X180950000Y-66000000D03*
X186400000Y-66000000D03*
M02*
