G04 #@! TF.GenerationSoftware,KiCad,Pcbnew,5.1.10-88a1d61d58~88~ubuntu20.04.1*
G04 #@! TF.CreationDate,2021-05-02T05:23:05+01:00*
G04 #@! TF.ProjectId,dc_load_unit,64635f6c-6f61-4645-9f75-6e69742e6b69,1.3*
G04 #@! TF.SameCoordinates,Original*
G04 #@! TF.FileFunction,Legend,Top*
G04 #@! TF.FilePolarity,Positive*
%FSLAX46Y46*%
G04 Gerber Fmt 4.6, Leading zero omitted, Abs format (unit mm)*
G04 Created by KiCad (PCBNEW 5.1.10-88a1d61d58~88~ubuntu20.04.1) date 2021-05-02 05:23:05*
%MOMM*%
%LPD*%
G01*
G04 APERTURE LIST*
%ADD10C,0.150000*%
%ADD11C,0.300000*%
%ADD12C,0.127000*%
%ADD13C,0.120000*%
%ADD14C,0.500000*%
%ADD15C,0.203200*%
%ADD16C,0.100000*%
%ADD17C,0.101600*%
G04 APERTURE END LIST*
D10*
X191952380Y-70341666D02*
X192428571Y-70341666D01*
X191857142Y-70627380D02*
X192190476Y-69627380D01*
X192523809Y-70627380D01*
X192809523Y-70579761D02*
X192952380Y-70627380D01*
X193190476Y-70627380D01*
X193285714Y-70579761D01*
X193333333Y-70532142D01*
X193380952Y-70436904D01*
X193380952Y-70341666D01*
X193333333Y-70246428D01*
X193285714Y-70198809D01*
X193190476Y-70151190D01*
X193000000Y-70103571D01*
X192904761Y-70055952D01*
X192857142Y-70008333D01*
X192809523Y-69913095D01*
X192809523Y-69817857D01*
X192857142Y-69722619D01*
X192904761Y-69675000D01*
X193000000Y-69627380D01*
X193238095Y-69627380D01*
X193380952Y-69675000D01*
X194000000Y-70151190D02*
X194000000Y-70627380D01*
X193666666Y-69627380D02*
X194000000Y-70151190D01*
X194333333Y-69627380D01*
X194857142Y-69627380D02*
X194952380Y-69627380D01*
X195047619Y-69675000D01*
X195095238Y-69722619D01*
X195142857Y-69817857D01*
X195190476Y-70008333D01*
X195190476Y-70246428D01*
X195142857Y-70436904D01*
X195095238Y-70532142D01*
X195047619Y-70579761D01*
X194952380Y-70627380D01*
X194857142Y-70627380D01*
X194761904Y-70579761D01*
X194714285Y-70532142D01*
X194666666Y-70436904D01*
X194619047Y-70246428D01*
X194619047Y-70008333D01*
X194666666Y-69817857D01*
X194714285Y-69722619D01*
X194761904Y-69675000D01*
X194857142Y-69627380D01*
X196142857Y-70627380D02*
X195571428Y-70627380D01*
X195857142Y-70627380D02*
X195857142Y-69627380D01*
X195761904Y-69770238D01*
X195666666Y-69865476D01*
X195571428Y-69913095D01*
X196523809Y-69722619D02*
X196571428Y-69675000D01*
X196666666Y-69627380D01*
X196904761Y-69627380D01*
X197000000Y-69675000D01*
X197047619Y-69722619D01*
X197095238Y-69817857D01*
X197095238Y-69913095D01*
X197047619Y-70055952D01*
X196476190Y-70627380D01*
X197095238Y-70627380D01*
X197952380Y-69627380D02*
X197761904Y-69627380D01*
X197666666Y-69675000D01*
X197619047Y-69722619D01*
X197523809Y-69865476D01*
X197476190Y-70055952D01*
X197476190Y-70436904D01*
X197523809Y-70532142D01*
X197571428Y-70579761D01*
X197666666Y-70627380D01*
X197857142Y-70627380D01*
X197952380Y-70579761D01*
X198000000Y-70532142D01*
X198047619Y-70436904D01*
X198047619Y-70198809D01*
X198000000Y-70103571D01*
X197952380Y-70055952D01*
X197857142Y-70008333D01*
X197666666Y-70008333D01*
X197571428Y-70055952D01*
X197523809Y-70103571D01*
X197476190Y-70198809D01*
X192857142Y-72277380D02*
X192523809Y-71801190D01*
X192285714Y-72277380D02*
X192285714Y-71277380D01*
X192666666Y-71277380D01*
X192761904Y-71325000D01*
X192809523Y-71372619D01*
X192857142Y-71467857D01*
X192857142Y-71610714D01*
X192809523Y-71705952D01*
X192761904Y-71753571D01*
X192666666Y-71801190D01*
X192285714Y-71801190D01*
X193285714Y-71753571D02*
X193619047Y-71753571D01*
X193761904Y-72277380D02*
X193285714Y-72277380D01*
X193285714Y-71277380D01*
X193761904Y-71277380D01*
X194047619Y-71277380D02*
X194380952Y-72277380D01*
X194714285Y-71277380D01*
X196333333Y-72277380D02*
X195761904Y-72277380D01*
X196047619Y-72277380D02*
X196047619Y-71277380D01*
X195952380Y-71420238D01*
X195857142Y-71515476D01*
X195761904Y-71563095D01*
X196761904Y-72182142D02*
X196809523Y-72229761D01*
X196761904Y-72277380D01*
X196714285Y-72229761D01*
X196761904Y-72182142D01*
X196761904Y-72277380D01*
X197142857Y-71277380D02*
X197761904Y-71277380D01*
X197428571Y-71658333D01*
X197571428Y-71658333D01*
X197666666Y-71705952D01*
X197714285Y-71753571D01*
X197761904Y-71848809D01*
X197761904Y-72086904D01*
X197714285Y-72182142D01*
X197666666Y-72229761D01*
X197571428Y-72277380D01*
X197285714Y-72277380D01*
X197190476Y-72229761D01*
X197142857Y-72182142D01*
D11*
X162892857Y-83332142D02*
X164035714Y-83332142D01*
X164535714Y-82403571D02*
X165035714Y-83903571D01*
X165535714Y-82403571D01*
X166607142Y-83832142D02*
X166464285Y-83903571D01*
X166178571Y-83903571D01*
X166035714Y-83832142D01*
X165964285Y-83689285D01*
X165964285Y-83117857D01*
X166035714Y-82975000D01*
X166178571Y-82903571D01*
X166464285Y-82903571D01*
X166607142Y-82975000D01*
X166678571Y-83117857D01*
X166678571Y-83260714D01*
X165964285Y-83403571D01*
X161750000Y-86382142D02*
X161964285Y-86453571D01*
X162321428Y-86453571D01*
X162464285Y-86382142D01*
X162535714Y-86310714D01*
X162607142Y-86167857D01*
X162607142Y-86025000D01*
X162535714Y-85882142D01*
X162464285Y-85810714D01*
X162321428Y-85739285D01*
X162035714Y-85667857D01*
X161892857Y-85596428D01*
X161821428Y-85525000D01*
X161750000Y-85382142D01*
X161750000Y-85239285D01*
X161821428Y-85096428D01*
X161892857Y-85025000D01*
X162035714Y-84953571D01*
X162392857Y-84953571D01*
X162607142Y-85025000D01*
X163821428Y-86382142D02*
X163678571Y-86453571D01*
X163392857Y-86453571D01*
X163250000Y-86382142D01*
X163178571Y-86239285D01*
X163178571Y-85667857D01*
X163250000Y-85525000D01*
X163392857Y-85453571D01*
X163678571Y-85453571D01*
X163821428Y-85525000D01*
X163892857Y-85667857D01*
X163892857Y-85810714D01*
X163178571Y-85953571D01*
X164535714Y-85453571D02*
X164535714Y-86453571D01*
X164535714Y-85596428D02*
X164607142Y-85525000D01*
X164750000Y-85453571D01*
X164964285Y-85453571D01*
X165107142Y-85525000D01*
X165178571Y-85667857D01*
X165178571Y-86453571D01*
X165821428Y-86382142D02*
X165964285Y-86453571D01*
X166250000Y-86453571D01*
X166392857Y-86382142D01*
X166464285Y-86239285D01*
X166464285Y-86167857D01*
X166392857Y-86025000D01*
X166250000Y-85953571D01*
X166035714Y-85953571D01*
X165892857Y-85882142D01*
X165821428Y-85739285D01*
X165821428Y-85667857D01*
X165892857Y-85525000D01*
X166035714Y-85453571D01*
X166250000Y-85453571D01*
X166392857Y-85525000D01*
X167678571Y-86382142D02*
X167535714Y-86453571D01*
X167250000Y-86453571D01*
X167107142Y-86382142D01*
X167035714Y-86239285D01*
X167035714Y-85667857D01*
X167107142Y-85525000D01*
X167250000Y-85453571D01*
X167535714Y-85453571D01*
X167678571Y-85525000D01*
X167750000Y-85667857D01*
X167750000Y-85810714D01*
X167035714Y-85953571D01*
X138214285Y-78332142D02*
X139357142Y-78332142D01*
X138785714Y-78903571D02*
X138785714Y-77760714D01*
X139928571Y-77903571D02*
X140285714Y-78903571D01*
X140642857Y-77903571D01*
X141785714Y-78832142D02*
X141642857Y-78903571D01*
X141357142Y-78903571D01*
X141214285Y-78832142D01*
X141142857Y-78689285D01*
X141142857Y-78117857D01*
X141214285Y-77975000D01*
X141357142Y-77903571D01*
X141642857Y-77903571D01*
X141785714Y-77975000D01*
X141857142Y-78117857D01*
X141857142Y-78260714D01*
X141142857Y-78403571D01*
X137000000Y-81382142D02*
X137214285Y-81453571D01*
X137571428Y-81453571D01*
X137714285Y-81382142D01*
X137785714Y-81310714D01*
X137857142Y-81167857D01*
X137857142Y-81025000D01*
X137785714Y-80882142D01*
X137714285Y-80810714D01*
X137571428Y-80739285D01*
X137285714Y-80667857D01*
X137142857Y-80596428D01*
X137071428Y-80525000D01*
X137000000Y-80382142D01*
X137000000Y-80239285D01*
X137071428Y-80096428D01*
X137142857Y-80025000D01*
X137285714Y-79953571D01*
X137642857Y-79953571D01*
X137857142Y-80025000D01*
X139071428Y-81382142D02*
X138928571Y-81453571D01*
X138642857Y-81453571D01*
X138500000Y-81382142D01*
X138428571Y-81239285D01*
X138428571Y-80667857D01*
X138500000Y-80525000D01*
X138642857Y-80453571D01*
X138928571Y-80453571D01*
X139071428Y-80525000D01*
X139142857Y-80667857D01*
X139142857Y-80810714D01*
X138428571Y-80953571D01*
X139785714Y-80453571D02*
X139785714Y-81453571D01*
X139785714Y-80596428D02*
X139857142Y-80525000D01*
X140000000Y-80453571D01*
X140214285Y-80453571D01*
X140357142Y-80525000D01*
X140428571Y-80667857D01*
X140428571Y-81453571D01*
X141071428Y-81382142D02*
X141214285Y-81453571D01*
X141500000Y-81453571D01*
X141642857Y-81382142D01*
X141714285Y-81239285D01*
X141714285Y-81167857D01*
X141642857Y-81025000D01*
X141500000Y-80953571D01*
X141285714Y-80953571D01*
X141142857Y-80882142D01*
X141071428Y-80739285D01*
X141071428Y-80667857D01*
X141142857Y-80525000D01*
X141285714Y-80453571D01*
X141500000Y-80453571D01*
X141642857Y-80525000D01*
X142928571Y-81382142D02*
X142785714Y-81453571D01*
X142500000Y-81453571D01*
X142357142Y-81382142D01*
X142285714Y-81239285D01*
X142285714Y-80667857D01*
X142357142Y-80525000D01*
X142500000Y-80453571D01*
X142785714Y-80453571D01*
X142928571Y-80525000D01*
X143000000Y-80667857D01*
X143000000Y-80810714D01*
X142285714Y-80953571D01*
X182857142Y-73857142D02*
X183071428Y-73928571D01*
X183428571Y-73928571D01*
X183571428Y-73857142D01*
X183642857Y-73785714D01*
X183714285Y-73642857D01*
X183714285Y-73500000D01*
X183642857Y-73357142D01*
X183571428Y-73285714D01*
X183428571Y-73214285D01*
X183142857Y-73142857D01*
X183000000Y-73071428D01*
X182928571Y-73000000D01*
X182857142Y-72857142D01*
X182857142Y-72714285D01*
X182928571Y-72571428D01*
X183000000Y-72500000D01*
X183142857Y-72428571D01*
X183500000Y-72428571D01*
X183714285Y-72500000D01*
X184214285Y-72428571D02*
X185142857Y-72428571D01*
X184642857Y-73000000D01*
X184857142Y-73000000D01*
X185000000Y-73071428D01*
X185071428Y-73142857D01*
X185142857Y-73285714D01*
X185142857Y-73642857D01*
X185071428Y-73785714D01*
X185000000Y-73857142D01*
X184857142Y-73928571D01*
X184428571Y-73928571D01*
X184285714Y-73857142D01*
X184214285Y-73785714D01*
X175250000Y-72892857D02*
X174750000Y-72892857D01*
X174750000Y-73678571D02*
X174750000Y-72178571D01*
X175464285Y-72178571D01*
X175892857Y-72178571D02*
X176821428Y-72178571D01*
X176321428Y-72750000D01*
X176535714Y-72750000D01*
X176678571Y-72821428D01*
X176750000Y-72892857D01*
X176821428Y-73035714D01*
X176821428Y-73392857D01*
X176750000Y-73535714D01*
X176678571Y-73607142D01*
X176535714Y-73678571D01*
X176107142Y-73678571D01*
X175964285Y-73607142D01*
X175892857Y-73535714D01*
X140607142Y-73857142D02*
X140821428Y-73928571D01*
X141178571Y-73928571D01*
X141321428Y-73857142D01*
X141392857Y-73785714D01*
X141464285Y-73642857D01*
X141464285Y-73500000D01*
X141392857Y-73357142D01*
X141321428Y-73285714D01*
X141178571Y-73214285D01*
X140892857Y-73142857D01*
X140750000Y-73071428D01*
X140678571Y-73000000D01*
X140607142Y-72857142D01*
X140607142Y-72714285D01*
X140678571Y-72571428D01*
X140750000Y-72500000D01*
X140892857Y-72428571D01*
X141250000Y-72428571D01*
X141464285Y-72500000D01*
X142892857Y-73928571D02*
X142035714Y-73928571D01*
X142464285Y-73928571D02*
X142464285Y-72428571D01*
X142321428Y-72642857D01*
X142178571Y-72785714D01*
X142035714Y-72857142D01*
X133500000Y-73142857D02*
X133000000Y-73142857D01*
X133000000Y-73928571D02*
X133000000Y-72428571D01*
X133714285Y-72428571D01*
X135071428Y-73928571D02*
X134214285Y-73928571D01*
X134642857Y-73928571D02*
X134642857Y-72428571D01*
X134500000Y-72642857D01*
X134357142Y-72785714D01*
X134214285Y-72857142D01*
X154750000Y-73142857D02*
X154250000Y-73142857D01*
X154250000Y-73928571D02*
X154250000Y-72428571D01*
X154964285Y-72428571D01*
X155464285Y-72571428D02*
X155535714Y-72500000D01*
X155678571Y-72428571D01*
X156035714Y-72428571D01*
X156178571Y-72500000D01*
X156250000Y-72571428D01*
X156321428Y-72714285D01*
X156321428Y-72857142D01*
X156250000Y-73071428D01*
X155392857Y-73928571D01*
X156321428Y-73928571D01*
X161857142Y-73607142D02*
X162071428Y-73678571D01*
X162428571Y-73678571D01*
X162571428Y-73607142D01*
X162642857Y-73535714D01*
X162714285Y-73392857D01*
X162714285Y-73250000D01*
X162642857Y-73107142D01*
X162571428Y-73035714D01*
X162428571Y-72964285D01*
X162142857Y-72892857D01*
X162000000Y-72821428D01*
X161928571Y-72750000D01*
X161857142Y-72607142D01*
X161857142Y-72464285D01*
X161928571Y-72321428D01*
X162000000Y-72250000D01*
X162142857Y-72178571D01*
X162500000Y-72178571D01*
X162714285Y-72250000D01*
X163285714Y-72321428D02*
X163357142Y-72250000D01*
X163500000Y-72178571D01*
X163857142Y-72178571D01*
X164000000Y-72250000D01*
X164071428Y-72321428D01*
X164142857Y-72464285D01*
X164142857Y-72607142D01*
X164071428Y-72821428D01*
X163214285Y-73678571D01*
X164142857Y-73678571D01*
X105200000Y-78378571D02*
X105700000Y-79878571D01*
X106200000Y-78378571D01*
X107557142Y-79735714D02*
X107485714Y-79807142D01*
X107271428Y-79878571D01*
X107128571Y-79878571D01*
X106914285Y-79807142D01*
X106771428Y-79664285D01*
X106700000Y-79521428D01*
X106628571Y-79235714D01*
X106628571Y-79021428D01*
X106700000Y-78735714D01*
X106771428Y-78592857D01*
X106914285Y-78450000D01*
X107128571Y-78378571D01*
X107271428Y-78378571D01*
X107485714Y-78450000D01*
X107557142Y-78521428D01*
X109057142Y-79735714D02*
X108985714Y-79807142D01*
X108771428Y-79878571D01*
X108628571Y-79878571D01*
X108414285Y-79807142D01*
X108271428Y-79664285D01*
X108200000Y-79521428D01*
X108128571Y-79235714D01*
X108128571Y-79021428D01*
X108200000Y-78735714D01*
X108271428Y-78592857D01*
X108414285Y-78450000D01*
X108628571Y-78378571D01*
X108771428Y-78378571D01*
X108985714Y-78450000D01*
X109057142Y-78521428D01*
X106035714Y-82278571D02*
X105535714Y-81564285D01*
X105178571Y-82278571D02*
X105178571Y-80778571D01*
X105750000Y-80778571D01*
X105892857Y-80850000D01*
X105964285Y-80921428D01*
X106035714Y-81064285D01*
X106035714Y-81278571D01*
X105964285Y-81421428D01*
X105892857Y-81492857D01*
X105750000Y-81564285D01*
X105178571Y-81564285D01*
X106535714Y-80778571D02*
X107535714Y-82278571D01*
X107535714Y-80778571D02*
X106535714Y-82278571D01*
X108035714Y-80921428D02*
X108107142Y-80850000D01*
X108250000Y-80778571D01*
X108607142Y-80778571D01*
X108750000Y-80850000D01*
X108821428Y-80921428D01*
X108892857Y-81064285D01*
X108892857Y-81207142D01*
X108821428Y-81421428D01*
X107964285Y-82278571D01*
X108892857Y-82278571D01*
X105142857Y-83378571D02*
X106000000Y-83378571D01*
X105571428Y-84878571D02*
X105571428Y-83378571D01*
X106357142Y-83378571D02*
X107357142Y-84878571D01*
X107357142Y-83378571D02*
X106357142Y-84878571D01*
X108714285Y-84878571D02*
X107857142Y-84878571D01*
X108285714Y-84878571D02*
X108285714Y-83378571D01*
X108142857Y-83592857D01*
X108000000Y-83735714D01*
X107857142Y-83807142D01*
X105857142Y-85750000D02*
X105714285Y-85678571D01*
X105500000Y-85678571D01*
X105285714Y-85750000D01*
X105142857Y-85892857D01*
X105071428Y-86035714D01*
X105000000Y-86321428D01*
X105000000Y-86535714D01*
X105071428Y-86821428D01*
X105142857Y-86964285D01*
X105285714Y-87107142D01*
X105500000Y-87178571D01*
X105642857Y-87178571D01*
X105857142Y-87107142D01*
X105928571Y-87035714D01*
X105928571Y-86535714D01*
X105642857Y-86535714D01*
X106571428Y-87178571D02*
X106571428Y-85678571D01*
X107428571Y-87178571D01*
X107428571Y-85678571D01*
X108142857Y-87178571D02*
X108142857Y-85678571D01*
X108500000Y-85678571D01*
X108714285Y-85750000D01*
X108857142Y-85892857D01*
X108928571Y-86035714D01*
X109000000Y-86321428D01*
X109000000Y-86535714D01*
X108928571Y-86821428D01*
X108857142Y-86964285D01*
X108714285Y-87107142D01*
X108500000Y-87178571D01*
X108142857Y-87178571D01*
X118250000Y-82928571D02*
X117750000Y-82214285D01*
X117392857Y-82928571D02*
X117392857Y-81428571D01*
X117964285Y-81428571D01*
X118107142Y-81500000D01*
X118178571Y-81571428D01*
X118250000Y-81714285D01*
X118250000Y-81928571D01*
X118178571Y-82071428D01*
X118107142Y-82142857D01*
X117964285Y-82214285D01*
X117392857Y-82214285D01*
X118750000Y-81428571D02*
X119750000Y-82928571D01*
X119750000Y-81428571D02*
X118750000Y-82928571D01*
X114357142Y-81428571D02*
X115214285Y-81428571D01*
X114785714Y-82928571D02*
X114785714Y-81428571D01*
X115571428Y-81428571D02*
X116571428Y-82928571D01*
X116571428Y-81428571D02*
X115571428Y-82928571D01*
X110607142Y-81500000D02*
X110464285Y-81428571D01*
X110250000Y-81428571D01*
X110035714Y-81500000D01*
X109892857Y-81642857D01*
X109821428Y-81785714D01*
X109750000Y-82071428D01*
X109750000Y-82285714D01*
X109821428Y-82571428D01*
X109892857Y-82714285D01*
X110035714Y-82857142D01*
X110250000Y-82928571D01*
X110392857Y-82928571D01*
X110607142Y-82857142D01*
X110678571Y-82785714D01*
X110678571Y-82285714D01*
X110392857Y-82285714D01*
X111321428Y-82928571D02*
X111321428Y-81428571D01*
X112178571Y-82928571D01*
X112178571Y-81428571D01*
X112892857Y-82928571D02*
X112892857Y-81428571D01*
X113250000Y-81428571D01*
X113464285Y-81500000D01*
X113607142Y-81642857D01*
X113678571Y-81785714D01*
X113750000Y-82071428D01*
X113750000Y-82285714D01*
X113678571Y-82571428D01*
X113607142Y-82714285D01*
X113464285Y-82857142D01*
X113250000Y-82928571D01*
X112892857Y-82928571D01*
X158321428Y-108928571D02*
X157821428Y-108214285D01*
X157464285Y-108928571D02*
X157464285Y-107428571D01*
X158035714Y-107428571D01*
X158178571Y-107500000D01*
X158250000Y-107571428D01*
X158321428Y-107714285D01*
X158321428Y-107928571D01*
X158250000Y-108071428D01*
X158178571Y-108142857D01*
X158035714Y-108214285D01*
X157464285Y-108214285D01*
X158964285Y-108142857D02*
X159464285Y-108142857D01*
X159678571Y-108928571D02*
X158964285Y-108928571D01*
X158964285Y-107428571D01*
X159678571Y-107428571D01*
X160250000Y-108857142D02*
X160464285Y-108928571D01*
X160821428Y-108928571D01*
X160964285Y-108857142D01*
X161035714Y-108785714D01*
X161107142Y-108642857D01*
X161107142Y-108500000D01*
X161035714Y-108357142D01*
X160964285Y-108285714D01*
X160821428Y-108214285D01*
X160535714Y-108142857D01*
X160392857Y-108071428D01*
X160321428Y-108000000D01*
X160250000Y-107857142D01*
X160250000Y-107714285D01*
X160321428Y-107571428D01*
X160392857Y-107500000D01*
X160535714Y-107428571D01*
X160892857Y-107428571D01*
X161107142Y-107500000D01*
X161750000Y-108142857D02*
X162250000Y-108142857D01*
X162464285Y-108928571D02*
X161750000Y-108928571D01*
X161750000Y-107428571D01*
X162464285Y-107428571D01*
X162892857Y-107428571D02*
X163750000Y-107428571D01*
X163321428Y-108928571D02*
X163321428Y-107428571D01*
X187785714Y-101607142D02*
X188000000Y-101678571D01*
X188357142Y-101678571D01*
X188500000Y-101607142D01*
X188571428Y-101535714D01*
X188642857Y-101392857D01*
X188642857Y-101250000D01*
X188571428Y-101107142D01*
X188500000Y-101035714D01*
X188357142Y-100964285D01*
X188071428Y-100892857D01*
X187928571Y-100821428D01*
X187857142Y-100750000D01*
X187785714Y-100607142D01*
X187785714Y-100464285D01*
X187857142Y-100321428D01*
X187928571Y-100250000D01*
X188071428Y-100178571D01*
X188428571Y-100178571D01*
X188642857Y-100250000D01*
X189071428Y-100178571D02*
X189928571Y-100178571D01*
X189500000Y-101678571D02*
X189500000Y-100178571D01*
X190357142Y-101250000D02*
X191071428Y-101250000D01*
X190214285Y-101678571D02*
X190714285Y-100178571D01*
X191214285Y-101678571D01*
X191500000Y-100178571D02*
X192357142Y-100178571D01*
X191928571Y-101678571D02*
X191928571Y-100178571D01*
X192857142Y-100178571D02*
X192857142Y-101392857D01*
X192928571Y-101535714D01*
X193000000Y-101607142D01*
X193142857Y-101678571D01*
X193428571Y-101678571D01*
X193571428Y-101607142D01*
X193642857Y-101535714D01*
X193714285Y-101392857D01*
X193714285Y-100178571D01*
X194357142Y-101607142D02*
X194571428Y-101678571D01*
X194928571Y-101678571D01*
X195071428Y-101607142D01*
X195142857Y-101535714D01*
X195214285Y-101392857D01*
X195214285Y-101250000D01*
X195142857Y-101107142D01*
X195071428Y-101035714D01*
X194928571Y-100964285D01*
X194642857Y-100892857D01*
X194500000Y-100821428D01*
X194428571Y-100750000D01*
X194357142Y-100607142D01*
X194357142Y-100464285D01*
X194428571Y-100321428D01*
X194500000Y-100250000D01*
X194642857Y-100178571D01*
X195000000Y-100178571D01*
X195214285Y-100250000D01*
X183928571Y-107178571D02*
X184285714Y-108678571D01*
X184571428Y-107607142D01*
X184857142Y-108678571D01*
X185214285Y-107178571D01*
X185785714Y-108678571D02*
X185785714Y-107178571D01*
X187000000Y-107892857D02*
X186500000Y-107892857D01*
X186500000Y-108678571D02*
X186500000Y-107178571D01*
X187214285Y-107178571D01*
X187785714Y-108678571D02*
X187785714Y-107178571D01*
X189571428Y-108607142D02*
X189785714Y-108678571D01*
X190142857Y-108678571D01*
X190285714Y-108607142D01*
X190357142Y-108535714D01*
X190428571Y-108392857D01*
X190428571Y-108250000D01*
X190357142Y-108107142D01*
X190285714Y-108035714D01*
X190142857Y-107964285D01*
X189857142Y-107892857D01*
X189714285Y-107821428D01*
X189642857Y-107750000D01*
X189571428Y-107607142D01*
X189571428Y-107464285D01*
X189642857Y-107321428D01*
X189714285Y-107250000D01*
X189857142Y-107178571D01*
X190214285Y-107178571D01*
X190428571Y-107250000D01*
X191071428Y-107892857D02*
X191571428Y-107892857D01*
X191785714Y-108678571D02*
X191071428Y-108678571D01*
X191071428Y-107178571D01*
X191785714Y-107178571D01*
X192214285Y-107178571D02*
X193071428Y-107178571D01*
X192642857Y-108678571D02*
X192642857Y-107178571D01*
X193571428Y-107178571D02*
X193571428Y-108392857D01*
X193642857Y-108535714D01*
X193714285Y-108607142D01*
X193857142Y-108678571D01*
X194142857Y-108678571D01*
X194285714Y-108607142D01*
X194357142Y-108535714D01*
X194428571Y-108392857D01*
X194428571Y-107178571D01*
X195142857Y-108678571D02*
X195142857Y-107178571D01*
X195714285Y-107178571D01*
X195857142Y-107250000D01*
X195928571Y-107321428D01*
X196000000Y-107464285D01*
X196000000Y-107678571D01*
X195928571Y-107821428D01*
X195857142Y-107892857D01*
X195714285Y-107964285D01*
X195142857Y-107964285D01*
D12*
X154314000Y-87063500D02*
X154314000Y-103823500D01*
X154314000Y-103823500D02*
X176414000Y-103823500D01*
X176414000Y-103823500D02*
X176414000Y-87063500D01*
X176414000Y-87063500D02*
X154314000Y-87063500D01*
D13*
X113150000Y-110055000D02*
X131470000Y-110055000D01*
X131470000Y-110055000D02*
X131470000Y-119405000D01*
X131470000Y-119405000D02*
X113150000Y-119405000D01*
X113150000Y-119405000D02*
X113150000Y-110055000D01*
X112900000Y-119655000D02*
X115440000Y-119655000D01*
X112900000Y-119655000D02*
X112900000Y-117115000D01*
X185960000Y-122530000D02*
X185960000Y-121600000D01*
X185960000Y-119370000D02*
X185960000Y-120300000D01*
X185960000Y-119370000D02*
X183800000Y-119370000D01*
X185960000Y-122530000D02*
X184500000Y-122530000D01*
X171160000Y-123580000D02*
X171160000Y-122650000D01*
X171160000Y-120420000D02*
X171160000Y-121350000D01*
X171160000Y-120420000D02*
X169000000Y-120420000D01*
X171160000Y-123580000D02*
X169700000Y-123580000D01*
X155160000Y-123580000D02*
X155160000Y-122650000D01*
X155160000Y-120420000D02*
X155160000Y-121350000D01*
X155160000Y-120420000D02*
X153000000Y-120420000D01*
X155160000Y-123580000D02*
X153700000Y-123580000D01*
X139160000Y-123380000D02*
X139160000Y-122450000D01*
X139160000Y-120220000D02*
X139160000Y-121150000D01*
X139160000Y-120220000D02*
X137000000Y-120220000D01*
X139160000Y-123380000D02*
X137700000Y-123380000D01*
X123160000Y-123380000D02*
X123160000Y-122450000D01*
X123160000Y-120220000D02*
X123160000Y-121150000D01*
X123160000Y-120220000D02*
X121000000Y-120220000D01*
X123160000Y-123380000D02*
X121700000Y-123380000D01*
X146390000Y-125290000D02*
X146390000Y-129310000D01*
X146390000Y-129310000D02*
X154110000Y-129310000D01*
X154110000Y-129310000D02*
X154110000Y-125290000D01*
X154110000Y-125290000D02*
X146390000Y-125290000D01*
X146390000Y-127000000D02*
X146890000Y-127000000D01*
X146890000Y-127000000D02*
X146890000Y-125790000D01*
X146890000Y-125790000D02*
X153610000Y-125790000D01*
X153610000Y-125790000D02*
X153610000Y-127000000D01*
X153610000Y-127000000D02*
X154110000Y-127000000D01*
X146390000Y-127810000D02*
X147390000Y-127810000D01*
X147390000Y-127810000D02*
X147390000Y-129310000D01*
X154110000Y-127810000D02*
X153110000Y-127810000D01*
X153110000Y-127810000D02*
X153110000Y-129310000D01*
X146090000Y-127110000D02*
X146090000Y-129610000D01*
X146090000Y-129610000D02*
X148590000Y-129610000D01*
X157760000Y-118078733D02*
X157760000Y-118421267D01*
X156740000Y-118078733D02*
X156740000Y-118421267D01*
D14*
X106479981Y-108706000D02*
G75*
G03*
X106479981Y-108706000I-283981J0D01*
G01*
D10*
X106050000Y-89800000D02*
X106050000Y-107800000D01*
X100050000Y-107800000D02*
X125550000Y-107800000D01*
X100050000Y-89800000D02*
X125550000Y-89800000D01*
X125550000Y-89800000D02*
X125550000Y-107800000D01*
X100050000Y-89800000D02*
X100050000Y-107800000D01*
D13*
X112997936Y-121490000D02*
X114202064Y-121490000D01*
X112997936Y-123310000D02*
X114202064Y-123310000D01*
X118228733Y-122290000D02*
X118571267Y-122290000D01*
X118228733Y-123310000D02*
X118571267Y-123310000D01*
X151160000Y-92385436D02*
X151160000Y-93589564D01*
X149340000Y-92385436D02*
X149340000Y-93589564D01*
X143510000Y-89428733D02*
X143510000Y-89771267D01*
X142490000Y-89428733D02*
X142490000Y-89771267D01*
X108171267Y-110760000D02*
X107828733Y-110760000D01*
X108171267Y-109740000D02*
X107828733Y-109740000D01*
X125971267Y-84910000D02*
X125628733Y-84910000D01*
X125971267Y-83890000D02*
X125628733Y-83890000D01*
X129371267Y-84910000D02*
X129028733Y-84910000D01*
X129371267Y-83890000D02*
X129028733Y-83890000D01*
X119921267Y-73760000D02*
X119578733Y-73760000D01*
X119921267Y-72740000D02*
X119578733Y-72740000D01*
X130990000Y-70921267D02*
X130990000Y-70578733D01*
X132010000Y-70921267D02*
X132010000Y-70578733D01*
X129240000Y-66671267D02*
X129240000Y-66328733D01*
X130260000Y-66671267D02*
X130260000Y-66328733D01*
X124500000Y-122600000D02*
X124500000Y-128300000D01*
X124500000Y-128300000D02*
X127500000Y-128300000D01*
X127500000Y-128300000D02*
X127500000Y-122600000D01*
X140500000Y-122600000D02*
X140500000Y-128300000D01*
X140500000Y-128300000D02*
X143500000Y-128300000D01*
X143500000Y-128300000D02*
X143500000Y-122600000D01*
X182090000Y-96089564D02*
X182090000Y-94885436D01*
X183910000Y-96089564D02*
X183910000Y-94885436D01*
X156500000Y-122600000D02*
X156500000Y-128300000D01*
X156500000Y-128300000D02*
X159500000Y-128300000D01*
X159500000Y-128300000D02*
X159500000Y-122600000D01*
X172500000Y-122600000D02*
X172500000Y-128300000D01*
X172500000Y-128300000D02*
X175500000Y-128300000D01*
X175500000Y-128300000D02*
X175500000Y-122600000D01*
X187300000Y-122400000D02*
X187300000Y-128100000D01*
X187300000Y-128100000D02*
X190300000Y-128100000D01*
X190300000Y-128100000D02*
X190300000Y-122400000D01*
X195000000Y-94730000D02*
G75*
G03*
X195000000Y-94730000I-4000000J0D01*
G01*
X188858000Y-98790000D02*
X193142000Y-98790000D01*
X190999514Y-90140000D02*
G75*
G02*
X193141145Y-98790000I486J-4590000D01*
G01*
X191000486Y-90140000D02*
G75*
G03*
X188858855Y-98790000I-486J-4590000D01*
G01*
X114390000Y-125290000D02*
X114390000Y-129310000D01*
X114390000Y-129310000D02*
X122110000Y-129310000D01*
X122110000Y-129310000D02*
X122110000Y-125290000D01*
X122110000Y-125290000D02*
X114390000Y-125290000D01*
X114390000Y-127000000D02*
X114890000Y-127000000D01*
X114890000Y-127000000D02*
X114890000Y-125790000D01*
X114890000Y-125790000D02*
X121610000Y-125790000D01*
X121610000Y-125790000D02*
X121610000Y-127000000D01*
X121610000Y-127000000D02*
X122110000Y-127000000D01*
X114390000Y-127810000D02*
X115390000Y-127810000D01*
X115390000Y-127810000D02*
X115390000Y-129310000D01*
X122110000Y-127810000D02*
X121110000Y-127810000D01*
X121110000Y-127810000D02*
X121110000Y-129310000D01*
X114090000Y-127110000D02*
X114090000Y-129610000D01*
X114090000Y-129610000D02*
X116590000Y-129610000D01*
X130390000Y-125290000D02*
X130390000Y-129310000D01*
X130390000Y-129310000D02*
X138110000Y-129310000D01*
X138110000Y-129310000D02*
X138110000Y-125290000D01*
X138110000Y-125290000D02*
X130390000Y-125290000D01*
X130390000Y-127000000D02*
X130890000Y-127000000D01*
X130890000Y-127000000D02*
X130890000Y-125790000D01*
X130890000Y-125790000D02*
X137610000Y-125790000D01*
X137610000Y-125790000D02*
X137610000Y-127000000D01*
X137610000Y-127000000D02*
X138110000Y-127000000D01*
X130390000Y-127810000D02*
X131390000Y-127810000D01*
X131390000Y-127810000D02*
X131390000Y-129310000D01*
X138110000Y-127810000D02*
X137110000Y-127810000D01*
X137110000Y-127810000D02*
X137110000Y-129310000D01*
X130090000Y-127110000D02*
X130090000Y-129610000D01*
X130090000Y-129610000D02*
X132590000Y-129610000D01*
X162390000Y-125290000D02*
X162390000Y-129310000D01*
X162390000Y-129310000D02*
X170110000Y-129310000D01*
X170110000Y-129310000D02*
X170110000Y-125290000D01*
X170110000Y-125290000D02*
X162390000Y-125290000D01*
X162390000Y-127000000D02*
X162890000Y-127000000D01*
X162890000Y-127000000D02*
X162890000Y-125790000D01*
X162890000Y-125790000D02*
X169610000Y-125790000D01*
X169610000Y-125790000D02*
X169610000Y-127000000D01*
X169610000Y-127000000D02*
X170110000Y-127000000D01*
X162390000Y-127810000D02*
X163390000Y-127810000D01*
X163390000Y-127810000D02*
X163390000Y-129310000D01*
X170110000Y-127810000D02*
X169110000Y-127810000D01*
X169110000Y-127810000D02*
X169110000Y-129310000D01*
X162090000Y-127110000D02*
X162090000Y-129610000D01*
X162090000Y-129610000D02*
X164590000Y-129610000D01*
X178390000Y-125290000D02*
X178390000Y-129310000D01*
X178390000Y-129310000D02*
X186110000Y-129310000D01*
X186110000Y-129310000D02*
X186110000Y-125290000D01*
X186110000Y-125290000D02*
X178390000Y-125290000D01*
X178390000Y-127000000D02*
X178890000Y-127000000D01*
X178890000Y-127000000D02*
X178890000Y-125790000D01*
X178890000Y-125790000D02*
X185610000Y-125790000D01*
X185610000Y-125790000D02*
X185610000Y-127000000D01*
X185610000Y-127000000D02*
X186110000Y-127000000D01*
X178390000Y-127810000D02*
X179390000Y-127810000D01*
X179390000Y-127810000D02*
X179390000Y-129310000D01*
X186110000Y-127810000D02*
X185110000Y-127810000D01*
X185110000Y-127810000D02*
X185110000Y-129310000D01*
X178090000Y-127110000D02*
X178090000Y-129610000D01*
X178090000Y-129610000D02*
X180590000Y-129610000D01*
X130680000Y-63549000D02*
X146820000Y-63549000D01*
X130680000Y-68820000D02*
X146820000Y-68820000D01*
X130680000Y-63549000D02*
X130680000Y-68820000D01*
X146820000Y-63549000D02*
X146820000Y-68820000D01*
X136946000Y-63549000D02*
X136946000Y-68820000D01*
X140555000Y-63549000D02*
X140555000Y-68820000D01*
X151171267Y-109510000D02*
X150828733Y-109510000D01*
X151171267Y-108490000D02*
X150828733Y-108490000D01*
X134828733Y-105490000D02*
X135171267Y-105490000D01*
X134828733Y-106510000D02*
X135171267Y-106510000D01*
X158740000Y-118421267D02*
X158740000Y-118078733D01*
X159760000Y-118421267D02*
X159760000Y-118078733D01*
X125971267Y-83310000D02*
X125628733Y-83310000D01*
X125971267Y-82290000D02*
X125628733Y-82290000D01*
X129371267Y-83310000D02*
X129028733Y-83310000D01*
X129371267Y-82290000D02*
X129028733Y-82290000D01*
X145428733Y-85890000D02*
X145771267Y-85890000D01*
X145428733Y-86910000D02*
X145771267Y-86910000D01*
X148828733Y-85890000D02*
X149171267Y-85890000D01*
X148828733Y-86910000D02*
X149171267Y-86910000D01*
X179996267Y-95810000D02*
X179653733Y-95810000D01*
X179996267Y-94790000D02*
X179653733Y-94790000D01*
X132428733Y-88490000D02*
X132771267Y-88490000D01*
X132428733Y-89510000D02*
X132771267Y-89510000D01*
X132771267Y-87910000D02*
X132428733Y-87910000D01*
X132771267Y-86890000D02*
X132428733Y-86890000D01*
X118328733Y-79240000D02*
X118671267Y-79240000D01*
X118328733Y-80260000D02*
X118671267Y-80260000D01*
X121828733Y-79240000D02*
X122171267Y-79240000D01*
X121828733Y-80260000D02*
X122171267Y-80260000D01*
X128260000Y-77328733D02*
X128260000Y-77671267D01*
X127240000Y-77328733D02*
X127240000Y-77671267D01*
X131510000Y-77328733D02*
X131510000Y-77671267D01*
X130490000Y-77328733D02*
X130490000Y-77671267D01*
D15*
X161747520Y-113000000D02*
G75*
G03*
X161747520Y-113000000I-1747520J0D01*
G01*
X156901200Y-113998220D02*
X156901200Y-112001780D01*
X161498600Y-116098800D02*
X158501400Y-116098800D01*
X163098800Y-113998220D02*
X163098800Y-112001780D01*
X161498600Y-109901200D02*
X158501400Y-109901200D01*
X192747520Y-113000000D02*
G75*
G03*
X192747520Y-113000000I-1747520J0D01*
G01*
X194098800Y-112001780D02*
X194098800Y-113998220D01*
X189501400Y-109901200D02*
X192498600Y-109901200D01*
X187901200Y-112001780D02*
X187901200Y-113998220D01*
X189501400Y-116098800D02*
X192498600Y-116098800D01*
D13*
X146110000Y-98610000D02*
X146110000Y-97350000D01*
X146110000Y-91790000D02*
X146110000Y-93050000D01*
X142350000Y-98610000D02*
X146110000Y-98610000D01*
X140100000Y-91790000D02*
X146110000Y-91790000D01*
X146310000Y-106610000D02*
X146310000Y-105350000D01*
X146310000Y-99790000D02*
X146310000Y-101050000D01*
X142550000Y-106610000D02*
X146310000Y-106610000D01*
X140300000Y-99790000D02*
X146310000Y-99790000D01*
D10*
X124825000Y-72225000D02*
X124825000Y-72050000D01*
X121575000Y-72225000D02*
X121575000Y-71950000D01*
X121575000Y-68975000D02*
X121575000Y-69250000D01*
X124825000Y-68975000D02*
X124825000Y-69250000D01*
X124825000Y-72225000D02*
X121575000Y-72225000D01*
X124825000Y-68975000D02*
X121575000Y-68975000D01*
X124825000Y-72050000D02*
X125900000Y-72050000D01*
D13*
X128030000Y-63650000D02*
X124430000Y-63650000D01*
X124391522Y-63661522D02*
G75*
G03*
X126230000Y-68100000I1838478J-1838478D01*
G01*
X128068478Y-63661522D02*
G75*
G02*
X126230000Y-68100000I-1838478J-1838478D01*
G01*
X132771267Y-92710000D02*
X132428733Y-92710000D01*
X132771267Y-91690000D02*
X132428733Y-91690000D01*
X132771267Y-91110000D02*
X132428733Y-91110000D01*
X132771267Y-90090000D02*
X132428733Y-90090000D01*
X110028733Y-68690000D02*
X110371267Y-68690000D01*
X110028733Y-69710000D02*
X110371267Y-69710000D01*
X110371267Y-72910000D02*
X110028733Y-72910000D01*
X110371267Y-71890000D02*
X110028733Y-71890000D01*
X110600000Y-111400000D02*
X110600000Y-113500000D01*
X96200000Y-111400000D02*
X110600000Y-111400000D01*
X110600000Y-120600000D02*
X109700000Y-120600000D01*
X110600000Y-118500000D02*
X110600000Y-120600000D01*
X96200000Y-120600000D02*
X96200000Y-111400000D01*
X104900000Y-120600000D02*
X96200000Y-120600000D01*
X109750000Y-111200000D02*
X110800000Y-111200000D01*
X110800000Y-112250000D02*
X110800000Y-111200000D01*
X151171267Y-107760000D02*
X150828733Y-107760000D01*
X151171267Y-106740000D02*
X150828733Y-106740000D01*
X174753733Y-106090000D02*
X175096267Y-106090000D01*
X174753733Y-107110000D02*
X175096267Y-107110000D01*
X147078733Y-107240000D02*
X147421267Y-107240000D01*
X147078733Y-108260000D02*
X147421267Y-108260000D01*
X140600000Y-81990000D02*
X139100000Y-81990000D01*
X140600000Y-81990000D02*
X142100000Y-81990000D01*
X140600000Y-85210000D02*
X139100000Y-85210000D01*
X140600000Y-85210000D02*
X143475000Y-85210000D01*
X132000000Y-97110000D02*
X138935000Y-97110000D01*
X138935000Y-97110000D02*
X138935000Y-93690000D01*
X138935000Y-93690000D02*
X132000000Y-93690000D01*
X169550000Y-111510000D02*
X176485000Y-111510000D01*
X176485000Y-111510000D02*
X176485000Y-108090000D01*
X176485000Y-108090000D02*
X169550000Y-108090000D01*
X132000000Y-104910000D02*
X138935000Y-104910000D01*
X138935000Y-104910000D02*
X138935000Y-101490000D01*
X138935000Y-101490000D02*
X132000000Y-101490000D01*
X112421267Y-63740000D02*
X112078733Y-63740000D01*
X112421267Y-64760000D02*
X112078733Y-64760000D01*
X136500000Y-99100000D02*
X132700000Y-99100000D01*
X136500000Y-100900000D02*
X136500000Y-99100000D01*
X132700000Y-100900000D02*
X136500000Y-100900000D01*
X119850000Y-74350000D02*
X116050000Y-74350000D01*
X116050000Y-74350000D02*
X116050000Y-76150000D01*
X116050000Y-76150000D02*
X119850000Y-76150000D01*
X123150000Y-68650000D02*
X123150000Y-64850000D01*
X121350000Y-68650000D02*
X123150000Y-68650000D01*
X121350000Y-64850000D02*
X121350000Y-68650000D01*
X117900000Y-72300000D02*
X117900000Y-68500000D01*
X117900000Y-68500000D02*
X116100000Y-68500000D01*
X116100000Y-68500000D02*
X116100000Y-72300000D01*
X110390000Y-83540000D02*
X110390000Y-87560000D01*
X110390000Y-87560000D02*
X120610000Y-87560000D01*
X120610000Y-87560000D02*
X120610000Y-83540000D01*
X120610000Y-83540000D02*
X110390000Y-83540000D01*
X110390000Y-85250000D02*
X110890000Y-85250000D01*
X110890000Y-85250000D02*
X110890000Y-84040000D01*
X110890000Y-84040000D02*
X120110000Y-84040000D01*
X120110000Y-84040000D02*
X120110000Y-85250000D01*
X120110000Y-85250000D02*
X120610000Y-85250000D01*
X110390000Y-86060000D02*
X111390000Y-86060000D01*
X111390000Y-86060000D02*
X111390000Y-87560000D01*
X120610000Y-86060000D02*
X119610000Y-86060000D01*
X119610000Y-86060000D02*
X119610000Y-87560000D01*
X110090000Y-85360000D02*
X110090000Y-87860000D01*
X110090000Y-87860000D02*
X112590000Y-87860000D01*
X132150000Y-119655000D02*
X132150000Y-117115000D01*
X132150000Y-119655000D02*
X134690000Y-119655000D01*
X132400000Y-119405000D02*
X132400000Y-110055000D01*
X153260000Y-119405000D02*
X132400000Y-119405000D01*
X153260000Y-110055000D02*
X153260000Y-119405000D01*
X132400000Y-110055000D02*
X153260000Y-110055000D01*
X148828733Y-81290000D02*
X149171267Y-81290000D01*
X148828733Y-82310000D02*
X149171267Y-82310000D01*
X110371267Y-66710000D02*
X110028733Y-66710000D01*
X110371267Y-65690000D02*
X110028733Y-65690000D01*
X114171267Y-75090000D02*
X113828733Y-75090000D01*
X114171267Y-76110000D02*
X113828733Y-76110000D01*
X107371267Y-76110000D02*
X107028733Y-76110000D01*
X107371267Y-75090000D02*
X107028733Y-75090000D01*
X110771267Y-75090000D02*
X110428733Y-75090000D01*
X110771267Y-76110000D02*
X110428733Y-76110000D01*
X117928733Y-67660000D02*
X118271267Y-67660000D01*
X117928733Y-66640000D02*
X118271267Y-66640000D01*
D16*
X112620000Y-65680000D02*
X113000000Y-65410000D01*
X112620000Y-65700000D02*
X112620000Y-65680000D01*
X112620000Y-65740000D02*
X112620000Y-65700000D01*
X112620000Y-66580000D02*
X112620000Y-65740000D01*
X112460000Y-66580000D02*
X112620000Y-66580000D01*
X115400000Y-69650000D02*
X114900000Y-69650000D01*
X115400000Y-69650000D02*
X115400000Y-69150000D01*
X112600000Y-69600000D02*
X112600000Y-69100000D01*
X115400000Y-65350000D02*
X115400000Y-65850000D01*
X115400000Y-65350000D02*
X114900000Y-65350000D01*
X112600000Y-69650000D02*
X113000000Y-69650000D01*
X113000000Y-69650000D02*
X113100000Y-69650000D01*
D13*
X115171267Y-80260000D02*
X114828733Y-80260000D01*
X115171267Y-79240000D02*
X114828733Y-79240000D01*
X111328733Y-80260000D02*
X111671267Y-80260000D01*
X111328733Y-79240000D02*
X111671267Y-79240000D01*
X104810000Y-89510000D02*
X104810000Y-87010000D01*
X102310000Y-89510000D02*
X104810000Y-89510000D01*
X103010000Y-77490000D02*
X104510000Y-77490000D01*
X103010000Y-76490000D02*
X103010000Y-77490000D01*
X103010000Y-88210000D02*
X104510000Y-88210000D01*
X103010000Y-89210000D02*
X103010000Y-88210000D01*
X102200000Y-76990000D02*
X102200000Y-76490000D01*
X100990000Y-76990000D02*
X102200000Y-76990000D01*
X100990000Y-88710000D02*
X100990000Y-76990000D01*
X102200000Y-88710000D02*
X100990000Y-88710000D01*
X102200000Y-89210000D02*
X102200000Y-88710000D01*
X100490000Y-76490000D02*
X100490000Y-89210000D01*
X104510000Y-76490000D02*
X100490000Y-76490000D01*
X104510000Y-89210000D02*
X104510000Y-76490000D01*
X100490000Y-89210000D02*
X104510000Y-89210000D01*
X114090000Y-71438748D02*
X114090000Y-71961252D01*
X115510000Y-71438748D02*
X115510000Y-71961252D01*
X161755000Y-63549000D02*
X161755000Y-68820000D01*
X158146000Y-63549000D02*
X158146000Y-68820000D01*
X168020000Y-63549000D02*
X168020000Y-68820000D01*
X151880000Y-63549000D02*
X151880000Y-68820000D01*
X151880000Y-68820000D02*
X168020000Y-68820000D01*
X151880000Y-63549000D02*
X168020000Y-63549000D01*
X143828733Y-78990000D02*
X144171267Y-78990000D01*
X143828733Y-80010000D02*
X144171267Y-80010000D01*
X164453733Y-80010000D02*
X164796267Y-80010000D01*
X164453733Y-78990000D02*
X164796267Y-78990000D01*
D10*
X198071068Y-81200000D02*
G75*
G03*
X198071068Y-81200000I-7071068J0D01*
G01*
D13*
X172880000Y-63549000D02*
X189020000Y-63549000D01*
X172880000Y-68820000D02*
X189020000Y-68820000D01*
X172880000Y-63549000D02*
X172880000Y-68820000D01*
X189020000Y-63549000D02*
X189020000Y-68820000D01*
X179146000Y-63549000D02*
X179146000Y-68820000D01*
X182755000Y-63549000D02*
X182755000Y-68820000D01*
X173546267Y-80490000D02*
X173203733Y-80490000D01*
X173546267Y-81510000D02*
X173203733Y-81510000D01*
X144161252Y-77410000D02*
X143638748Y-77410000D01*
X144161252Y-75990000D02*
X143638748Y-75990000D01*
X164861252Y-75790000D02*
X164338748Y-75790000D01*
X164861252Y-77210000D02*
X164338748Y-77210000D01*
X176261252Y-76910000D02*
X175738748Y-76910000D01*
X176261252Y-75490000D02*
X175738748Y-75490000D01*
X139271267Y-89410000D02*
X138928733Y-89410000D01*
X139271267Y-88390000D02*
X138928733Y-88390000D01*
X153610000Y-86896267D02*
X153610000Y-86553733D01*
X152590000Y-86896267D02*
X152590000Y-86553733D01*
X133346267Y-74590000D02*
X133003733Y-74590000D01*
X133346267Y-75610000D02*
X133003733Y-75610000D01*
D16*
X175448600Y-102047500D02*
G75*
G03*
X175448600Y-102047500I-813600J0D01*
G01*
X175448600Y-99507500D02*
G75*
G03*
X175448600Y-99507500I-813600J0D01*
G01*
X175448600Y-91379500D02*
G75*
G03*
X175448600Y-91379500I-813600J0D01*
G01*
X175448600Y-88839500D02*
G75*
G03*
X175448600Y-88839500I-813600J0D01*
G01*
X156906600Y-102047500D02*
G75*
G03*
X156906600Y-102047500I-813600J0D01*
G01*
X156906600Y-99507500D02*
G75*
G03*
X156906600Y-99507500I-813600J0D01*
G01*
X156906600Y-91379500D02*
G75*
G03*
X156906600Y-91379500I-813600J0D01*
G01*
X156906600Y-88839500D02*
G75*
G03*
X156906600Y-88839500I-813600J0D01*
G01*
D10*
X107952380Y-130452380D02*
X107619047Y-129976190D01*
X107380952Y-130452380D02*
X107380952Y-129452380D01*
X107761904Y-129452380D01*
X107857142Y-129500000D01*
X107904761Y-129547619D01*
X107952380Y-129642857D01*
X107952380Y-129785714D01*
X107904761Y-129880952D01*
X107857142Y-129928571D01*
X107761904Y-129976190D01*
X107380952Y-129976190D01*
X108380952Y-129928571D02*
X108714285Y-129928571D01*
X108857142Y-130452380D02*
X108380952Y-130452380D01*
X108380952Y-129452380D01*
X108857142Y-129452380D01*
X109619047Y-129928571D02*
X109285714Y-129928571D01*
X109285714Y-130452380D02*
X109285714Y-129452380D01*
X109761904Y-129452380D01*
X110571428Y-129785714D02*
X110571428Y-130452380D01*
X110333333Y-129404761D02*
X110095238Y-130119047D01*
X110714285Y-130119047D01*
X194952380Y-123252380D02*
X194619047Y-122776190D01*
X194380952Y-123252380D02*
X194380952Y-122252380D01*
X194761904Y-122252380D01*
X194857142Y-122300000D01*
X194904761Y-122347619D01*
X194952380Y-122442857D01*
X194952380Y-122585714D01*
X194904761Y-122680952D01*
X194857142Y-122728571D01*
X194761904Y-122776190D01*
X194380952Y-122776190D01*
X195380952Y-122728571D02*
X195714285Y-122728571D01*
X195857142Y-123252380D02*
X195380952Y-123252380D01*
X195380952Y-122252380D01*
X195857142Y-122252380D01*
X196619047Y-122728571D02*
X196285714Y-122728571D01*
X196285714Y-123252380D02*
X196285714Y-122252380D01*
X196761904Y-122252380D01*
X197047619Y-122252380D02*
X197666666Y-122252380D01*
X197333333Y-122633333D01*
X197476190Y-122633333D01*
X197571428Y-122680952D01*
X197619047Y-122728571D01*
X197666666Y-122823809D01*
X197666666Y-123061904D01*
X197619047Y-123157142D01*
X197571428Y-123204761D01*
X197476190Y-123252380D01*
X197190476Y-123252380D01*
X197095238Y-123204761D01*
X197047619Y-123157142D01*
X189952380Y-62452380D02*
X189619047Y-61976190D01*
X189380952Y-62452380D02*
X189380952Y-61452380D01*
X189761904Y-61452380D01*
X189857142Y-61500000D01*
X189904761Y-61547619D01*
X189952380Y-61642857D01*
X189952380Y-61785714D01*
X189904761Y-61880952D01*
X189857142Y-61928571D01*
X189761904Y-61976190D01*
X189380952Y-61976190D01*
X190380952Y-61928571D02*
X190714285Y-61928571D01*
X190857142Y-62452380D02*
X190380952Y-62452380D01*
X190380952Y-61452380D01*
X190857142Y-61452380D01*
X191619047Y-61928571D02*
X191285714Y-61928571D01*
X191285714Y-62452380D02*
X191285714Y-61452380D01*
X191761904Y-61452380D01*
X192095238Y-61547619D02*
X192142857Y-61500000D01*
X192238095Y-61452380D01*
X192476190Y-61452380D01*
X192571428Y-61500000D01*
X192619047Y-61547619D01*
X192666666Y-61642857D01*
X192666666Y-61738095D01*
X192619047Y-61880952D01*
X192047619Y-62452380D01*
X192666666Y-62452380D01*
X102452380Y-71047619D02*
X101976190Y-71380952D01*
X102452380Y-71619047D02*
X101452380Y-71619047D01*
X101452380Y-71238095D01*
X101500000Y-71142857D01*
X101547619Y-71095238D01*
X101642857Y-71047619D01*
X101785714Y-71047619D01*
X101880952Y-71095238D01*
X101928571Y-71142857D01*
X101976190Y-71238095D01*
X101976190Y-71619047D01*
X101928571Y-70619047D02*
X101928571Y-70285714D01*
X102452380Y-70142857D02*
X102452380Y-70619047D01*
X101452380Y-70619047D01*
X101452380Y-70142857D01*
X101928571Y-69380952D02*
X101928571Y-69714285D01*
X102452380Y-69714285D02*
X101452380Y-69714285D01*
X101452380Y-69238095D01*
X102452380Y-68333333D02*
X102452380Y-68904761D01*
X102452380Y-68619047D02*
X101452380Y-68619047D01*
X101595238Y-68714285D01*
X101690476Y-68809523D01*
X101738095Y-68904761D01*
X174738095Y-85452380D02*
X174738095Y-86261904D01*
X174785714Y-86357142D01*
X174833333Y-86404761D01*
X174928571Y-86452380D01*
X175119047Y-86452380D01*
X175214285Y-86404761D01*
X175261904Y-86357142D01*
X175309523Y-86261904D01*
X175309523Y-85452380D01*
X176309523Y-86452380D02*
X175738095Y-86452380D01*
X176023809Y-86452380D02*
X176023809Y-85452380D01*
X175928571Y-85595238D01*
X175833333Y-85690476D01*
X175738095Y-85738095D01*
X157236142Y-100594928D02*
X157998047Y-100594928D01*
X157617095Y-100975880D02*
X157617095Y-100213976D01*
X158474238Y-100975880D02*
X158474238Y-99975880D01*
X158950428Y-100975880D02*
X158950428Y-99975880D01*
X159521857Y-100975880D01*
X159521857Y-99975880D01*
X157236142Y-89799928D02*
X157998047Y-89799928D01*
X158474238Y-90180880D02*
X158474238Y-89180880D01*
X158950428Y-90180880D02*
X158950428Y-89180880D01*
X159521857Y-90180880D01*
X159521857Y-89180880D01*
X169269476Y-90434928D02*
X170031380Y-90434928D01*
X170698047Y-89815880D02*
X170888523Y-89815880D01*
X170983761Y-89863500D01*
X171079000Y-89958738D01*
X171126619Y-90149214D01*
X171126619Y-90482547D01*
X171079000Y-90673023D01*
X170983761Y-90768261D01*
X170888523Y-90815880D01*
X170698047Y-90815880D01*
X170602809Y-90768261D01*
X170507571Y-90673023D01*
X170459952Y-90482547D01*
X170459952Y-90149214D01*
X170507571Y-89958738D01*
X170602809Y-89863500D01*
X170698047Y-89815880D01*
X171555190Y-89815880D02*
X171555190Y-90625404D01*
X171602809Y-90720642D01*
X171650428Y-90768261D01*
X171745666Y-90815880D01*
X171936142Y-90815880D01*
X172031380Y-90768261D01*
X172079000Y-90720642D01*
X172126619Y-90625404D01*
X172126619Y-89815880D01*
X172459952Y-89815880D02*
X173031380Y-89815880D01*
X172745666Y-90815880D02*
X172745666Y-89815880D01*
X169269476Y-100594928D02*
X170031380Y-100594928D01*
X169650428Y-100975880D02*
X169650428Y-100213976D01*
X170698047Y-99975880D02*
X170888523Y-99975880D01*
X170983761Y-100023500D01*
X171079000Y-100118738D01*
X171126619Y-100309214D01*
X171126619Y-100642547D01*
X171079000Y-100833023D01*
X170983761Y-100928261D01*
X170888523Y-100975880D01*
X170698047Y-100975880D01*
X170602809Y-100928261D01*
X170507571Y-100833023D01*
X170459952Y-100642547D01*
X170459952Y-100309214D01*
X170507571Y-100118738D01*
X170602809Y-100023500D01*
X170698047Y-99975880D01*
X171555190Y-99975880D02*
X171555190Y-100785404D01*
X171602809Y-100880642D01*
X171650428Y-100928261D01*
X171745666Y-100975880D01*
X171936142Y-100975880D01*
X172031380Y-100928261D01*
X172079000Y-100880642D01*
X172126619Y-100785404D01*
X172126619Y-99975880D01*
X172459952Y-99975880D02*
X173031380Y-99975880D01*
X172745666Y-100975880D02*
X172745666Y-99975880D01*
X111348380Y-115539523D02*
X112062666Y-115539523D01*
X112205523Y-115587142D01*
X112300761Y-115682380D01*
X112348380Y-115825238D01*
X112348380Y-115920476D01*
X112348380Y-114539523D02*
X112348380Y-115110952D01*
X112348380Y-114825238D02*
X111348380Y-114825238D01*
X111491238Y-114920476D01*
X111586476Y-115015714D01*
X111634095Y-115110952D01*
X111348380Y-114206190D02*
X111348380Y-113587142D01*
X111729333Y-113920476D01*
X111729333Y-113777619D01*
X111776952Y-113682380D01*
X111824571Y-113634761D01*
X111919809Y-113587142D01*
X112157904Y-113587142D01*
X112253142Y-113634761D01*
X112300761Y-113682380D01*
X112348380Y-113777619D01*
X112348380Y-114063333D01*
X112300761Y-114158571D01*
X112253142Y-114206190D01*
X187904761Y-120297619D02*
X187809523Y-120250000D01*
X187714285Y-120154761D01*
X187571428Y-120011904D01*
X187476190Y-119964285D01*
X187380952Y-119964285D01*
X187428571Y-120202380D02*
X187333333Y-120154761D01*
X187238095Y-120059523D01*
X187190476Y-119869047D01*
X187190476Y-119535714D01*
X187238095Y-119345238D01*
X187333333Y-119250000D01*
X187428571Y-119202380D01*
X187619047Y-119202380D01*
X187714285Y-119250000D01*
X187809523Y-119345238D01*
X187857142Y-119535714D01*
X187857142Y-119869047D01*
X187809523Y-120059523D01*
X187714285Y-120154761D01*
X187619047Y-120202380D01*
X187428571Y-120202380D01*
X188190476Y-119202380D02*
X188857142Y-119202380D01*
X188428571Y-120202380D01*
X173104761Y-121347619D02*
X173009523Y-121300000D01*
X172914285Y-121204761D01*
X172771428Y-121061904D01*
X172676190Y-121014285D01*
X172580952Y-121014285D01*
X172628571Y-121252380D02*
X172533333Y-121204761D01*
X172438095Y-121109523D01*
X172390476Y-120919047D01*
X172390476Y-120585714D01*
X172438095Y-120395238D01*
X172533333Y-120300000D01*
X172628571Y-120252380D01*
X172819047Y-120252380D01*
X172914285Y-120300000D01*
X173009523Y-120395238D01*
X173057142Y-120585714D01*
X173057142Y-120919047D01*
X173009523Y-121109523D01*
X172914285Y-121204761D01*
X172819047Y-121252380D01*
X172628571Y-121252380D01*
X173961904Y-120252380D02*
X173485714Y-120252380D01*
X173438095Y-120728571D01*
X173485714Y-120680952D01*
X173580952Y-120633333D01*
X173819047Y-120633333D01*
X173914285Y-120680952D01*
X173961904Y-120728571D01*
X174009523Y-120823809D01*
X174009523Y-121061904D01*
X173961904Y-121157142D01*
X173914285Y-121204761D01*
X173819047Y-121252380D01*
X173580952Y-121252380D01*
X173485714Y-121204761D01*
X173438095Y-121157142D01*
X157104761Y-121347619D02*
X157009523Y-121300000D01*
X156914285Y-121204761D01*
X156771428Y-121061904D01*
X156676190Y-121014285D01*
X156580952Y-121014285D01*
X156628571Y-121252380D02*
X156533333Y-121204761D01*
X156438095Y-121109523D01*
X156390476Y-120919047D01*
X156390476Y-120585714D01*
X156438095Y-120395238D01*
X156533333Y-120300000D01*
X156628571Y-120252380D01*
X156819047Y-120252380D01*
X156914285Y-120300000D01*
X157009523Y-120395238D01*
X157057142Y-120585714D01*
X157057142Y-120919047D01*
X157009523Y-121109523D01*
X156914285Y-121204761D01*
X156819047Y-121252380D01*
X156628571Y-121252380D01*
X157390476Y-120252380D02*
X158009523Y-120252380D01*
X157676190Y-120633333D01*
X157819047Y-120633333D01*
X157914285Y-120680952D01*
X157961904Y-120728571D01*
X158009523Y-120823809D01*
X158009523Y-121061904D01*
X157961904Y-121157142D01*
X157914285Y-121204761D01*
X157819047Y-121252380D01*
X157533333Y-121252380D01*
X157438095Y-121204761D01*
X157390476Y-121157142D01*
X141104761Y-121347619D02*
X141009523Y-121300000D01*
X140914285Y-121204761D01*
X140771428Y-121061904D01*
X140676190Y-121014285D01*
X140580952Y-121014285D01*
X140628571Y-121252380D02*
X140533333Y-121204761D01*
X140438095Y-121109523D01*
X140390476Y-120919047D01*
X140390476Y-120585714D01*
X140438095Y-120395238D01*
X140533333Y-120300000D01*
X140628571Y-120252380D01*
X140819047Y-120252380D01*
X140914285Y-120300000D01*
X141009523Y-120395238D01*
X141057142Y-120585714D01*
X141057142Y-120919047D01*
X141009523Y-121109523D01*
X140914285Y-121204761D01*
X140819047Y-121252380D01*
X140628571Y-121252380D01*
X141438095Y-120347619D02*
X141485714Y-120300000D01*
X141580952Y-120252380D01*
X141819047Y-120252380D01*
X141914285Y-120300000D01*
X141961904Y-120347619D01*
X142009523Y-120442857D01*
X142009523Y-120538095D01*
X141961904Y-120680952D01*
X141390476Y-121252380D01*
X142009523Y-121252380D01*
X125104761Y-121347619D02*
X125009523Y-121300000D01*
X124914285Y-121204761D01*
X124771428Y-121061904D01*
X124676190Y-121014285D01*
X124580952Y-121014285D01*
X124628571Y-121252380D02*
X124533333Y-121204761D01*
X124438095Y-121109523D01*
X124390476Y-120919047D01*
X124390476Y-120585714D01*
X124438095Y-120395238D01*
X124533333Y-120300000D01*
X124628571Y-120252380D01*
X124819047Y-120252380D01*
X124914285Y-120300000D01*
X125009523Y-120395238D01*
X125057142Y-120585714D01*
X125057142Y-120919047D01*
X125009523Y-121109523D01*
X124914285Y-121204761D01*
X124819047Y-121252380D01*
X124628571Y-121252380D01*
X126009523Y-121252380D02*
X125438095Y-121252380D01*
X125723809Y-121252380D02*
X125723809Y-120252380D01*
X125628571Y-120395238D01*
X125533333Y-120490476D01*
X125438095Y-120538095D01*
X144666666Y-126452380D02*
X144666666Y-127166666D01*
X144619047Y-127309523D01*
X144523809Y-127404761D01*
X144380952Y-127452380D01*
X144285714Y-127452380D01*
X145571428Y-126785714D02*
X145571428Y-127452380D01*
X145333333Y-126404761D02*
X145095238Y-127119047D01*
X145714285Y-127119047D01*
X156202380Y-118416666D02*
X155726190Y-118750000D01*
X156202380Y-118988095D02*
X155202380Y-118988095D01*
X155202380Y-118607142D01*
X155250000Y-118511904D01*
X155297619Y-118464285D01*
X155392857Y-118416666D01*
X155535714Y-118416666D01*
X155630952Y-118464285D01*
X155678571Y-118511904D01*
X155726190Y-118607142D01*
X155726190Y-118988095D01*
X155535714Y-117559523D02*
X156202380Y-117559523D01*
X155154761Y-117797619D02*
X155869047Y-118035714D01*
X155869047Y-117416666D01*
X127252380Y-98811904D02*
X128061904Y-98811904D01*
X128157142Y-98764285D01*
X128204761Y-98716666D01*
X128252380Y-98621428D01*
X128252380Y-98430952D01*
X128204761Y-98335714D01*
X128157142Y-98288095D01*
X128061904Y-98240476D01*
X127252380Y-98240476D01*
X127252380Y-97288095D02*
X127252380Y-97764285D01*
X127728571Y-97811904D01*
X127680952Y-97764285D01*
X127633333Y-97669047D01*
X127633333Y-97430952D01*
X127680952Y-97335714D01*
X127728571Y-97288095D01*
X127823809Y-97240476D01*
X128061904Y-97240476D01*
X128157142Y-97288095D01*
X128204761Y-97335714D01*
X128252380Y-97430952D01*
X128252380Y-97669047D01*
X128204761Y-97764285D01*
X128157142Y-97811904D01*
X107093619Y-93521571D02*
X107426952Y-93521571D01*
X107569809Y-94045380D02*
X107093619Y-94045380D01*
X107093619Y-93045380D01*
X107569809Y-93045380D01*
X107950761Y-93997761D02*
X108093619Y-94045380D01*
X108331714Y-94045380D01*
X108426952Y-93997761D01*
X108474571Y-93950142D01*
X108522190Y-93854904D01*
X108522190Y-93759666D01*
X108474571Y-93664428D01*
X108426952Y-93616809D01*
X108331714Y-93569190D01*
X108141238Y-93521571D01*
X108046000Y-93473952D01*
X107998380Y-93426333D01*
X107950761Y-93331095D01*
X107950761Y-93235857D01*
X107998380Y-93140619D01*
X108046000Y-93093000D01*
X108141238Y-93045380D01*
X108379333Y-93045380D01*
X108522190Y-93093000D01*
X108950761Y-94045380D02*
X108950761Y-93045380D01*
X109331714Y-93045380D01*
X109426952Y-93093000D01*
X109474571Y-93140619D01*
X109522190Y-93235857D01*
X109522190Y-93378714D01*
X109474571Y-93473952D01*
X109426952Y-93521571D01*
X109331714Y-93569190D01*
X108950761Y-93569190D01*
X109855523Y-93045380D02*
X110474571Y-93045380D01*
X110141238Y-93426333D01*
X110284095Y-93426333D01*
X110379333Y-93473952D01*
X110426952Y-93521571D01*
X110474571Y-93616809D01*
X110474571Y-93854904D01*
X110426952Y-93950142D01*
X110379333Y-93997761D01*
X110284095Y-94045380D01*
X109998380Y-94045380D01*
X109903142Y-93997761D01*
X109855523Y-93950142D01*
X110855523Y-93140619D02*
X110903142Y-93093000D01*
X110998380Y-93045380D01*
X111236476Y-93045380D01*
X111331714Y-93093000D01*
X111379333Y-93140619D01*
X111426952Y-93235857D01*
X111426952Y-93331095D01*
X111379333Y-93473952D01*
X110807904Y-94045380D01*
X111426952Y-94045380D01*
X111855523Y-93664428D02*
X112617428Y-93664428D01*
X112998380Y-93045380D02*
X113236476Y-94045380D01*
X113426952Y-93331095D01*
X113617428Y-94045380D01*
X113855523Y-93045380D01*
X114807904Y-94045380D02*
X114474571Y-93569190D01*
X114236476Y-94045380D02*
X114236476Y-93045380D01*
X114617428Y-93045380D01*
X114712666Y-93093000D01*
X114760285Y-93140619D01*
X114807904Y-93235857D01*
X114807904Y-93378714D01*
X114760285Y-93473952D01*
X114712666Y-93521571D01*
X114617428Y-93569190D01*
X114236476Y-93569190D01*
X115426952Y-93045380D02*
X115617428Y-93045380D01*
X115712666Y-93093000D01*
X115807904Y-93188238D01*
X115855523Y-93378714D01*
X115855523Y-93712047D01*
X115807904Y-93902523D01*
X115712666Y-93997761D01*
X115617428Y-94045380D01*
X115426952Y-94045380D01*
X115331714Y-93997761D01*
X115236476Y-93902523D01*
X115188857Y-93712047D01*
X115188857Y-93378714D01*
X115236476Y-93188238D01*
X115331714Y-93093000D01*
X115426952Y-93045380D01*
X116474571Y-93045380D02*
X116665047Y-93045380D01*
X116760285Y-93093000D01*
X116855523Y-93188238D01*
X116903142Y-93378714D01*
X116903142Y-93712047D01*
X116855523Y-93902523D01*
X116760285Y-93997761D01*
X116665047Y-94045380D01*
X116474571Y-94045380D01*
X116379333Y-93997761D01*
X116284095Y-93902523D01*
X116236476Y-93712047D01*
X116236476Y-93378714D01*
X116284095Y-93188238D01*
X116379333Y-93093000D01*
X116474571Y-93045380D01*
X117331714Y-94045380D02*
X117331714Y-93045380D01*
X117665047Y-93759666D01*
X117998380Y-93045380D01*
X117998380Y-94045380D01*
X107117571Y-91870571D02*
X107450904Y-91870571D01*
X107593761Y-92394380D02*
X107117571Y-92394380D01*
X107117571Y-91394380D01*
X107593761Y-91394380D01*
X107974714Y-92346761D02*
X108069952Y-92394380D01*
X108260428Y-92394380D01*
X108355666Y-92346761D01*
X108403285Y-92251523D01*
X108403285Y-92203904D01*
X108355666Y-92108666D01*
X108260428Y-92061047D01*
X108117571Y-92061047D01*
X108022333Y-92013428D01*
X107974714Y-91918190D01*
X107974714Y-91870571D01*
X108022333Y-91775333D01*
X108117571Y-91727714D01*
X108260428Y-91727714D01*
X108355666Y-91775333D01*
X108831857Y-91727714D02*
X108831857Y-92727714D01*
X108831857Y-91775333D02*
X108927095Y-91727714D01*
X109117571Y-91727714D01*
X109212809Y-91775333D01*
X109260428Y-91822952D01*
X109308047Y-91918190D01*
X109308047Y-92203904D01*
X109260428Y-92299142D01*
X109212809Y-92346761D01*
X109117571Y-92394380D01*
X108927095Y-92394380D01*
X108831857Y-92346761D01*
X109736619Y-92394380D02*
X109736619Y-91727714D01*
X109736619Y-91918190D02*
X109784238Y-91822952D01*
X109831857Y-91775333D01*
X109927095Y-91727714D01*
X110022333Y-91727714D01*
X110736619Y-92346761D02*
X110641380Y-92394380D01*
X110450904Y-92394380D01*
X110355666Y-92346761D01*
X110308047Y-92251523D01*
X110308047Y-91870571D01*
X110355666Y-91775333D01*
X110450904Y-91727714D01*
X110641380Y-91727714D01*
X110736619Y-91775333D01*
X110784238Y-91870571D01*
X110784238Y-91965809D01*
X110308047Y-92061047D01*
X111165190Y-92346761D02*
X111260428Y-92394380D01*
X111450904Y-92394380D01*
X111546142Y-92346761D01*
X111593761Y-92251523D01*
X111593761Y-92203904D01*
X111546142Y-92108666D01*
X111450904Y-92061047D01*
X111308047Y-92061047D01*
X111212809Y-92013428D01*
X111165190Y-91918190D01*
X111165190Y-91870571D01*
X111212809Y-91775333D01*
X111308047Y-91727714D01*
X111450904Y-91727714D01*
X111546142Y-91775333D01*
X111974714Y-92346761D02*
X112069952Y-92394380D01*
X112260428Y-92394380D01*
X112355666Y-92346761D01*
X112403285Y-92251523D01*
X112403285Y-92203904D01*
X112355666Y-92108666D01*
X112260428Y-92061047D01*
X112117571Y-92061047D01*
X112022333Y-92013428D01*
X111974714Y-91918190D01*
X111974714Y-91870571D01*
X112022333Y-91775333D01*
X112117571Y-91727714D01*
X112260428Y-91727714D01*
X112355666Y-91775333D01*
X112831857Y-92394380D02*
X112831857Y-91727714D01*
X112831857Y-91394380D02*
X112784238Y-91442000D01*
X112831857Y-91489619D01*
X112879476Y-91442000D01*
X112831857Y-91394380D01*
X112831857Y-91489619D01*
X113165190Y-91727714D02*
X113546142Y-91727714D01*
X113308047Y-92394380D02*
X113308047Y-91537238D01*
X113355666Y-91442000D01*
X113450904Y-91394380D01*
X113546142Y-91394380D01*
X114593761Y-92346761D02*
X114736619Y-92394380D01*
X114974714Y-92394380D01*
X115069952Y-92346761D01*
X115117571Y-92299142D01*
X115165190Y-92203904D01*
X115165190Y-92108666D01*
X115117571Y-92013428D01*
X115069952Y-91965809D01*
X114974714Y-91918190D01*
X114784238Y-91870571D01*
X114689000Y-91822952D01*
X114641380Y-91775333D01*
X114593761Y-91680095D01*
X114593761Y-91584857D01*
X114641380Y-91489619D01*
X114689000Y-91442000D01*
X114784238Y-91394380D01*
X115022333Y-91394380D01*
X115165190Y-91442000D01*
X115498523Y-91727714D02*
X115736619Y-92394380D01*
X115974714Y-91727714D02*
X115736619Y-92394380D01*
X115641380Y-92632476D01*
X115593761Y-92680095D01*
X115498523Y-92727714D01*
X116308047Y-92346761D02*
X116403285Y-92394380D01*
X116593761Y-92394380D01*
X116689000Y-92346761D01*
X116736619Y-92251523D01*
X116736619Y-92203904D01*
X116689000Y-92108666D01*
X116593761Y-92061047D01*
X116450904Y-92061047D01*
X116355666Y-92013428D01*
X116308047Y-91918190D01*
X116308047Y-91870571D01*
X116355666Y-91775333D01*
X116450904Y-91727714D01*
X116593761Y-91727714D01*
X116689000Y-91775333D01*
X117022333Y-91727714D02*
X117403285Y-91727714D01*
X117165190Y-91394380D02*
X117165190Y-92251523D01*
X117212809Y-92346761D01*
X117308047Y-92394380D01*
X117403285Y-92394380D01*
X118117571Y-92346761D02*
X118022333Y-92394380D01*
X117831857Y-92394380D01*
X117736619Y-92346761D01*
X117689000Y-92251523D01*
X117689000Y-91870571D01*
X117736619Y-91775333D01*
X117831857Y-91727714D01*
X118022333Y-91727714D01*
X118117571Y-91775333D01*
X118165190Y-91870571D01*
X118165190Y-91965809D01*
X117689000Y-92061047D01*
X118593761Y-92394380D02*
X118593761Y-91727714D01*
X118593761Y-91822952D02*
X118641380Y-91775333D01*
X118736619Y-91727714D01*
X118879476Y-91727714D01*
X118974714Y-91775333D01*
X119022333Y-91870571D01*
X119022333Y-92394380D01*
X119022333Y-91870571D02*
X119069952Y-91775333D01*
X119165190Y-91727714D01*
X119308047Y-91727714D01*
X119403285Y-91775333D01*
X119450904Y-91870571D01*
X119450904Y-92394380D01*
X119879476Y-92346761D02*
X119974714Y-92394380D01*
X120165190Y-92394380D01*
X120260428Y-92346761D01*
X120308047Y-92251523D01*
X120308047Y-92203904D01*
X120260428Y-92108666D01*
X120165190Y-92061047D01*
X120022333Y-92061047D01*
X119927095Y-92013428D01*
X119879476Y-91918190D01*
X119879476Y-91870571D01*
X119927095Y-91775333D01*
X120022333Y-91727714D01*
X120165190Y-91727714D01*
X120260428Y-91775333D01*
X113433333Y-120937142D02*
X113385714Y-120984761D01*
X113242857Y-121032380D01*
X113147619Y-121032380D01*
X113004761Y-120984761D01*
X112909523Y-120889523D01*
X112861904Y-120794285D01*
X112814285Y-120603809D01*
X112814285Y-120460952D01*
X112861904Y-120270476D01*
X112909523Y-120175238D01*
X113004761Y-120080000D01*
X113147619Y-120032380D01*
X113242857Y-120032380D01*
X113385714Y-120080000D01*
X113433333Y-120127619D01*
X114385714Y-121032380D02*
X113814285Y-121032380D01*
X114100000Y-121032380D02*
X114100000Y-120032380D01*
X114004761Y-120175238D01*
X113909523Y-120270476D01*
X113814285Y-120318095D01*
X118233333Y-121727142D02*
X118185714Y-121774761D01*
X118042857Y-121822380D01*
X117947619Y-121822380D01*
X117804761Y-121774761D01*
X117709523Y-121679523D01*
X117661904Y-121584285D01*
X117614285Y-121393809D01*
X117614285Y-121250952D01*
X117661904Y-121060476D01*
X117709523Y-120965238D01*
X117804761Y-120870000D01*
X117947619Y-120822380D01*
X118042857Y-120822380D01*
X118185714Y-120870000D01*
X118233333Y-120917619D01*
X118614285Y-120917619D02*
X118661904Y-120870000D01*
X118757142Y-120822380D01*
X118995238Y-120822380D01*
X119090476Y-120870000D01*
X119138095Y-120917619D01*
X119185714Y-121012857D01*
X119185714Y-121108095D01*
X119138095Y-121250952D01*
X118566666Y-121822380D01*
X119185714Y-121822380D01*
X152427142Y-93154166D02*
X152474761Y-93201785D01*
X152522380Y-93344642D01*
X152522380Y-93439880D01*
X152474761Y-93582738D01*
X152379523Y-93677976D01*
X152284285Y-93725595D01*
X152093809Y-93773214D01*
X151950952Y-93773214D01*
X151760476Y-93725595D01*
X151665238Y-93677976D01*
X151570000Y-93582738D01*
X151522380Y-93439880D01*
X151522380Y-93344642D01*
X151570000Y-93201785D01*
X151617619Y-93154166D01*
X151522380Y-92820833D02*
X151522380Y-92201785D01*
X151903333Y-92535119D01*
X151903333Y-92392261D01*
X151950952Y-92297023D01*
X151998571Y-92249404D01*
X152093809Y-92201785D01*
X152331904Y-92201785D01*
X152427142Y-92249404D01*
X152474761Y-92297023D01*
X152522380Y-92392261D01*
X152522380Y-92677976D01*
X152474761Y-92773214D01*
X152427142Y-92820833D01*
X141857142Y-90016666D02*
X141904761Y-90064285D01*
X141952380Y-90207142D01*
X141952380Y-90302380D01*
X141904761Y-90445238D01*
X141809523Y-90540476D01*
X141714285Y-90588095D01*
X141523809Y-90635714D01*
X141380952Y-90635714D01*
X141190476Y-90588095D01*
X141095238Y-90540476D01*
X141000000Y-90445238D01*
X140952380Y-90302380D01*
X140952380Y-90207142D01*
X141000000Y-90064285D01*
X141047619Y-90016666D01*
X141285714Y-89159523D02*
X141952380Y-89159523D01*
X140904761Y-89397619D02*
X141619047Y-89635714D01*
X141619047Y-89016666D01*
X107833333Y-112357142D02*
X107785714Y-112404761D01*
X107642857Y-112452380D01*
X107547619Y-112452380D01*
X107404761Y-112404761D01*
X107309523Y-112309523D01*
X107261904Y-112214285D01*
X107214285Y-112023809D01*
X107214285Y-111880952D01*
X107261904Y-111690476D01*
X107309523Y-111595238D01*
X107404761Y-111500000D01*
X107547619Y-111452380D01*
X107642857Y-111452380D01*
X107785714Y-111500000D01*
X107833333Y-111547619D01*
X108404761Y-111880952D02*
X108309523Y-111833333D01*
X108261904Y-111785714D01*
X108214285Y-111690476D01*
X108214285Y-111642857D01*
X108261904Y-111547619D01*
X108309523Y-111500000D01*
X108404761Y-111452380D01*
X108595238Y-111452380D01*
X108690476Y-111500000D01*
X108738095Y-111547619D01*
X108785714Y-111642857D01*
X108785714Y-111690476D01*
X108738095Y-111785714D01*
X108690476Y-111833333D01*
X108595238Y-111880952D01*
X108404761Y-111880952D01*
X108309523Y-111928571D01*
X108261904Y-111976190D01*
X108214285Y-112071428D01*
X108214285Y-112261904D01*
X108261904Y-112357142D01*
X108309523Y-112404761D01*
X108404761Y-112452380D01*
X108595238Y-112452380D01*
X108690476Y-112404761D01*
X108738095Y-112357142D01*
X108785714Y-112261904D01*
X108785714Y-112071428D01*
X108738095Y-111976190D01*
X108690476Y-111928571D01*
X108595238Y-111880952D01*
X125633333Y-86157142D02*
X125585714Y-86204761D01*
X125442857Y-86252380D01*
X125347619Y-86252380D01*
X125204761Y-86204761D01*
X125109523Y-86109523D01*
X125061904Y-86014285D01*
X125014285Y-85823809D01*
X125014285Y-85680952D01*
X125061904Y-85490476D01*
X125109523Y-85395238D01*
X125204761Y-85300000D01*
X125347619Y-85252380D01*
X125442857Y-85252380D01*
X125585714Y-85300000D01*
X125633333Y-85347619D01*
X126109523Y-86252380D02*
X126300000Y-86252380D01*
X126395238Y-86204761D01*
X126442857Y-86157142D01*
X126538095Y-86014285D01*
X126585714Y-85823809D01*
X126585714Y-85442857D01*
X126538095Y-85347619D01*
X126490476Y-85300000D01*
X126395238Y-85252380D01*
X126204761Y-85252380D01*
X126109523Y-85300000D01*
X126061904Y-85347619D01*
X126014285Y-85442857D01*
X126014285Y-85680952D01*
X126061904Y-85776190D01*
X126109523Y-85823809D01*
X126204761Y-85871428D01*
X126395238Y-85871428D01*
X126490476Y-85823809D01*
X126538095Y-85776190D01*
X126585714Y-85680952D01*
X128557142Y-86187142D02*
X128509523Y-86234761D01*
X128366666Y-86282380D01*
X128271428Y-86282380D01*
X128128571Y-86234761D01*
X128033333Y-86139523D01*
X127985714Y-86044285D01*
X127938095Y-85853809D01*
X127938095Y-85710952D01*
X127985714Y-85520476D01*
X128033333Y-85425238D01*
X128128571Y-85330000D01*
X128271428Y-85282380D01*
X128366666Y-85282380D01*
X128509523Y-85330000D01*
X128557142Y-85377619D01*
X129509523Y-86282380D02*
X128938095Y-86282380D01*
X129223809Y-86282380D02*
X129223809Y-85282380D01*
X129128571Y-85425238D01*
X129033333Y-85520476D01*
X128938095Y-85568095D01*
X130128571Y-85282380D02*
X130223809Y-85282380D01*
X130319047Y-85330000D01*
X130366666Y-85377619D01*
X130414285Y-85472857D01*
X130461904Y-85663333D01*
X130461904Y-85901428D01*
X130414285Y-86091904D01*
X130366666Y-86187142D01*
X130319047Y-86234761D01*
X130223809Y-86282380D01*
X130128571Y-86282380D01*
X130033333Y-86234761D01*
X129985714Y-86187142D01*
X129938095Y-86091904D01*
X129890476Y-85901428D01*
X129890476Y-85663333D01*
X129938095Y-85472857D01*
X129985714Y-85377619D01*
X130033333Y-85330000D01*
X130128571Y-85282380D01*
X122107142Y-73607142D02*
X122059523Y-73654761D01*
X121916666Y-73702380D01*
X121821428Y-73702380D01*
X121678571Y-73654761D01*
X121583333Y-73559523D01*
X121535714Y-73464285D01*
X121488095Y-73273809D01*
X121488095Y-73130952D01*
X121535714Y-72940476D01*
X121583333Y-72845238D01*
X121678571Y-72750000D01*
X121821428Y-72702380D01*
X121916666Y-72702380D01*
X122059523Y-72750000D01*
X122107142Y-72797619D01*
X123059523Y-73702380D02*
X122488095Y-73702380D01*
X122773809Y-73702380D02*
X122773809Y-72702380D01*
X122678571Y-72845238D01*
X122583333Y-72940476D01*
X122488095Y-72988095D01*
X124011904Y-73702380D02*
X123440476Y-73702380D01*
X123726190Y-73702380D02*
X123726190Y-72702380D01*
X123630952Y-72845238D01*
X123535714Y-72940476D01*
X123440476Y-72988095D01*
X130427142Y-71392857D02*
X130474761Y-71440476D01*
X130522380Y-71583333D01*
X130522380Y-71678571D01*
X130474761Y-71821428D01*
X130379523Y-71916666D01*
X130284285Y-71964285D01*
X130093809Y-72011904D01*
X129950952Y-72011904D01*
X129760476Y-71964285D01*
X129665238Y-71916666D01*
X129570000Y-71821428D01*
X129522380Y-71678571D01*
X129522380Y-71583333D01*
X129570000Y-71440476D01*
X129617619Y-71392857D01*
X130522380Y-70440476D02*
X130522380Y-71011904D01*
X130522380Y-70726190D02*
X129522380Y-70726190D01*
X129665238Y-70821428D01*
X129760476Y-70916666D01*
X129808095Y-71011904D01*
X129617619Y-70059523D02*
X129570000Y-70011904D01*
X129522380Y-69916666D01*
X129522380Y-69678571D01*
X129570000Y-69583333D01*
X129617619Y-69535714D01*
X129712857Y-69488095D01*
X129808095Y-69488095D01*
X129950952Y-69535714D01*
X130522380Y-70107142D01*
X130522380Y-69488095D01*
X130107142Y-63892857D02*
X130154761Y-63940476D01*
X130202380Y-64083333D01*
X130202380Y-64178571D01*
X130154761Y-64321428D01*
X130059523Y-64416666D01*
X129964285Y-64464285D01*
X129773809Y-64511904D01*
X129630952Y-64511904D01*
X129440476Y-64464285D01*
X129345238Y-64416666D01*
X129250000Y-64321428D01*
X129202380Y-64178571D01*
X129202380Y-64083333D01*
X129250000Y-63940476D01*
X129297619Y-63892857D01*
X130202380Y-62940476D02*
X130202380Y-63511904D01*
X130202380Y-63226190D02*
X129202380Y-63226190D01*
X129345238Y-63321428D01*
X129440476Y-63416666D01*
X129488095Y-63511904D01*
X129535714Y-62083333D02*
X130202380Y-62083333D01*
X129154761Y-62321428D02*
X129869047Y-62559523D01*
X129869047Y-61940476D01*
X123952380Y-125738095D02*
X122952380Y-125738095D01*
X122952380Y-125500000D01*
X123000000Y-125357142D01*
X123095238Y-125261904D01*
X123190476Y-125214285D01*
X123380952Y-125166666D01*
X123523809Y-125166666D01*
X123714285Y-125214285D01*
X123809523Y-125261904D01*
X123904761Y-125357142D01*
X123952380Y-125500000D01*
X123952380Y-125738095D01*
X123952380Y-124214285D02*
X123952380Y-124785714D01*
X123952380Y-124500000D02*
X122952380Y-124500000D01*
X123095238Y-124595238D01*
X123190476Y-124690476D01*
X123238095Y-124785714D01*
X139952380Y-125738095D02*
X138952380Y-125738095D01*
X138952380Y-125500000D01*
X139000000Y-125357142D01*
X139095238Y-125261904D01*
X139190476Y-125214285D01*
X139380952Y-125166666D01*
X139523809Y-125166666D01*
X139714285Y-125214285D01*
X139809523Y-125261904D01*
X139904761Y-125357142D01*
X139952380Y-125500000D01*
X139952380Y-125738095D01*
X139047619Y-124785714D02*
X139000000Y-124738095D01*
X138952380Y-124642857D01*
X138952380Y-124404761D01*
X139000000Y-124309523D01*
X139047619Y-124261904D01*
X139142857Y-124214285D01*
X139238095Y-124214285D01*
X139380952Y-124261904D01*
X139952380Y-124833333D01*
X139952380Y-124214285D01*
X183452380Y-99938095D02*
X182452380Y-99938095D01*
X182452380Y-99700000D01*
X182500000Y-99557142D01*
X182595238Y-99461904D01*
X182690476Y-99414285D01*
X182880952Y-99366666D01*
X183023809Y-99366666D01*
X183214285Y-99414285D01*
X183309523Y-99461904D01*
X183404761Y-99557142D01*
X183452380Y-99700000D01*
X183452380Y-99938095D01*
X182452380Y-99033333D02*
X182452380Y-98414285D01*
X182833333Y-98747619D01*
X182833333Y-98604761D01*
X182880952Y-98509523D01*
X182928571Y-98461904D01*
X183023809Y-98414285D01*
X183261904Y-98414285D01*
X183357142Y-98461904D01*
X183404761Y-98509523D01*
X183452380Y-98604761D01*
X183452380Y-98890476D01*
X183404761Y-98985714D01*
X183357142Y-99033333D01*
X155952380Y-125738095D02*
X154952380Y-125738095D01*
X154952380Y-125500000D01*
X155000000Y-125357142D01*
X155095238Y-125261904D01*
X155190476Y-125214285D01*
X155380952Y-125166666D01*
X155523809Y-125166666D01*
X155714285Y-125214285D01*
X155809523Y-125261904D01*
X155904761Y-125357142D01*
X155952380Y-125500000D01*
X155952380Y-125738095D01*
X155285714Y-124309523D02*
X155952380Y-124309523D01*
X154904761Y-124547619D02*
X155619047Y-124785714D01*
X155619047Y-124166666D01*
X171952380Y-125738095D02*
X170952380Y-125738095D01*
X170952380Y-125500000D01*
X171000000Y-125357142D01*
X171095238Y-125261904D01*
X171190476Y-125214285D01*
X171380952Y-125166666D01*
X171523809Y-125166666D01*
X171714285Y-125214285D01*
X171809523Y-125261904D01*
X171904761Y-125357142D01*
X171952380Y-125500000D01*
X171952380Y-125738095D01*
X170952380Y-124261904D02*
X170952380Y-124738095D01*
X171428571Y-124785714D01*
X171380952Y-124738095D01*
X171333333Y-124642857D01*
X171333333Y-124404761D01*
X171380952Y-124309523D01*
X171428571Y-124261904D01*
X171523809Y-124214285D01*
X171761904Y-124214285D01*
X171857142Y-124261904D01*
X171904761Y-124309523D01*
X171952380Y-124404761D01*
X171952380Y-124642857D01*
X171904761Y-124738095D01*
X171857142Y-124785714D01*
X186752380Y-125538095D02*
X185752380Y-125538095D01*
X185752380Y-125300000D01*
X185800000Y-125157142D01*
X185895238Y-125061904D01*
X185990476Y-125014285D01*
X186180952Y-124966666D01*
X186323809Y-124966666D01*
X186514285Y-125014285D01*
X186609523Y-125061904D01*
X186704761Y-125157142D01*
X186752380Y-125300000D01*
X186752380Y-125538095D01*
X185752380Y-124109523D02*
X185752380Y-124300000D01*
X185800000Y-124395238D01*
X185847619Y-124442857D01*
X185990476Y-124538095D01*
X186180952Y-124585714D01*
X186561904Y-124585714D01*
X186657142Y-124538095D01*
X186704761Y-124490476D01*
X186752380Y-124395238D01*
X186752380Y-124204761D01*
X186704761Y-124109523D01*
X186657142Y-124061904D01*
X186561904Y-124014285D01*
X186323809Y-124014285D01*
X186228571Y-124061904D01*
X186180952Y-124109523D01*
X186133333Y-124204761D01*
X186133333Y-124395238D01*
X186180952Y-124490476D01*
X186228571Y-124538095D01*
X186323809Y-124585714D01*
X185892380Y-95468095D02*
X184892380Y-95468095D01*
X184892380Y-95230000D01*
X184940000Y-95087142D01*
X185035238Y-94991904D01*
X185130476Y-94944285D01*
X185320952Y-94896666D01*
X185463809Y-94896666D01*
X185654285Y-94944285D01*
X185749523Y-94991904D01*
X185844761Y-95087142D01*
X185892380Y-95230000D01*
X185892380Y-95468095D01*
X185320952Y-94325238D02*
X185273333Y-94420476D01*
X185225714Y-94468095D01*
X185130476Y-94515714D01*
X185082857Y-94515714D01*
X184987619Y-94468095D01*
X184940000Y-94420476D01*
X184892380Y-94325238D01*
X184892380Y-94134761D01*
X184940000Y-94039523D01*
X184987619Y-93991904D01*
X185082857Y-93944285D01*
X185130476Y-93944285D01*
X185225714Y-93991904D01*
X185273333Y-94039523D01*
X185320952Y-94134761D01*
X185320952Y-94325238D01*
X185368571Y-94420476D01*
X185416190Y-94468095D01*
X185511428Y-94515714D01*
X185701904Y-94515714D01*
X185797142Y-94468095D01*
X185844761Y-94420476D01*
X185892380Y-94325238D01*
X185892380Y-94134761D01*
X185844761Y-94039523D01*
X185797142Y-93991904D01*
X185701904Y-93944285D01*
X185511428Y-93944285D01*
X185416190Y-93991904D01*
X185368571Y-94039523D01*
X185320952Y-94134761D01*
X112666666Y-126452380D02*
X112666666Y-127166666D01*
X112619047Y-127309523D01*
X112523809Y-127404761D01*
X112380952Y-127452380D01*
X112285714Y-127452380D01*
X113095238Y-126547619D02*
X113142857Y-126500000D01*
X113238095Y-126452380D01*
X113476190Y-126452380D01*
X113571428Y-126500000D01*
X113619047Y-126547619D01*
X113666666Y-126642857D01*
X113666666Y-126738095D01*
X113619047Y-126880952D01*
X113047619Y-127452380D01*
X113666666Y-127452380D01*
X128666666Y-126452380D02*
X128666666Y-127166666D01*
X128619047Y-127309523D01*
X128523809Y-127404761D01*
X128380952Y-127452380D01*
X128285714Y-127452380D01*
X129047619Y-126452380D02*
X129666666Y-126452380D01*
X129333333Y-126833333D01*
X129476190Y-126833333D01*
X129571428Y-126880952D01*
X129619047Y-126928571D01*
X129666666Y-127023809D01*
X129666666Y-127261904D01*
X129619047Y-127357142D01*
X129571428Y-127404761D01*
X129476190Y-127452380D01*
X129190476Y-127452380D01*
X129095238Y-127404761D01*
X129047619Y-127357142D01*
X160666666Y-126452380D02*
X160666666Y-127166666D01*
X160619047Y-127309523D01*
X160523809Y-127404761D01*
X160380952Y-127452380D01*
X160285714Y-127452380D01*
X161619047Y-126452380D02*
X161142857Y-126452380D01*
X161095238Y-126928571D01*
X161142857Y-126880952D01*
X161238095Y-126833333D01*
X161476190Y-126833333D01*
X161571428Y-126880952D01*
X161619047Y-126928571D01*
X161666666Y-127023809D01*
X161666666Y-127261904D01*
X161619047Y-127357142D01*
X161571428Y-127404761D01*
X161476190Y-127452380D01*
X161238095Y-127452380D01*
X161142857Y-127404761D01*
X161095238Y-127357142D01*
X176666666Y-126452380D02*
X176666666Y-127166666D01*
X176619047Y-127309523D01*
X176523809Y-127404761D01*
X176380952Y-127452380D01*
X176285714Y-127452380D01*
X177571428Y-126452380D02*
X177380952Y-126452380D01*
X177285714Y-126500000D01*
X177238095Y-126547619D01*
X177142857Y-126690476D01*
X177095238Y-126880952D01*
X177095238Y-127261904D01*
X177142857Y-127357142D01*
X177190476Y-127404761D01*
X177285714Y-127452380D01*
X177476190Y-127452380D01*
X177571428Y-127404761D01*
X177619047Y-127357142D01*
X177666666Y-127261904D01*
X177666666Y-127023809D01*
X177619047Y-126928571D01*
X177571428Y-126880952D01*
X177476190Y-126833333D01*
X177285714Y-126833333D01*
X177190476Y-126880952D01*
X177142857Y-126928571D01*
X177095238Y-127023809D01*
X138654761Y-63097619D02*
X138559523Y-63050000D01*
X138464285Y-62954761D01*
X138321428Y-62811904D01*
X138226190Y-62764285D01*
X138130952Y-62764285D01*
X138178571Y-63002380D02*
X138083333Y-62954761D01*
X137988095Y-62859523D01*
X137940476Y-62669047D01*
X137940476Y-62335714D01*
X137988095Y-62145238D01*
X138083333Y-62050000D01*
X138178571Y-62002380D01*
X138369047Y-62002380D01*
X138464285Y-62050000D01*
X138559523Y-62145238D01*
X138607142Y-62335714D01*
X138607142Y-62669047D01*
X138559523Y-62859523D01*
X138464285Y-62954761D01*
X138369047Y-63002380D01*
X138178571Y-63002380D01*
X139464285Y-62002380D02*
X139273809Y-62002380D01*
X139178571Y-62050000D01*
X139130952Y-62097619D01*
X139035714Y-62240476D01*
X138988095Y-62430952D01*
X138988095Y-62811904D01*
X139035714Y-62907142D01*
X139083333Y-62954761D01*
X139178571Y-63002380D01*
X139369047Y-63002380D01*
X139464285Y-62954761D01*
X139511904Y-62907142D01*
X139559523Y-62811904D01*
X139559523Y-62573809D01*
X139511904Y-62478571D01*
X139464285Y-62430952D01*
X139369047Y-62383333D01*
X139178571Y-62383333D01*
X139083333Y-62430952D01*
X139035714Y-62478571D01*
X138988095Y-62573809D01*
X153483333Y-109352380D02*
X153150000Y-108876190D01*
X152911904Y-109352380D02*
X152911904Y-108352380D01*
X153292857Y-108352380D01*
X153388095Y-108400000D01*
X153435714Y-108447619D01*
X153483333Y-108542857D01*
X153483333Y-108685714D01*
X153435714Y-108780952D01*
X153388095Y-108828571D01*
X153292857Y-108876190D01*
X152911904Y-108876190D01*
X154435714Y-109352380D02*
X153864285Y-109352380D01*
X154150000Y-109352380D02*
X154150000Y-108352380D01*
X154054761Y-108495238D01*
X153959523Y-108590476D01*
X153864285Y-108638095D01*
X132083333Y-106452380D02*
X131750000Y-105976190D01*
X131511904Y-106452380D02*
X131511904Y-105452380D01*
X131892857Y-105452380D01*
X131988095Y-105500000D01*
X132035714Y-105547619D01*
X132083333Y-105642857D01*
X132083333Y-105785714D01*
X132035714Y-105880952D01*
X131988095Y-105928571D01*
X131892857Y-105976190D01*
X131511904Y-105976190D01*
X132416666Y-105452380D02*
X133035714Y-105452380D01*
X132702380Y-105833333D01*
X132845238Y-105833333D01*
X132940476Y-105880952D01*
X132988095Y-105928571D01*
X133035714Y-106023809D01*
X133035714Y-106261904D01*
X132988095Y-106357142D01*
X132940476Y-106404761D01*
X132845238Y-106452380D01*
X132559523Y-106452380D01*
X132464285Y-106404761D01*
X132416666Y-106357142D01*
X161452380Y-118666666D02*
X160976190Y-119000000D01*
X161452380Y-119238095D02*
X160452380Y-119238095D01*
X160452380Y-118857142D01*
X160500000Y-118761904D01*
X160547619Y-118714285D01*
X160642857Y-118666666D01*
X160785714Y-118666666D01*
X160880952Y-118714285D01*
X160928571Y-118761904D01*
X160976190Y-118857142D01*
X160976190Y-119238095D01*
X160452380Y-117761904D02*
X160452380Y-118238095D01*
X160928571Y-118285714D01*
X160880952Y-118238095D01*
X160833333Y-118142857D01*
X160833333Y-117904761D01*
X160880952Y-117809523D01*
X160928571Y-117761904D01*
X161023809Y-117714285D01*
X161261904Y-117714285D01*
X161357142Y-117761904D01*
X161404761Y-117809523D01*
X161452380Y-117904761D01*
X161452380Y-118142857D01*
X161404761Y-118238095D01*
X161357142Y-118285714D01*
X122833333Y-83252380D02*
X122500000Y-82776190D01*
X122261904Y-83252380D02*
X122261904Y-82252380D01*
X122642857Y-82252380D01*
X122738095Y-82300000D01*
X122785714Y-82347619D01*
X122833333Y-82442857D01*
X122833333Y-82585714D01*
X122785714Y-82680952D01*
X122738095Y-82728571D01*
X122642857Y-82776190D01*
X122261904Y-82776190D01*
X123690476Y-82252380D02*
X123500000Y-82252380D01*
X123404761Y-82300000D01*
X123357142Y-82347619D01*
X123261904Y-82490476D01*
X123214285Y-82680952D01*
X123214285Y-83061904D01*
X123261904Y-83157142D01*
X123309523Y-83204761D01*
X123404761Y-83252380D01*
X123595238Y-83252380D01*
X123690476Y-83204761D01*
X123738095Y-83157142D01*
X123785714Y-83061904D01*
X123785714Y-82823809D01*
X123738095Y-82728571D01*
X123690476Y-82680952D01*
X123595238Y-82633333D01*
X123404761Y-82633333D01*
X123309523Y-82680952D01*
X123261904Y-82728571D01*
X123214285Y-82823809D01*
X131783333Y-83252380D02*
X131450000Y-82776190D01*
X131211904Y-83252380D02*
X131211904Y-82252380D01*
X131592857Y-82252380D01*
X131688095Y-82300000D01*
X131735714Y-82347619D01*
X131783333Y-82442857D01*
X131783333Y-82585714D01*
X131735714Y-82680952D01*
X131688095Y-82728571D01*
X131592857Y-82776190D01*
X131211904Y-82776190D01*
X132116666Y-82252380D02*
X132783333Y-82252380D01*
X132354761Y-83252380D01*
X145433333Y-85422380D02*
X145100000Y-84946190D01*
X144861904Y-85422380D02*
X144861904Y-84422380D01*
X145242857Y-84422380D01*
X145338095Y-84470000D01*
X145385714Y-84517619D01*
X145433333Y-84612857D01*
X145433333Y-84755714D01*
X145385714Y-84850952D01*
X145338095Y-84898571D01*
X145242857Y-84946190D01*
X144861904Y-84946190D01*
X146004761Y-84850952D02*
X145909523Y-84803333D01*
X145861904Y-84755714D01*
X145814285Y-84660476D01*
X145814285Y-84612857D01*
X145861904Y-84517619D01*
X145909523Y-84470000D01*
X146004761Y-84422380D01*
X146195238Y-84422380D01*
X146290476Y-84470000D01*
X146338095Y-84517619D01*
X146385714Y-84612857D01*
X146385714Y-84660476D01*
X146338095Y-84755714D01*
X146290476Y-84803333D01*
X146195238Y-84850952D01*
X146004761Y-84850952D01*
X145909523Y-84898571D01*
X145861904Y-84946190D01*
X145814285Y-85041428D01*
X145814285Y-85231904D01*
X145861904Y-85327142D01*
X145909523Y-85374761D01*
X146004761Y-85422380D01*
X146195238Y-85422380D01*
X146290476Y-85374761D01*
X146338095Y-85327142D01*
X146385714Y-85231904D01*
X146385714Y-85041428D01*
X146338095Y-84946190D01*
X146290476Y-84898571D01*
X146195238Y-84850952D01*
X148833333Y-85422380D02*
X148500000Y-84946190D01*
X148261904Y-85422380D02*
X148261904Y-84422380D01*
X148642857Y-84422380D01*
X148738095Y-84470000D01*
X148785714Y-84517619D01*
X148833333Y-84612857D01*
X148833333Y-84755714D01*
X148785714Y-84850952D01*
X148738095Y-84898571D01*
X148642857Y-84946190D01*
X148261904Y-84946190D01*
X149309523Y-85422380D02*
X149500000Y-85422380D01*
X149595238Y-85374761D01*
X149642857Y-85327142D01*
X149738095Y-85184285D01*
X149785714Y-84993809D01*
X149785714Y-84612857D01*
X149738095Y-84517619D01*
X149690476Y-84470000D01*
X149595238Y-84422380D01*
X149404761Y-84422380D01*
X149309523Y-84470000D01*
X149261904Y-84517619D01*
X149214285Y-84612857D01*
X149214285Y-84850952D01*
X149261904Y-84946190D01*
X149309523Y-84993809D01*
X149404761Y-85041428D01*
X149595238Y-85041428D01*
X149690476Y-84993809D01*
X149738095Y-84946190D01*
X149785714Y-84850952D01*
X179182142Y-94002380D02*
X178848809Y-93526190D01*
X178610714Y-94002380D02*
X178610714Y-93002380D01*
X178991666Y-93002380D01*
X179086904Y-93050000D01*
X179134523Y-93097619D01*
X179182142Y-93192857D01*
X179182142Y-93335714D01*
X179134523Y-93430952D01*
X179086904Y-93478571D01*
X178991666Y-93526190D01*
X178610714Y-93526190D01*
X180134523Y-94002380D02*
X179563095Y-94002380D01*
X179848809Y-94002380D02*
X179848809Y-93002380D01*
X179753571Y-93145238D01*
X179658333Y-93240476D01*
X179563095Y-93288095D01*
X180753571Y-93002380D02*
X180848809Y-93002380D01*
X180944047Y-93050000D01*
X180991666Y-93097619D01*
X181039285Y-93192857D01*
X181086904Y-93383333D01*
X181086904Y-93621428D01*
X181039285Y-93811904D01*
X180991666Y-93907142D01*
X180944047Y-93954761D01*
X180848809Y-94002380D01*
X180753571Y-94002380D01*
X180658333Y-93954761D01*
X180610714Y-93907142D01*
X180563095Y-93811904D01*
X180515476Y-93621428D01*
X180515476Y-93383333D01*
X180563095Y-93192857D01*
X180610714Y-93097619D01*
X180658333Y-93050000D01*
X180753571Y-93002380D01*
X128957142Y-89652380D02*
X128623809Y-89176190D01*
X128385714Y-89652380D02*
X128385714Y-88652380D01*
X128766666Y-88652380D01*
X128861904Y-88700000D01*
X128909523Y-88747619D01*
X128957142Y-88842857D01*
X128957142Y-88985714D01*
X128909523Y-89080952D01*
X128861904Y-89128571D01*
X128766666Y-89176190D01*
X128385714Y-89176190D01*
X129909523Y-89652380D02*
X129338095Y-89652380D01*
X129623809Y-89652380D02*
X129623809Y-88652380D01*
X129528571Y-88795238D01*
X129433333Y-88890476D01*
X129338095Y-88938095D01*
X130861904Y-89652380D02*
X130290476Y-89652380D01*
X130576190Y-89652380D02*
X130576190Y-88652380D01*
X130480952Y-88795238D01*
X130385714Y-88890476D01*
X130290476Y-88938095D01*
X128957142Y-88052380D02*
X128623809Y-87576190D01*
X128385714Y-88052380D02*
X128385714Y-87052380D01*
X128766666Y-87052380D01*
X128861904Y-87100000D01*
X128909523Y-87147619D01*
X128957142Y-87242857D01*
X128957142Y-87385714D01*
X128909523Y-87480952D01*
X128861904Y-87528571D01*
X128766666Y-87576190D01*
X128385714Y-87576190D01*
X129909523Y-88052380D02*
X129338095Y-88052380D01*
X129623809Y-88052380D02*
X129623809Y-87052380D01*
X129528571Y-87195238D01*
X129433333Y-87290476D01*
X129338095Y-87338095D01*
X130290476Y-87147619D02*
X130338095Y-87100000D01*
X130433333Y-87052380D01*
X130671428Y-87052380D01*
X130766666Y-87100000D01*
X130814285Y-87147619D01*
X130861904Y-87242857D01*
X130861904Y-87338095D01*
X130814285Y-87480952D01*
X130242857Y-88052380D01*
X130861904Y-88052380D01*
X117607142Y-78702380D02*
X117273809Y-78226190D01*
X117035714Y-78702380D02*
X117035714Y-77702380D01*
X117416666Y-77702380D01*
X117511904Y-77750000D01*
X117559523Y-77797619D01*
X117607142Y-77892857D01*
X117607142Y-78035714D01*
X117559523Y-78130952D01*
X117511904Y-78178571D01*
X117416666Y-78226190D01*
X117035714Y-78226190D01*
X118559523Y-78702380D02*
X117988095Y-78702380D01*
X118273809Y-78702380D02*
X118273809Y-77702380D01*
X118178571Y-77845238D01*
X118083333Y-77940476D01*
X117988095Y-77988095D01*
X118892857Y-77702380D02*
X119511904Y-77702380D01*
X119178571Y-78083333D01*
X119321428Y-78083333D01*
X119416666Y-78130952D01*
X119464285Y-78178571D01*
X119511904Y-78273809D01*
X119511904Y-78511904D01*
X119464285Y-78607142D01*
X119416666Y-78654761D01*
X119321428Y-78702380D01*
X119035714Y-78702380D01*
X118940476Y-78654761D01*
X118892857Y-78607142D01*
X121357142Y-78772380D02*
X121023809Y-78296190D01*
X120785714Y-78772380D02*
X120785714Y-77772380D01*
X121166666Y-77772380D01*
X121261904Y-77820000D01*
X121309523Y-77867619D01*
X121357142Y-77962857D01*
X121357142Y-78105714D01*
X121309523Y-78200952D01*
X121261904Y-78248571D01*
X121166666Y-78296190D01*
X120785714Y-78296190D01*
X122309523Y-78772380D02*
X121738095Y-78772380D01*
X122023809Y-78772380D02*
X122023809Y-77772380D01*
X121928571Y-77915238D01*
X121833333Y-78010476D01*
X121738095Y-78058095D01*
X123166666Y-78105714D02*
X123166666Y-78772380D01*
X122928571Y-77724761D02*
X122690476Y-78439047D01*
X123309523Y-78439047D01*
X126702380Y-78142857D02*
X126226190Y-78476190D01*
X126702380Y-78714285D02*
X125702380Y-78714285D01*
X125702380Y-78333333D01*
X125750000Y-78238095D01*
X125797619Y-78190476D01*
X125892857Y-78142857D01*
X126035714Y-78142857D01*
X126130952Y-78190476D01*
X126178571Y-78238095D01*
X126226190Y-78333333D01*
X126226190Y-78714285D01*
X126702380Y-77190476D02*
X126702380Y-77761904D01*
X126702380Y-77476190D02*
X125702380Y-77476190D01*
X125845238Y-77571428D01*
X125940476Y-77666666D01*
X125988095Y-77761904D01*
X125702380Y-76285714D02*
X125702380Y-76761904D01*
X126178571Y-76809523D01*
X126130952Y-76761904D01*
X126083333Y-76666666D01*
X126083333Y-76428571D01*
X126130952Y-76333333D01*
X126178571Y-76285714D01*
X126273809Y-76238095D01*
X126511904Y-76238095D01*
X126607142Y-76285714D01*
X126654761Y-76333333D01*
X126702380Y-76428571D01*
X126702380Y-76666666D01*
X126654761Y-76761904D01*
X126607142Y-76809523D01*
X129852380Y-78142857D02*
X129376190Y-78476190D01*
X129852380Y-78714285D02*
X128852380Y-78714285D01*
X128852380Y-78333333D01*
X128900000Y-78238095D01*
X128947619Y-78190476D01*
X129042857Y-78142857D01*
X129185714Y-78142857D01*
X129280952Y-78190476D01*
X129328571Y-78238095D01*
X129376190Y-78333333D01*
X129376190Y-78714285D01*
X129852380Y-77190476D02*
X129852380Y-77761904D01*
X129852380Y-77476190D02*
X128852380Y-77476190D01*
X128995238Y-77571428D01*
X129090476Y-77666666D01*
X129138095Y-77761904D01*
X128852380Y-76333333D02*
X128852380Y-76523809D01*
X128900000Y-76619047D01*
X128947619Y-76666666D01*
X129090476Y-76761904D01*
X129280952Y-76809523D01*
X129661904Y-76809523D01*
X129757142Y-76761904D01*
X129804761Y-76714285D01*
X129852380Y-76619047D01*
X129852380Y-76428571D01*
X129804761Y-76333333D01*
X129757142Y-76285714D01*
X129661904Y-76238095D01*
X129423809Y-76238095D01*
X129328571Y-76285714D01*
X129280952Y-76333333D01*
X129233333Y-76428571D01*
X129233333Y-76619047D01*
X129280952Y-76714285D01*
X129328571Y-76761904D01*
X129423809Y-76809523D01*
D17*
X165782380Y-111264047D02*
X165963809Y-111324523D01*
X166266190Y-111324523D01*
X166387142Y-111264047D01*
X166447619Y-111203571D01*
X166508095Y-111082619D01*
X166508095Y-110961666D01*
X166447619Y-110840714D01*
X166387142Y-110780238D01*
X166266190Y-110719761D01*
X166024285Y-110659285D01*
X165903333Y-110598809D01*
X165842857Y-110538333D01*
X165782380Y-110417380D01*
X165782380Y-110296428D01*
X165842857Y-110175476D01*
X165903333Y-110115000D01*
X166024285Y-110054523D01*
X166326666Y-110054523D01*
X166508095Y-110115000D01*
X167717619Y-111324523D02*
X166991904Y-111324523D01*
X167354761Y-111324523D02*
X167354761Y-110054523D01*
X167233809Y-110235952D01*
X167112857Y-110356904D01*
X166991904Y-110417380D01*
X196782380Y-111014047D02*
X196963809Y-111074523D01*
X197266190Y-111074523D01*
X197387142Y-111014047D01*
X197447619Y-110953571D01*
X197508095Y-110832619D01*
X197508095Y-110711666D01*
X197447619Y-110590714D01*
X197387142Y-110530238D01*
X197266190Y-110469761D01*
X197024285Y-110409285D01*
X196903333Y-110348809D01*
X196842857Y-110288333D01*
X196782380Y-110167380D01*
X196782380Y-110046428D01*
X196842857Y-109925476D01*
X196903333Y-109865000D01*
X197024285Y-109804523D01*
X197326666Y-109804523D01*
X197508095Y-109865000D01*
X197991904Y-109925476D02*
X198052380Y-109865000D01*
X198173333Y-109804523D01*
X198475714Y-109804523D01*
X198596666Y-109865000D01*
X198657142Y-109925476D01*
X198717619Y-110046428D01*
X198717619Y-110167380D01*
X198657142Y-110348809D01*
X197931428Y-111074523D01*
X198717619Y-111074523D01*
D10*
X146838095Y-90452380D02*
X146838095Y-91261904D01*
X146885714Y-91357142D01*
X146933333Y-91404761D01*
X147028571Y-91452380D01*
X147219047Y-91452380D01*
X147314285Y-91404761D01*
X147361904Y-91357142D01*
X147409523Y-91261904D01*
X147409523Y-90452380D01*
X147838095Y-90547619D02*
X147885714Y-90500000D01*
X147980952Y-90452380D01*
X148219047Y-90452380D01*
X148314285Y-90500000D01*
X148361904Y-90547619D01*
X148409523Y-90642857D01*
X148409523Y-90738095D01*
X148361904Y-90880952D01*
X147790476Y-91452380D01*
X148409523Y-91452380D01*
X143638095Y-98152380D02*
X143638095Y-98961904D01*
X143685714Y-99057142D01*
X143733333Y-99104761D01*
X143828571Y-99152380D01*
X144019047Y-99152380D01*
X144114285Y-99104761D01*
X144161904Y-99057142D01*
X144209523Y-98961904D01*
X144209523Y-98152380D01*
X144590476Y-98152380D02*
X145209523Y-98152380D01*
X144876190Y-98533333D01*
X145019047Y-98533333D01*
X145114285Y-98580952D01*
X145161904Y-98628571D01*
X145209523Y-98723809D01*
X145209523Y-98961904D01*
X145161904Y-99057142D01*
X145114285Y-99104761D01*
X145019047Y-99152380D01*
X144733333Y-99152380D01*
X144638095Y-99104761D01*
X144590476Y-99057142D01*
X119238095Y-67952380D02*
X119238095Y-68761904D01*
X119285714Y-68857142D01*
X119333333Y-68904761D01*
X119428571Y-68952380D01*
X119619047Y-68952380D01*
X119714285Y-68904761D01*
X119761904Y-68857142D01*
X119809523Y-68761904D01*
X119809523Y-67952380D01*
X120714285Y-67952380D02*
X120523809Y-67952380D01*
X120428571Y-68000000D01*
X120380952Y-68047619D01*
X120285714Y-68190476D01*
X120238095Y-68380952D01*
X120238095Y-68761904D01*
X120285714Y-68857142D01*
X120333333Y-68904761D01*
X120428571Y-68952380D01*
X120619047Y-68952380D01*
X120714285Y-68904761D01*
X120761904Y-68857142D01*
X120809523Y-68761904D01*
X120809523Y-68523809D01*
X120761904Y-68428571D01*
X120714285Y-68380952D01*
X120619047Y-68333333D01*
X120428571Y-68333333D01*
X120333333Y-68380952D01*
X120285714Y-68428571D01*
X120238095Y-68523809D01*
X127338095Y-62102380D02*
X127338095Y-62911904D01*
X127385714Y-63007142D01*
X127433333Y-63054761D01*
X127528571Y-63102380D01*
X127719047Y-63102380D01*
X127814285Y-63054761D01*
X127861904Y-63007142D01*
X127909523Y-62911904D01*
X127909523Y-62102380D01*
X128528571Y-62530952D02*
X128433333Y-62483333D01*
X128385714Y-62435714D01*
X128338095Y-62340476D01*
X128338095Y-62292857D01*
X128385714Y-62197619D01*
X128433333Y-62150000D01*
X128528571Y-62102380D01*
X128719047Y-62102380D01*
X128814285Y-62150000D01*
X128861904Y-62197619D01*
X128909523Y-62292857D01*
X128909523Y-62340476D01*
X128861904Y-62435714D01*
X128814285Y-62483333D01*
X128719047Y-62530952D01*
X128528571Y-62530952D01*
X128433333Y-62578571D01*
X128385714Y-62626190D01*
X128338095Y-62721428D01*
X128338095Y-62911904D01*
X128385714Y-63007142D01*
X128433333Y-63054761D01*
X128528571Y-63102380D01*
X128719047Y-63102380D01*
X128814285Y-63054761D01*
X128861904Y-63007142D01*
X128909523Y-62911904D01*
X128909523Y-62721428D01*
X128861904Y-62626190D01*
X128814285Y-62578571D01*
X128719047Y-62530952D01*
X134957142Y-92652380D02*
X134623809Y-92176190D01*
X134385714Y-92652380D02*
X134385714Y-91652380D01*
X134766666Y-91652380D01*
X134861904Y-91700000D01*
X134909523Y-91747619D01*
X134957142Y-91842857D01*
X134957142Y-91985714D01*
X134909523Y-92080952D01*
X134861904Y-92128571D01*
X134766666Y-92176190D01*
X134385714Y-92176190D01*
X135909523Y-92652380D02*
X135338095Y-92652380D01*
X135623809Y-92652380D02*
X135623809Y-91652380D01*
X135528571Y-91795238D01*
X135433333Y-91890476D01*
X135338095Y-91938095D01*
X136385714Y-92652380D02*
X136576190Y-92652380D01*
X136671428Y-92604761D01*
X136719047Y-92557142D01*
X136814285Y-92414285D01*
X136861904Y-92223809D01*
X136861904Y-91842857D01*
X136814285Y-91747619D01*
X136766666Y-91700000D01*
X136671428Y-91652380D01*
X136480952Y-91652380D01*
X136385714Y-91700000D01*
X136338095Y-91747619D01*
X136290476Y-91842857D01*
X136290476Y-92080952D01*
X136338095Y-92176190D01*
X136385714Y-92223809D01*
X136480952Y-92271428D01*
X136671428Y-92271428D01*
X136766666Y-92223809D01*
X136814285Y-92176190D01*
X136861904Y-92080952D01*
X128957142Y-91052380D02*
X128623809Y-90576190D01*
X128385714Y-91052380D02*
X128385714Y-90052380D01*
X128766666Y-90052380D01*
X128861904Y-90100000D01*
X128909523Y-90147619D01*
X128957142Y-90242857D01*
X128957142Y-90385714D01*
X128909523Y-90480952D01*
X128861904Y-90528571D01*
X128766666Y-90576190D01*
X128385714Y-90576190D01*
X129338095Y-90147619D02*
X129385714Y-90100000D01*
X129480952Y-90052380D01*
X129719047Y-90052380D01*
X129814285Y-90100000D01*
X129861904Y-90147619D01*
X129909523Y-90242857D01*
X129909523Y-90338095D01*
X129861904Y-90480952D01*
X129290476Y-91052380D01*
X129909523Y-91052380D01*
X130528571Y-90052380D02*
X130623809Y-90052380D01*
X130719047Y-90100000D01*
X130766666Y-90147619D01*
X130814285Y-90242857D01*
X130861904Y-90433333D01*
X130861904Y-90671428D01*
X130814285Y-90861904D01*
X130766666Y-90957142D01*
X130719047Y-91004761D01*
X130623809Y-91052380D01*
X130528571Y-91052380D01*
X130433333Y-91004761D01*
X130385714Y-90957142D01*
X130338095Y-90861904D01*
X130290476Y-90671428D01*
X130290476Y-90433333D01*
X130338095Y-90242857D01*
X130385714Y-90147619D01*
X130433333Y-90100000D01*
X130528571Y-90052380D01*
X109557142Y-68222380D02*
X109223809Y-67746190D01*
X108985714Y-68222380D02*
X108985714Y-67222380D01*
X109366666Y-67222380D01*
X109461904Y-67270000D01*
X109509523Y-67317619D01*
X109557142Y-67412857D01*
X109557142Y-67555714D01*
X109509523Y-67650952D01*
X109461904Y-67698571D01*
X109366666Y-67746190D01*
X108985714Y-67746190D01*
X110509523Y-68222380D02*
X109938095Y-68222380D01*
X110223809Y-68222380D02*
X110223809Y-67222380D01*
X110128571Y-67365238D01*
X110033333Y-67460476D01*
X109938095Y-67508095D01*
X111080952Y-67650952D02*
X110985714Y-67603333D01*
X110938095Y-67555714D01*
X110890476Y-67460476D01*
X110890476Y-67412857D01*
X110938095Y-67317619D01*
X110985714Y-67270000D01*
X111080952Y-67222380D01*
X111271428Y-67222380D01*
X111366666Y-67270000D01*
X111414285Y-67317619D01*
X111461904Y-67412857D01*
X111461904Y-67460476D01*
X111414285Y-67555714D01*
X111366666Y-67603333D01*
X111271428Y-67650952D01*
X111080952Y-67650952D01*
X110985714Y-67698571D01*
X110938095Y-67746190D01*
X110890476Y-67841428D01*
X110890476Y-68031904D01*
X110938095Y-68127142D01*
X110985714Y-68174761D01*
X111080952Y-68222380D01*
X111271428Y-68222380D01*
X111366666Y-68174761D01*
X111414285Y-68127142D01*
X111461904Y-68031904D01*
X111461904Y-67841428D01*
X111414285Y-67746190D01*
X111366666Y-67698571D01*
X111271428Y-67650952D01*
X109557142Y-71252380D02*
X109223809Y-70776190D01*
X108985714Y-71252380D02*
X108985714Y-70252380D01*
X109366666Y-70252380D01*
X109461904Y-70300000D01*
X109509523Y-70347619D01*
X109557142Y-70442857D01*
X109557142Y-70585714D01*
X109509523Y-70680952D01*
X109461904Y-70728571D01*
X109366666Y-70776190D01*
X108985714Y-70776190D01*
X110509523Y-71252380D02*
X109938095Y-71252380D01*
X110223809Y-71252380D02*
X110223809Y-70252380D01*
X110128571Y-70395238D01*
X110033333Y-70490476D01*
X109938095Y-70538095D01*
X110842857Y-70252380D02*
X111509523Y-70252380D01*
X111080952Y-71252380D01*
X101216666Y-121202380D02*
X101216666Y-121916666D01*
X101169047Y-122059523D01*
X101073809Y-122154761D01*
X100930952Y-122202380D01*
X100835714Y-122202380D01*
X102216666Y-122202380D02*
X101645238Y-122202380D01*
X101930952Y-122202380D02*
X101930952Y-121202380D01*
X101835714Y-121345238D01*
X101740476Y-121440476D01*
X101645238Y-121488095D01*
X153507142Y-107702380D02*
X153173809Y-107226190D01*
X152935714Y-107702380D02*
X152935714Y-106702380D01*
X153316666Y-106702380D01*
X153411904Y-106750000D01*
X153459523Y-106797619D01*
X153507142Y-106892857D01*
X153507142Y-107035714D01*
X153459523Y-107130952D01*
X153411904Y-107178571D01*
X153316666Y-107226190D01*
X152935714Y-107226190D01*
X153888095Y-106797619D02*
X153935714Y-106750000D01*
X154030952Y-106702380D01*
X154269047Y-106702380D01*
X154364285Y-106750000D01*
X154411904Y-106797619D01*
X154459523Y-106892857D01*
X154459523Y-106988095D01*
X154411904Y-107130952D01*
X153840476Y-107702380D01*
X154459523Y-107702380D01*
X155411904Y-107702380D02*
X154840476Y-107702380D01*
X155126190Y-107702380D02*
X155126190Y-106702380D01*
X155030952Y-106845238D01*
X154935714Y-106940476D01*
X154840476Y-106988095D01*
X174282142Y-105622380D02*
X173948809Y-105146190D01*
X173710714Y-105622380D02*
X173710714Y-104622380D01*
X174091666Y-104622380D01*
X174186904Y-104670000D01*
X174234523Y-104717619D01*
X174282142Y-104812857D01*
X174282142Y-104955714D01*
X174234523Y-105050952D01*
X174186904Y-105098571D01*
X174091666Y-105146190D01*
X173710714Y-105146190D01*
X174663095Y-104717619D02*
X174710714Y-104670000D01*
X174805952Y-104622380D01*
X175044047Y-104622380D01*
X175139285Y-104670000D01*
X175186904Y-104717619D01*
X175234523Y-104812857D01*
X175234523Y-104908095D01*
X175186904Y-105050952D01*
X174615476Y-105622380D01*
X175234523Y-105622380D01*
X175615476Y-104717619D02*
X175663095Y-104670000D01*
X175758333Y-104622380D01*
X175996428Y-104622380D01*
X176091666Y-104670000D01*
X176139285Y-104717619D01*
X176186904Y-104812857D01*
X176186904Y-104908095D01*
X176139285Y-105050952D01*
X175567857Y-105622380D01*
X176186904Y-105622380D01*
X143207142Y-108202380D02*
X142873809Y-107726190D01*
X142635714Y-108202380D02*
X142635714Y-107202380D01*
X143016666Y-107202380D01*
X143111904Y-107250000D01*
X143159523Y-107297619D01*
X143207142Y-107392857D01*
X143207142Y-107535714D01*
X143159523Y-107630952D01*
X143111904Y-107678571D01*
X143016666Y-107726190D01*
X142635714Y-107726190D01*
X143588095Y-107297619D02*
X143635714Y-107250000D01*
X143730952Y-107202380D01*
X143969047Y-107202380D01*
X144064285Y-107250000D01*
X144111904Y-107297619D01*
X144159523Y-107392857D01*
X144159523Y-107488095D01*
X144111904Y-107630952D01*
X143540476Y-108202380D01*
X144159523Y-108202380D01*
X144492857Y-107202380D02*
X145111904Y-107202380D01*
X144778571Y-107583333D01*
X144921428Y-107583333D01*
X145016666Y-107630952D01*
X145064285Y-107678571D01*
X145111904Y-107773809D01*
X145111904Y-108011904D01*
X145064285Y-108107142D01*
X145016666Y-108154761D01*
X144921428Y-108202380D01*
X144635714Y-108202380D01*
X144540476Y-108154761D01*
X144492857Y-108107142D01*
X141838095Y-85852380D02*
X141838095Y-86661904D01*
X141885714Y-86757142D01*
X141933333Y-86804761D01*
X142028571Y-86852380D01*
X142219047Y-86852380D01*
X142314285Y-86804761D01*
X142361904Y-86757142D01*
X142409523Y-86661904D01*
X142409523Y-85852380D01*
X143314285Y-86185714D02*
X143314285Y-86852380D01*
X143076190Y-85804761D02*
X142838095Y-86519047D01*
X143457142Y-86519047D01*
X134833333Y-98307142D02*
X134785714Y-98354761D01*
X134642857Y-98402380D01*
X134547619Y-98402380D01*
X134404761Y-98354761D01*
X134309523Y-98259523D01*
X134261904Y-98164285D01*
X134214285Y-97973809D01*
X134214285Y-97830952D01*
X134261904Y-97640476D01*
X134309523Y-97545238D01*
X134404761Y-97450000D01*
X134547619Y-97402380D01*
X134642857Y-97402380D01*
X134785714Y-97450000D01*
X134833333Y-97497619D01*
X135738095Y-97402380D02*
X135261904Y-97402380D01*
X135214285Y-97878571D01*
X135261904Y-97830952D01*
X135357142Y-97783333D01*
X135595238Y-97783333D01*
X135690476Y-97830952D01*
X135738095Y-97878571D01*
X135785714Y-97973809D01*
X135785714Y-98211904D01*
X135738095Y-98307142D01*
X135690476Y-98354761D01*
X135595238Y-98402380D01*
X135357142Y-98402380D01*
X135261904Y-98354761D01*
X135214285Y-98307142D01*
X172383333Y-112707142D02*
X172335714Y-112754761D01*
X172192857Y-112802380D01*
X172097619Y-112802380D01*
X171954761Y-112754761D01*
X171859523Y-112659523D01*
X171811904Y-112564285D01*
X171764285Y-112373809D01*
X171764285Y-112230952D01*
X171811904Y-112040476D01*
X171859523Y-111945238D01*
X171954761Y-111850000D01*
X172097619Y-111802380D01*
X172192857Y-111802380D01*
X172335714Y-111850000D01*
X172383333Y-111897619D01*
X173240476Y-111802380D02*
X173050000Y-111802380D01*
X172954761Y-111850000D01*
X172907142Y-111897619D01*
X172811904Y-112040476D01*
X172764285Y-112230952D01*
X172764285Y-112611904D01*
X172811904Y-112707142D01*
X172859523Y-112754761D01*
X172954761Y-112802380D01*
X173145238Y-112802380D01*
X173240476Y-112754761D01*
X173288095Y-112707142D01*
X173335714Y-112611904D01*
X173335714Y-112373809D01*
X173288095Y-112278571D01*
X173240476Y-112230952D01*
X173145238Y-112183333D01*
X172954761Y-112183333D01*
X172859523Y-112230952D01*
X172811904Y-112278571D01*
X172764285Y-112373809D01*
X138033333Y-100957142D02*
X137985714Y-101004761D01*
X137842857Y-101052380D01*
X137747619Y-101052380D01*
X137604761Y-101004761D01*
X137509523Y-100909523D01*
X137461904Y-100814285D01*
X137414285Y-100623809D01*
X137414285Y-100480952D01*
X137461904Y-100290476D01*
X137509523Y-100195238D01*
X137604761Y-100100000D01*
X137747619Y-100052380D01*
X137842857Y-100052380D01*
X137985714Y-100100000D01*
X138033333Y-100147619D01*
X138366666Y-100052380D02*
X139033333Y-100052380D01*
X138604761Y-101052380D01*
X111357142Y-63107142D02*
X111309523Y-63154761D01*
X111166666Y-63202380D01*
X111071428Y-63202380D01*
X110928571Y-63154761D01*
X110833333Y-63059523D01*
X110785714Y-62964285D01*
X110738095Y-62773809D01*
X110738095Y-62630952D01*
X110785714Y-62440476D01*
X110833333Y-62345238D01*
X110928571Y-62250000D01*
X111071428Y-62202380D01*
X111166666Y-62202380D01*
X111309523Y-62250000D01*
X111357142Y-62297619D01*
X112309523Y-63202380D02*
X111738095Y-63202380D01*
X112023809Y-63202380D02*
X112023809Y-62202380D01*
X111928571Y-62345238D01*
X111833333Y-62440476D01*
X111738095Y-62488095D01*
X113214285Y-62202380D02*
X112738095Y-62202380D01*
X112690476Y-62678571D01*
X112738095Y-62630952D01*
X112833333Y-62583333D01*
X113071428Y-62583333D01*
X113166666Y-62630952D01*
X113214285Y-62678571D01*
X113261904Y-62773809D01*
X113261904Y-63011904D01*
X113214285Y-63107142D01*
X113166666Y-63154761D01*
X113071428Y-63202380D01*
X112833333Y-63202380D01*
X112738095Y-63154761D01*
X112690476Y-63107142D01*
X128861904Y-100652380D02*
X128861904Y-99652380D01*
X129100000Y-99652380D01*
X129242857Y-99700000D01*
X129338095Y-99795238D01*
X129385714Y-99890476D01*
X129433333Y-100080952D01*
X129433333Y-100223809D01*
X129385714Y-100414285D01*
X129338095Y-100509523D01*
X129242857Y-100604761D01*
X129100000Y-100652380D01*
X128861904Y-100652380D01*
X129766666Y-99652380D02*
X130433333Y-99652380D01*
X130004761Y-100652380D01*
X118011904Y-77452380D02*
X118011904Y-76452380D01*
X118250000Y-76452380D01*
X118392857Y-76500000D01*
X118488095Y-76595238D01*
X118535714Y-76690476D01*
X118583333Y-76880952D01*
X118583333Y-77023809D01*
X118535714Y-77214285D01*
X118488095Y-77309523D01*
X118392857Y-77404761D01*
X118250000Y-77452380D01*
X118011904Y-77452380D01*
X119059523Y-77452380D02*
X119250000Y-77452380D01*
X119345238Y-77404761D01*
X119392857Y-77357142D01*
X119488095Y-77214285D01*
X119535714Y-77023809D01*
X119535714Y-76642857D01*
X119488095Y-76547619D01*
X119440476Y-76500000D01*
X119345238Y-76452380D01*
X119154761Y-76452380D01*
X119059523Y-76500000D01*
X119011904Y-76547619D01*
X118964285Y-76642857D01*
X118964285Y-76880952D01*
X119011904Y-76976190D01*
X119059523Y-77023809D01*
X119154761Y-77071428D01*
X119345238Y-77071428D01*
X119440476Y-77023809D01*
X119488095Y-76976190D01*
X119535714Y-76880952D01*
X121102380Y-67164285D02*
X120102380Y-67164285D01*
X120102380Y-66926190D01*
X120150000Y-66783333D01*
X120245238Y-66688095D01*
X120340476Y-66640476D01*
X120530952Y-66592857D01*
X120673809Y-66592857D01*
X120864285Y-66640476D01*
X120959523Y-66688095D01*
X121054761Y-66783333D01*
X121102380Y-66926190D01*
X121102380Y-67164285D01*
X121102380Y-65640476D02*
X121102380Y-66211904D01*
X121102380Y-65926190D02*
X120102380Y-65926190D01*
X120245238Y-66021428D01*
X120340476Y-66116666D01*
X120388095Y-66211904D01*
X120102380Y-65021428D02*
X120102380Y-64926190D01*
X120150000Y-64830952D01*
X120197619Y-64783333D01*
X120292857Y-64735714D01*
X120483333Y-64688095D01*
X120721428Y-64688095D01*
X120911904Y-64735714D01*
X121007142Y-64783333D01*
X121054761Y-64830952D01*
X121102380Y-64926190D01*
X121102380Y-65021428D01*
X121054761Y-65116666D01*
X121007142Y-65164285D01*
X120911904Y-65211904D01*
X120721428Y-65259523D01*
X120483333Y-65259523D01*
X120292857Y-65211904D01*
X120197619Y-65164285D01*
X120150000Y-65116666D01*
X120102380Y-65021428D01*
X119052380Y-72414285D02*
X118052380Y-72414285D01*
X118052380Y-72176190D01*
X118100000Y-72033333D01*
X118195238Y-71938095D01*
X118290476Y-71890476D01*
X118480952Y-71842857D01*
X118623809Y-71842857D01*
X118814285Y-71890476D01*
X118909523Y-71938095D01*
X119004761Y-72033333D01*
X119052380Y-72176190D01*
X119052380Y-72414285D01*
X119052380Y-70890476D02*
X119052380Y-71461904D01*
X119052380Y-71176190D02*
X118052380Y-71176190D01*
X118195238Y-71271428D01*
X118290476Y-71366666D01*
X118338095Y-71461904D01*
X119052380Y-69938095D02*
X119052380Y-70509523D01*
X119052380Y-70223809D02*
X118052380Y-70223809D01*
X118195238Y-70319047D01*
X118290476Y-70414285D01*
X118338095Y-70509523D01*
X122190476Y-86452380D02*
X122190476Y-87166666D01*
X122142857Y-87309523D01*
X122047619Y-87404761D01*
X121904761Y-87452380D01*
X121809523Y-87452380D01*
X123190476Y-87452380D02*
X122619047Y-87452380D01*
X122904761Y-87452380D02*
X122904761Y-86452380D01*
X122809523Y-86595238D01*
X122714285Y-86690476D01*
X122619047Y-86738095D01*
X123571428Y-86547619D02*
X123619047Y-86500000D01*
X123714285Y-86452380D01*
X123952380Y-86452380D01*
X124047619Y-86500000D01*
X124095238Y-86547619D01*
X124142857Y-86642857D01*
X124142857Y-86738095D01*
X124095238Y-86880952D01*
X123523809Y-87452380D01*
X124142857Y-87452380D01*
X141240476Y-108702380D02*
X141240476Y-109416666D01*
X141192857Y-109559523D01*
X141097619Y-109654761D01*
X140954761Y-109702380D01*
X140859523Y-109702380D01*
X142240476Y-109702380D02*
X141669047Y-109702380D01*
X141954761Y-109702380D02*
X141954761Y-108702380D01*
X141859523Y-108845238D01*
X141764285Y-108940476D01*
X141669047Y-108988095D01*
X143097619Y-109035714D02*
X143097619Y-109702380D01*
X142859523Y-108654761D02*
X142621428Y-109369047D01*
X143240476Y-109369047D01*
X151557142Y-82252380D02*
X151223809Y-81776190D01*
X150985714Y-82252380D02*
X150985714Y-81252380D01*
X151366666Y-81252380D01*
X151461904Y-81300000D01*
X151509523Y-81347619D01*
X151557142Y-81442857D01*
X151557142Y-81585714D01*
X151509523Y-81680952D01*
X151461904Y-81728571D01*
X151366666Y-81776190D01*
X150985714Y-81776190D01*
X151938095Y-81347619D02*
X151985714Y-81300000D01*
X152080952Y-81252380D01*
X152319047Y-81252380D01*
X152414285Y-81300000D01*
X152461904Y-81347619D01*
X152509523Y-81442857D01*
X152509523Y-81538095D01*
X152461904Y-81680952D01*
X151890476Y-82252380D01*
X152509523Y-82252380D01*
X152842857Y-81252380D02*
X153509523Y-81252380D01*
X153080952Y-82252380D01*
X108357142Y-65202380D02*
X108023809Y-64726190D01*
X107785714Y-65202380D02*
X107785714Y-64202380D01*
X108166666Y-64202380D01*
X108261904Y-64250000D01*
X108309523Y-64297619D01*
X108357142Y-64392857D01*
X108357142Y-64535714D01*
X108309523Y-64630952D01*
X108261904Y-64678571D01*
X108166666Y-64726190D01*
X107785714Y-64726190D01*
X108690476Y-64202380D02*
X109309523Y-64202380D01*
X108976190Y-64583333D01*
X109119047Y-64583333D01*
X109214285Y-64630952D01*
X109261904Y-64678571D01*
X109309523Y-64773809D01*
X109309523Y-65011904D01*
X109261904Y-65107142D01*
X109214285Y-65154761D01*
X109119047Y-65202380D01*
X108833333Y-65202380D01*
X108738095Y-65154761D01*
X108690476Y-65107142D01*
X109928571Y-64202380D02*
X110023809Y-64202380D01*
X110119047Y-64250000D01*
X110166666Y-64297619D01*
X110214285Y-64392857D01*
X110261904Y-64583333D01*
X110261904Y-64821428D01*
X110214285Y-65011904D01*
X110166666Y-65107142D01*
X110119047Y-65154761D01*
X110023809Y-65202380D01*
X109928571Y-65202380D01*
X109833333Y-65154761D01*
X109785714Y-65107142D01*
X109738095Y-65011904D01*
X109690476Y-64821428D01*
X109690476Y-64583333D01*
X109738095Y-64392857D01*
X109785714Y-64297619D01*
X109833333Y-64250000D01*
X109928571Y-64202380D01*
X113107142Y-74452380D02*
X112773809Y-73976190D01*
X112535714Y-74452380D02*
X112535714Y-73452380D01*
X112916666Y-73452380D01*
X113011904Y-73500000D01*
X113059523Y-73547619D01*
X113107142Y-73642857D01*
X113107142Y-73785714D01*
X113059523Y-73880952D01*
X113011904Y-73928571D01*
X112916666Y-73976190D01*
X112535714Y-73976190D01*
X113440476Y-73452380D02*
X114059523Y-73452380D01*
X113726190Y-73833333D01*
X113869047Y-73833333D01*
X113964285Y-73880952D01*
X114011904Y-73928571D01*
X114059523Y-74023809D01*
X114059523Y-74261904D01*
X114011904Y-74357142D01*
X113964285Y-74404761D01*
X113869047Y-74452380D01*
X113583333Y-74452380D01*
X113488095Y-74404761D01*
X113440476Y-74357142D01*
X115011904Y-74452380D02*
X114440476Y-74452380D01*
X114726190Y-74452380D02*
X114726190Y-73452380D01*
X114630952Y-73595238D01*
X114535714Y-73690476D01*
X114440476Y-73738095D01*
X106557142Y-74452380D02*
X106223809Y-73976190D01*
X105985714Y-74452380D02*
X105985714Y-73452380D01*
X106366666Y-73452380D01*
X106461904Y-73500000D01*
X106509523Y-73547619D01*
X106557142Y-73642857D01*
X106557142Y-73785714D01*
X106509523Y-73880952D01*
X106461904Y-73928571D01*
X106366666Y-73976190D01*
X105985714Y-73976190D01*
X106890476Y-73452380D02*
X107509523Y-73452380D01*
X107176190Y-73833333D01*
X107319047Y-73833333D01*
X107414285Y-73880952D01*
X107461904Y-73928571D01*
X107509523Y-74023809D01*
X107509523Y-74261904D01*
X107461904Y-74357142D01*
X107414285Y-74404761D01*
X107319047Y-74452380D01*
X107033333Y-74452380D01*
X106938095Y-74404761D01*
X106890476Y-74357142D01*
X107890476Y-73547619D02*
X107938095Y-73500000D01*
X108033333Y-73452380D01*
X108271428Y-73452380D01*
X108366666Y-73500000D01*
X108414285Y-73547619D01*
X108461904Y-73642857D01*
X108461904Y-73738095D01*
X108414285Y-73880952D01*
X107842857Y-74452380D01*
X108461904Y-74452380D01*
X110107142Y-74452380D02*
X109773809Y-73976190D01*
X109535714Y-74452380D02*
X109535714Y-73452380D01*
X109916666Y-73452380D01*
X110011904Y-73500000D01*
X110059523Y-73547619D01*
X110107142Y-73642857D01*
X110107142Y-73785714D01*
X110059523Y-73880952D01*
X110011904Y-73928571D01*
X109916666Y-73976190D01*
X109535714Y-73976190D01*
X110440476Y-73452380D02*
X111059523Y-73452380D01*
X110726190Y-73833333D01*
X110869047Y-73833333D01*
X110964285Y-73880952D01*
X111011904Y-73928571D01*
X111059523Y-74023809D01*
X111059523Y-74261904D01*
X111011904Y-74357142D01*
X110964285Y-74404761D01*
X110869047Y-74452380D01*
X110583333Y-74452380D01*
X110488095Y-74404761D01*
X110440476Y-74357142D01*
X111392857Y-73452380D02*
X112011904Y-73452380D01*
X111678571Y-73833333D01*
X111821428Y-73833333D01*
X111916666Y-73880952D01*
X111964285Y-73928571D01*
X112011904Y-74023809D01*
X112011904Y-74261904D01*
X111964285Y-74357142D01*
X111916666Y-74404761D01*
X111821428Y-74452380D01*
X111535714Y-74452380D01*
X111440476Y-74404761D01*
X111392857Y-74357142D01*
X114038095Y-63952380D02*
X114038095Y-64761904D01*
X114085714Y-64857142D01*
X114133333Y-64904761D01*
X114228571Y-64952380D01*
X114419047Y-64952380D01*
X114514285Y-64904761D01*
X114561904Y-64857142D01*
X114609523Y-64761904D01*
X114609523Y-63952380D01*
X115133333Y-64952380D02*
X115323809Y-64952380D01*
X115419047Y-64904761D01*
X115466666Y-64857142D01*
X115561904Y-64714285D01*
X115609523Y-64523809D01*
X115609523Y-64142857D01*
X115561904Y-64047619D01*
X115514285Y-64000000D01*
X115419047Y-63952380D01*
X115228571Y-63952380D01*
X115133333Y-64000000D01*
X115085714Y-64047619D01*
X115038095Y-64142857D01*
X115038095Y-64380952D01*
X115085714Y-64476190D01*
X115133333Y-64523809D01*
X115228571Y-64571428D01*
X115419047Y-64571428D01*
X115514285Y-64523809D01*
X115561904Y-64476190D01*
X115609523Y-64380952D01*
X114357142Y-78652380D02*
X114023809Y-78176190D01*
X113785714Y-78652380D02*
X113785714Y-77652380D01*
X114166666Y-77652380D01*
X114261904Y-77700000D01*
X114309523Y-77747619D01*
X114357142Y-77842857D01*
X114357142Y-77985714D01*
X114309523Y-78080952D01*
X114261904Y-78128571D01*
X114166666Y-78176190D01*
X113785714Y-78176190D01*
X114690476Y-77652380D02*
X115309523Y-77652380D01*
X114976190Y-78033333D01*
X115119047Y-78033333D01*
X115214285Y-78080952D01*
X115261904Y-78128571D01*
X115309523Y-78223809D01*
X115309523Y-78461904D01*
X115261904Y-78557142D01*
X115214285Y-78604761D01*
X115119047Y-78652380D01*
X114833333Y-78652380D01*
X114738095Y-78604761D01*
X114690476Y-78557142D01*
X116214285Y-77652380D02*
X115738095Y-77652380D01*
X115690476Y-78128571D01*
X115738095Y-78080952D01*
X115833333Y-78033333D01*
X116071428Y-78033333D01*
X116166666Y-78080952D01*
X116214285Y-78128571D01*
X116261904Y-78223809D01*
X116261904Y-78461904D01*
X116214285Y-78557142D01*
X116166666Y-78604761D01*
X116071428Y-78652380D01*
X115833333Y-78652380D01*
X115738095Y-78604761D01*
X115690476Y-78557142D01*
X110857142Y-78772380D02*
X110523809Y-78296190D01*
X110285714Y-78772380D02*
X110285714Y-77772380D01*
X110666666Y-77772380D01*
X110761904Y-77820000D01*
X110809523Y-77867619D01*
X110857142Y-77962857D01*
X110857142Y-78105714D01*
X110809523Y-78200952D01*
X110761904Y-78248571D01*
X110666666Y-78296190D01*
X110285714Y-78296190D01*
X111190476Y-77772380D02*
X111809523Y-77772380D01*
X111476190Y-78153333D01*
X111619047Y-78153333D01*
X111714285Y-78200952D01*
X111761904Y-78248571D01*
X111809523Y-78343809D01*
X111809523Y-78581904D01*
X111761904Y-78677142D01*
X111714285Y-78724761D01*
X111619047Y-78772380D01*
X111333333Y-78772380D01*
X111238095Y-78724761D01*
X111190476Y-78677142D01*
X112666666Y-77772380D02*
X112476190Y-77772380D01*
X112380952Y-77820000D01*
X112333333Y-77867619D01*
X112238095Y-78010476D01*
X112190476Y-78200952D01*
X112190476Y-78581904D01*
X112238095Y-78677142D01*
X112285714Y-78724761D01*
X112380952Y-78772380D01*
X112571428Y-78772380D01*
X112666666Y-78724761D01*
X112714285Y-78677142D01*
X112761904Y-78581904D01*
X112761904Y-78343809D01*
X112714285Y-78248571D01*
X112666666Y-78200952D01*
X112571428Y-78153333D01*
X112380952Y-78153333D01*
X112285714Y-78200952D01*
X112238095Y-78248571D01*
X112190476Y-78343809D01*
X102190476Y-74452380D02*
X102190476Y-75166666D01*
X102142857Y-75309523D01*
X102047619Y-75404761D01*
X101904761Y-75452380D01*
X101809523Y-75452380D01*
X103190476Y-75452380D02*
X102619047Y-75452380D01*
X102904761Y-75452380D02*
X102904761Y-74452380D01*
X102809523Y-74595238D01*
X102714285Y-74690476D01*
X102619047Y-74738095D01*
X104142857Y-75452380D02*
X103571428Y-75452380D01*
X103857142Y-75452380D02*
X103857142Y-74452380D01*
X103761904Y-74595238D01*
X103666666Y-74690476D01*
X103571428Y-74738095D01*
X113457142Y-72242857D02*
X113504761Y-72290476D01*
X113552380Y-72433333D01*
X113552380Y-72528571D01*
X113504761Y-72671428D01*
X113409523Y-72766666D01*
X113314285Y-72814285D01*
X113123809Y-72861904D01*
X112980952Y-72861904D01*
X112790476Y-72814285D01*
X112695238Y-72766666D01*
X112600000Y-72671428D01*
X112552380Y-72528571D01*
X112552380Y-72433333D01*
X112600000Y-72290476D01*
X112647619Y-72242857D01*
X113552380Y-71290476D02*
X113552380Y-71861904D01*
X113552380Y-71576190D02*
X112552380Y-71576190D01*
X112695238Y-71671428D01*
X112790476Y-71766666D01*
X112838095Y-71861904D01*
X112552380Y-70957142D02*
X112552380Y-70290476D01*
X113552380Y-70719047D01*
X131916666Y-80202380D02*
X131916666Y-80916666D01*
X131869047Y-81059523D01*
X131773809Y-81154761D01*
X131630952Y-81202380D01*
X131535714Y-81202380D01*
X132535714Y-80630952D02*
X132440476Y-80583333D01*
X132392857Y-80535714D01*
X132345238Y-80440476D01*
X132345238Y-80392857D01*
X132392857Y-80297619D01*
X132440476Y-80250000D01*
X132535714Y-80202380D01*
X132726190Y-80202380D01*
X132821428Y-80250000D01*
X132869047Y-80297619D01*
X132916666Y-80392857D01*
X132916666Y-80440476D01*
X132869047Y-80535714D01*
X132821428Y-80583333D01*
X132726190Y-80630952D01*
X132535714Y-80630952D01*
X132440476Y-80678571D01*
X132392857Y-80726190D01*
X132345238Y-80821428D01*
X132345238Y-81011904D01*
X132392857Y-81107142D01*
X132440476Y-81154761D01*
X132535714Y-81202380D01*
X132726190Y-81202380D01*
X132821428Y-81154761D01*
X132869047Y-81107142D01*
X132916666Y-81011904D01*
X132916666Y-80821428D01*
X132869047Y-80726190D01*
X132821428Y-80678571D01*
X132726190Y-80630952D01*
X158190476Y-65252380D02*
X158190476Y-65966666D01*
X158142857Y-66109523D01*
X158047619Y-66204761D01*
X157904761Y-66252380D01*
X157809523Y-66252380D01*
X159190476Y-66252380D02*
X158619047Y-66252380D01*
X158904761Y-66252380D02*
X158904761Y-65252380D01*
X158809523Y-65395238D01*
X158714285Y-65490476D01*
X158619047Y-65538095D01*
X160095238Y-65252380D02*
X159619047Y-65252380D01*
X159571428Y-65728571D01*
X159619047Y-65680952D01*
X159714285Y-65633333D01*
X159952380Y-65633333D01*
X160047619Y-65680952D01*
X160095238Y-65728571D01*
X160142857Y-65823809D01*
X160142857Y-66061904D01*
X160095238Y-66157142D01*
X160047619Y-66204761D01*
X159952380Y-66252380D01*
X159714285Y-66252380D01*
X159619047Y-66204761D01*
X159571428Y-66157142D01*
X144690476Y-65252380D02*
X144690476Y-65966666D01*
X144642857Y-66109523D01*
X144547619Y-66204761D01*
X144404761Y-66252380D01*
X144309523Y-66252380D01*
X145690476Y-66252380D02*
X145119047Y-66252380D01*
X145404761Y-66252380D02*
X145404761Y-65252380D01*
X145309523Y-65395238D01*
X145214285Y-65490476D01*
X145119047Y-65538095D01*
X146547619Y-65252380D02*
X146357142Y-65252380D01*
X146261904Y-65300000D01*
X146214285Y-65347619D01*
X146119047Y-65490476D01*
X146071428Y-65680952D01*
X146071428Y-66061904D01*
X146119047Y-66157142D01*
X146166666Y-66204761D01*
X146261904Y-66252380D01*
X146452380Y-66252380D01*
X146547619Y-66204761D01*
X146595238Y-66157142D01*
X146642857Y-66061904D01*
X146642857Y-65823809D01*
X146595238Y-65728571D01*
X146547619Y-65680952D01*
X146452380Y-65633333D01*
X146261904Y-65633333D01*
X146166666Y-65680952D01*
X146119047Y-65728571D01*
X146071428Y-65823809D01*
X159854761Y-63097619D02*
X159759523Y-63050000D01*
X159664285Y-62954761D01*
X159521428Y-62811904D01*
X159426190Y-62764285D01*
X159330952Y-62764285D01*
X159378571Y-63002380D02*
X159283333Y-62954761D01*
X159188095Y-62859523D01*
X159140476Y-62669047D01*
X159140476Y-62335714D01*
X159188095Y-62145238D01*
X159283333Y-62050000D01*
X159378571Y-62002380D01*
X159569047Y-62002380D01*
X159664285Y-62050000D01*
X159759523Y-62145238D01*
X159807142Y-62335714D01*
X159807142Y-62669047D01*
X159759523Y-62859523D01*
X159664285Y-62954761D01*
X159569047Y-63002380D01*
X159378571Y-63002380D01*
X160283333Y-63002380D02*
X160473809Y-63002380D01*
X160569047Y-62954761D01*
X160616666Y-62907142D01*
X160711904Y-62764285D01*
X160759523Y-62573809D01*
X160759523Y-62192857D01*
X160711904Y-62097619D01*
X160664285Y-62050000D01*
X160569047Y-62002380D01*
X160378571Y-62002380D01*
X160283333Y-62050000D01*
X160235714Y-62097619D01*
X160188095Y-62192857D01*
X160188095Y-62430952D01*
X160235714Y-62526190D01*
X160283333Y-62573809D01*
X160378571Y-62621428D01*
X160569047Y-62621428D01*
X160664285Y-62573809D01*
X160711904Y-62526190D01*
X160759523Y-62430952D01*
X143357142Y-78522380D02*
X143023809Y-78046190D01*
X142785714Y-78522380D02*
X142785714Y-77522380D01*
X143166666Y-77522380D01*
X143261904Y-77570000D01*
X143309523Y-77617619D01*
X143357142Y-77712857D01*
X143357142Y-77855714D01*
X143309523Y-77950952D01*
X143261904Y-77998571D01*
X143166666Y-78046190D01*
X142785714Y-78046190D01*
X143690476Y-77522380D02*
X144309523Y-77522380D01*
X143976190Y-77903333D01*
X144119047Y-77903333D01*
X144214285Y-77950952D01*
X144261904Y-77998571D01*
X144309523Y-78093809D01*
X144309523Y-78331904D01*
X144261904Y-78427142D01*
X144214285Y-78474761D01*
X144119047Y-78522380D01*
X143833333Y-78522380D01*
X143738095Y-78474761D01*
X143690476Y-78427142D01*
X144642857Y-77522380D02*
X145309523Y-77522380D01*
X144880952Y-78522380D01*
X163982142Y-78522380D02*
X163648809Y-78046190D01*
X163410714Y-78522380D02*
X163410714Y-77522380D01*
X163791666Y-77522380D01*
X163886904Y-77570000D01*
X163934523Y-77617619D01*
X163982142Y-77712857D01*
X163982142Y-77855714D01*
X163934523Y-77950952D01*
X163886904Y-77998571D01*
X163791666Y-78046190D01*
X163410714Y-78046190D01*
X164315476Y-77522380D02*
X164934523Y-77522380D01*
X164601190Y-77903333D01*
X164744047Y-77903333D01*
X164839285Y-77950952D01*
X164886904Y-77998571D01*
X164934523Y-78093809D01*
X164934523Y-78331904D01*
X164886904Y-78427142D01*
X164839285Y-78474761D01*
X164744047Y-78522380D01*
X164458333Y-78522380D01*
X164363095Y-78474761D01*
X164315476Y-78427142D01*
X165505952Y-77950952D02*
X165410714Y-77903333D01*
X165363095Y-77855714D01*
X165315476Y-77760476D01*
X165315476Y-77712857D01*
X165363095Y-77617619D01*
X165410714Y-77570000D01*
X165505952Y-77522380D01*
X165696428Y-77522380D01*
X165791666Y-77570000D01*
X165839285Y-77617619D01*
X165886904Y-77712857D01*
X165886904Y-77760476D01*
X165839285Y-77855714D01*
X165791666Y-77903333D01*
X165696428Y-77950952D01*
X165505952Y-77950952D01*
X165410714Y-77998571D01*
X165363095Y-78046190D01*
X165315476Y-78141428D01*
X165315476Y-78331904D01*
X165363095Y-78427142D01*
X165410714Y-78474761D01*
X165505952Y-78522380D01*
X165696428Y-78522380D01*
X165791666Y-78474761D01*
X165839285Y-78427142D01*
X165886904Y-78331904D01*
X165886904Y-78141428D01*
X165839285Y-78046190D01*
X165791666Y-77998571D01*
X165696428Y-77950952D01*
X190119047Y-89128571D02*
X190261904Y-89176190D01*
X190309523Y-89223809D01*
X190357142Y-89319047D01*
X190357142Y-89461904D01*
X190309523Y-89557142D01*
X190261904Y-89604761D01*
X190166666Y-89652380D01*
X189785714Y-89652380D01*
X189785714Y-88652380D01*
X190119047Y-88652380D01*
X190214285Y-88700000D01*
X190261904Y-88747619D01*
X190309523Y-88842857D01*
X190309523Y-88938095D01*
X190261904Y-89033333D01*
X190214285Y-89080952D01*
X190119047Y-89128571D01*
X189785714Y-89128571D01*
X190690476Y-88652380D02*
X191357142Y-88652380D01*
X190690476Y-89652380D01*
X191357142Y-89652380D01*
X192261904Y-89652380D02*
X191690476Y-89652380D01*
X191976190Y-89652380D02*
X191976190Y-88652380D01*
X191880952Y-88795238D01*
X191785714Y-88890476D01*
X191690476Y-88938095D01*
X183285714Y-81652380D02*
X182714285Y-81652380D01*
X183000000Y-81652380D02*
X183000000Y-80652380D01*
X182904761Y-80795238D01*
X182809523Y-80890476D01*
X182714285Y-80938095D01*
X198714285Y-80747619D02*
X198761904Y-80700000D01*
X198857142Y-80652380D01*
X199095238Y-80652380D01*
X199190476Y-80700000D01*
X199238095Y-80747619D01*
X199285714Y-80842857D01*
X199285714Y-80938095D01*
X199238095Y-81080952D01*
X198666666Y-81652380D01*
X199285714Y-81652380D01*
X179290476Y-65502380D02*
X179290476Y-66216666D01*
X179242857Y-66359523D01*
X179147619Y-66454761D01*
X179004761Y-66502380D01*
X178909523Y-66502380D01*
X180290476Y-66502380D02*
X179719047Y-66502380D01*
X180004761Y-66502380D02*
X180004761Y-65502380D01*
X179909523Y-65645238D01*
X179814285Y-65740476D01*
X179719047Y-65788095D01*
X180623809Y-65502380D02*
X181290476Y-65502380D01*
X180861904Y-66502380D01*
X180378571Y-63097619D02*
X180283333Y-63050000D01*
X180188095Y-62954761D01*
X180045238Y-62811904D01*
X179950000Y-62764285D01*
X179854761Y-62764285D01*
X179902380Y-63002380D02*
X179807142Y-62954761D01*
X179711904Y-62859523D01*
X179664285Y-62669047D01*
X179664285Y-62335714D01*
X179711904Y-62145238D01*
X179807142Y-62050000D01*
X179902380Y-62002380D01*
X180092857Y-62002380D01*
X180188095Y-62050000D01*
X180283333Y-62145238D01*
X180330952Y-62335714D01*
X180330952Y-62669047D01*
X180283333Y-62859523D01*
X180188095Y-62954761D01*
X180092857Y-63002380D01*
X179902380Y-63002380D01*
X181283333Y-63002380D02*
X180711904Y-63002380D01*
X180997619Y-63002380D02*
X180997619Y-62002380D01*
X180902380Y-62145238D01*
X180807142Y-62240476D01*
X180711904Y-62288095D01*
X182235714Y-63002380D02*
X181664285Y-63002380D01*
X181950000Y-63002380D02*
X181950000Y-62002380D01*
X181854761Y-62145238D01*
X181759523Y-62240476D01*
X181664285Y-62288095D01*
X172732142Y-82882380D02*
X172398809Y-82406190D01*
X172160714Y-82882380D02*
X172160714Y-81882380D01*
X172541666Y-81882380D01*
X172636904Y-81930000D01*
X172684523Y-81977619D01*
X172732142Y-82072857D01*
X172732142Y-82215714D01*
X172684523Y-82310952D01*
X172636904Y-82358571D01*
X172541666Y-82406190D01*
X172160714Y-82406190D01*
X173589285Y-82215714D02*
X173589285Y-82882380D01*
X173351190Y-81834761D02*
X173113095Y-82549047D01*
X173732142Y-82549047D01*
X174017857Y-81882380D02*
X174636904Y-81882380D01*
X174303571Y-82263333D01*
X174446428Y-82263333D01*
X174541666Y-82310952D01*
X174589285Y-82358571D01*
X174636904Y-82453809D01*
X174636904Y-82691904D01*
X174589285Y-82787142D01*
X174541666Y-82834761D01*
X174446428Y-82882380D01*
X174160714Y-82882380D01*
X174065476Y-82834761D01*
X174017857Y-82787142D01*
X143933333Y-75152380D02*
X143457142Y-75152380D01*
X143457142Y-74152380D01*
X144790476Y-75152380D02*
X144219047Y-75152380D01*
X144504761Y-75152380D02*
X144504761Y-74152380D01*
X144409523Y-74295238D01*
X144314285Y-74390476D01*
X144219047Y-74438095D01*
X164433333Y-75252380D02*
X163957142Y-75252380D01*
X163957142Y-74252380D01*
X164719047Y-74347619D02*
X164766666Y-74300000D01*
X164861904Y-74252380D01*
X165100000Y-74252380D01*
X165195238Y-74300000D01*
X165242857Y-74347619D01*
X165290476Y-74442857D01*
X165290476Y-74538095D01*
X165242857Y-74680952D01*
X164671428Y-75252380D01*
X165290476Y-75252380D01*
X176533333Y-74952380D02*
X176057142Y-74952380D01*
X176057142Y-73952380D01*
X176771428Y-73952380D02*
X177390476Y-73952380D01*
X177057142Y-74333333D01*
X177200000Y-74333333D01*
X177295238Y-74380952D01*
X177342857Y-74428571D01*
X177390476Y-74523809D01*
X177390476Y-74761904D01*
X177342857Y-74857142D01*
X177295238Y-74904761D01*
X177200000Y-74952380D01*
X176914285Y-74952380D01*
X176819047Y-74904761D01*
X176771428Y-74857142D01*
X138833333Y-88052380D02*
X138500000Y-87576190D01*
X138261904Y-88052380D02*
X138261904Y-87052380D01*
X138642857Y-87052380D01*
X138738095Y-87100000D01*
X138785714Y-87147619D01*
X138833333Y-87242857D01*
X138833333Y-87385714D01*
X138785714Y-87480952D01*
X138738095Y-87528571D01*
X138642857Y-87576190D01*
X138261904Y-87576190D01*
X139214285Y-87147619D02*
X139261904Y-87100000D01*
X139357142Y-87052380D01*
X139595238Y-87052380D01*
X139690476Y-87100000D01*
X139738095Y-87147619D01*
X139785714Y-87242857D01*
X139785714Y-87338095D01*
X139738095Y-87480952D01*
X139166666Y-88052380D01*
X139785714Y-88052380D01*
X152122380Y-87367857D02*
X151646190Y-87701190D01*
X152122380Y-87939285D02*
X151122380Y-87939285D01*
X151122380Y-87558333D01*
X151170000Y-87463095D01*
X151217619Y-87415476D01*
X151312857Y-87367857D01*
X151455714Y-87367857D01*
X151550952Y-87415476D01*
X151598571Y-87463095D01*
X151646190Y-87558333D01*
X151646190Y-87939285D01*
X151217619Y-86986904D02*
X151170000Y-86939285D01*
X151122380Y-86844047D01*
X151122380Y-86605952D01*
X151170000Y-86510714D01*
X151217619Y-86463095D01*
X151312857Y-86415476D01*
X151408095Y-86415476D01*
X151550952Y-86463095D01*
X152122380Y-87034523D01*
X152122380Y-86415476D01*
X151455714Y-85558333D02*
X152122380Y-85558333D01*
X151074761Y-85796428D02*
X151789047Y-86034523D01*
X151789047Y-85415476D01*
X135557142Y-75552380D02*
X135223809Y-75076190D01*
X134985714Y-75552380D02*
X134985714Y-74552380D01*
X135366666Y-74552380D01*
X135461904Y-74600000D01*
X135509523Y-74647619D01*
X135557142Y-74742857D01*
X135557142Y-74885714D01*
X135509523Y-74980952D01*
X135461904Y-75028571D01*
X135366666Y-75076190D01*
X134985714Y-75076190D01*
X135938095Y-74647619D02*
X135985714Y-74600000D01*
X136080952Y-74552380D01*
X136319047Y-74552380D01*
X136414285Y-74600000D01*
X136461904Y-74647619D01*
X136509523Y-74742857D01*
X136509523Y-74838095D01*
X136461904Y-74980952D01*
X135890476Y-75552380D01*
X136509523Y-75552380D01*
X137414285Y-74552380D02*
X136938095Y-74552380D01*
X136890476Y-75028571D01*
X136938095Y-74980952D01*
X137033333Y-74933333D01*
X137271428Y-74933333D01*
X137366666Y-74980952D01*
X137414285Y-75028571D01*
X137461904Y-75123809D01*
X137461904Y-75361904D01*
X137414285Y-75457142D01*
X137366666Y-75504761D01*
X137271428Y-75552380D01*
X137033333Y-75552380D01*
X136938095Y-75504761D01*
X136890476Y-75457142D01*
M02*
