G04 #@! TF.GenerationSoftware,KiCad,Pcbnew,5.1.7-a382d34a8~87~ubuntu18.04.1*
G04 #@! TF.CreationDate,2020-12-04T06:12:41+00:00*
G04 #@! TF.ProjectId,display,64697370-6c61-4792-9e6b-696361645f70,1.0*
G04 #@! TF.SameCoordinates,Original*
G04 #@! TF.FileFunction,Copper,L1,Top*
G04 #@! TF.FilePolarity,Positive*
%FSLAX46Y46*%
G04 Gerber Fmt 4.6, Leading zero omitted, Abs format (unit mm)*
G04 Created by KiCad (PCBNEW 5.1.7-a382d34a8~87~ubuntu18.04.1) date 2020-12-04 06:12:41*
%MOMM*%
%LPD*%
G01*
G04 APERTURE LIST*
G04 #@! TA.AperFunction,ComponentPad*
%ADD10R,1.524000X1.524000*%
G04 #@! TD*
G04 #@! TA.AperFunction,ComponentPad*
%ADD11C,1.524000*%
G04 #@! TD*
G04 #@! TA.AperFunction,ComponentPad*
%ADD12R,1.700000X1.700000*%
G04 #@! TD*
G04 #@! TA.AperFunction,ComponentPad*
%ADD13O,1.700000X1.700000*%
G04 #@! TD*
G04 #@! TA.AperFunction,ComponentPad*
%ADD14O,1.700000X2.000000*%
G04 #@! TD*
G04 #@! TA.AperFunction,ComponentPad*
%ADD15R,1.727200X1.727200*%
G04 #@! TD*
G04 #@! TA.AperFunction,ComponentPad*
%ADD16O,1.727200X1.727200*%
G04 #@! TD*
G04 #@! TA.AperFunction,ComponentPad*
%ADD17O,1.700000X1.950000*%
G04 #@! TD*
G04 #@! TA.AperFunction,ComponentPad*
%ADD18O,3.014980X1.506220*%
G04 #@! TD*
G04 #@! TA.AperFunction,SMDPad,CuDef*
%ADD19O,2.500000X0.900000*%
G04 #@! TD*
G04 #@! TA.AperFunction,SMDPad,CuDef*
%ADD20O,0.900000X2.500000*%
G04 #@! TD*
G04 #@! TA.AperFunction,SMDPad,CuDef*
%ADD21R,6.000000X6.000000*%
G04 #@! TD*
G04 #@! TA.AperFunction,SMDPad,CuDef*
%ADD22R,2.000000X3.800000*%
G04 #@! TD*
G04 #@! TA.AperFunction,SMDPad,CuDef*
%ADD23R,2.000000X1.500000*%
G04 #@! TD*
G04 #@! TA.AperFunction,ViaPad*
%ADD24C,0.600000*%
G04 #@! TD*
G04 #@! TA.AperFunction,Conductor*
%ADD25C,0.250000*%
G04 #@! TD*
G04 #@! TA.AperFunction,Conductor*
%ADD26C,2.000000*%
G04 #@! TD*
G04 #@! TA.AperFunction,Conductor*
%ADD27C,1.000000*%
G04 #@! TD*
G04 #@! TA.AperFunction,Conductor*
%ADD28C,0.254000*%
G04 #@! TD*
G04 #@! TA.AperFunction,Conductor*
%ADD29C,0.100000*%
G04 #@! TD*
G04 APERTURE END LIST*
G04 #@! TA.AperFunction,SMDPad,CuDef*
G36*
G01*
X128925001Y-99575000D02*
X127074999Y-99575000D01*
G75*
G02*
X126825000Y-99325001I0J249999D01*
G01*
X126825000Y-97574999D01*
G75*
G02*
X127074999Y-97325000I249999J0D01*
G01*
X128925001Y-97325000D01*
G75*
G02*
X129175000Y-97574999I0J-249999D01*
G01*
X129175000Y-99325001D01*
G75*
G02*
X128925001Y-99575000I-249999J0D01*
G01*
G37*
G04 #@! TD.AperFunction*
G04 #@! TA.AperFunction,SMDPad,CuDef*
G36*
G01*
X128925001Y-104675000D02*
X127074999Y-104675000D01*
G75*
G02*
X126825000Y-104425001I0J249999D01*
G01*
X126825000Y-102674999D01*
G75*
G02*
X127074999Y-102425000I249999J0D01*
G01*
X128925001Y-102425000D01*
G75*
G02*
X129175000Y-102674999I0J-249999D01*
G01*
X129175000Y-104425001D01*
G75*
G02*
X128925001Y-104675000I-249999J0D01*
G01*
G37*
G04 #@! TD.AperFunction*
G04 #@! TA.AperFunction,SMDPad,CuDef*
G36*
G01*
X127074999Y-105325000D02*
X128925001Y-105325000D01*
G75*
G02*
X129175000Y-105574999I0J-249999D01*
G01*
X129175000Y-107325001D01*
G75*
G02*
X128925001Y-107575000I-249999J0D01*
G01*
X127074999Y-107575000D01*
G75*
G02*
X126825000Y-107325001I0J249999D01*
G01*
X126825000Y-105574999D01*
G75*
G02*
X127074999Y-105325000I249999J0D01*
G01*
G37*
G04 #@! TD.AperFunction*
G04 #@! TA.AperFunction,SMDPad,CuDef*
G36*
G01*
X127074999Y-110425000D02*
X128925001Y-110425000D01*
G75*
G02*
X129175000Y-110674999I0J-249999D01*
G01*
X129175000Y-112425001D01*
G75*
G02*
X128925001Y-112675000I-249999J0D01*
G01*
X127074999Y-112675000D01*
G75*
G02*
X126825000Y-112425001I0J249999D01*
G01*
X126825000Y-110674999D01*
G75*
G02*
X127074999Y-110425000I249999J0D01*
G01*
G37*
G04 #@! TD.AperFunction*
G04 #@! TA.AperFunction,SMDPad,CuDef*
G36*
G01*
X194775000Y-77262500D02*
X194775000Y-77737500D01*
G75*
G02*
X194537500Y-77975000I-237500J0D01*
G01*
X193962500Y-77975000D01*
G75*
G02*
X193725000Y-77737500I0J237500D01*
G01*
X193725000Y-77262500D01*
G75*
G02*
X193962500Y-77025000I237500J0D01*
G01*
X194537500Y-77025000D01*
G75*
G02*
X194775000Y-77262500I0J-237500D01*
G01*
G37*
G04 #@! TD.AperFunction*
G04 #@! TA.AperFunction,SMDPad,CuDef*
G36*
G01*
X196525000Y-77262500D02*
X196525000Y-77737500D01*
G75*
G02*
X196287500Y-77975000I-237500J0D01*
G01*
X195712500Y-77975000D01*
G75*
G02*
X195475000Y-77737500I0J237500D01*
G01*
X195475000Y-77262500D01*
G75*
G02*
X195712500Y-77025000I237500J0D01*
G01*
X196287500Y-77025000D01*
G75*
G02*
X196525000Y-77262500I0J-237500D01*
G01*
G37*
G04 #@! TD.AperFunction*
G04 #@! TA.AperFunction,SMDPad,CuDef*
G36*
G01*
X164237500Y-73400000D02*
X163762500Y-73400000D01*
G75*
G02*
X163525000Y-73162500I0J237500D01*
G01*
X163525000Y-72587500D01*
G75*
G02*
X163762500Y-72350000I237500J0D01*
G01*
X164237500Y-72350000D01*
G75*
G02*
X164475000Y-72587500I0J-237500D01*
G01*
X164475000Y-73162500D01*
G75*
G02*
X164237500Y-73400000I-237500J0D01*
G01*
G37*
G04 #@! TD.AperFunction*
G04 #@! TA.AperFunction,SMDPad,CuDef*
G36*
G01*
X164237500Y-71650000D02*
X163762500Y-71650000D01*
G75*
G02*
X163525000Y-71412500I0J237500D01*
G01*
X163525000Y-70837500D01*
G75*
G02*
X163762500Y-70600000I237500J0D01*
G01*
X164237500Y-70600000D01*
G75*
G02*
X164475000Y-70837500I0J-237500D01*
G01*
X164475000Y-71412500D01*
G75*
G02*
X164237500Y-71650000I-237500J0D01*
G01*
G37*
G04 #@! TD.AperFunction*
G04 #@! TA.AperFunction,SMDPad,CuDef*
G36*
G01*
X132262500Y-107600000D02*
X132737500Y-107600000D01*
G75*
G02*
X132975000Y-107837500I0J-237500D01*
G01*
X132975000Y-108412500D01*
G75*
G02*
X132737500Y-108650000I-237500J0D01*
G01*
X132262500Y-108650000D01*
G75*
G02*
X132025000Y-108412500I0J237500D01*
G01*
X132025000Y-107837500D01*
G75*
G02*
X132262500Y-107600000I237500J0D01*
G01*
G37*
G04 #@! TD.AperFunction*
G04 #@! TA.AperFunction,SMDPad,CuDef*
G36*
G01*
X132262500Y-109350000D02*
X132737500Y-109350000D01*
G75*
G02*
X132975000Y-109587500I0J-237500D01*
G01*
X132975000Y-110162500D01*
G75*
G02*
X132737500Y-110400000I-237500J0D01*
G01*
X132262500Y-110400000D01*
G75*
G02*
X132025000Y-110162500I0J237500D01*
G01*
X132025000Y-109587500D01*
G75*
G02*
X132262500Y-109350000I237500J0D01*
G01*
G37*
G04 #@! TD.AperFunction*
D10*
X196000000Y-79490000D03*
D11*
X196000000Y-82030000D03*
X196000000Y-84570000D03*
X196000000Y-87110000D03*
X196000000Y-89650000D03*
X196000000Y-92190000D03*
X196000000Y-94730000D03*
X196000000Y-97270000D03*
X196000000Y-99810000D03*
X196000000Y-102350000D03*
X196000000Y-104890000D03*
X196000000Y-107430000D03*
X196000000Y-109970000D03*
X196000000Y-112510000D03*
X115000000Y-92190000D03*
X115000000Y-94730000D03*
X115000000Y-97270000D03*
X115000000Y-99810000D03*
D12*
X102000000Y-100000000D03*
D13*
X102000000Y-97460000D03*
X102000000Y-94920000D03*
X102000000Y-92380000D03*
G04 #@! TA.AperFunction,ComponentPad*
G36*
G01*
X124150000Y-135750000D02*
X124150000Y-134250000D01*
G75*
G02*
X124400000Y-134000000I250000J0D01*
G01*
X125600000Y-134000000D01*
G75*
G02*
X125850000Y-134250000I0J-250000D01*
G01*
X125850000Y-135750000D01*
G75*
G02*
X125600000Y-136000000I-250000J0D01*
G01*
X124400000Y-136000000D01*
G75*
G02*
X124150000Y-135750000I0J250000D01*
G01*
G37*
G04 #@! TD.AperFunction*
D14*
X127500000Y-135000000D03*
D15*
X165000000Y-134000000D03*
D16*
X165000000Y-131460000D03*
X167540000Y-134000000D03*
X167540000Y-131460000D03*
X170080000Y-134000000D03*
X170080000Y-131460000D03*
X172620000Y-134000000D03*
X172620000Y-131460000D03*
G04 #@! TA.AperFunction,ComponentPad*
G36*
G01*
X187350000Y-134775000D02*
X187350000Y-136225000D01*
G75*
G02*
X187100000Y-136475000I-250000J0D01*
G01*
X185900000Y-136475000D01*
G75*
G02*
X185650000Y-136225000I0J250000D01*
G01*
X185650000Y-134775000D01*
G75*
G02*
X185900000Y-134525000I250000J0D01*
G01*
X187100000Y-134525000D01*
G75*
G02*
X187350000Y-134775000I0J-250000D01*
G01*
G37*
G04 #@! TD.AperFunction*
D17*
X184000000Y-135500000D03*
X181500000Y-135500000D03*
G04 #@! TA.AperFunction,ComponentPad*
G36*
G01*
X147650000Y-135725000D02*
X147650000Y-134275000D01*
G75*
G02*
X147900000Y-134025000I250000J0D01*
G01*
X149100000Y-134025000D01*
G75*
G02*
X149350000Y-134275000I0J-250000D01*
G01*
X149350000Y-135725000D01*
G75*
G02*
X149100000Y-135975000I-250000J0D01*
G01*
X147900000Y-135975000D01*
G75*
G02*
X147650000Y-135725000I0J250000D01*
G01*
G37*
G04 #@! TD.AperFunction*
X151000000Y-135000000D03*
X153500000Y-135000000D03*
X156000000Y-135000000D03*
X142000000Y-135000000D03*
X139500000Y-135000000D03*
X137000000Y-135000000D03*
G04 #@! TA.AperFunction,ComponentPad*
G36*
G01*
X133650000Y-135725000D02*
X133650000Y-134275000D01*
G75*
G02*
X133900000Y-134025000I250000J0D01*
G01*
X135100000Y-134025000D01*
G75*
G02*
X135350000Y-134275000I0J-250000D01*
G01*
X135350000Y-135725000D01*
G75*
G02*
X135100000Y-135975000I-250000J0D01*
G01*
X133900000Y-135975000D01*
G75*
G02*
X133650000Y-135725000I0J250000D01*
G01*
G37*
G04 #@! TD.AperFunction*
D10*
X122048000Y-89908000D03*
D11*
X122048000Y-87368000D03*
X122048000Y-84828000D03*
X122048000Y-82288000D03*
X122048000Y-79748000D03*
X122048000Y-77208000D03*
X122048000Y-74668000D03*
X122048000Y-72128000D03*
X122048000Y-69588000D03*
X122048000Y-67048000D03*
G04 #@! TA.AperFunction,SMDPad,CuDef*
G36*
G01*
X153762500Y-123850000D02*
X154237500Y-123850000D01*
G75*
G02*
X154475000Y-124087500I0J-237500D01*
G01*
X154475000Y-124662500D01*
G75*
G02*
X154237500Y-124900000I-237500J0D01*
G01*
X153762500Y-124900000D01*
G75*
G02*
X153525000Y-124662500I0J237500D01*
G01*
X153525000Y-124087500D01*
G75*
G02*
X153762500Y-123850000I237500J0D01*
G01*
G37*
G04 #@! TD.AperFunction*
G04 #@! TA.AperFunction,SMDPad,CuDef*
G36*
G01*
X153762500Y-122100000D02*
X154237500Y-122100000D01*
G75*
G02*
X154475000Y-122337500I0J-237500D01*
G01*
X154475000Y-122912500D01*
G75*
G02*
X154237500Y-123150000I-237500J0D01*
G01*
X153762500Y-123150000D01*
G75*
G02*
X153525000Y-122912500I0J237500D01*
G01*
X153525000Y-122337500D01*
G75*
G02*
X153762500Y-122100000I237500J0D01*
G01*
G37*
G04 #@! TD.AperFunction*
G04 #@! TA.AperFunction,SMDPad,CuDef*
G36*
G01*
X156762500Y-122100000D02*
X157237500Y-122100000D01*
G75*
G02*
X157475000Y-122337500I0J-237500D01*
G01*
X157475000Y-122912500D01*
G75*
G02*
X157237500Y-123150000I-237500J0D01*
G01*
X156762500Y-123150000D01*
G75*
G02*
X156525000Y-122912500I0J237500D01*
G01*
X156525000Y-122337500D01*
G75*
G02*
X156762500Y-122100000I237500J0D01*
G01*
G37*
G04 #@! TD.AperFunction*
G04 #@! TA.AperFunction,SMDPad,CuDef*
G36*
G01*
X156762500Y-123850000D02*
X157237500Y-123850000D01*
G75*
G02*
X157475000Y-124087500I0J-237500D01*
G01*
X157475000Y-124662500D01*
G75*
G02*
X157237500Y-124900000I-237500J0D01*
G01*
X156762500Y-124900000D01*
G75*
G02*
X156525000Y-124662500I0J237500D01*
G01*
X156525000Y-124087500D01*
G75*
G02*
X156762500Y-123850000I237500J0D01*
G01*
G37*
G04 #@! TD.AperFunction*
G04 #@! TA.AperFunction,SMDPad,CuDef*
G36*
G01*
X159850000Y-72237500D02*
X159850000Y-71762500D01*
G75*
G02*
X160087500Y-71525000I237500J0D01*
G01*
X160662500Y-71525000D01*
G75*
G02*
X160900000Y-71762500I0J-237500D01*
G01*
X160900000Y-72237500D01*
G75*
G02*
X160662500Y-72475000I-237500J0D01*
G01*
X160087500Y-72475000D01*
G75*
G02*
X159850000Y-72237500I0J237500D01*
G01*
G37*
G04 #@! TD.AperFunction*
G04 #@! TA.AperFunction,SMDPad,CuDef*
G36*
G01*
X158100000Y-72237500D02*
X158100000Y-71762500D01*
G75*
G02*
X158337500Y-71525000I237500J0D01*
G01*
X158912500Y-71525000D01*
G75*
G02*
X159150000Y-71762500I0J-237500D01*
G01*
X159150000Y-72237500D01*
G75*
G02*
X158912500Y-72475000I-237500J0D01*
G01*
X158337500Y-72475000D01*
G75*
G02*
X158100000Y-72237500I0J237500D01*
G01*
G37*
G04 #@! TD.AperFunction*
G04 #@! TA.AperFunction,SMDPad,CuDef*
G36*
G01*
X132775000Y-126262500D02*
X132775000Y-126737500D01*
G75*
G02*
X132537500Y-126975000I-237500J0D01*
G01*
X131962500Y-126975000D01*
G75*
G02*
X131725000Y-126737500I0J237500D01*
G01*
X131725000Y-126262500D01*
G75*
G02*
X131962500Y-126025000I237500J0D01*
G01*
X132537500Y-126025000D01*
G75*
G02*
X132775000Y-126262500I0J-237500D01*
G01*
G37*
G04 #@! TD.AperFunction*
G04 #@! TA.AperFunction,SMDPad,CuDef*
G36*
G01*
X131025000Y-126262500D02*
X131025000Y-126737500D01*
G75*
G02*
X130787500Y-126975000I-237500J0D01*
G01*
X130212500Y-126975000D01*
G75*
G02*
X129975000Y-126737500I0J237500D01*
G01*
X129975000Y-126262500D01*
G75*
G02*
X130212500Y-126025000I237500J0D01*
G01*
X130787500Y-126025000D01*
G75*
G02*
X131025000Y-126262500I0J-237500D01*
G01*
G37*
G04 #@! TD.AperFunction*
G04 #@! TA.AperFunction,SMDPad,CuDef*
G36*
G01*
X160900000Y-82762500D02*
X160900000Y-83237500D01*
G75*
G02*
X160662500Y-83475000I-237500J0D01*
G01*
X160087500Y-83475000D01*
G75*
G02*
X159850000Y-83237500I0J237500D01*
G01*
X159850000Y-82762500D01*
G75*
G02*
X160087500Y-82525000I237500J0D01*
G01*
X160662500Y-82525000D01*
G75*
G02*
X160900000Y-82762500I0J-237500D01*
G01*
G37*
G04 #@! TD.AperFunction*
G04 #@! TA.AperFunction,SMDPad,CuDef*
G36*
G01*
X159150000Y-82762500D02*
X159150000Y-83237500D01*
G75*
G02*
X158912500Y-83475000I-237500J0D01*
G01*
X158337500Y-83475000D01*
G75*
G02*
X158100000Y-83237500I0J237500D01*
G01*
X158100000Y-82762500D01*
G75*
G02*
X158337500Y-82525000I237500J0D01*
G01*
X158912500Y-82525000D01*
G75*
G02*
X159150000Y-82762500I0J-237500D01*
G01*
G37*
G04 #@! TD.AperFunction*
G04 #@! TA.AperFunction,SMDPad,CuDef*
G36*
G01*
X149237500Y-124900000D02*
X148762500Y-124900000D01*
G75*
G02*
X148525000Y-124662500I0J237500D01*
G01*
X148525000Y-124087500D01*
G75*
G02*
X148762500Y-123850000I237500J0D01*
G01*
X149237500Y-123850000D01*
G75*
G02*
X149475000Y-124087500I0J-237500D01*
G01*
X149475000Y-124662500D01*
G75*
G02*
X149237500Y-124900000I-237500J0D01*
G01*
G37*
G04 #@! TD.AperFunction*
G04 #@! TA.AperFunction,SMDPad,CuDef*
G36*
G01*
X149237500Y-123150000D02*
X148762500Y-123150000D01*
G75*
G02*
X148525000Y-122912500I0J237500D01*
G01*
X148525000Y-122337500D01*
G75*
G02*
X148762500Y-122100000I237500J0D01*
G01*
X149237500Y-122100000D01*
G75*
G02*
X149475000Y-122337500I0J-237500D01*
G01*
X149475000Y-122912500D01*
G75*
G02*
X149237500Y-123150000I-237500J0D01*
G01*
G37*
G04 #@! TD.AperFunction*
G04 #@! TA.AperFunction,SMDPad,CuDef*
G36*
G01*
X121762500Y-102850000D02*
X122237500Y-102850000D01*
G75*
G02*
X122475000Y-103087500I0J-237500D01*
G01*
X122475000Y-103662500D01*
G75*
G02*
X122237500Y-103900000I-237500J0D01*
G01*
X121762500Y-103900000D01*
G75*
G02*
X121525000Y-103662500I0J237500D01*
G01*
X121525000Y-103087500D01*
G75*
G02*
X121762500Y-102850000I237500J0D01*
G01*
G37*
G04 #@! TD.AperFunction*
G04 #@! TA.AperFunction,SMDPad,CuDef*
G36*
G01*
X121762500Y-101100000D02*
X122237500Y-101100000D01*
G75*
G02*
X122475000Y-101337500I0J-237500D01*
G01*
X122475000Y-101912500D01*
G75*
G02*
X122237500Y-102150000I-237500J0D01*
G01*
X121762500Y-102150000D01*
G75*
G02*
X121525000Y-101912500I0J237500D01*
G01*
X121525000Y-101337500D01*
G75*
G02*
X121762500Y-101100000I237500J0D01*
G01*
G37*
G04 #@! TD.AperFunction*
G04 #@! TA.AperFunction,SMDPad,CuDef*
G36*
G01*
X150775000Y-71762500D02*
X150775000Y-72237500D01*
G75*
G02*
X150537500Y-72475000I-237500J0D01*
G01*
X149962500Y-72475000D01*
G75*
G02*
X149725000Y-72237500I0J237500D01*
G01*
X149725000Y-71762500D01*
G75*
G02*
X149962500Y-71525000I237500J0D01*
G01*
X150537500Y-71525000D01*
G75*
G02*
X150775000Y-71762500I0J-237500D01*
G01*
G37*
G04 #@! TD.AperFunction*
G04 #@! TA.AperFunction,SMDPad,CuDef*
G36*
G01*
X152525000Y-71762500D02*
X152525000Y-72237500D01*
G75*
G02*
X152287500Y-72475000I-237500J0D01*
G01*
X151712500Y-72475000D01*
G75*
G02*
X151475000Y-72237500I0J237500D01*
G01*
X151475000Y-71762500D01*
G75*
G02*
X151712500Y-71525000I237500J0D01*
G01*
X152287500Y-71525000D01*
G75*
G02*
X152525000Y-71762500I0J-237500D01*
G01*
G37*
G04 #@! TD.AperFunction*
G04 #@! TA.AperFunction,SMDPad,CuDef*
G36*
G01*
X127650000Y-74262500D02*
X127650000Y-74737500D01*
G75*
G02*
X127412500Y-74975000I-237500J0D01*
G01*
X126837500Y-74975000D01*
G75*
G02*
X126600000Y-74737500I0J237500D01*
G01*
X126600000Y-74262500D01*
G75*
G02*
X126837500Y-74025000I237500J0D01*
G01*
X127412500Y-74025000D01*
G75*
G02*
X127650000Y-74262500I0J-237500D01*
G01*
G37*
G04 #@! TD.AperFunction*
G04 #@! TA.AperFunction,SMDPad,CuDef*
G36*
G01*
X129400000Y-74262500D02*
X129400000Y-74737500D01*
G75*
G02*
X129162500Y-74975000I-237500J0D01*
G01*
X128587500Y-74975000D01*
G75*
G02*
X128350000Y-74737500I0J237500D01*
G01*
X128350000Y-74262500D01*
G75*
G02*
X128587500Y-74025000I237500J0D01*
G01*
X129162500Y-74025000D01*
G75*
G02*
X129400000Y-74262500I0J-237500D01*
G01*
G37*
G04 #@! TD.AperFunction*
G04 #@! TA.AperFunction,SMDPad,CuDef*
G36*
G01*
X131525000Y-74262500D02*
X131525000Y-74737500D01*
G75*
G02*
X131287500Y-74975000I-237500J0D01*
G01*
X130712500Y-74975000D01*
G75*
G02*
X130475000Y-74737500I0J237500D01*
G01*
X130475000Y-74262500D01*
G75*
G02*
X130712500Y-74025000I237500J0D01*
G01*
X131287500Y-74025000D01*
G75*
G02*
X131525000Y-74262500I0J-237500D01*
G01*
G37*
G04 #@! TD.AperFunction*
G04 #@! TA.AperFunction,SMDPad,CuDef*
G36*
G01*
X133275000Y-74262500D02*
X133275000Y-74737500D01*
G75*
G02*
X133037500Y-74975000I-237500J0D01*
G01*
X132462500Y-74975000D01*
G75*
G02*
X132225000Y-74737500I0J237500D01*
G01*
X132225000Y-74262500D01*
G75*
G02*
X132462500Y-74025000I237500J0D01*
G01*
X133037500Y-74025000D01*
G75*
G02*
X133275000Y-74262500I0J-237500D01*
G01*
G37*
G04 #@! TD.AperFunction*
G04 #@! TA.AperFunction,SMDPad,CuDef*
G36*
G01*
X152400000Y-74762500D02*
X152400000Y-75237500D01*
G75*
G02*
X152162500Y-75475000I-237500J0D01*
G01*
X151587500Y-75475000D01*
G75*
G02*
X151350000Y-75237500I0J237500D01*
G01*
X151350000Y-74762500D01*
G75*
G02*
X151587500Y-74525000I237500J0D01*
G01*
X152162500Y-74525000D01*
G75*
G02*
X152400000Y-74762500I0J-237500D01*
G01*
G37*
G04 #@! TD.AperFunction*
G04 #@! TA.AperFunction,SMDPad,CuDef*
G36*
G01*
X150650000Y-74762500D02*
X150650000Y-75237500D01*
G75*
G02*
X150412500Y-75475000I-237500J0D01*
G01*
X149837500Y-75475000D01*
G75*
G02*
X149600000Y-75237500I0J237500D01*
G01*
X149600000Y-74762500D01*
G75*
G02*
X149837500Y-74525000I237500J0D01*
G01*
X150412500Y-74525000D01*
G75*
G02*
X150650000Y-74762500I0J-237500D01*
G01*
G37*
G04 #@! TD.AperFunction*
G04 #@! TA.AperFunction,SMDPad,CuDef*
G36*
G01*
X149600000Y-78237500D02*
X149600000Y-77762500D01*
G75*
G02*
X149837500Y-77525000I237500J0D01*
G01*
X150412500Y-77525000D01*
G75*
G02*
X150650000Y-77762500I0J-237500D01*
G01*
X150650000Y-78237500D01*
G75*
G02*
X150412500Y-78475000I-237500J0D01*
G01*
X149837500Y-78475000D01*
G75*
G02*
X149600000Y-78237500I0J237500D01*
G01*
G37*
G04 #@! TD.AperFunction*
G04 #@! TA.AperFunction,SMDPad,CuDef*
G36*
G01*
X151350000Y-78237500D02*
X151350000Y-77762500D01*
G75*
G02*
X151587500Y-77525000I237500J0D01*
G01*
X152162500Y-77525000D01*
G75*
G02*
X152400000Y-77762500I0J-237500D01*
G01*
X152400000Y-78237500D01*
G75*
G02*
X152162500Y-78475000I-237500J0D01*
G01*
X151587500Y-78475000D01*
G75*
G02*
X151350000Y-78237500I0J237500D01*
G01*
G37*
G04 #@! TD.AperFunction*
G04 #@! TA.AperFunction,SMDPad,CuDef*
G36*
G01*
X196525000Y-74262500D02*
X196525000Y-74737500D01*
G75*
G02*
X196287500Y-74975000I-237500J0D01*
G01*
X195712500Y-74975000D01*
G75*
G02*
X195475000Y-74737500I0J237500D01*
G01*
X195475000Y-74262500D01*
G75*
G02*
X195712500Y-74025000I237500J0D01*
G01*
X196287500Y-74025000D01*
G75*
G02*
X196525000Y-74262500I0J-237500D01*
G01*
G37*
G04 #@! TD.AperFunction*
G04 #@! TA.AperFunction,SMDPad,CuDef*
G36*
G01*
X194775000Y-74262500D02*
X194775000Y-74737500D01*
G75*
G02*
X194537500Y-74975000I-237500J0D01*
G01*
X193962500Y-74975000D01*
G75*
G02*
X193725000Y-74737500I0J237500D01*
G01*
X193725000Y-74262500D01*
G75*
G02*
X193962500Y-74025000I237500J0D01*
G01*
X194537500Y-74025000D01*
G75*
G02*
X194775000Y-74262500I0J-237500D01*
G01*
G37*
G04 #@! TD.AperFunction*
G04 #@! TA.AperFunction,SMDPad,CuDef*
G36*
G01*
X193350000Y-87237500D02*
X193350000Y-86762500D01*
G75*
G02*
X193587500Y-86525000I237500J0D01*
G01*
X194162500Y-86525000D01*
G75*
G02*
X194400000Y-86762500I0J-237500D01*
G01*
X194400000Y-87237500D01*
G75*
G02*
X194162500Y-87475000I-237500J0D01*
G01*
X193587500Y-87475000D01*
G75*
G02*
X193350000Y-87237500I0J237500D01*
G01*
G37*
G04 #@! TD.AperFunction*
G04 #@! TA.AperFunction,SMDPad,CuDef*
G36*
G01*
X191600000Y-87237500D02*
X191600000Y-86762500D01*
G75*
G02*
X191837500Y-86525000I237500J0D01*
G01*
X192412500Y-86525000D01*
G75*
G02*
X192650000Y-86762500I0J-237500D01*
G01*
X192650000Y-87237500D01*
G75*
G02*
X192412500Y-87475000I-237500J0D01*
G01*
X191837500Y-87475000D01*
G75*
G02*
X191600000Y-87237500I0J237500D01*
G01*
G37*
G04 #@! TD.AperFunction*
G04 #@! TA.AperFunction,SMDPad,CuDef*
G36*
G01*
X139237500Y-129150000D02*
X138762500Y-129150000D01*
G75*
G02*
X138525000Y-128912500I0J237500D01*
G01*
X138525000Y-128337500D01*
G75*
G02*
X138762500Y-128100000I237500J0D01*
G01*
X139237500Y-128100000D01*
G75*
G02*
X139475000Y-128337500I0J-237500D01*
G01*
X139475000Y-128912500D01*
G75*
G02*
X139237500Y-129150000I-237500J0D01*
G01*
G37*
G04 #@! TD.AperFunction*
G04 #@! TA.AperFunction,SMDPad,CuDef*
G36*
G01*
X139237500Y-130900000D02*
X138762500Y-130900000D01*
G75*
G02*
X138525000Y-130662500I0J237500D01*
G01*
X138525000Y-130087500D01*
G75*
G02*
X138762500Y-129850000I237500J0D01*
G01*
X139237500Y-129850000D01*
G75*
G02*
X139475000Y-130087500I0J-237500D01*
G01*
X139475000Y-130662500D01*
G75*
G02*
X139237500Y-130900000I-237500J0D01*
G01*
G37*
G04 #@! TD.AperFunction*
G04 #@! TA.AperFunction,SMDPad,CuDef*
G36*
G01*
X142237500Y-130900000D02*
X141762500Y-130900000D01*
G75*
G02*
X141525000Y-130662500I0J237500D01*
G01*
X141525000Y-130087500D01*
G75*
G02*
X141762500Y-129850000I237500J0D01*
G01*
X142237500Y-129850000D01*
G75*
G02*
X142475000Y-130087500I0J-237500D01*
G01*
X142475000Y-130662500D01*
G75*
G02*
X142237500Y-130900000I-237500J0D01*
G01*
G37*
G04 #@! TD.AperFunction*
G04 #@! TA.AperFunction,SMDPad,CuDef*
G36*
G01*
X142237500Y-129150000D02*
X141762500Y-129150000D01*
G75*
G02*
X141525000Y-128912500I0J237500D01*
G01*
X141525000Y-128337500D01*
G75*
G02*
X141762500Y-128100000I237500J0D01*
G01*
X142237500Y-128100000D01*
G75*
G02*
X142475000Y-128337500I0J-237500D01*
G01*
X142475000Y-128912500D01*
G75*
G02*
X142237500Y-129150000I-237500J0D01*
G01*
G37*
G04 #@! TD.AperFunction*
D18*
X109751340Y-131247900D03*
X116248660Y-131247900D03*
X109751340Y-126752100D03*
X116248660Y-126752100D03*
X127497660Y-126752100D03*
X121000340Y-126752100D03*
X127497660Y-131247900D03*
X121000340Y-131247900D03*
X189751340Y-131247900D03*
X196248660Y-131247900D03*
X189751340Y-126752100D03*
X196248660Y-126752100D03*
D19*
X185000000Y-71750000D03*
X185000000Y-73020000D03*
X185000000Y-74290000D03*
X185000000Y-75560000D03*
X185000000Y-76830000D03*
X185000000Y-78100000D03*
X185000000Y-79370000D03*
X185000000Y-80640000D03*
X185000000Y-81910000D03*
X185000000Y-83180000D03*
X185000000Y-84450000D03*
X185000000Y-85720000D03*
X185000000Y-86990000D03*
X185000000Y-88260000D03*
D20*
X181715000Y-89750000D03*
X180445000Y-89750000D03*
X179175000Y-89750000D03*
X177905000Y-89750000D03*
X176635000Y-89750000D03*
X175365000Y-89750000D03*
X174095000Y-89750000D03*
X172825000Y-89750000D03*
X171555000Y-89750000D03*
X170285000Y-89750000D03*
D19*
X167000000Y-88260000D03*
X167000000Y-86990000D03*
X167000000Y-85720000D03*
X167000000Y-84450000D03*
X167000000Y-83180000D03*
X167000000Y-81910000D03*
X167000000Y-80640000D03*
X167000000Y-79370000D03*
X167000000Y-78100000D03*
X167000000Y-76830000D03*
X167000000Y-75560000D03*
X167000000Y-74290000D03*
X167000000Y-73020000D03*
X167000000Y-71750000D03*
D21*
X175700000Y-79450000D03*
D22*
X115850000Y-109000000D03*
D23*
X122150000Y-109000000D03*
X122150000Y-106700000D03*
X122150000Y-111300000D03*
D24*
X126124000Y-98045100D03*
X124883500Y-111300000D03*
X153233502Y-106500000D03*
X148233502Y-101500000D03*
X139000000Y-124500000D03*
X162000000Y-74000000D03*
X128328000Y-84828000D03*
X163000000Y-123000000D03*
X159800000Y-119000000D03*
X142000000Y-121600000D03*
X152000000Y-126800000D03*
X146400000Y-69400000D03*
X153600000Y-68000000D03*
X175289900Y-72494700D03*
X187404800Y-77187400D03*
X187379600Y-82649600D03*
X187025900Y-81261900D03*
X183396800Y-98895800D03*
X168760900Y-86829000D03*
X169137900Y-83207400D03*
X165424700Y-88847600D03*
X123821200Y-82804500D03*
X167954300Y-89214300D03*
X182091300Y-77719000D03*
X182573300Y-78368900D03*
X132250000Y-125505300D03*
X159315600Y-77031800D03*
X133382300Y-124131200D03*
X183712400Y-89149300D03*
X162318600Y-82722500D03*
X148800000Y-70200000D03*
X162000000Y-70200000D03*
D25*
X127497700Y-131247900D02*
X130747900Y-131247900D01*
X130747900Y-131247900D02*
X134500000Y-135000000D01*
X126124000Y-98045100D02*
X127595100Y-98045100D01*
X127595100Y-98045100D02*
X128000000Y-98450000D01*
X196000000Y-82030000D02*
X194250000Y-80280000D01*
X194250000Y-80280000D02*
X194250000Y-77500000D01*
X182460000Y-131460000D02*
X197554500Y-116365500D01*
X197554500Y-116365500D02*
X197554500Y-83584500D01*
X197554500Y-83584500D02*
X196000000Y-82030000D01*
X164000000Y-71125000D02*
X164625000Y-71750000D01*
X164625000Y-71750000D02*
X165424700Y-71750000D01*
X146625000Y-74500000D02*
X146625000Y-74233700D01*
X146625000Y-74233700D02*
X149660000Y-71198700D01*
X149660000Y-71198700D02*
X150791400Y-71198700D01*
X150791400Y-71198700D02*
X151125000Y-71532300D01*
X151125000Y-71532300D02*
X151125000Y-72493900D01*
X151125000Y-72493900D02*
X151495000Y-72863900D01*
X151495000Y-72863900D02*
X154510100Y-72863900D01*
X154510100Y-72863900D02*
X156249000Y-71125000D01*
X156249000Y-71125000D02*
X164000000Y-71125000D01*
X167000000Y-71750000D02*
X165424700Y-71750000D01*
X146625000Y-74500000D02*
X150125000Y-78000000D01*
X132750000Y-74500000D02*
X146625000Y-74500000D01*
X182460000Y-131460000D02*
X172620000Y-131460000D01*
X186500000Y-135500000D02*
X182460000Y-131460000D01*
X184212400Y-71750000D02*
X185000000Y-71750000D01*
X184212400Y-71750000D02*
X183424700Y-71750000D01*
X132750000Y-74500000D02*
X125130100Y-82119900D01*
X125130100Y-82119900D02*
X122216100Y-82119900D01*
X122216100Y-82119900D02*
X122048000Y-82288000D01*
X127875000Y-111425000D02*
X130950000Y-111425000D01*
X130950000Y-111425000D02*
X132500000Y-109875000D01*
D26*
X127875000Y-111425000D02*
X128000000Y-111550000D01*
X124883500Y-111300000D02*
X127750000Y-111300000D01*
X127750000Y-111300000D02*
X127875000Y-111425000D01*
D25*
X175936600Y-72109900D02*
X175576700Y-71750000D01*
X175576700Y-71750000D02*
X168575300Y-71750000D01*
X175700000Y-79450000D02*
X175700000Y-76124700D01*
X175700000Y-76124700D02*
X175936600Y-75888100D01*
X175936600Y-75888100D02*
X175936600Y-72109900D01*
X175936600Y-72109900D02*
X183064800Y-72109900D01*
X183064800Y-72109900D02*
X183424700Y-71750000D01*
X175700000Y-79450000D02*
X175700000Y-82775300D01*
D26*
X122150000Y-111300000D02*
X124883500Y-111300000D01*
D25*
X175700000Y-82775300D02*
X175684400Y-82775300D01*
X175684400Y-82775300D02*
X170285000Y-88174700D01*
X167000000Y-71750000D02*
X168575300Y-71750000D01*
X170285000Y-89750000D02*
X170285000Y-88174700D01*
X109751300Y-131247900D02*
X116248700Y-131247900D01*
X116248700Y-131247900D02*
X121000300Y-131247900D01*
D26*
X153233502Y-106500000D02*
X148233502Y-101500000D01*
X122000000Y-106000000D02*
X122000000Y-106550000D01*
X122000000Y-106550000D02*
X122150000Y-106700000D01*
X122000000Y-104000000D02*
X122000000Y-106000000D01*
X139000000Y-124500000D02*
X136500000Y-122000000D01*
X136500000Y-122000000D02*
X111500000Y-122000000D01*
X111500000Y-122000000D02*
X110000000Y-120500000D01*
X110000000Y-120500000D02*
X110000000Y-104000000D01*
X110000000Y-104000000D02*
X122000000Y-104000000D01*
X139000000Y-128000000D02*
X139000000Y-124500000D01*
D27*
X139000000Y-128625000D02*
X139000000Y-128000000D01*
D26*
X128000000Y-103550000D02*
X124450000Y-103550000D01*
X124450000Y-103550000D02*
X122000000Y-106000000D01*
D27*
X122000000Y-103375000D02*
X122000000Y-104000000D01*
X196000000Y-77500000D02*
X196000000Y-74500000D01*
X196000000Y-79490000D02*
X196000000Y-77500000D01*
X162000000Y-74000000D02*
X162000000Y-73625000D01*
X162000000Y-73625000D02*
X160375000Y-72000000D01*
X164000000Y-72875000D02*
X164145000Y-73020000D01*
X164145000Y-73020000D02*
X167000000Y-73020000D01*
X163000000Y-74000000D02*
X163000000Y-73875000D01*
X163000000Y-73875000D02*
X164000000Y-72875000D01*
D26*
X162000000Y-74000000D02*
X163000000Y-74000000D01*
X142500000Y-127500000D02*
X142000000Y-128000000D01*
X165000000Y-134000000D02*
X157000000Y-134000000D01*
X157000000Y-134000000D02*
X156000000Y-135000000D01*
X133450000Y-106450000D02*
X131950000Y-106450000D01*
X128328000Y-84828000D02*
X133450000Y-89950000D01*
X133450000Y-89950000D02*
X133450000Y-106450000D01*
X142000000Y-108500000D02*
X139950000Y-106450000D01*
X139950000Y-106450000D02*
X133450000Y-106450000D01*
X122048000Y-84828000D02*
X128328000Y-84828000D01*
X131950000Y-106450000D02*
X128000000Y-106450000D01*
D27*
X132500000Y-108125000D02*
X132500000Y-107000000D01*
X132500000Y-107000000D02*
X131950000Y-106450000D01*
X142000000Y-128625000D02*
X142000000Y-128000000D01*
D26*
X122150000Y-109000000D02*
X115850000Y-109000000D01*
X128000000Y-106450000D02*
X127050000Y-106450000D01*
X127050000Y-106450000D02*
X124500000Y-109000000D01*
X124500000Y-109000000D02*
X122150000Y-109000000D01*
X156000000Y-135000000D02*
X156000000Y-130000000D01*
X156000000Y-130000000D02*
X163000000Y-123000000D01*
D27*
X159800000Y-119000000D02*
X158800000Y-119000000D01*
X157000000Y-120800000D02*
X157000000Y-122625000D01*
X158800000Y-119000000D02*
X157000000Y-120800000D01*
X157000000Y-122625000D02*
X154000000Y-122625000D01*
D26*
X142000000Y-128000000D02*
X142000000Y-121600000D01*
X142000000Y-121600000D02*
X142000000Y-108500000D01*
D27*
X152000000Y-126800000D02*
X151000000Y-125800000D01*
X151000000Y-125800000D02*
X151000000Y-122600000D01*
X149025000Y-122600000D02*
X149000000Y-122625000D01*
X151000000Y-122600000D02*
X149025000Y-122600000D01*
D25*
X122048000Y-74668000D02*
X126957000Y-74668000D01*
X126957000Y-74668000D02*
X127125000Y-74500000D01*
X146400000Y-69400000D02*
X144800000Y-71000000D01*
X130625000Y-71000000D02*
X127125000Y-74500000D01*
X144800000Y-71000000D02*
X130625000Y-71000000D01*
D27*
X152000000Y-72000000D02*
X152000000Y-69600000D01*
X152000000Y-69600000D02*
X153600000Y-68000000D01*
D25*
X185000000Y-83180000D02*
X186575300Y-83180000D01*
X186575300Y-83180000D02*
X186670200Y-83274900D01*
X186670200Y-83274900D02*
X194704900Y-83274900D01*
X194704900Y-83274900D02*
X196000000Y-84570000D01*
X196000000Y-87110000D02*
X197104100Y-86005900D01*
X197104100Y-86005900D02*
X197104100Y-84119500D01*
X197104100Y-84119500D02*
X196443900Y-83459300D01*
X196443900Y-83459300D02*
X195831900Y-83459300D01*
X195831900Y-83459300D02*
X193360000Y-80987400D01*
X193360000Y-80987400D02*
X193360000Y-75390000D01*
X193360000Y-75390000D02*
X194250000Y-74500000D01*
X193875000Y-87000000D02*
X193985000Y-87110000D01*
X193985000Y-87110000D02*
X196000000Y-87110000D01*
X168575300Y-81910000D02*
X168575300Y-79209300D01*
X168575300Y-79209300D02*
X175289900Y-72494700D01*
X167000000Y-81910000D02*
X168575300Y-81910000D01*
X196000000Y-92190000D02*
X197087400Y-93277400D01*
X197087400Y-93277400D02*
X197087400Y-106342600D01*
X197087400Y-106342600D02*
X196000000Y-107430000D01*
X170080000Y-134000000D02*
X170080000Y-132811100D01*
X170080000Y-132811100D02*
X170451600Y-132811100D01*
X170451600Y-132811100D02*
X171268900Y-131993800D01*
X171268900Y-131993800D02*
X171268900Y-131120500D01*
X171268900Y-131120500D02*
X191149400Y-111240000D01*
X191149400Y-111240000D02*
X196287900Y-111240000D01*
X196287900Y-111240000D02*
X197087400Y-110440500D01*
X197087400Y-110440500D02*
X197087400Y-108517400D01*
X197087400Y-108517400D02*
X196000000Y-107430000D01*
X185000000Y-73020000D02*
X186575300Y-73020000D01*
X186575300Y-73020000D02*
X187404800Y-73849500D01*
X187404800Y-73849500D02*
X187404800Y-77187400D01*
X186575300Y-81910000D02*
X187314900Y-82649600D01*
X187314900Y-82649600D02*
X187379600Y-82649600D01*
X185000000Y-81910000D02*
X186575300Y-81910000D01*
X185000000Y-84450000D02*
X190908600Y-84450000D01*
X190908600Y-84450000D02*
X192999900Y-86541300D01*
X192999900Y-86541300D02*
X192999900Y-94269900D01*
X192999900Y-94269900D02*
X196000000Y-97270000D01*
X186575300Y-80640000D02*
X186575300Y-80811300D01*
X186575300Y-80811300D02*
X187025900Y-81261900D01*
X185000000Y-80640000D02*
X186575300Y-80640000D01*
X167540000Y-134000000D02*
X167540000Y-132811100D01*
X196000000Y-109970000D02*
X189887500Y-109970000D01*
X189887500Y-109970000D02*
X168728900Y-131128600D01*
X168728900Y-131128600D02*
X168728900Y-131993800D01*
X168728900Y-131993800D02*
X167911600Y-132811100D01*
X167911600Y-132811100D02*
X167540000Y-132811100D01*
X167000000Y-85720000D02*
X168575300Y-85720000D01*
X183396800Y-98895800D02*
X190005800Y-98895800D01*
X190005800Y-98895800D02*
X196000000Y-104890000D01*
X168575300Y-85720000D02*
X168575300Y-86643400D01*
X168575300Y-86643400D02*
X168760900Y-86829000D01*
X167000000Y-83180000D02*
X165424700Y-83180000D01*
X165424700Y-83180000D02*
X164748600Y-83856100D01*
X164748600Y-83856100D02*
X159481100Y-83856100D01*
X159481100Y-83856100D02*
X158625000Y-83000000D01*
X169137900Y-83207400D02*
X169110500Y-83180000D01*
X169110500Y-83180000D02*
X167000000Y-83180000D01*
X165424700Y-86990000D02*
X146922700Y-86990000D01*
X146922700Y-86990000D02*
X143435300Y-83502600D01*
X143435300Y-83502600D02*
X112052700Y-83502600D01*
X112052700Y-83502600D02*
X103175300Y-92380000D01*
X102000000Y-92380000D02*
X103175300Y-92380000D01*
X165424700Y-86990000D02*
X165424700Y-88847600D01*
X167000000Y-86990000D02*
X165424700Y-86990000D01*
X123821200Y-82804500D02*
X146656500Y-82804500D01*
X146656500Y-82804500D02*
X151023500Y-78437500D01*
X151023500Y-78437500D02*
X151023500Y-75898500D01*
X151023500Y-75898500D02*
X150125000Y-75000000D01*
X150250000Y-72000000D02*
X150250000Y-74875000D01*
X150250000Y-74875000D02*
X150125000Y-75000000D01*
D26*
X127500000Y-135000000D02*
X127500000Y-137500000D01*
X127500000Y-137500000D02*
X111000000Y-137500000D01*
X111000000Y-137500000D02*
X106000000Y-132500000D01*
X106000000Y-132500000D02*
X106000000Y-92000000D01*
X106000000Y-92000000D02*
X110632000Y-87368000D01*
X110632000Y-87368000D02*
X122048000Y-87368000D01*
D25*
X167000000Y-88260000D02*
X167954300Y-89214300D01*
X185000000Y-75560000D02*
X183424700Y-75560000D01*
X183424700Y-75560000D02*
X182091300Y-76893400D01*
X182091300Y-76893400D02*
X182091300Y-77719000D01*
X183424700Y-76830000D02*
X183424700Y-77349100D01*
X183424700Y-77349100D02*
X182573300Y-78200500D01*
X182573300Y-78200500D02*
X182573300Y-78368900D01*
X185000000Y-76830000D02*
X183424700Y-76830000D01*
X183424700Y-74290000D02*
X181465900Y-76248800D01*
X181465900Y-76248800D02*
X181465900Y-87507400D01*
X181465900Y-87507400D02*
X182490300Y-88531800D01*
X182490300Y-88531800D02*
X182490300Y-97411900D01*
X182490300Y-97411900D02*
X178916300Y-100985900D01*
X178916300Y-100985900D02*
X178916300Y-102029700D01*
X178916300Y-102029700D02*
X157446000Y-123500000D01*
X157446000Y-123500000D02*
X154875000Y-123500000D01*
X154875000Y-123500000D02*
X154000000Y-124375000D01*
X151000000Y-133699700D02*
X151000000Y-129738100D01*
X151000000Y-129738100D02*
X154000000Y-126738100D01*
X154000000Y-126738100D02*
X154000000Y-124375000D01*
X185000000Y-74290000D02*
X183424700Y-74290000D01*
X151000000Y-135000000D02*
X151000000Y-133699700D01*
X183424700Y-78100000D02*
X183424700Y-79328200D01*
X183424700Y-79328200D02*
X183054100Y-79698800D01*
X183054100Y-79698800D02*
X183054100Y-97717300D01*
X183054100Y-97717300D02*
X179591700Y-101179700D01*
X179591700Y-101179700D02*
X179591700Y-101991200D01*
X179591700Y-101991200D02*
X157207900Y-124375000D01*
X157207900Y-124375000D02*
X157000000Y-124375000D01*
X185000000Y-78100000D02*
X183424700Y-78100000D01*
X153500000Y-135000000D02*
X153500000Y-127875000D01*
X153500000Y-127875000D02*
X157000000Y-124375000D01*
D27*
X140500000Y-131500000D02*
X140875000Y-131500000D01*
X140875000Y-131500000D02*
X142000000Y-130375000D01*
X140500000Y-131500000D02*
X140125000Y-131500000D01*
X140125000Y-131500000D02*
X139000000Y-130375000D01*
D26*
X142000000Y-135000000D02*
X142000000Y-133000000D01*
X142000000Y-133000000D02*
X140500000Y-131500000D01*
D25*
X185000000Y-86990000D02*
X186575300Y-86990000D01*
X186575300Y-86990000D02*
X186575300Y-94833000D01*
X186575300Y-94833000D02*
X181566100Y-99842200D01*
X181566100Y-99842200D02*
X181566100Y-113436800D01*
X181566100Y-113436800D02*
X166338300Y-128664600D01*
X166338300Y-128664600D02*
X166338300Y-134882800D01*
X166338300Y-134882800D02*
X164888400Y-136332700D01*
X164888400Y-136332700D02*
X140832700Y-136332700D01*
X140832700Y-136332700D02*
X139500000Y-135000000D01*
X167000000Y-84450000D02*
X168575300Y-84450000D01*
X168575300Y-84450000D02*
X169396800Y-85271500D01*
X169396800Y-85271500D02*
X169396800Y-98092400D01*
X169396800Y-98092400D02*
X146505400Y-120983800D01*
X146505400Y-120983800D02*
X146505400Y-127438500D01*
X146505400Y-127438500D02*
X144443900Y-129500000D01*
X144443900Y-129500000D02*
X138535200Y-129500000D01*
X138535200Y-129500000D02*
X137000000Y-131035200D01*
X137000000Y-131035200D02*
X137000000Y-135000000D01*
X196248700Y-126752100D02*
X189751300Y-126752100D01*
X196248700Y-131247900D02*
X189751300Y-131247900D01*
X132250000Y-125505300D02*
X132250000Y-126500000D01*
X159315600Y-75334900D02*
X159315600Y-77031800D01*
X158625000Y-72000000D02*
X158625000Y-74644300D01*
X158625000Y-74644300D02*
X159315600Y-75334900D01*
X159315600Y-75334900D02*
X163775100Y-75334900D01*
X163775100Y-75334900D02*
X164820000Y-74290000D01*
X164820000Y-74290000D02*
X167000000Y-74290000D01*
X127497700Y-126752100D02*
X130247900Y-126752100D01*
X130247900Y-126752100D02*
X130500000Y-126500000D01*
X121000300Y-126752100D02*
X127497700Y-126752100D01*
X133382300Y-124131200D02*
X118869600Y-124131200D01*
X118869600Y-124131200D02*
X116248700Y-126752100D01*
X185000000Y-88260000D02*
X184110700Y-89149300D01*
X184110700Y-89149300D02*
X183712400Y-89149300D01*
X162318600Y-82722500D02*
X160652500Y-82722500D01*
X160652500Y-82722500D02*
X160375000Y-83000000D01*
X111584100Y-126752100D02*
X116248700Y-126752100D01*
X109751300Y-126752100D02*
X111584100Y-126752100D01*
X181715000Y-89750000D02*
X181715000Y-91325300D01*
X181715000Y-91325300D02*
X178977700Y-91325300D01*
X178977700Y-91325300D02*
X148171400Y-122131600D01*
X148171400Y-122131600D02*
X148171400Y-123546400D01*
X148171400Y-123546400D02*
X149000000Y-124375000D01*
X185000000Y-79370000D02*
X186575300Y-79370000D01*
X186575300Y-79370000D02*
X188060200Y-77885100D01*
X188060200Y-77885100D02*
X188060200Y-72894700D01*
X188060200Y-72894700D02*
X186065500Y-70900000D01*
X186065500Y-70900000D02*
X166875100Y-70900000D01*
X146263900Y-73159000D02*
X132341000Y-73159000D01*
X132341000Y-73159000D02*
X131000000Y-74500000D01*
X131000000Y-74500000D02*
X128875000Y-74500000D01*
X146263900Y-73159000D02*
X146263900Y-72736100D01*
X146263900Y-72736100D02*
X148800000Y-70200000D01*
X166175100Y-70200000D02*
X166875100Y-70900000D01*
X162000000Y-70200000D02*
X166175100Y-70200000D01*
X152738700Y-77136300D02*
X153259500Y-77657100D01*
X153259500Y-77657100D02*
X159574700Y-77657100D01*
X159574700Y-77657100D02*
X159958100Y-77273700D01*
X159958100Y-77273700D02*
X159958100Y-77273600D01*
X159958100Y-77273600D02*
X163711100Y-77273600D01*
X163711100Y-77273600D02*
X165424700Y-75560000D01*
X152738700Y-77136300D02*
X152738700Y-75863700D01*
X152738700Y-75863700D02*
X151875000Y-75000000D01*
X151875000Y-78000000D02*
X152738700Y-77136300D01*
X167000000Y-75560000D02*
X165424700Y-75560000D01*
X185000000Y-85720000D02*
X190845000Y-85720000D01*
X190845000Y-85720000D02*
X192125000Y-87000000D01*
D27*
X122048000Y-100952000D02*
X122048000Y-101577000D01*
X122048000Y-101577000D02*
X122000000Y-101625000D01*
D26*
X122048000Y-89908000D02*
X122048000Y-100952000D01*
D28*
X141873000Y-119873000D02*
X116129753Y-119873000D01*
X116392856Y-119697200D01*
X116697200Y-119392856D01*
X116936322Y-119034985D01*
X117101031Y-118637341D01*
X117185000Y-118215204D01*
X117185000Y-117784796D01*
X117101031Y-117362659D01*
X116936322Y-116965015D01*
X116697200Y-116607144D01*
X116392856Y-116302800D01*
X116034985Y-116063678D01*
X115637341Y-115898969D01*
X115215204Y-115815000D01*
X114784796Y-115815000D01*
X114362659Y-115898969D01*
X113965015Y-116063678D01*
X113607144Y-116302800D01*
X113302800Y-116607144D01*
X113063678Y-116965015D01*
X112898969Y-117362659D01*
X112815000Y-117784796D01*
X112815000Y-118215204D01*
X112898969Y-118637341D01*
X113063678Y-119034985D01*
X113302800Y-119392856D01*
X113607144Y-119697200D01*
X113870247Y-119873000D01*
X112127000Y-119873000D01*
X112127000Y-111300000D01*
X120507089Y-111300000D01*
X120511928Y-111349131D01*
X120511928Y-112050000D01*
X120524188Y-112174482D01*
X120560498Y-112294180D01*
X120619463Y-112404494D01*
X120698815Y-112501185D01*
X120795506Y-112580537D01*
X120905820Y-112639502D01*
X121025518Y-112675812D01*
X121150000Y-112688072D01*
X121278484Y-112688072D01*
X121521285Y-112817852D01*
X121829484Y-112911343D01*
X122069678Y-112935000D01*
X126350229Y-112935000D01*
X126447038Y-113052962D01*
X126581613Y-113163405D01*
X126735149Y-113245472D01*
X126901745Y-113296008D01*
X127074999Y-113313072D01*
X128925001Y-113313072D01*
X129098255Y-113296008D01*
X129264851Y-113245472D01*
X129418387Y-113163405D01*
X129552962Y-113052962D01*
X129663405Y-112918387D01*
X129745472Y-112764851D01*
X129796008Y-112598255D01*
X129813072Y-112425001D01*
X129813072Y-112185000D01*
X130912678Y-112185000D01*
X130950000Y-112188676D01*
X130987322Y-112185000D01*
X130987333Y-112185000D01*
X131098986Y-112174003D01*
X131242247Y-112130546D01*
X131374276Y-112059974D01*
X131490001Y-111965001D01*
X131513804Y-111935997D01*
X132411730Y-111038072D01*
X132737500Y-111038072D01*
X132908316Y-111021248D01*
X133072567Y-110971423D01*
X133223942Y-110890512D01*
X133356623Y-110781623D01*
X133465512Y-110648942D01*
X133546423Y-110497567D01*
X133596248Y-110333316D01*
X133613072Y-110162500D01*
X133613072Y-109587500D01*
X133596248Y-109416684D01*
X133546423Y-109252433D01*
X133465512Y-109101058D01*
X133356623Y-108968377D01*
X133223942Y-108859488D01*
X133072567Y-108778577D01*
X132908316Y-108728752D01*
X132737500Y-108711928D01*
X132262500Y-108711928D01*
X132091684Y-108728752D01*
X131927433Y-108778577D01*
X131776058Y-108859488D01*
X131643377Y-108968377D01*
X131534488Y-109101058D01*
X131453577Y-109252433D01*
X131403752Y-109416684D01*
X131386928Y-109587500D01*
X131386928Y-109913270D01*
X130635199Y-110665000D01*
X129812087Y-110665000D01*
X129796008Y-110501745D01*
X129745472Y-110335149D01*
X129663405Y-110181613D01*
X129552962Y-110047038D01*
X129418387Y-109936595D01*
X129264851Y-109854528D01*
X129098255Y-109803992D01*
X128925001Y-109786928D01*
X128387658Y-109786928D01*
X128378715Y-109782148D01*
X128070516Y-109688657D01*
X127830322Y-109665000D01*
X127830319Y-109665000D01*
X127750000Y-109657089D01*
X127669681Y-109665000D01*
X122069678Y-109665000D01*
X121829484Y-109688657D01*
X121521285Y-109782148D01*
X121278484Y-109911928D01*
X121150000Y-109911928D01*
X121025518Y-109924188D01*
X120905820Y-109960498D01*
X120795506Y-110019463D01*
X120698815Y-110098815D01*
X120619463Y-110195506D01*
X120560498Y-110305820D01*
X120524188Y-110425518D01*
X120511928Y-110550000D01*
X120511928Y-111250869D01*
X120507089Y-111300000D01*
X112127000Y-111300000D01*
X112127000Y-106127000D01*
X119873000Y-106127000D01*
X119873000Y-109000000D01*
X119875440Y-109024776D01*
X119882667Y-109048601D01*
X119894403Y-109070557D01*
X119910197Y-109089803D01*
X119929443Y-109105597D01*
X119951399Y-109117333D01*
X119975224Y-109124560D01*
X120000000Y-109127000D01*
X124000000Y-109127000D01*
X124024776Y-109124560D01*
X124048601Y-109117333D01*
X124070557Y-109105597D01*
X124089803Y-109089803D01*
X127052606Y-106127000D01*
X130000000Y-106127000D01*
X130024776Y-106124560D01*
X130048601Y-106117333D01*
X130070557Y-106105597D01*
X130089803Y-106089803D01*
X130105597Y-106070557D01*
X130117333Y-106048601D01*
X130124560Y-106024776D01*
X130127000Y-106000000D01*
X130127000Y-92127000D01*
X141873000Y-92127000D01*
X141873000Y-119873000D01*
G04 #@! TA.AperFunction,Conductor*
D29*
G36*
X141873000Y-119873000D02*
G01*
X116129753Y-119873000D01*
X116392856Y-119697200D01*
X116697200Y-119392856D01*
X116936322Y-119034985D01*
X117101031Y-118637341D01*
X117185000Y-118215204D01*
X117185000Y-117784796D01*
X117101031Y-117362659D01*
X116936322Y-116965015D01*
X116697200Y-116607144D01*
X116392856Y-116302800D01*
X116034985Y-116063678D01*
X115637341Y-115898969D01*
X115215204Y-115815000D01*
X114784796Y-115815000D01*
X114362659Y-115898969D01*
X113965015Y-116063678D01*
X113607144Y-116302800D01*
X113302800Y-116607144D01*
X113063678Y-116965015D01*
X112898969Y-117362659D01*
X112815000Y-117784796D01*
X112815000Y-118215204D01*
X112898969Y-118637341D01*
X113063678Y-119034985D01*
X113302800Y-119392856D01*
X113607144Y-119697200D01*
X113870247Y-119873000D01*
X112127000Y-119873000D01*
X112127000Y-111300000D01*
X120507089Y-111300000D01*
X120511928Y-111349131D01*
X120511928Y-112050000D01*
X120524188Y-112174482D01*
X120560498Y-112294180D01*
X120619463Y-112404494D01*
X120698815Y-112501185D01*
X120795506Y-112580537D01*
X120905820Y-112639502D01*
X121025518Y-112675812D01*
X121150000Y-112688072D01*
X121278484Y-112688072D01*
X121521285Y-112817852D01*
X121829484Y-112911343D01*
X122069678Y-112935000D01*
X126350229Y-112935000D01*
X126447038Y-113052962D01*
X126581613Y-113163405D01*
X126735149Y-113245472D01*
X126901745Y-113296008D01*
X127074999Y-113313072D01*
X128925001Y-113313072D01*
X129098255Y-113296008D01*
X129264851Y-113245472D01*
X129418387Y-113163405D01*
X129552962Y-113052962D01*
X129663405Y-112918387D01*
X129745472Y-112764851D01*
X129796008Y-112598255D01*
X129813072Y-112425001D01*
X129813072Y-112185000D01*
X130912678Y-112185000D01*
X130950000Y-112188676D01*
X130987322Y-112185000D01*
X130987333Y-112185000D01*
X131098986Y-112174003D01*
X131242247Y-112130546D01*
X131374276Y-112059974D01*
X131490001Y-111965001D01*
X131513804Y-111935997D01*
X132411730Y-111038072D01*
X132737500Y-111038072D01*
X132908316Y-111021248D01*
X133072567Y-110971423D01*
X133223942Y-110890512D01*
X133356623Y-110781623D01*
X133465512Y-110648942D01*
X133546423Y-110497567D01*
X133596248Y-110333316D01*
X133613072Y-110162500D01*
X133613072Y-109587500D01*
X133596248Y-109416684D01*
X133546423Y-109252433D01*
X133465512Y-109101058D01*
X133356623Y-108968377D01*
X133223942Y-108859488D01*
X133072567Y-108778577D01*
X132908316Y-108728752D01*
X132737500Y-108711928D01*
X132262500Y-108711928D01*
X132091684Y-108728752D01*
X131927433Y-108778577D01*
X131776058Y-108859488D01*
X131643377Y-108968377D01*
X131534488Y-109101058D01*
X131453577Y-109252433D01*
X131403752Y-109416684D01*
X131386928Y-109587500D01*
X131386928Y-109913270D01*
X130635199Y-110665000D01*
X129812087Y-110665000D01*
X129796008Y-110501745D01*
X129745472Y-110335149D01*
X129663405Y-110181613D01*
X129552962Y-110047038D01*
X129418387Y-109936595D01*
X129264851Y-109854528D01*
X129098255Y-109803992D01*
X128925001Y-109786928D01*
X128387658Y-109786928D01*
X128378715Y-109782148D01*
X128070516Y-109688657D01*
X127830322Y-109665000D01*
X127830319Y-109665000D01*
X127750000Y-109657089D01*
X127669681Y-109665000D01*
X122069678Y-109665000D01*
X121829484Y-109688657D01*
X121521285Y-109782148D01*
X121278484Y-109911928D01*
X121150000Y-109911928D01*
X121025518Y-109924188D01*
X120905820Y-109960498D01*
X120795506Y-110019463D01*
X120698815Y-110098815D01*
X120619463Y-110195506D01*
X120560498Y-110305820D01*
X120524188Y-110425518D01*
X120511928Y-110550000D01*
X120511928Y-111250869D01*
X120507089Y-111300000D01*
X112127000Y-111300000D01*
X112127000Y-106127000D01*
X119873000Y-106127000D01*
X119873000Y-109000000D01*
X119875440Y-109024776D01*
X119882667Y-109048601D01*
X119894403Y-109070557D01*
X119910197Y-109089803D01*
X119929443Y-109105597D01*
X119951399Y-109117333D01*
X119975224Y-109124560D01*
X120000000Y-109127000D01*
X124000000Y-109127000D01*
X124024776Y-109124560D01*
X124048601Y-109117333D01*
X124070557Y-109105597D01*
X124089803Y-109089803D01*
X127052606Y-106127000D01*
X130000000Y-106127000D01*
X130024776Y-106124560D01*
X130048601Y-106117333D01*
X130070557Y-106105597D01*
X130089803Y-106089803D01*
X130105597Y-106070557D01*
X130117333Y-106048601D01*
X130124560Y-106024776D01*
X130127000Y-106000000D01*
X130127000Y-92127000D01*
X141873000Y-92127000D01*
X141873000Y-119873000D01*
G37*
G04 #@! TD.AperFunction*
D28*
X198290001Y-126215161D02*
X198162795Y-125977176D01*
X197989331Y-125765809D01*
X197777964Y-125592345D01*
X197536817Y-125463449D01*
X197275157Y-125384075D01*
X197071229Y-125363990D01*
X195426091Y-125363990D01*
X195222163Y-125384075D01*
X194960503Y-125463449D01*
X194719356Y-125592345D01*
X194507989Y-125765809D01*
X194334525Y-125977176D01*
X194326548Y-125992100D01*
X191673452Y-125992100D01*
X191665475Y-125977176D01*
X191492011Y-125765809D01*
X191280644Y-125592345D01*
X191039497Y-125463449D01*
X190777837Y-125384075D01*
X190573909Y-125363990D01*
X188928771Y-125363990D01*
X188724843Y-125384075D01*
X188463183Y-125463449D01*
X188222036Y-125592345D01*
X188010669Y-125765809D01*
X187837205Y-125977176D01*
X187708309Y-126218323D01*
X187628935Y-126479983D01*
X187602134Y-126752100D01*
X187628935Y-127024217D01*
X187708309Y-127285877D01*
X187837205Y-127527024D01*
X188010669Y-127738391D01*
X188222036Y-127911855D01*
X188463183Y-128040751D01*
X188724843Y-128120125D01*
X188928771Y-128140210D01*
X190573909Y-128140210D01*
X190777837Y-128120125D01*
X191039497Y-128040751D01*
X191280644Y-127911855D01*
X191492011Y-127738391D01*
X191665475Y-127527024D01*
X191673452Y-127512100D01*
X194326548Y-127512100D01*
X194334525Y-127527024D01*
X194507989Y-127738391D01*
X194719356Y-127911855D01*
X194960503Y-128040751D01*
X195222163Y-128120125D01*
X195426091Y-128140210D01*
X197071229Y-128140210D01*
X197275157Y-128120125D01*
X197536817Y-128040751D01*
X197777964Y-127911855D01*
X197989331Y-127738391D01*
X198162795Y-127527024D01*
X198290001Y-127289039D01*
X198290001Y-130710961D01*
X198162795Y-130472976D01*
X197989331Y-130261609D01*
X197777964Y-130088145D01*
X197536817Y-129959249D01*
X197275157Y-129879875D01*
X197071229Y-129859790D01*
X195426091Y-129859790D01*
X195222163Y-129879875D01*
X194960503Y-129959249D01*
X194719356Y-130088145D01*
X194507989Y-130261609D01*
X194334525Y-130472976D01*
X194326548Y-130487900D01*
X191673452Y-130487900D01*
X191665475Y-130472976D01*
X191492011Y-130261609D01*
X191280644Y-130088145D01*
X191039497Y-129959249D01*
X190777837Y-129879875D01*
X190573909Y-129859790D01*
X188928771Y-129859790D01*
X188724843Y-129879875D01*
X188463183Y-129959249D01*
X188222036Y-130088145D01*
X188010669Y-130261609D01*
X187837205Y-130472976D01*
X187708309Y-130714123D01*
X187628935Y-130975783D01*
X187602134Y-131247900D01*
X187628935Y-131520017D01*
X187708309Y-131781677D01*
X187837205Y-132022824D01*
X188010669Y-132234191D01*
X188222036Y-132407655D01*
X188463183Y-132536551D01*
X188724843Y-132615925D01*
X188928771Y-132636010D01*
X190573909Y-132636010D01*
X190777837Y-132615925D01*
X191039497Y-132536551D01*
X191280644Y-132407655D01*
X191492011Y-132234191D01*
X191665475Y-132022824D01*
X191673452Y-132007900D01*
X194326548Y-132007900D01*
X194334525Y-132022824D01*
X194507989Y-132234191D01*
X194719356Y-132407655D01*
X194960503Y-132536551D01*
X195222163Y-132615925D01*
X195426091Y-132636010D01*
X197071229Y-132636010D01*
X197275157Y-132615925D01*
X197536817Y-132536551D01*
X197777964Y-132407655D01*
X197989331Y-132234191D01*
X198162795Y-132022824D01*
X198290001Y-131784839D01*
X198290001Y-140290000D01*
X99710000Y-140290000D01*
X99710000Y-137279872D01*
X100265000Y-137279872D01*
X100265000Y-137720128D01*
X100350890Y-138151925D01*
X100519369Y-138558669D01*
X100763962Y-138924729D01*
X101075271Y-139236038D01*
X101441331Y-139480631D01*
X101848075Y-139649110D01*
X102279872Y-139735000D01*
X102720128Y-139735000D01*
X103151925Y-139649110D01*
X103558669Y-139480631D01*
X103924729Y-139236038D01*
X104236038Y-138924729D01*
X104480631Y-138558669D01*
X104649110Y-138151925D01*
X104735000Y-137720128D01*
X104735000Y-137279872D01*
X104649110Y-136848075D01*
X104480631Y-136441331D01*
X104236038Y-136075271D01*
X103924729Y-135763962D01*
X103558669Y-135519369D01*
X103151925Y-135350890D01*
X102720128Y-135265000D01*
X102279872Y-135265000D01*
X101848075Y-135350890D01*
X101441331Y-135519369D01*
X101075271Y-135763962D01*
X100763962Y-136075271D01*
X100519369Y-136441331D01*
X100350890Y-136848075D01*
X100265000Y-137279872D01*
X99710000Y-137279872D01*
X99710000Y-99150000D01*
X100511928Y-99150000D01*
X100511928Y-100850000D01*
X100524188Y-100974482D01*
X100560498Y-101094180D01*
X100619463Y-101204494D01*
X100698815Y-101301185D01*
X100795506Y-101380537D01*
X100905820Y-101439502D01*
X101025518Y-101475812D01*
X101150000Y-101488072D01*
X102850000Y-101488072D01*
X102974482Y-101475812D01*
X103094180Y-101439502D01*
X103204494Y-101380537D01*
X103301185Y-101301185D01*
X103380537Y-101204494D01*
X103439502Y-101094180D01*
X103475812Y-100974482D01*
X103488072Y-100850000D01*
X103488072Y-99150000D01*
X103475812Y-99025518D01*
X103439502Y-98905820D01*
X103380537Y-98795506D01*
X103301185Y-98698815D01*
X103204494Y-98619463D01*
X103094180Y-98560498D01*
X103021620Y-98538487D01*
X103153475Y-98406632D01*
X103315990Y-98163411D01*
X103427932Y-97893158D01*
X103485000Y-97606260D01*
X103485000Y-97313740D01*
X103427932Y-97026842D01*
X103315990Y-96756589D01*
X103153475Y-96513368D01*
X102946632Y-96306525D01*
X102772240Y-96190000D01*
X102946632Y-96073475D01*
X103153475Y-95866632D01*
X103315990Y-95623411D01*
X103427932Y-95353158D01*
X103485000Y-95066260D01*
X103485000Y-94773740D01*
X103427932Y-94486842D01*
X103315990Y-94216589D01*
X103153475Y-93973368D01*
X102946632Y-93766525D01*
X102772240Y-93650000D01*
X102946632Y-93533475D01*
X103153475Y-93326632D01*
X103282796Y-93133089D01*
X103324286Y-93129003D01*
X103467547Y-93085546D01*
X103599576Y-93014974D01*
X103715301Y-92920001D01*
X103739104Y-92890997D01*
X104365001Y-92265100D01*
X104365000Y-132419681D01*
X104357089Y-132500000D01*
X104365000Y-132580319D01*
X104365000Y-132580321D01*
X104388657Y-132820515D01*
X104482148Y-133128714D01*
X104633969Y-133412751D01*
X104838286Y-133661714D01*
X104900687Y-133712925D01*
X109787080Y-138599319D01*
X109838286Y-138661714D01*
X110087248Y-138866031D01*
X110371285Y-139017852D01*
X110679483Y-139111343D01*
X111000000Y-139142911D01*
X111080322Y-139135000D01*
X127419678Y-139135000D01*
X127500000Y-139142911D01*
X127820516Y-139111343D01*
X128128715Y-139017852D01*
X128412752Y-138866031D01*
X128661714Y-138661714D01*
X128866031Y-138412752D01*
X129017852Y-138128715D01*
X129111343Y-137820516D01*
X129135000Y-137580322D01*
X129142911Y-137500000D01*
X129135000Y-137419678D01*
X129135000Y-137279872D01*
X193265000Y-137279872D01*
X193265000Y-137720128D01*
X193350890Y-138151925D01*
X193519369Y-138558669D01*
X193763962Y-138924729D01*
X194075271Y-139236038D01*
X194441331Y-139480631D01*
X194848075Y-139649110D01*
X195279872Y-139735000D01*
X195720128Y-139735000D01*
X196151925Y-139649110D01*
X196558669Y-139480631D01*
X196924729Y-139236038D01*
X197236038Y-138924729D01*
X197480631Y-138558669D01*
X197649110Y-138151925D01*
X197735000Y-137720128D01*
X197735000Y-137279872D01*
X197649110Y-136848075D01*
X197480631Y-136441331D01*
X197236038Y-136075271D01*
X196924729Y-135763962D01*
X196558669Y-135519369D01*
X196151925Y-135350890D01*
X195720128Y-135265000D01*
X195279872Y-135265000D01*
X194848075Y-135350890D01*
X194441331Y-135519369D01*
X194075271Y-135763962D01*
X193763962Y-136075271D01*
X193519369Y-136441331D01*
X193350890Y-136848075D01*
X193265000Y-137279872D01*
X129135000Y-137279872D01*
X129135000Y-135975000D01*
X133011928Y-135975000D01*
X133024188Y-136099482D01*
X133060498Y-136219180D01*
X133119463Y-136329494D01*
X133198815Y-136426185D01*
X133295506Y-136505537D01*
X133405820Y-136564502D01*
X133525518Y-136600812D01*
X133650000Y-136613072D01*
X134214250Y-136610000D01*
X134373000Y-136451250D01*
X134373000Y-135127000D01*
X133173750Y-135127000D01*
X133015000Y-135285750D01*
X133011928Y-135975000D01*
X129135000Y-135975000D01*
X129135000Y-134919678D01*
X129111343Y-134679484D01*
X129017852Y-134371285D01*
X128866031Y-134087248D01*
X128814946Y-134025000D01*
X133011928Y-134025000D01*
X133015000Y-134714250D01*
X133173750Y-134873000D01*
X134373000Y-134873000D01*
X134373000Y-133548750D01*
X134214250Y-133390000D01*
X133650000Y-133386928D01*
X133525518Y-133399188D01*
X133405820Y-133435498D01*
X133295506Y-133494463D01*
X133198815Y-133573815D01*
X133119463Y-133670506D01*
X133060498Y-133780820D01*
X133024188Y-133900518D01*
X133011928Y-134025000D01*
X128814946Y-134025000D01*
X128661714Y-133838286D01*
X128412751Y-133633969D01*
X128128714Y-133482148D01*
X127820515Y-133388657D01*
X127500000Y-133357089D01*
X127179484Y-133388657D01*
X126871285Y-133482148D01*
X126587248Y-133633969D01*
X126439279Y-133755403D01*
X126380537Y-133645506D01*
X126301185Y-133548815D01*
X126204494Y-133469463D01*
X126094180Y-133410498D01*
X125974482Y-133374188D01*
X125850000Y-133361928D01*
X125285750Y-133365000D01*
X125127000Y-133523750D01*
X125127000Y-134873000D01*
X125147000Y-134873000D01*
X125147000Y-135127000D01*
X125127000Y-135127000D01*
X125127000Y-135147000D01*
X124873000Y-135147000D01*
X124873000Y-135127000D01*
X123673750Y-135127000D01*
X123515000Y-135285750D01*
X123512509Y-135865000D01*
X111677239Y-135865000D01*
X109812239Y-134000000D01*
X123511928Y-134000000D01*
X123515000Y-134714250D01*
X123673750Y-134873000D01*
X124873000Y-134873000D01*
X124873000Y-133523750D01*
X124714250Y-133365000D01*
X124150000Y-133361928D01*
X124025518Y-133374188D01*
X123905820Y-133410498D01*
X123795506Y-133469463D01*
X123698815Y-133548815D01*
X123619463Y-133645506D01*
X123560498Y-133755820D01*
X123524188Y-133875518D01*
X123511928Y-134000000D01*
X109812239Y-134000000D01*
X108189159Y-132376921D01*
X108348420Y-132481745D01*
X108601593Y-132584561D01*
X108869960Y-132636010D01*
X109624340Y-132636010D01*
X109624340Y-131374900D01*
X109878340Y-131374900D01*
X109878340Y-132636010D01*
X110632720Y-132636010D01*
X110901087Y-132584561D01*
X111154260Y-132481745D01*
X111382510Y-132331513D01*
X111577065Y-132139638D01*
X111730449Y-131913494D01*
X111836767Y-131661772D01*
X111851123Y-131589574D01*
X114148877Y-131589574D01*
X114163233Y-131661772D01*
X114269551Y-131913494D01*
X114422935Y-132139638D01*
X114617490Y-132331513D01*
X114845740Y-132481745D01*
X115098913Y-132584561D01*
X115367280Y-132636010D01*
X116121660Y-132636010D01*
X116121660Y-131374900D01*
X116375660Y-131374900D01*
X116375660Y-132636010D01*
X117130040Y-132636010D01*
X117398407Y-132584561D01*
X117651580Y-132481745D01*
X117879830Y-132331513D01*
X118074385Y-132139638D01*
X118227769Y-131913494D01*
X118334087Y-131661772D01*
X118348443Y-131589574D01*
X118900557Y-131589574D01*
X118914913Y-131661772D01*
X119021231Y-131913494D01*
X119174615Y-132139638D01*
X119369170Y-132331513D01*
X119597420Y-132481745D01*
X119850593Y-132584561D01*
X120118960Y-132636010D01*
X120873340Y-132636010D01*
X120873340Y-131374900D01*
X121127340Y-131374900D01*
X121127340Y-132636010D01*
X121881720Y-132636010D01*
X122150087Y-132584561D01*
X122403260Y-132481745D01*
X122631510Y-132331513D01*
X122826065Y-132139638D01*
X122979449Y-131913494D01*
X123085767Y-131661772D01*
X123100123Y-131589574D01*
X125397877Y-131589574D01*
X125412233Y-131661772D01*
X125518551Y-131913494D01*
X125671935Y-132139638D01*
X125866490Y-132331513D01*
X126094740Y-132481745D01*
X126347913Y-132584561D01*
X126616280Y-132636010D01*
X127370660Y-132636010D01*
X127370660Y-131374900D01*
X127624660Y-131374900D01*
X127624660Y-132636010D01*
X128379040Y-132636010D01*
X128647407Y-132584561D01*
X128900580Y-132481745D01*
X129128830Y-132331513D01*
X129323385Y-132139638D01*
X129476769Y-131913494D01*
X129583087Y-131661772D01*
X129597443Y-131589574D01*
X129474822Y-131374900D01*
X127624660Y-131374900D01*
X127370660Y-131374900D01*
X125520498Y-131374900D01*
X125397877Y-131589574D01*
X123100123Y-131589574D01*
X122977502Y-131374900D01*
X121127340Y-131374900D01*
X120873340Y-131374900D01*
X119023178Y-131374900D01*
X118900557Y-131589574D01*
X118348443Y-131589574D01*
X118225822Y-131374900D01*
X116375660Y-131374900D01*
X116121660Y-131374900D01*
X114271498Y-131374900D01*
X114148877Y-131589574D01*
X111851123Y-131589574D01*
X111728502Y-131374900D01*
X109878340Y-131374900D01*
X109624340Y-131374900D01*
X109604340Y-131374900D01*
X109604340Y-131120900D01*
X109624340Y-131120900D01*
X109624340Y-129859790D01*
X109878340Y-129859790D01*
X109878340Y-131120900D01*
X111728502Y-131120900D01*
X111851123Y-130906226D01*
X114148877Y-130906226D01*
X114271498Y-131120900D01*
X116121660Y-131120900D01*
X116121660Y-129859790D01*
X116375660Y-129859790D01*
X116375660Y-131120900D01*
X118225822Y-131120900D01*
X118348443Y-130906226D01*
X118900557Y-130906226D01*
X119023178Y-131120900D01*
X120873340Y-131120900D01*
X120873340Y-129859790D01*
X121127340Y-129859790D01*
X121127340Y-131120900D01*
X122977502Y-131120900D01*
X123100123Y-130906226D01*
X125397877Y-130906226D01*
X125520498Y-131120900D01*
X127370660Y-131120900D01*
X127370660Y-129859790D01*
X127624660Y-129859790D01*
X127624660Y-131120900D01*
X129474822Y-131120900D01*
X129597443Y-130906226D01*
X129583087Y-130834028D01*
X129476769Y-130582306D01*
X129323385Y-130356162D01*
X129128830Y-130164287D01*
X128900580Y-130014055D01*
X128647407Y-129911239D01*
X128379040Y-129859790D01*
X127624660Y-129859790D01*
X127370660Y-129859790D01*
X126616280Y-129859790D01*
X126347913Y-129911239D01*
X126094740Y-130014055D01*
X125866490Y-130164287D01*
X125671935Y-130356162D01*
X125518551Y-130582306D01*
X125412233Y-130834028D01*
X125397877Y-130906226D01*
X123100123Y-130906226D01*
X123085767Y-130834028D01*
X122979449Y-130582306D01*
X122826065Y-130356162D01*
X122631510Y-130164287D01*
X122403260Y-130014055D01*
X122150087Y-129911239D01*
X121881720Y-129859790D01*
X121127340Y-129859790D01*
X120873340Y-129859790D01*
X120118960Y-129859790D01*
X119850593Y-129911239D01*
X119597420Y-130014055D01*
X119369170Y-130164287D01*
X119174615Y-130356162D01*
X119021231Y-130582306D01*
X118914913Y-130834028D01*
X118900557Y-130906226D01*
X118348443Y-130906226D01*
X118334087Y-130834028D01*
X118227769Y-130582306D01*
X118074385Y-130356162D01*
X117879830Y-130164287D01*
X117651580Y-130014055D01*
X117398407Y-129911239D01*
X117130040Y-129859790D01*
X116375660Y-129859790D01*
X116121660Y-129859790D01*
X115367280Y-129859790D01*
X115098913Y-129911239D01*
X114845740Y-130014055D01*
X114617490Y-130164287D01*
X114422935Y-130356162D01*
X114269551Y-130582306D01*
X114163233Y-130834028D01*
X114148877Y-130906226D01*
X111851123Y-130906226D01*
X111836767Y-130834028D01*
X111730449Y-130582306D01*
X111577065Y-130356162D01*
X111382510Y-130164287D01*
X111154260Y-130014055D01*
X110901087Y-129911239D01*
X110632720Y-129859790D01*
X109878340Y-129859790D01*
X109624340Y-129859790D01*
X108869960Y-129859790D01*
X108601593Y-129911239D01*
X108348420Y-130014055D01*
X108120170Y-130164287D01*
X107925615Y-130356162D01*
X107772231Y-130582306D01*
X107665913Y-130834028D01*
X107651557Y-130906226D01*
X107774177Y-131120898D01*
X107635000Y-131120898D01*
X107635000Y-127044211D01*
X107708309Y-127285877D01*
X107837205Y-127527024D01*
X108010669Y-127738391D01*
X108222036Y-127911855D01*
X108463183Y-128040751D01*
X108724843Y-128120125D01*
X108928771Y-128140210D01*
X110573909Y-128140210D01*
X110777837Y-128120125D01*
X111039497Y-128040751D01*
X111280644Y-127911855D01*
X111492011Y-127738391D01*
X111665475Y-127527024D01*
X111673452Y-127512100D01*
X114326548Y-127512100D01*
X114334525Y-127527024D01*
X114507989Y-127738391D01*
X114719356Y-127911855D01*
X114960503Y-128040751D01*
X115222163Y-128120125D01*
X115426091Y-128140210D01*
X117071229Y-128140210D01*
X117275157Y-128120125D01*
X117536817Y-128040751D01*
X117777964Y-127911855D01*
X117989331Y-127738391D01*
X118162795Y-127527024D01*
X118291691Y-127285877D01*
X118371065Y-127024217D01*
X118397866Y-126752100D01*
X118371065Y-126479983D01*
X118291691Y-126218323D01*
X118162795Y-125977176D01*
X118133780Y-125941821D01*
X119184402Y-124891200D01*
X131541810Y-124891200D01*
X131523738Y-124909272D01*
X131421414Y-125062411D01*
X131350932Y-125232571D01*
X131315000Y-125413211D01*
X131315000Y-125568184D01*
X131273942Y-125534488D01*
X131122567Y-125453577D01*
X130958316Y-125403752D01*
X130787500Y-125386928D01*
X130212500Y-125386928D01*
X130041684Y-125403752D01*
X129877433Y-125453577D01*
X129726058Y-125534488D01*
X129593377Y-125643377D01*
X129484488Y-125776058D01*
X129403577Y-125927433D01*
X129394778Y-125956440D01*
X129238331Y-125765809D01*
X129026964Y-125592345D01*
X128785817Y-125463449D01*
X128524157Y-125384075D01*
X128320229Y-125363990D01*
X126675091Y-125363990D01*
X126471163Y-125384075D01*
X126209503Y-125463449D01*
X125968356Y-125592345D01*
X125756989Y-125765809D01*
X125583525Y-125977176D01*
X125575548Y-125992100D01*
X122922452Y-125992100D01*
X122914475Y-125977176D01*
X122741011Y-125765809D01*
X122529644Y-125592345D01*
X122288497Y-125463449D01*
X122026837Y-125384075D01*
X121822909Y-125363990D01*
X120177771Y-125363990D01*
X119973843Y-125384075D01*
X119712183Y-125463449D01*
X119471036Y-125592345D01*
X119259669Y-125765809D01*
X119086205Y-125977176D01*
X118957309Y-126218323D01*
X118877935Y-126479983D01*
X118851134Y-126752100D01*
X118877935Y-127024217D01*
X118957309Y-127285877D01*
X119086205Y-127527024D01*
X119259669Y-127738391D01*
X119471036Y-127911855D01*
X119712183Y-128040751D01*
X119973843Y-128120125D01*
X120177771Y-128140210D01*
X121822909Y-128140210D01*
X122026837Y-128120125D01*
X122288497Y-128040751D01*
X122529644Y-127911855D01*
X122741011Y-127738391D01*
X122914475Y-127527024D01*
X122922452Y-127512100D01*
X125575548Y-127512100D01*
X125583525Y-127527024D01*
X125756989Y-127738391D01*
X125968356Y-127911855D01*
X126209503Y-128040751D01*
X126471163Y-128120125D01*
X126675091Y-128140210D01*
X128320229Y-128140210D01*
X128524157Y-128120125D01*
X128785817Y-128040751D01*
X129026964Y-127911855D01*
X129238331Y-127738391D01*
X129411795Y-127527024D01*
X129419772Y-127512100D01*
X129813219Y-127512100D01*
X129877433Y-127546423D01*
X130041684Y-127596248D01*
X130212500Y-127613072D01*
X130787500Y-127613072D01*
X130958316Y-127596248D01*
X131122567Y-127546423D01*
X131273942Y-127465512D01*
X131375000Y-127382575D01*
X131476058Y-127465512D01*
X131627433Y-127546423D01*
X131791684Y-127596248D01*
X131962500Y-127613072D01*
X132537500Y-127613072D01*
X132708316Y-127596248D01*
X132872567Y-127546423D01*
X133023942Y-127465512D01*
X133156623Y-127356623D01*
X133265512Y-127223942D01*
X133346423Y-127072567D01*
X133396248Y-126908316D01*
X133413072Y-126737500D01*
X133413072Y-126262500D01*
X133396248Y-126091684D01*
X133346423Y-125927433D01*
X133265512Y-125776058D01*
X133172101Y-125662237D01*
X133185000Y-125597389D01*
X133185000Y-125413211D01*
X133149068Y-125232571D01*
X133078586Y-125062411D01*
X133037033Y-125000222D01*
X133109571Y-125030268D01*
X133290211Y-125066200D01*
X133474389Y-125066200D01*
X133655029Y-125030268D01*
X133825189Y-124959786D01*
X133978328Y-124857462D01*
X134108562Y-124727228D01*
X134210886Y-124574089D01*
X134281368Y-124403929D01*
X134317300Y-124223289D01*
X134317300Y-124039111D01*
X134281368Y-123858471D01*
X134210886Y-123688311D01*
X134175265Y-123635000D01*
X135822762Y-123635000D01*
X137365001Y-125177240D01*
X137365000Y-128080321D01*
X137388657Y-128320515D01*
X137482148Y-128628714D01*
X137633969Y-128912751D01*
X137820435Y-129139963D01*
X136489003Y-130471396D01*
X136459999Y-130495199D01*
X136413617Y-130551716D01*
X136365026Y-130610924D01*
X136309865Y-130714123D01*
X136294454Y-130742954D01*
X136250997Y-130886215D01*
X136240000Y-130997868D01*
X136240000Y-130997878D01*
X136236324Y-131035200D01*
X136240000Y-131072523D01*
X136240001Y-133597405D01*
X136170986Y-133634294D01*
X135950055Y-133815608D01*
X135939502Y-133780820D01*
X135880537Y-133670506D01*
X135801185Y-133573815D01*
X135704494Y-133494463D01*
X135594180Y-133435498D01*
X135474482Y-133399188D01*
X135350000Y-133386928D01*
X134785750Y-133390000D01*
X134627000Y-133548750D01*
X134627000Y-134873000D01*
X134647000Y-134873000D01*
X134647000Y-135127000D01*
X134627000Y-135127000D01*
X134627000Y-136451250D01*
X134785750Y-136610000D01*
X135350000Y-136613072D01*
X135474482Y-136600812D01*
X135594180Y-136564502D01*
X135704494Y-136505537D01*
X135801185Y-136426185D01*
X135880537Y-136329494D01*
X135939502Y-136219180D01*
X135950055Y-136184392D01*
X136170987Y-136365706D01*
X136428967Y-136503599D01*
X136708890Y-136588513D01*
X137000000Y-136617185D01*
X137291111Y-136588513D01*
X137571034Y-136503599D01*
X137829014Y-136365706D01*
X138055134Y-136180134D01*
X138240706Y-135954014D01*
X138250000Y-135936626D01*
X138259294Y-135954014D01*
X138444866Y-136180134D01*
X138670987Y-136365706D01*
X138928967Y-136503599D01*
X139208890Y-136588513D01*
X139500000Y-136617185D01*
X139791111Y-136588513D01*
X139961902Y-136536704D01*
X140268905Y-136843708D01*
X140292699Y-136872701D01*
X140321692Y-136896495D01*
X140321696Y-136896499D01*
X140357869Y-136926185D01*
X140408424Y-136967674D01*
X140540453Y-137038246D01*
X140683714Y-137081703D01*
X140795367Y-137092700D01*
X140795376Y-137092700D01*
X140832699Y-137096376D01*
X140870022Y-137092700D01*
X164851078Y-137092700D01*
X164888400Y-137096376D01*
X164925722Y-137092700D01*
X164925733Y-137092700D01*
X165037386Y-137081703D01*
X165180647Y-137038246D01*
X165312676Y-136967674D01*
X165428401Y-136872701D01*
X165452204Y-136843697D01*
X166849303Y-135446599D01*
X166878301Y-135422801D01*
X166924122Y-135366968D01*
X167102875Y-135441010D01*
X167392401Y-135498600D01*
X167687599Y-135498600D01*
X167977125Y-135441010D01*
X168249853Y-135328042D01*
X168495302Y-135164039D01*
X168704039Y-134955302D01*
X168810000Y-134796719D01*
X168915961Y-134955302D01*
X169124698Y-135164039D01*
X169370147Y-135328042D01*
X169642875Y-135441010D01*
X169932401Y-135498600D01*
X170227599Y-135498600D01*
X170517125Y-135441010D01*
X170789853Y-135328042D01*
X171035302Y-135164039D01*
X171244039Y-134955302D01*
X171350000Y-134796719D01*
X171455961Y-134955302D01*
X171664698Y-135164039D01*
X171910147Y-135328042D01*
X172182875Y-135441010D01*
X172472401Y-135498600D01*
X172767599Y-135498600D01*
X173057125Y-135441010D01*
X173329853Y-135328042D01*
X173368752Y-135302050D01*
X180015000Y-135302050D01*
X180015000Y-135697949D01*
X180036487Y-135916110D01*
X180121401Y-136196033D01*
X180259294Y-136454013D01*
X180444866Y-136680134D01*
X180670986Y-136865706D01*
X180928966Y-137003599D01*
X181208889Y-137088513D01*
X181500000Y-137117185D01*
X181791110Y-137088513D01*
X182071033Y-137003599D01*
X182329013Y-136865706D01*
X182555134Y-136680134D01*
X182740706Y-136454014D01*
X182750000Y-136436626D01*
X182759294Y-136454013D01*
X182944866Y-136680134D01*
X183170986Y-136865706D01*
X183428966Y-137003599D01*
X183708889Y-137088513D01*
X184000000Y-137117185D01*
X184291110Y-137088513D01*
X184571033Y-137003599D01*
X184829013Y-136865706D01*
X185049945Y-136684392D01*
X185060498Y-136719180D01*
X185119463Y-136829494D01*
X185198815Y-136926185D01*
X185295506Y-137005537D01*
X185405820Y-137064502D01*
X185525518Y-137100812D01*
X185650000Y-137113072D01*
X186214250Y-137110000D01*
X186373000Y-136951250D01*
X186373000Y-135627000D01*
X186627000Y-135627000D01*
X186627000Y-136951250D01*
X186785750Y-137110000D01*
X187350000Y-137113072D01*
X187474482Y-137100812D01*
X187594180Y-137064502D01*
X187704494Y-137005537D01*
X187801185Y-136926185D01*
X187880537Y-136829494D01*
X187939502Y-136719180D01*
X187975812Y-136599482D01*
X187988072Y-136475000D01*
X187985000Y-135785750D01*
X187826250Y-135627000D01*
X186627000Y-135627000D01*
X186373000Y-135627000D01*
X186353000Y-135627000D01*
X186353000Y-135373000D01*
X186373000Y-135373000D01*
X186373000Y-134048750D01*
X186627000Y-134048750D01*
X186627000Y-135373000D01*
X187826250Y-135373000D01*
X187985000Y-135214250D01*
X187988072Y-134525000D01*
X187975812Y-134400518D01*
X187939502Y-134280820D01*
X187880537Y-134170506D01*
X187801185Y-134073815D01*
X187704494Y-133994463D01*
X187594180Y-133935498D01*
X187474482Y-133899188D01*
X187350000Y-133886928D01*
X186785750Y-133890000D01*
X186627000Y-134048750D01*
X186373000Y-134048750D01*
X186214250Y-133890000D01*
X185650000Y-133886928D01*
X185525518Y-133899188D01*
X185405820Y-133935498D01*
X185295506Y-133994463D01*
X185198815Y-134073815D01*
X185119463Y-134170506D01*
X185060498Y-134280820D01*
X185049945Y-134315608D01*
X184829014Y-134134294D01*
X184571034Y-133996401D01*
X184291111Y-133911487D01*
X184000000Y-133882815D01*
X183708890Y-133911487D01*
X183428967Y-133996401D01*
X183170987Y-134134294D01*
X182944866Y-134319866D01*
X182759294Y-134545986D01*
X182750000Y-134563374D01*
X182740706Y-134545986D01*
X182555134Y-134319866D01*
X182329014Y-134134294D01*
X182071034Y-133996401D01*
X181791111Y-133911487D01*
X181500000Y-133882815D01*
X181208890Y-133911487D01*
X180928967Y-133996401D01*
X180670987Y-134134294D01*
X180444866Y-134319866D01*
X180259294Y-134545986D01*
X180121401Y-134803966D01*
X180036487Y-135083889D01*
X180015000Y-135302050D01*
X173368752Y-135302050D01*
X173575302Y-135164039D01*
X173784039Y-134955302D01*
X173948042Y-134709853D01*
X174061010Y-134437125D01*
X174118600Y-134147599D01*
X174118600Y-133852401D01*
X174061010Y-133562875D01*
X173948042Y-133290147D01*
X173784039Y-133044698D01*
X173575302Y-132835961D01*
X173414187Y-132728308D01*
X173630293Y-132566854D01*
X173826817Y-132348488D01*
X173976964Y-132095978D01*
X174074963Y-131819027D01*
X173954464Y-131587000D01*
X172747000Y-131587000D01*
X172747000Y-131607000D01*
X172493000Y-131607000D01*
X172493000Y-131587000D01*
X172473000Y-131587000D01*
X172473000Y-131333000D01*
X172493000Y-131333000D01*
X172493000Y-131313000D01*
X172747000Y-131313000D01*
X172747000Y-131333000D01*
X173954464Y-131333000D01*
X174074963Y-131100973D01*
X173976964Y-130824022D01*
X173826817Y-130571512D01*
X173630293Y-130353146D01*
X173394944Y-130177316D01*
X173321796Y-130142405D01*
X185679405Y-117784796D01*
X188895000Y-117784796D01*
X188895000Y-118215204D01*
X188978969Y-118637341D01*
X189143678Y-119034985D01*
X189382800Y-119392856D01*
X189687144Y-119697200D01*
X190045015Y-119936322D01*
X190442659Y-120101031D01*
X190864796Y-120185000D01*
X191295204Y-120185000D01*
X191717341Y-120101031D01*
X192114985Y-119936322D01*
X192472856Y-119697200D01*
X192777200Y-119392856D01*
X193016322Y-119034985D01*
X193181031Y-118637341D01*
X193265000Y-118215204D01*
X193265000Y-117784796D01*
X193181031Y-117362659D01*
X193016322Y-116965015D01*
X192777200Y-116607144D01*
X192472856Y-116302800D01*
X192114985Y-116063678D01*
X191717341Y-115898969D01*
X191295204Y-115815000D01*
X190864796Y-115815000D01*
X190442659Y-115898969D01*
X190045015Y-116063678D01*
X189687144Y-116302800D01*
X189382800Y-116607144D01*
X189143678Y-116965015D01*
X188978969Y-117362659D01*
X188895000Y-117784796D01*
X185679405Y-117784796D01*
X191464202Y-112000000D01*
X194699147Y-112000000D01*
X194656686Y-112102510D01*
X194603000Y-112372408D01*
X194603000Y-112647592D01*
X194656686Y-112917490D01*
X194761995Y-113171727D01*
X194914880Y-113400535D01*
X195109465Y-113595120D01*
X195338273Y-113748005D01*
X195592510Y-113853314D01*
X195862408Y-113907000D01*
X196137592Y-113907000D01*
X196407490Y-113853314D01*
X196661727Y-113748005D01*
X196890535Y-113595120D01*
X197085120Y-113400535D01*
X197238005Y-113171727D01*
X197343314Y-112917490D01*
X197397000Y-112647592D01*
X197397000Y-112372408D01*
X197343314Y-112102510D01*
X197238005Y-111848273D01*
X197085120Y-111619465D01*
X197034178Y-111568523D01*
X197598404Y-111004298D01*
X197627401Y-110980501D01*
X197722374Y-110864776D01*
X197792946Y-110732747D01*
X197836403Y-110589486D01*
X197847400Y-110477833D01*
X197847400Y-110477825D01*
X197851076Y-110440500D01*
X197847400Y-110403175D01*
X197847400Y-108554723D01*
X197851076Y-108517400D01*
X197847400Y-108480077D01*
X197847400Y-108480067D01*
X197836403Y-108368414D01*
X197792946Y-108225153D01*
X197722374Y-108093124D01*
X197627401Y-107977399D01*
X197598403Y-107953601D01*
X197366372Y-107721570D01*
X197397000Y-107567592D01*
X197397000Y-107292408D01*
X197366372Y-107138430D01*
X197598403Y-106906399D01*
X197627401Y-106882601D01*
X197722374Y-106766876D01*
X197792946Y-106634847D01*
X197836403Y-106491586D01*
X197847400Y-106379933D01*
X197847400Y-106379923D01*
X197851076Y-106342600D01*
X197847400Y-106305277D01*
X197847400Y-93314723D01*
X197851076Y-93277400D01*
X197847400Y-93240077D01*
X197847400Y-93240067D01*
X197836403Y-93128414D01*
X197792946Y-92985153D01*
X197722374Y-92853124D01*
X197627401Y-92737399D01*
X197598404Y-92713602D01*
X197366372Y-92481570D01*
X197397000Y-92327592D01*
X197397000Y-92052408D01*
X197343314Y-91782510D01*
X197238005Y-91528273D01*
X197085120Y-91299465D01*
X196890535Y-91104880D01*
X196661727Y-90951995D01*
X196584485Y-90920000D01*
X196661727Y-90888005D01*
X196890535Y-90735120D01*
X197085120Y-90540535D01*
X197238005Y-90311727D01*
X197343314Y-90057490D01*
X197397000Y-89787592D01*
X197397000Y-89512408D01*
X197343314Y-89242510D01*
X197238005Y-88988273D01*
X197085120Y-88759465D01*
X196890535Y-88564880D01*
X196661727Y-88411995D01*
X196584485Y-88380000D01*
X196661727Y-88348005D01*
X196890535Y-88195120D01*
X197085120Y-88000535D01*
X197238005Y-87771727D01*
X197343314Y-87517490D01*
X197397000Y-87247592D01*
X197397000Y-86972408D01*
X197366372Y-86818430D01*
X197615104Y-86569698D01*
X197644101Y-86545901D01*
X197739074Y-86430176D01*
X197809646Y-86298147D01*
X197853103Y-86154886D01*
X197864100Y-86043233D01*
X197864100Y-86043224D01*
X197867776Y-86005901D01*
X197864100Y-85968578D01*
X197864100Y-84156825D01*
X197867776Y-84119500D01*
X197864100Y-84082175D01*
X197864100Y-84082167D01*
X197853103Y-83970514D01*
X197809646Y-83827253D01*
X197739074Y-83695224D01*
X197644101Y-83579499D01*
X197615102Y-83555700D01*
X197036874Y-82977472D01*
X197081977Y-82932369D01*
X196965567Y-82815959D01*
X197205656Y-82748980D01*
X197322756Y-82499952D01*
X197389023Y-82232865D01*
X197401910Y-81957983D01*
X197360922Y-81685867D01*
X197267636Y-81426977D01*
X197205656Y-81311020D01*
X196965565Y-81244040D01*
X196179605Y-82030000D01*
X196193748Y-82044143D01*
X196014143Y-82223748D01*
X196000000Y-82209605D01*
X195985858Y-82223748D01*
X195806253Y-82044143D01*
X195820395Y-82030000D01*
X195034435Y-81244040D01*
X194794344Y-81311020D01*
X194782855Y-81335453D01*
X194120000Y-80672599D01*
X194120000Y-78454250D01*
X194123000Y-78451250D01*
X194123000Y-77627000D01*
X194120000Y-77627000D01*
X194120000Y-77373000D01*
X194123000Y-77373000D01*
X194123000Y-76548750D01*
X194120000Y-76545750D01*
X194120000Y-75704801D01*
X194211729Y-75613072D01*
X194537500Y-75613072D01*
X194708316Y-75596248D01*
X194865001Y-75548718D01*
X194865000Y-76395792D01*
X194775000Y-76386928D01*
X194535750Y-76390000D01*
X194377000Y-76548750D01*
X194377000Y-77373000D01*
X194397000Y-77373000D01*
X194397000Y-77627000D01*
X194377000Y-77627000D01*
X194377000Y-78451250D01*
X194535750Y-78610000D01*
X194611454Y-78610972D01*
X194599928Y-78728000D01*
X194599928Y-80252000D01*
X194612188Y-80376482D01*
X194648498Y-80496180D01*
X194707463Y-80606494D01*
X194786815Y-80703185D01*
X194883506Y-80782537D01*
X194993820Y-80841502D01*
X195113518Y-80877812D01*
X195238000Y-80890072D01*
X195262683Y-80890072D01*
X195214040Y-81064435D01*
X196000000Y-81850395D01*
X196785960Y-81064435D01*
X196737317Y-80890072D01*
X196762000Y-80890072D01*
X196886482Y-80877812D01*
X197006180Y-80841502D01*
X197116494Y-80782537D01*
X197213185Y-80703185D01*
X197292537Y-80606494D01*
X197351502Y-80496180D01*
X197387812Y-80376482D01*
X197400072Y-80252000D01*
X197400072Y-78728000D01*
X197387812Y-78603518D01*
X197351502Y-78483820D01*
X197292537Y-78373506D01*
X197213185Y-78276815D01*
X197135000Y-78212650D01*
X197135000Y-77945396D01*
X197146248Y-77908316D01*
X197163072Y-77737500D01*
X197163072Y-77262500D01*
X197146248Y-77091684D01*
X197135000Y-77054604D01*
X197135000Y-74945396D01*
X197146248Y-74908316D01*
X197163072Y-74737500D01*
X197163072Y-74262500D01*
X197146248Y-74091684D01*
X197096423Y-73927433D01*
X197015512Y-73776058D01*
X196906623Y-73643377D01*
X196773942Y-73534488D01*
X196622567Y-73453577D01*
X196458316Y-73403752D01*
X196287500Y-73386928D01*
X196240646Y-73386928D01*
X196222499Y-73381423D01*
X196000000Y-73359509D01*
X195777502Y-73381423D01*
X195759355Y-73386928D01*
X195712500Y-73386928D01*
X195541684Y-73403752D01*
X195377433Y-73453577D01*
X195226058Y-73534488D01*
X195125000Y-73617425D01*
X195023942Y-73534488D01*
X194872567Y-73453577D01*
X194708316Y-73403752D01*
X194537500Y-73386928D01*
X193962500Y-73386928D01*
X193791684Y-73403752D01*
X193627433Y-73453577D01*
X193476058Y-73534488D01*
X193343377Y-73643377D01*
X193257648Y-73747837D01*
X193181031Y-73362659D01*
X193016322Y-72965015D01*
X192777200Y-72607144D01*
X192472856Y-72302800D01*
X192114985Y-72063678D01*
X191717341Y-71898969D01*
X191295204Y-71815000D01*
X190864796Y-71815000D01*
X190442659Y-71898969D01*
X190045015Y-72063678D01*
X189687144Y-72302800D01*
X189382800Y-72607144D01*
X189143678Y-72965015D01*
X188978969Y-73362659D01*
X188895000Y-73784796D01*
X188895000Y-74215204D01*
X188978969Y-74637341D01*
X189143678Y-75034985D01*
X189382800Y-75392856D01*
X189687144Y-75697200D01*
X190045015Y-75936322D01*
X190442659Y-76101031D01*
X190864796Y-76185000D01*
X191295204Y-76185000D01*
X191717341Y-76101031D01*
X192114985Y-75936322D01*
X192472856Y-75697200D01*
X192600001Y-75570055D01*
X192600000Y-80950077D01*
X192596324Y-80987400D01*
X192600000Y-81024722D01*
X192600000Y-81024732D01*
X192610997Y-81136385D01*
X192641086Y-81235576D01*
X192654454Y-81279646D01*
X192725026Y-81411676D01*
X192753420Y-81446274D01*
X192819999Y-81527401D01*
X192849003Y-81551204D01*
X193812699Y-82514900D01*
X188306124Y-82514900D01*
X188278668Y-82376871D01*
X188208186Y-82206711D01*
X188105862Y-82053572D01*
X187975628Y-81923338D01*
X187822489Y-81821014D01*
X187786725Y-81806200D01*
X187854486Y-81704789D01*
X187924968Y-81534629D01*
X187960900Y-81353989D01*
X187960900Y-81169811D01*
X187924968Y-80989171D01*
X187854486Y-80819011D01*
X187752162Y-80665872D01*
X187621928Y-80535638D01*
X187468789Y-80433314D01*
X187298629Y-80362832D01*
X187284572Y-80360036D01*
X187280846Y-80347753D01*
X187210274Y-80215724D01*
X187115301Y-80099999D01*
X186999576Y-80005026D01*
X186999527Y-80005000D01*
X186999576Y-80004974D01*
X187115301Y-79910001D01*
X187139104Y-79880997D01*
X188571204Y-78448898D01*
X188600201Y-78425101D01*
X188695174Y-78309376D01*
X188765746Y-78177347D01*
X188809203Y-78034086D01*
X188820200Y-77922433D01*
X188820200Y-77922425D01*
X188823876Y-77885100D01*
X188820200Y-77847775D01*
X188820200Y-72932025D01*
X188823876Y-72894700D01*
X188820200Y-72857375D01*
X188820200Y-72857367D01*
X188809203Y-72745714D01*
X188765746Y-72602453D01*
X188695174Y-72470424D01*
X188600201Y-72354699D01*
X188571203Y-72330901D01*
X186629304Y-70389003D01*
X186605501Y-70359999D01*
X186489776Y-70265026D01*
X186357747Y-70194454D01*
X186214486Y-70150997D01*
X186102833Y-70140000D01*
X186102822Y-70140000D01*
X186065500Y-70136324D01*
X186028178Y-70140000D01*
X167189902Y-70140000D01*
X166738903Y-69689002D01*
X166715101Y-69659999D01*
X166599376Y-69565026D01*
X166467347Y-69494454D01*
X166324086Y-69450997D01*
X166212433Y-69440000D01*
X166212422Y-69440000D01*
X166175100Y-69436324D01*
X166137778Y-69440000D01*
X162545535Y-69440000D01*
X162442889Y-69371414D01*
X162272729Y-69300932D01*
X162092089Y-69265000D01*
X161907911Y-69265000D01*
X161727271Y-69300932D01*
X161557111Y-69371414D01*
X161403972Y-69473738D01*
X161273738Y-69603972D01*
X161171414Y-69757111D01*
X161100932Y-69927271D01*
X161065000Y-70107911D01*
X161065000Y-70292089D01*
X161100932Y-70472729D01*
X161171414Y-70642889D01*
X161273738Y-70796028D01*
X161403972Y-70926262D01*
X161557111Y-71028586D01*
X161727271Y-71099068D01*
X161907911Y-71135000D01*
X162092089Y-71135000D01*
X162272729Y-71099068D01*
X162442889Y-71028586D01*
X162545535Y-70960000D01*
X163010750Y-70960000D01*
X163048750Y-70998000D01*
X163873000Y-70998000D01*
X163873000Y-70978000D01*
X164127000Y-70978000D01*
X164127000Y-70998000D01*
X164951250Y-70998000D01*
X164989250Y-70960000D01*
X165451521Y-70960000D01*
X165342986Y-71072592D01*
X165227298Y-71252803D01*
X165155592Y-71455999D01*
X165282498Y-71623000D01*
X166640392Y-71623000D01*
X166726114Y-71649003D01*
X166837767Y-71660000D01*
X166837776Y-71660000D01*
X166875099Y-71663676D01*
X166912422Y-71660000D01*
X174861772Y-71660000D01*
X174847011Y-71666114D01*
X174693872Y-71768438D01*
X174563638Y-71898672D01*
X174461314Y-72051811D01*
X174390832Y-72221971D01*
X174366748Y-72343049D01*
X168858407Y-77851392D01*
X168807259Y-77682780D01*
X168706509Y-77494290D01*
X168682471Y-77465000D01*
X168706509Y-77435710D01*
X168807259Y-77247220D01*
X168869300Y-77042697D01*
X168890249Y-76830000D01*
X168869300Y-76617303D01*
X168807259Y-76412780D01*
X168706509Y-76224290D01*
X168682471Y-76195000D01*
X168706509Y-76165710D01*
X168807259Y-75977220D01*
X168869300Y-75772697D01*
X168890249Y-75560000D01*
X168869300Y-75347303D01*
X168807259Y-75142780D01*
X168706509Y-74954290D01*
X168682471Y-74925000D01*
X168706509Y-74895710D01*
X168807259Y-74707220D01*
X168869300Y-74502697D01*
X168890249Y-74290000D01*
X168869300Y-74077303D01*
X168807259Y-73872780D01*
X168706509Y-73684290D01*
X168682471Y-73655000D01*
X168706509Y-73625710D01*
X168807259Y-73437220D01*
X168869300Y-73232697D01*
X168890249Y-73020000D01*
X168869300Y-72807303D01*
X168807259Y-72602780D01*
X168706509Y-72414290D01*
X168683463Y-72386208D01*
X168772702Y-72247197D01*
X168844408Y-72044001D01*
X168717502Y-71877000D01*
X167127000Y-71877000D01*
X167127000Y-71892017D01*
X167055752Y-71885000D01*
X166873000Y-71885000D01*
X166873000Y-71877000D01*
X165282498Y-71877000D01*
X165276419Y-71885000D01*
X165067287Y-71885000D01*
X165100812Y-71774482D01*
X165113072Y-71650000D01*
X165110000Y-71410750D01*
X164951250Y-71252000D01*
X164127000Y-71252000D01*
X164127000Y-71272000D01*
X163873000Y-71272000D01*
X163873000Y-71252000D01*
X163048750Y-71252000D01*
X162890000Y-71410750D01*
X162886928Y-71650000D01*
X162899188Y-71774482D01*
X162935498Y-71894180D01*
X162994463Y-72004494D01*
X163054099Y-72077161D01*
X163034488Y-72101058D01*
X162953577Y-72252433D01*
X162925771Y-72344096D01*
X162904868Y-72365000D01*
X162345132Y-72365000D01*
X161499229Y-71519098D01*
X161471423Y-71427433D01*
X161390512Y-71276058D01*
X161281623Y-71143377D01*
X161148942Y-71034488D01*
X160997567Y-70953577D01*
X160833316Y-70903752D01*
X160662500Y-70886928D01*
X160615645Y-70886928D01*
X160597498Y-70881423D01*
X160375000Y-70859509D01*
X160152502Y-70881423D01*
X160134355Y-70886928D01*
X160087500Y-70886928D01*
X159916684Y-70903752D01*
X159752433Y-70953577D01*
X159601058Y-71034488D01*
X159500000Y-71117425D01*
X159398942Y-71034488D01*
X159247567Y-70953577D01*
X159083316Y-70903752D01*
X158912500Y-70886928D01*
X158337500Y-70886928D01*
X158166684Y-70903752D01*
X158002433Y-70953577D01*
X157851058Y-71034488D01*
X157718377Y-71143377D01*
X157609488Y-71276058D01*
X157528577Y-71427433D01*
X157478752Y-71591684D01*
X157461928Y-71762500D01*
X157461928Y-72237500D01*
X157478752Y-72408316D01*
X157528577Y-72572567D01*
X157609488Y-72723942D01*
X157718377Y-72856623D01*
X157851058Y-72965512D01*
X157865000Y-72972964D01*
X157865001Y-74606968D01*
X157861324Y-74644300D01*
X157865001Y-74681633D01*
X157875998Y-74793286D01*
X157881371Y-74810998D01*
X157919454Y-74936546D01*
X157990026Y-75068576D01*
X158056017Y-75148985D01*
X158085000Y-75184301D01*
X158113998Y-75208099D01*
X158555600Y-75649702D01*
X158555601Y-76486264D01*
X158487014Y-76588911D01*
X158416532Y-76759071D01*
X158389076Y-76897100D01*
X153574302Y-76897100D01*
X153498700Y-76821498D01*
X153498700Y-75901022D01*
X153502376Y-75863699D01*
X153498700Y-75826376D01*
X153498700Y-75826367D01*
X153487703Y-75714714D01*
X153444246Y-75571453D01*
X153373674Y-75439424D01*
X153278701Y-75323699D01*
X153249703Y-75299901D01*
X153038072Y-75088270D01*
X153038072Y-74762500D01*
X153021248Y-74591684D01*
X152971423Y-74427433D01*
X152890512Y-74276058D01*
X152781623Y-74143377D01*
X152648942Y-74034488D01*
X152497567Y-73953577D01*
X152333316Y-73903752D01*
X152162500Y-73886928D01*
X151587500Y-73886928D01*
X151416684Y-73903752D01*
X151252433Y-73953577D01*
X151101058Y-74034488D01*
X151010000Y-74109218D01*
X151010000Y-72972964D01*
X151023942Y-72965512D01*
X151125000Y-72882575D01*
X151226058Y-72965512D01*
X151377433Y-73046423D01*
X151541684Y-73096248D01*
X151712500Y-73113072D01*
X151759354Y-73113072D01*
X151777501Y-73118577D01*
X152000000Y-73140491D01*
X152222498Y-73118577D01*
X152240645Y-73113072D01*
X152287500Y-73113072D01*
X152458316Y-73096248D01*
X152622567Y-73046423D01*
X152773942Y-72965512D01*
X152906623Y-72856623D01*
X153015512Y-72723942D01*
X153096423Y-72572567D01*
X153146248Y-72408316D01*
X153163072Y-72237500D01*
X153163072Y-71762500D01*
X153146248Y-71591684D01*
X153135000Y-71554604D01*
X153135000Y-70070131D01*
X154441989Y-68763144D01*
X154548284Y-68633623D01*
X154653676Y-68436447D01*
X154718577Y-68222499D01*
X154740491Y-68000000D01*
X154718577Y-67777501D01*
X154653676Y-67563553D01*
X154548284Y-67366377D01*
X154477291Y-67279872D01*
X193265000Y-67279872D01*
X193265000Y-67720128D01*
X193350890Y-68151925D01*
X193519369Y-68558669D01*
X193763962Y-68924729D01*
X194075271Y-69236038D01*
X194441331Y-69480631D01*
X194848075Y-69649110D01*
X195279872Y-69735000D01*
X195720128Y-69735000D01*
X196151925Y-69649110D01*
X196558669Y-69480631D01*
X196924729Y-69236038D01*
X197236038Y-68924729D01*
X197480631Y-68558669D01*
X197649110Y-68151925D01*
X197735000Y-67720128D01*
X197735000Y-67279872D01*
X197649110Y-66848075D01*
X197480631Y-66441331D01*
X197236038Y-66075271D01*
X196924729Y-65763962D01*
X196558669Y-65519369D01*
X196151925Y-65350890D01*
X195720128Y-65265000D01*
X195279872Y-65265000D01*
X194848075Y-65350890D01*
X194441331Y-65519369D01*
X194075271Y-65763962D01*
X193763962Y-66075271D01*
X193519369Y-66441331D01*
X193350890Y-66848075D01*
X193265000Y-67279872D01*
X154477291Y-67279872D01*
X154406449Y-67193551D01*
X154233623Y-67051716D01*
X154036447Y-66946324D01*
X153822499Y-66881423D01*
X153600000Y-66859509D01*
X153377501Y-66881423D01*
X153163553Y-66946324D01*
X152966377Y-67051716D01*
X152836856Y-67158011D01*
X151236860Y-68758009D01*
X151193552Y-68793551D01*
X151051717Y-68966377D01*
X151046721Y-68975724D01*
X150946324Y-69163554D01*
X150881423Y-69377502D01*
X150859509Y-69600000D01*
X150865001Y-69655761D01*
X150865000Y-70951282D01*
X150708316Y-70903752D01*
X150537500Y-70886928D01*
X149962500Y-70886928D01*
X149791684Y-70903752D01*
X149627433Y-70953577D01*
X149476058Y-71034488D01*
X149343377Y-71143377D01*
X149234488Y-71276058D01*
X149153577Y-71427433D01*
X149103752Y-71591684D01*
X149086928Y-71762500D01*
X149086928Y-72237500D01*
X149103752Y-72408316D01*
X149153577Y-72572567D01*
X149234488Y-72723942D01*
X149343377Y-72856623D01*
X149476058Y-72965512D01*
X149490000Y-72972964D01*
X149490001Y-73960222D01*
X149351058Y-74034488D01*
X149218377Y-74143377D01*
X149109488Y-74276058D01*
X149028577Y-74427433D01*
X148978752Y-74591684D01*
X148961928Y-74762500D01*
X148961928Y-75237500D01*
X148978752Y-75408316D01*
X149028577Y-75572567D01*
X149109488Y-75723942D01*
X149218377Y-75856623D01*
X149351058Y-75965512D01*
X149502433Y-76046423D01*
X149666684Y-76096248D01*
X149837500Y-76113072D01*
X150163270Y-76113072D01*
X150263501Y-76213303D01*
X150263501Y-77037249D01*
X150252000Y-77048750D01*
X150252000Y-77873000D01*
X150263500Y-77873000D01*
X150263500Y-78122698D01*
X150259198Y-78127000D01*
X150252000Y-78127000D01*
X150252000Y-78134198D01*
X150239198Y-78147000D01*
X149998000Y-78147000D01*
X149998000Y-78127000D01*
X149123750Y-78127000D01*
X148965000Y-78285750D01*
X148961928Y-78475000D01*
X148974188Y-78599482D01*
X149010498Y-78719180D01*
X149069463Y-78829494D01*
X149148815Y-78926185D01*
X149245506Y-79005537D01*
X149333583Y-79052616D01*
X146341699Y-82044500D01*
X124366735Y-82044500D01*
X124264089Y-81975914D01*
X124093929Y-81905432D01*
X123913289Y-81869500D01*
X123729111Y-81869500D01*
X123548471Y-81905432D01*
X123411668Y-81962097D01*
X123408922Y-81943867D01*
X123315636Y-81684977D01*
X123253656Y-81569020D01*
X123013565Y-81502040D01*
X122227605Y-82288000D01*
X122241748Y-82302143D01*
X122062143Y-82481748D01*
X122048000Y-82467605D01*
X122033858Y-82481748D01*
X121854253Y-82302143D01*
X121868395Y-82288000D01*
X121082435Y-81502040D01*
X120842344Y-81569020D01*
X120725244Y-81818048D01*
X120658977Y-82085135D01*
X120646090Y-82360017D01*
X120687078Y-82632133D01*
X120726883Y-82742600D01*
X112090022Y-82742600D01*
X112052699Y-82738924D01*
X112015376Y-82742600D01*
X112015367Y-82742600D01*
X111903714Y-82753597D01*
X111760453Y-82797054D01*
X111628424Y-82867626D01*
X111612385Y-82880789D01*
X111541696Y-82938801D01*
X111541692Y-82938805D01*
X111512699Y-82962599D01*
X111488905Y-82991592D01*
X103100303Y-91380196D01*
X102946632Y-91226525D01*
X102703411Y-91064010D01*
X102433158Y-90952068D01*
X102146260Y-90895000D01*
X101853740Y-90895000D01*
X101566842Y-90952068D01*
X101296589Y-91064010D01*
X101053368Y-91226525D01*
X100846525Y-91433368D01*
X100684010Y-91676589D01*
X100572068Y-91946842D01*
X100515000Y-92233740D01*
X100515000Y-92526260D01*
X100572068Y-92813158D01*
X100684010Y-93083411D01*
X100846525Y-93326632D01*
X101053368Y-93533475D01*
X101227760Y-93650000D01*
X101053368Y-93766525D01*
X100846525Y-93973368D01*
X100684010Y-94216589D01*
X100572068Y-94486842D01*
X100515000Y-94773740D01*
X100515000Y-95066260D01*
X100572068Y-95353158D01*
X100684010Y-95623411D01*
X100846525Y-95866632D01*
X101053368Y-96073475D01*
X101227760Y-96190000D01*
X101053368Y-96306525D01*
X100846525Y-96513368D01*
X100684010Y-96756589D01*
X100572068Y-97026842D01*
X100515000Y-97313740D01*
X100515000Y-97606260D01*
X100572068Y-97893158D01*
X100684010Y-98163411D01*
X100846525Y-98406632D01*
X100978380Y-98538487D01*
X100905820Y-98560498D01*
X100795506Y-98619463D01*
X100698815Y-98698815D01*
X100619463Y-98795506D01*
X100560498Y-98905820D01*
X100524188Y-99025518D01*
X100511928Y-99150000D01*
X99710000Y-99150000D01*
X99710000Y-73784796D01*
X112815000Y-73784796D01*
X112815000Y-74215204D01*
X112898969Y-74637341D01*
X113063678Y-75034985D01*
X113302800Y-75392856D01*
X113607144Y-75697200D01*
X113965015Y-75936322D01*
X114362659Y-76101031D01*
X114784796Y-76185000D01*
X115215204Y-76185000D01*
X115637341Y-76101031D01*
X116034985Y-75936322D01*
X116392856Y-75697200D01*
X116697200Y-75392856D01*
X116936322Y-75034985D01*
X117101031Y-74637341D01*
X117185000Y-74215204D01*
X117185000Y-73784796D01*
X117101031Y-73362659D01*
X116936322Y-72965015D01*
X116697200Y-72607144D01*
X116392856Y-72302800D01*
X116034985Y-72063678D01*
X115637341Y-71898969D01*
X115215204Y-71815000D01*
X114784796Y-71815000D01*
X114362659Y-71898969D01*
X113965015Y-72063678D01*
X113607144Y-72302800D01*
X113302800Y-72607144D01*
X113063678Y-72965015D01*
X112898969Y-73362659D01*
X112815000Y-73784796D01*
X99710000Y-73784796D01*
X99710000Y-67279872D01*
X100265000Y-67279872D01*
X100265000Y-67720128D01*
X100350890Y-68151925D01*
X100519369Y-68558669D01*
X100763962Y-68924729D01*
X101075271Y-69236038D01*
X101441331Y-69480631D01*
X101848075Y-69649110D01*
X102279872Y-69735000D01*
X102720128Y-69735000D01*
X103151925Y-69649110D01*
X103558669Y-69480631D01*
X103924729Y-69236038D01*
X104236038Y-68924729D01*
X104480631Y-68558669D01*
X104649110Y-68151925D01*
X104735000Y-67720128D01*
X104735000Y-67279872D01*
X104661509Y-66910408D01*
X120651000Y-66910408D01*
X120651000Y-67185592D01*
X120704686Y-67455490D01*
X120809995Y-67709727D01*
X120962880Y-67938535D01*
X121157465Y-68133120D01*
X121386273Y-68286005D01*
X121463515Y-68318000D01*
X121386273Y-68349995D01*
X121157465Y-68502880D01*
X120962880Y-68697465D01*
X120809995Y-68926273D01*
X120704686Y-69180510D01*
X120651000Y-69450408D01*
X120651000Y-69725592D01*
X120704686Y-69995490D01*
X120809995Y-70249727D01*
X120962880Y-70478535D01*
X121157465Y-70673120D01*
X121386273Y-70826005D01*
X121463515Y-70858000D01*
X121386273Y-70889995D01*
X121157465Y-71042880D01*
X120962880Y-71237465D01*
X120809995Y-71466273D01*
X120704686Y-71720510D01*
X120651000Y-71990408D01*
X120651000Y-72265592D01*
X120704686Y-72535490D01*
X120809995Y-72789727D01*
X120962880Y-73018535D01*
X121157465Y-73213120D01*
X121386273Y-73366005D01*
X121463515Y-73398000D01*
X121386273Y-73429995D01*
X121157465Y-73582880D01*
X120962880Y-73777465D01*
X120809995Y-74006273D01*
X120704686Y-74260510D01*
X120651000Y-74530408D01*
X120651000Y-74805592D01*
X120704686Y-75075490D01*
X120809995Y-75329727D01*
X120962880Y-75558535D01*
X121157465Y-75753120D01*
X121386273Y-75906005D01*
X121463515Y-75938000D01*
X121386273Y-75969995D01*
X121157465Y-76122880D01*
X120962880Y-76317465D01*
X120809995Y-76546273D01*
X120704686Y-76800510D01*
X120651000Y-77070408D01*
X120651000Y-77345592D01*
X120704686Y-77615490D01*
X120809995Y-77869727D01*
X120962880Y-78098535D01*
X121157465Y-78293120D01*
X121386273Y-78446005D01*
X121463515Y-78478000D01*
X121386273Y-78509995D01*
X121157465Y-78662880D01*
X120962880Y-78857465D01*
X120809995Y-79086273D01*
X120704686Y-79340510D01*
X120651000Y-79610408D01*
X120651000Y-79885592D01*
X120704686Y-80155490D01*
X120809995Y-80409727D01*
X120962880Y-80638535D01*
X121157465Y-80833120D01*
X121386273Y-80986005D01*
X121457943Y-81015692D01*
X121444977Y-81020364D01*
X121329020Y-81082344D01*
X121262040Y-81322435D01*
X122048000Y-82108395D01*
X122833960Y-81322435D01*
X122766980Y-81082344D01*
X122631240Y-81018515D01*
X122709727Y-80986005D01*
X122938535Y-80833120D01*
X123133120Y-80638535D01*
X123286005Y-80409727D01*
X123391314Y-80155490D01*
X123445000Y-79885592D01*
X123445000Y-79610408D01*
X123391314Y-79340510D01*
X123286005Y-79086273D01*
X123133120Y-78857465D01*
X122938535Y-78662880D01*
X122709727Y-78509995D01*
X122632485Y-78478000D01*
X122709727Y-78446005D01*
X122938535Y-78293120D01*
X123133120Y-78098535D01*
X123286005Y-77869727D01*
X123391314Y-77615490D01*
X123409313Y-77525000D01*
X148961928Y-77525000D01*
X148965000Y-77714250D01*
X149123750Y-77873000D01*
X149998000Y-77873000D01*
X149998000Y-77048750D01*
X149839250Y-76890000D01*
X149600000Y-76886928D01*
X149475518Y-76899188D01*
X149355820Y-76935498D01*
X149245506Y-76994463D01*
X149148815Y-77073815D01*
X149069463Y-77170506D01*
X149010498Y-77280820D01*
X148974188Y-77400518D01*
X148961928Y-77525000D01*
X123409313Y-77525000D01*
X123445000Y-77345592D01*
X123445000Y-77070408D01*
X123391314Y-76800510D01*
X123286005Y-76546273D01*
X123133120Y-76317465D01*
X122938535Y-76122880D01*
X122709727Y-75969995D01*
X122632485Y-75938000D01*
X122709727Y-75906005D01*
X122938535Y-75753120D01*
X123133120Y-75558535D01*
X123220341Y-75428000D01*
X126305350Y-75428000D01*
X126351058Y-75465512D01*
X126502433Y-75546423D01*
X126666684Y-75596248D01*
X126837500Y-75613072D01*
X127412500Y-75613072D01*
X127583316Y-75596248D01*
X127747567Y-75546423D01*
X127898942Y-75465512D01*
X128000000Y-75382575D01*
X128101058Y-75465512D01*
X128252433Y-75546423D01*
X128416684Y-75596248D01*
X128587500Y-75613072D01*
X129162500Y-75613072D01*
X129333316Y-75596248D01*
X129497567Y-75546423D01*
X129648942Y-75465512D01*
X129781623Y-75356623D01*
X129860920Y-75260000D01*
X130014080Y-75260000D01*
X130093377Y-75356623D01*
X130226058Y-75465512D01*
X130377433Y-75546423D01*
X130541684Y-75596248D01*
X130712500Y-75613072D01*
X131287500Y-75613072D01*
X131458316Y-75596248D01*
X131622567Y-75546423D01*
X131773942Y-75465512D01*
X131797839Y-75445901D01*
X131870506Y-75505537D01*
X131980820Y-75564502D01*
X132100518Y-75600812D01*
X132225000Y-75613072D01*
X132464250Y-75610000D01*
X132623000Y-75451250D01*
X132623000Y-74627000D01*
X132877000Y-74627000D01*
X132877000Y-75451250D01*
X133035750Y-75610000D01*
X133275000Y-75613072D01*
X133399482Y-75600812D01*
X133519180Y-75564502D01*
X133629494Y-75505537D01*
X133726185Y-75426185D01*
X133805537Y-75329494D01*
X133864502Y-75219180D01*
X133900812Y-75099482D01*
X133913072Y-74975000D01*
X133910000Y-74785750D01*
X133751250Y-74627000D01*
X132877000Y-74627000D01*
X132623000Y-74627000D01*
X132603000Y-74627000D01*
X132603000Y-74373000D01*
X132623000Y-74373000D01*
X132623000Y-74353000D01*
X132877000Y-74353000D01*
X132877000Y-74373000D01*
X133751250Y-74373000D01*
X133910000Y-74214250D01*
X133913072Y-74025000D01*
X133902632Y-73919000D01*
X146226567Y-73919000D01*
X146263900Y-73922677D01*
X146301233Y-73919000D01*
X146412886Y-73908003D01*
X146556147Y-73864546D01*
X146688176Y-73793974D01*
X146803901Y-73699001D01*
X146898874Y-73583276D01*
X146969446Y-73451247D01*
X147012903Y-73307986D01*
X147027577Y-73159000D01*
X147023900Y-73121667D01*
X147023900Y-73050901D01*
X148951649Y-71123153D01*
X149072729Y-71099068D01*
X149242889Y-71028586D01*
X149396028Y-70926262D01*
X149526262Y-70796028D01*
X149628586Y-70642889D01*
X149699068Y-70472729D01*
X149735000Y-70292089D01*
X149735000Y-70107911D01*
X149699068Y-69927271D01*
X149628586Y-69757111D01*
X149526262Y-69603972D01*
X149396028Y-69473738D01*
X149242889Y-69371414D01*
X149072729Y-69300932D01*
X148892089Y-69265000D01*
X148707911Y-69265000D01*
X148527271Y-69300932D01*
X148357111Y-69371414D01*
X148203972Y-69473738D01*
X148073738Y-69603972D01*
X147971414Y-69757111D01*
X147900932Y-69927271D01*
X147876847Y-70048351D01*
X145752898Y-72172301D01*
X145723900Y-72196099D01*
X145628926Y-72311824D01*
X145582329Y-72399000D01*
X132378322Y-72399000D01*
X132340999Y-72395324D01*
X132303676Y-72399000D01*
X132303667Y-72399000D01*
X132192014Y-72409997D01*
X132048753Y-72453454D01*
X131916724Y-72524026D01*
X131916722Y-72524027D01*
X131916723Y-72524027D01*
X131829996Y-72595201D01*
X131829992Y-72595205D01*
X131800999Y-72618999D01*
X131777205Y-72647992D01*
X131038270Y-73386928D01*
X130712500Y-73386928D01*
X130541684Y-73403752D01*
X130377433Y-73453577D01*
X130226058Y-73534488D01*
X130093377Y-73643377D01*
X130014080Y-73740000D01*
X129860920Y-73740000D01*
X129781623Y-73643377D01*
X129648942Y-73534488D01*
X129497567Y-73453577D01*
X129333316Y-73403752D01*
X129299391Y-73400411D01*
X130939803Y-71760000D01*
X144762678Y-71760000D01*
X144800000Y-71763676D01*
X144837322Y-71760000D01*
X144837333Y-71760000D01*
X144948986Y-71749003D01*
X145092247Y-71705546D01*
X145224276Y-71634974D01*
X145340001Y-71540001D01*
X145363804Y-71510997D01*
X146551649Y-70323153D01*
X146672729Y-70299068D01*
X146842889Y-70228586D01*
X146996028Y-70126262D01*
X147126262Y-69996028D01*
X147228586Y-69842889D01*
X147299068Y-69672729D01*
X147335000Y-69492089D01*
X147335000Y-69307911D01*
X147299068Y-69127271D01*
X147228586Y-68957111D01*
X147126262Y-68803972D01*
X146996028Y-68673738D01*
X146842889Y-68571414D01*
X146672729Y-68500932D01*
X146492089Y-68465000D01*
X146307911Y-68465000D01*
X146127271Y-68500932D01*
X145957111Y-68571414D01*
X145803972Y-68673738D01*
X145673738Y-68803972D01*
X145571414Y-68957111D01*
X145500932Y-69127271D01*
X145476847Y-69248351D01*
X144485199Y-70240000D01*
X130662322Y-70240000D01*
X130624999Y-70236324D01*
X130587676Y-70240000D01*
X130587667Y-70240000D01*
X130476014Y-70250997D01*
X130332753Y-70294454D01*
X130200724Y-70365026D01*
X130200722Y-70365027D01*
X130200723Y-70365027D01*
X130113996Y-70436201D01*
X130113992Y-70436205D01*
X130084999Y-70459999D01*
X130061205Y-70488992D01*
X127163271Y-73386928D01*
X126837500Y-73386928D01*
X126666684Y-73403752D01*
X126502433Y-73453577D01*
X126351058Y-73534488D01*
X126218377Y-73643377D01*
X126109488Y-73776058D01*
X126038964Y-73908000D01*
X123220341Y-73908000D01*
X123133120Y-73777465D01*
X122938535Y-73582880D01*
X122709727Y-73429995D01*
X122632485Y-73398000D01*
X122709727Y-73366005D01*
X122938535Y-73213120D01*
X123133120Y-73018535D01*
X123286005Y-72789727D01*
X123391314Y-72535490D01*
X123445000Y-72265592D01*
X123445000Y-71990408D01*
X123391314Y-71720510D01*
X123286005Y-71466273D01*
X123133120Y-71237465D01*
X122938535Y-71042880D01*
X122709727Y-70889995D01*
X122632485Y-70858000D01*
X122709727Y-70826005D01*
X122938535Y-70673120D01*
X123133120Y-70478535D01*
X123286005Y-70249727D01*
X123391314Y-69995490D01*
X123445000Y-69725592D01*
X123445000Y-69450408D01*
X123391314Y-69180510D01*
X123286005Y-68926273D01*
X123133120Y-68697465D01*
X122938535Y-68502880D01*
X122709727Y-68349995D01*
X122632485Y-68318000D01*
X122709727Y-68286005D01*
X122938535Y-68133120D01*
X123133120Y-67938535D01*
X123286005Y-67709727D01*
X123391314Y-67455490D01*
X123445000Y-67185592D01*
X123445000Y-66910408D01*
X123391314Y-66640510D01*
X123286005Y-66386273D01*
X123133120Y-66157465D01*
X122938535Y-65962880D01*
X122709727Y-65809995D01*
X122455490Y-65704686D01*
X122185592Y-65651000D01*
X121910408Y-65651000D01*
X121640510Y-65704686D01*
X121386273Y-65809995D01*
X121157465Y-65962880D01*
X120962880Y-66157465D01*
X120809995Y-66386273D01*
X120704686Y-66640510D01*
X120651000Y-66910408D01*
X104661509Y-66910408D01*
X104649110Y-66848075D01*
X104480631Y-66441331D01*
X104236038Y-66075271D01*
X103924729Y-65763962D01*
X103558669Y-65519369D01*
X103151925Y-65350890D01*
X102720128Y-65265000D01*
X102279872Y-65265000D01*
X101848075Y-65350890D01*
X101441331Y-65519369D01*
X101075271Y-65763962D01*
X100763962Y-66075271D01*
X100519369Y-66441331D01*
X100350890Y-66848075D01*
X100265000Y-67279872D01*
X99710000Y-67279872D01*
X99710000Y-64710000D01*
X198290000Y-64710000D01*
X198290001Y-126215161D01*
G04 #@! TA.AperFunction,Conductor*
D29*
G36*
X198290001Y-126215161D02*
G01*
X198162795Y-125977176D01*
X197989331Y-125765809D01*
X197777964Y-125592345D01*
X197536817Y-125463449D01*
X197275157Y-125384075D01*
X197071229Y-125363990D01*
X195426091Y-125363990D01*
X195222163Y-125384075D01*
X194960503Y-125463449D01*
X194719356Y-125592345D01*
X194507989Y-125765809D01*
X194334525Y-125977176D01*
X194326548Y-125992100D01*
X191673452Y-125992100D01*
X191665475Y-125977176D01*
X191492011Y-125765809D01*
X191280644Y-125592345D01*
X191039497Y-125463449D01*
X190777837Y-125384075D01*
X190573909Y-125363990D01*
X188928771Y-125363990D01*
X188724843Y-125384075D01*
X188463183Y-125463449D01*
X188222036Y-125592345D01*
X188010669Y-125765809D01*
X187837205Y-125977176D01*
X187708309Y-126218323D01*
X187628935Y-126479983D01*
X187602134Y-126752100D01*
X187628935Y-127024217D01*
X187708309Y-127285877D01*
X187837205Y-127527024D01*
X188010669Y-127738391D01*
X188222036Y-127911855D01*
X188463183Y-128040751D01*
X188724843Y-128120125D01*
X188928771Y-128140210D01*
X190573909Y-128140210D01*
X190777837Y-128120125D01*
X191039497Y-128040751D01*
X191280644Y-127911855D01*
X191492011Y-127738391D01*
X191665475Y-127527024D01*
X191673452Y-127512100D01*
X194326548Y-127512100D01*
X194334525Y-127527024D01*
X194507989Y-127738391D01*
X194719356Y-127911855D01*
X194960503Y-128040751D01*
X195222163Y-128120125D01*
X195426091Y-128140210D01*
X197071229Y-128140210D01*
X197275157Y-128120125D01*
X197536817Y-128040751D01*
X197777964Y-127911855D01*
X197989331Y-127738391D01*
X198162795Y-127527024D01*
X198290001Y-127289039D01*
X198290001Y-130710961D01*
X198162795Y-130472976D01*
X197989331Y-130261609D01*
X197777964Y-130088145D01*
X197536817Y-129959249D01*
X197275157Y-129879875D01*
X197071229Y-129859790D01*
X195426091Y-129859790D01*
X195222163Y-129879875D01*
X194960503Y-129959249D01*
X194719356Y-130088145D01*
X194507989Y-130261609D01*
X194334525Y-130472976D01*
X194326548Y-130487900D01*
X191673452Y-130487900D01*
X191665475Y-130472976D01*
X191492011Y-130261609D01*
X191280644Y-130088145D01*
X191039497Y-129959249D01*
X190777837Y-129879875D01*
X190573909Y-129859790D01*
X188928771Y-129859790D01*
X188724843Y-129879875D01*
X188463183Y-129959249D01*
X188222036Y-130088145D01*
X188010669Y-130261609D01*
X187837205Y-130472976D01*
X187708309Y-130714123D01*
X187628935Y-130975783D01*
X187602134Y-131247900D01*
X187628935Y-131520017D01*
X187708309Y-131781677D01*
X187837205Y-132022824D01*
X188010669Y-132234191D01*
X188222036Y-132407655D01*
X188463183Y-132536551D01*
X188724843Y-132615925D01*
X188928771Y-132636010D01*
X190573909Y-132636010D01*
X190777837Y-132615925D01*
X191039497Y-132536551D01*
X191280644Y-132407655D01*
X191492011Y-132234191D01*
X191665475Y-132022824D01*
X191673452Y-132007900D01*
X194326548Y-132007900D01*
X194334525Y-132022824D01*
X194507989Y-132234191D01*
X194719356Y-132407655D01*
X194960503Y-132536551D01*
X195222163Y-132615925D01*
X195426091Y-132636010D01*
X197071229Y-132636010D01*
X197275157Y-132615925D01*
X197536817Y-132536551D01*
X197777964Y-132407655D01*
X197989331Y-132234191D01*
X198162795Y-132022824D01*
X198290001Y-131784839D01*
X198290001Y-140290000D01*
X99710000Y-140290000D01*
X99710000Y-137279872D01*
X100265000Y-137279872D01*
X100265000Y-137720128D01*
X100350890Y-138151925D01*
X100519369Y-138558669D01*
X100763962Y-138924729D01*
X101075271Y-139236038D01*
X101441331Y-139480631D01*
X101848075Y-139649110D01*
X102279872Y-139735000D01*
X102720128Y-139735000D01*
X103151925Y-139649110D01*
X103558669Y-139480631D01*
X103924729Y-139236038D01*
X104236038Y-138924729D01*
X104480631Y-138558669D01*
X104649110Y-138151925D01*
X104735000Y-137720128D01*
X104735000Y-137279872D01*
X104649110Y-136848075D01*
X104480631Y-136441331D01*
X104236038Y-136075271D01*
X103924729Y-135763962D01*
X103558669Y-135519369D01*
X103151925Y-135350890D01*
X102720128Y-135265000D01*
X102279872Y-135265000D01*
X101848075Y-135350890D01*
X101441331Y-135519369D01*
X101075271Y-135763962D01*
X100763962Y-136075271D01*
X100519369Y-136441331D01*
X100350890Y-136848075D01*
X100265000Y-137279872D01*
X99710000Y-137279872D01*
X99710000Y-99150000D01*
X100511928Y-99150000D01*
X100511928Y-100850000D01*
X100524188Y-100974482D01*
X100560498Y-101094180D01*
X100619463Y-101204494D01*
X100698815Y-101301185D01*
X100795506Y-101380537D01*
X100905820Y-101439502D01*
X101025518Y-101475812D01*
X101150000Y-101488072D01*
X102850000Y-101488072D01*
X102974482Y-101475812D01*
X103094180Y-101439502D01*
X103204494Y-101380537D01*
X103301185Y-101301185D01*
X103380537Y-101204494D01*
X103439502Y-101094180D01*
X103475812Y-100974482D01*
X103488072Y-100850000D01*
X103488072Y-99150000D01*
X103475812Y-99025518D01*
X103439502Y-98905820D01*
X103380537Y-98795506D01*
X103301185Y-98698815D01*
X103204494Y-98619463D01*
X103094180Y-98560498D01*
X103021620Y-98538487D01*
X103153475Y-98406632D01*
X103315990Y-98163411D01*
X103427932Y-97893158D01*
X103485000Y-97606260D01*
X103485000Y-97313740D01*
X103427932Y-97026842D01*
X103315990Y-96756589D01*
X103153475Y-96513368D01*
X102946632Y-96306525D01*
X102772240Y-96190000D01*
X102946632Y-96073475D01*
X103153475Y-95866632D01*
X103315990Y-95623411D01*
X103427932Y-95353158D01*
X103485000Y-95066260D01*
X103485000Y-94773740D01*
X103427932Y-94486842D01*
X103315990Y-94216589D01*
X103153475Y-93973368D01*
X102946632Y-93766525D01*
X102772240Y-93650000D01*
X102946632Y-93533475D01*
X103153475Y-93326632D01*
X103282796Y-93133089D01*
X103324286Y-93129003D01*
X103467547Y-93085546D01*
X103599576Y-93014974D01*
X103715301Y-92920001D01*
X103739104Y-92890997D01*
X104365001Y-92265100D01*
X104365000Y-132419681D01*
X104357089Y-132500000D01*
X104365000Y-132580319D01*
X104365000Y-132580321D01*
X104388657Y-132820515D01*
X104482148Y-133128714D01*
X104633969Y-133412751D01*
X104838286Y-133661714D01*
X104900687Y-133712925D01*
X109787080Y-138599319D01*
X109838286Y-138661714D01*
X110087248Y-138866031D01*
X110371285Y-139017852D01*
X110679483Y-139111343D01*
X111000000Y-139142911D01*
X111080322Y-139135000D01*
X127419678Y-139135000D01*
X127500000Y-139142911D01*
X127820516Y-139111343D01*
X128128715Y-139017852D01*
X128412752Y-138866031D01*
X128661714Y-138661714D01*
X128866031Y-138412752D01*
X129017852Y-138128715D01*
X129111343Y-137820516D01*
X129135000Y-137580322D01*
X129142911Y-137500000D01*
X129135000Y-137419678D01*
X129135000Y-137279872D01*
X193265000Y-137279872D01*
X193265000Y-137720128D01*
X193350890Y-138151925D01*
X193519369Y-138558669D01*
X193763962Y-138924729D01*
X194075271Y-139236038D01*
X194441331Y-139480631D01*
X194848075Y-139649110D01*
X195279872Y-139735000D01*
X195720128Y-139735000D01*
X196151925Y-139649110D01*
X196558669Y-139480631D01*
X196924729Y-139236038D01*
X197236038Y-138924729D01*
X197480631Y-138558669D01*
X197649110Y-138151925D01*
X197735000Y-137720128D01*
X197735000Y-137279872D01*
X197649110Y-136848075D01*
X197480631Y-136441331D01*
X197236038Y-136075271D01*
X196924729Y-135763962D01*
X196558669Y-135519369D01*
X196151925Y-135350890D01*
X195720128Y-135265000D01*
X195279872Y-135265000D01*
X194848075Y-135350890D01*
X194441331Y-135519369D01*
X194075271Y-135763962D01*
X193763962Y-136075271D01*
X193519369Y-136441331D01*
X193350890Y-136848075D01*
X193265000Y-137279872D01*
X129135000Y-137279872D01*
X129135000Y-135975000D01*
X133011928Y-135975000D01*
X133024188Y-136099482D01*
X133060498Y-136219180D01*
X133119463Y-136329494D01*
X133198815Y-136426185D01*
X133295506Y-136505537D01*
X133405820Y-136564502D01*
X133525518Y-136600812D01*
X133650000Y-136613072D01*
X134214250Y-136610000D01*
X134373000Y-136451250D01*
X134373000Y-135127000D01*
X133173750Y-135127000D01*
X133015000Y-135285750D01*
X133011928Y-135975000D01*
X129135000Y-135975000D01*
X129135000Y-134919678D01*
X129111343Y-134679484D01*
X129017852Y-134371285D01*
X128866031Y-134087248D01*
X128814946Y-134025000D01*
X133011928Y-134025000D01*
X133015000Y-134714250D01*
X133173750Y-134873000D01*
X134373000Y-134873000D01*
X134373000Y-133548750D01*
X134214250Y-133390000D01*
X133650000Y-133386928D01*
X133525518Y-133399188D01*
X133405820Y-133435498D01*
X133295506Y-133494463D01*
X133198815Y-133573815D01*
X133119463Y-133670506D01*
X133060498Y-133780820D01*
X133024188Y-133900518D01*
X133011928Y-134025000D01*
X128814946Y-134025000D01*
X128661714Y-133838286D01*
X128412751Y-133633969D01*
X128128714Y-133482148D01*
X127820515Y-133388657D01*
X127500000Y-133357089D01*
X127179484Y-133388657D01*
X126871285Y-133482148D01*
X126587248Y-133633969D01*
X126439279Y-133755403D01*
X126380537Y-133645506D01*
X126301185Y-133548815D01*
X126204494Y-133469463D01*
X126094180Y-133410498D01*
X125974482Y-133374188D01*
X125850000Y-133361928D01*
X125285750Y-133365000D01*
X125127000Y-133523750D01*
X125127000Y-134873000D01*
X125147000Y-134873000D01*
X125147000Y-135127000D01*
X125127000Y-135127000D01*
X125127000Y-135147000D01*
X124873000Y-135147000D01*
X124873000Y-135127000D01*
X123673750Y-135127000D01*
X123515000Y-135285750D01*
X123512509Y-135865000D01*
X111677239Y-135865000D01*
X109812239Y-134000000D01*
X123511928Y-134000000D01*
X123515000Y-134714250D01*
X123673750Y-134873000D01*
X124873000Y-134873000D01*
X124873000Y-133523750D01*
X124714250Y-133365000D01*
X124150000Y-133361928D01*
X124025518Y-133374188D01*
X123905820Y-133410498D01*
X123795506Y-133469463D01*
X123698815Y-133548815D01*
X123619463Y-133645506D01*
X123560498Y-133755820D01*
X123524188Y-133875518D01*
X123511928Y-134000000D01*
X109812239Y-134000000D01*
X108189159Y-132376921D01*
X108348420Y-132481745D01*
X108601593Y-132584561D01*
X108869960Y-132636010D01*
X109624340Y-132636010D01*
X109624340Y-131374900D01*
X109878340Y-131374900D01*
X109878340Y-132636010D01*
X110632720Y-132636010D01*
X110901087Y-132584561D01*
X111154260Y-132481745D01*
X111382510Y-132331513D01*
X111577065Y-132139638D01*
X111730449Y-131913494D01*
X111836767Y-131661772D01*
X111851123Y-131589574D01*
X114148877Y-131589574D01*
X114163233Y-131661772D01*
X114269551Y-131913494D01*
X114422935Y-132139638D01*
X114617490Y-132331513D01*
X114845740Y-132481745D01*
X115098913Y-132584561D01*
X115367280Y-132636010D01*
X116121660Y-132636010D01*
X116121660Y-131374900D01*
X116375660Y-131374900D01*
X116375660Y-132636010D01*
X117130040Y-132636010D01*
X117398407Y-132584561D01*
X117651580Y-132481745D01*
X117879830Y-132331513D01*
X118074385Y-132139638D01*
X118227769Y-131913494D01*
X118334087Y-131661772D01*
X118348443Y-131589574D01*
X118900557Y-131589574D01*
X118914913Y-131661772D01*
X119021231Y-131913494D01*
X119174615Y-132139638D01*
X119369170Y-132331513D01*
X119597420Y-132481745D01*
X119850593Y-132584561D01*
X120118960Y-132636010D01*
X120873340Y-132636010D01*
X120873340Y-131374900D01*
X121127340Y-131374900D01*
X121127340Y-132636010D01*
X121881720Y-132636010D01*
X122150087Y-132584561D01*
X122403260Y-132481745D01*
X122631510Y-132331513D01*
X122826065Y-132139638D01*
X122979449Y-131913494D01*
X123085767Y-131661772D01*
X123100123Y-131589574D01*
X125397877Y-131589574D01*
X125412233Y-131661772D01*
X125518551Y-131913494D01*
X125671935Y-132139638D01*
X125866490Y-132331513D01*
X126094740Y-132481745D01*
X126347913Y-132584561D01*
X126616280Y-132636010D01*
X127370660Y-132636010D01*
X127370660Y-131374900D01*
X127624660Y-131374900D01*
X127624660Y-132636010D01*
X128379040Y-132636010D01*
X128647407Y-132584561D01*
X128900580Y-132481745D01*
X129128830Y-132331513D01*
X129323385Y-132139638D01*
X129476769Y-131913494D01*
X129583087Y-131661772D01*
X129597443Y-131589574D01*
X129474822Y-131374900D01*
X127624660Y-131374900D01*
X127370660Y-131374900D01*
X125520498Y-131374900D01*
X125397877Y-131589574D01*
X123100123Y-131589574D01*
X122977502Y-131374900D01*
X121127340Y-131374900D01*
X120873340Y-131374900D01*
X119023178Y-131374900D01*
X118900557Y-131589574D01*
X118348443Y-131589574D01*
X118225822Y-131374900D01*
X116375660Y-131374900D01*
X116121660Y-131374900D01*
X114271498Y-131374900D01*
X114148877Y-131589574D01*
X111851123Y-131589574D01*
X111728502Y-131374900D01*
X109878340Y-131374900D01*
X109624340Y-131374900D01*
X109604340Y-131374900D01*
X109604340Y-131120900D01*
X109624340Y-131120900D01*
X109624340Y-129859790D01*
X109878340Y-129859790D01*
X109878340Y-131120900D01*
X111728502Y-131120900D01*
X111851123Y-130906226D01*
X114148877Y-130906226D01*
X114271498Y-131120900D01*
X116121660Y-131120900D01*
X116121660Y-129859790D01*
X116375660Y-129859790D01*
X116375660Y-131120900D01*
X118225822Y-131120900D01*
X118348443Y-130906226D01*
X118900557Y-130906226D01*
X119023178Y-131120900D01*
X120873340Y-131120900D01*
X120873340Y-129859790D01*
X121127340Y-129859790D01*
X121127340Y-131120900D01*
X122977502Y-131120900D01*
X123100123Y-130906226D01*
X125397877Y-130906226D01*
X125520498Y-131120900D01*
X127370660Y-131120900D01*
X127370660Y-129859790D01*
X127624660Y-129859790D01*
X127624660Y-131120900D01*
X129474822Y-131120900D01*
X129597443Y-130906226D01*
X129583087Y-130834028D01*
X129476769Y-130582306D01*
X129323385Y-130356162D01*
X129128830Y-130164287D01*
X128900580Y-130014055D01*
X128647407Y-129911239D01*
X128379040Y-129859790D01*
X127624660Y-129859790D01*
X127370660Y-129859790D01*
X126616280Y-129859790D01*
X126347913Y-129911239D01*
X126094740Y-130014055D01*
X125866490Y-130164287D01*
X125671935Y-130356162D01*
X125518551Y-130582306D01*
X125412233Y-130834028D01*
X125397877Y-130906226D01*
X123100123Y-130906226D01*
X123085767Y-130834028D01*
X122979449Y-130582306D01*
X122826065Y-130356162D01*
X122631510Y-130164287D01*
X122403260Y-130014055D01*
X122150087Y-129911239D01*
X121881720Y-129859790D01*
X121127340Y-129859790D01*
X120873340Y-129859790D01*
X120118960Y-129859790D01*
X119850593Y-129911239D01*
X119597420Y-130014055D01*
X119369170Y-130164287D01*
X119174615Y-130356162D01*
X119021231Y-130582306D01*
X118914913Y-130834028D01*
X118900557Y-130906226D01*
X118348443Y-130906226D01*
X118334087Y-130834028D01*
X118227769Y-130582306D01*
X118074385Y-130356162D01*
X117879830Y-130164287D01*
X117651580Y-130014055D01*
X117398407Y-129911239D01*
X117130040Y-129859790D01*
X116375660Y-129859790D01*
X116121660Y-129859790D01*
X115367280Y-129859790D01*
X115098913Y-129911239D01*
X114845740Y-130014055D01*
X114617490Y-130164287D01*
X114422935Y-130356162D01*
X114269551Y-130582306D01*
X114163233Y-130834028D01*
X114148877Y-130906226D01*
X111851123Y-130906226D01*
X111836767Y-130834028D01*
X111730449Y-130582306D01*
X111577065Y-130356162D01*
X111382510Y-130164287D01*
X111154260Y-130014055D01*
X110901087Y-129911239D01*
X110632720Y-129859790D01*
X109878340Y-129859790D01*
X109624340Y-129859790D01*
X108869960Y-129859790D01*
X108601593Y-129911239D01*
X108348420Y-130014055D01*
X108120170Y-130164287D01*
X107925615Y-130356162D01*
X107772231Y-130582306D01*
X107665913Y-130834028D01*
X107651557Y-130906226D01*
X107774177Y-131120898D01*
X107635000Y-131120898D01*
X107635000Y-127044211D01*
X107708309Y-127285877D01*
X107837205Y-127527024D01*
X108010669Y-127738391D01*
X108222036Y-127911855D01*
X108463183Y-128040751D01*
X108724843Y-128120125D01*
X108928771Y-128140210D01*
X110573909Y-128140210D01*
X110777837Y-128120125D01*
X111039497Y-128040751D01*
X111280644Y-127911855D01*
X111492011Y-127738391D01*
X111665475Y-127527024D01*
X111673452Y-127512100D01*
X114326548Y-127512100D01*
X114334525Y-127527024D01*
X114507989Y-127738391D01*
X114719356Y-127911855D01*
X114960503Y-128040751D01*
X115222163Y-128120125D01*
X115426091Y-128140210D01*
X117071229Y-128140210D01*
X117275157Y-128120125D01*
X117536817Y-128040751D01*
X117777964Y-127911855D01*
X117989331Y-127738391D01*
X118162795Y-127527024D01*
X118291691Y-127285877D01*
X118371065Y-127024217D01*
X118397866Y-126752100D01*
X118371065Y-126479983D01*
X118291691Y-126218323D01*
X118162795Y-125977176D01*
X118133780Y-125941821D01*
X119184402Y-124891200D01*
X131541810Y-124891200D01*
X131523738Y-124909272D01*
X131421414Y-125062411D01*
X131350932Y-125232571D01*
X131315000Y-125413211D01*
X131315000Y-125568184D01*
X131273942Y-125534488D01*
X131122567Y-125453577D01*
X130958316Y-125403752D01*
X130787500Y-125386928D01*
X130212500Y-125386928D01*
X130041684Y-125403752D01*
X129877433Y-125453577D01*
X129726058Y-125534488D01*
X129593377Y-125643377D01*
X129484488Y-125776058D01*
X129403577Y-125927433D01*
X129394778Y-125956440D01*
X129238331Y-125765809D01*
X129026964Y-125592345D01*
X128785817Y-125463449D01*
X128524157Y-125384075D01*
X128320229Y-125363990D01*
X126675091Y-125363990D01*
X126471163Y-125384075D01*
X126209503Y-125463449D01*
X125968356Y-125592345D01*
X125756989Y-125765809D01*
X125583525Y-125977176D01*
X125575548Y-125992100D01*
X122922452Y-125992100D01*
X122914475Y-125977176D01*
X122741011Y-125765809D01*
X122529644Y-125592345D01*
X122288497Y-125463449D01*
X122026837Y-125384075D01*
X121822909Y-125363990D01*
X120177771Y-125363990D01*
X119973843Y-125384075D01*
X119712183Y-125463449D01*
X119471036Y-125592345D01*
X119259669Y-125765809D01*
X119086205Y-125977176D01*
X118957309Y-126218323D01*
X118877935Y-126479983D01*
X118851134Y-126752100D01*
X118877935Y-127024217D01*
X118957309Y-127285877D01*
X119086205Y-127527024D01*
X119259669Y-127738391D01*
X119471036Y-127911855D01*
X119712183Y-128040751D01*
X119973843Y-128120125D01*
X120177771Y-128140210D01*
X121822909Y-128140210D01*
X122026837Y-128120125D01*
X122288497Y-128040751D01*
X122529644Y-127911855D01*
X122741011Y-127738391D01*
X122914475Y-127527024D01*
X122922452Y-127512100D01*
X125575548Y-127512100D01*
X125583525Y-127527024D01*
X125756989Y-127738391D01*
X125968356Y-127911855D01*
X126209503Y-128040751D01*
X126471163Y-128120125D01*
X126675091Y-128140210D01*
X128320229Y-128140210D01*
X128524157Y-128120125D01*
X128785817Y-128040751D01*
X129026964Y-127911855D01*
X129238331Y-127738391D01*
X129411795Y-127527024D01*
X129419772Y-127512100D01*
X129813219Y-127512100D01*
X129877433Y-127546423D01*
X130041684Y-127596248D01*
X130212500Y-127613072D01*
X130787500Y-127613072D01*
X130958316Y-127596248D01*
X131122567Y-127546423D01*
X131273942Y-127465512D01*
X131375000Y-127382575D01*
X131476058Y-127465512D01*
X131627433Y-127546423D01*
X131791684Y-127596248D01*
X131962500Y-127613072D01*
X132537500Y-127613072D01*
X132708316Y-127596248D01*
X132872567Y-127546423D01*
X133023942Y-127465512D01*
X133156623Y-127356623D01*
X133265512Y-127223942D01*
X133346423Y-127072567D01*
X133396248Y-126908316D01*
X133413072Y-126737500D01*
X133413072Y-126262500D01*
X133396248Y-126091684D01*
X133346423Y-125927433D01*
X133265512Y-125776058D01*
X133172101Y-125662237D01*
X133185000Y-125597389D01*
X133185000Y-125413211D01*
X133149068Y-125232571D01*
X133078586Y-125062411D01*
X133037033Y-125000222D01*
X133109571Y-125030268D01*
X133290211Y-125066200D01*
X133474389Y-125066200D01*
X133655029Y-125030268D01*
X133825189Y-124959786D01*
X133978328Y-124857462D01*
X134108562Y-124727228D01*
X134210886Y-124574089D01*
X134281368Y-124403929D01*
X134317300Y-124223289D01*
X134317300Y-124039111D01*
X134281368Y-123858471D01*
X134210886Y-123688311D01*
X134175265Y-123635000D01*
X135822762Y-123635000D01*
X137365001Y-125177240D01*
X137365000Y-128080321D01*
X137388657Y-128320515D01*
X137482148Y-128628714D01*
X137633969Y-128912751D01*
X137820435Y-129139963D01*
X136489003Y-130471396D01*
X136459999Y-130495199D01*
X136413617Y-130551716D01*
X136365026Y-130610924D01*
X136309865Y-130714123D01*
X136294454Y-130742954D01*
X136250997Y-130886215D01*
X136240000Y-130997868D01*
X136240000Y-130997878D01*
X136236324Y-131035200D01*
X136240000Y-131072523D01*
X136240001Y-133597405D01*
X136170986Y-133634294D01*
X135950055Y-133815608D01*
X135939502Y-133780820D01*
X135880537Y-133670506D01*
X135801185Y-133573815D01*
X135704494Y-133494463D01*
X135594180Y-133435498D01*
X135474482Y-133399188D01*
X135350000Y-133386928D01*
X134785750Y-133390000D01*
X134627000Y-133548750D01*
X134627000Y-134873000D01*
X134647000Y-134873000D01*
X134647000Y-135127000D01*
X134627000Y-135127000D01*
X134627000Y-136451250D01*
X134785750Y-136610000D01*
X135350000Y-136613072D01*
X135474482Y-136600812D01*
X135594180Y-136564502D01*
X135704494Y-136505537D01*
X135801185Y-136426185D01*
X135880537Y-136329494D01*
X135939502Y-136219180D01*
X135950055Y-136184392D01*
X136170987Y-136365706D01*
X136428967Y-136503599D01*
X136708890Y-136588513D01*
X137000000Y-136617185D01*
X137291111Y-136588513D01*
X137571034Y-136503599D01*
X137829014Y-136365706D01*
X138055134Y-136180134D01*
X138240706Y-135954014D01*
X138250000Y-135936626D01*
X138259294Y-135954014D01*
X138444866Y-136180134D01*
X138670987Y-136365706D01*
X138928967Y-136503599D01*
X139208890Y-136588513D01*
X139500000Y-136617185D01*
X139791111Y-136588513D01*
X139961902Y-136536704D01*
X140268905Y-136843708D01*
X140292699Y-136872701D01*
X140321692Y-136896495D01*
X140321696Y-136896499D01*
X140357869Y-136926185D01*
X140408424Y-136967674D01*
X140540453Y-137038246D01*
X140683714Y-137081703D01*
X140795367Y-137092700D01*
X140795376Y-137092700D01*
X140832699Y-137096376D01*
X140870022Y-137092700D01*
X164851078Y-137092700D01*
X164888400Y-137096376D01*
X164925722Y-137092700D01*
X164925733Y-137092700D01*
X165037386Y-137081703D01*
X165180647Y-137038246D01*
X165312676Y-136967674D01*
X165428401Y-136872701D01*
X165452204Y-136843697D01*
X166849303Y-135446599D01*
X166878301Y-135422801D01*
X166924122Y-135366968D01*
X167102875Y-135441010D01*
X167392401Y-135498600D01*
X167687599Y-135498600D01*
X167977125Y-135441010D01*
X168249853Y-135328042D01*
X168495302Y-135164039D01*
X168704039Y-134955302D01*
X168810000Y-134796719D01*
X168915961Y-134955302D01*
X169124698Y-135164039D01*
X169370147Y-135328042D01*
X169642875Y-135441010D01*
X169932401Y-135498600D01*
X170227599Y-135498600D01*
X170517125Y-135441010D01*
X170789853Y-135328042D01*
X171035302Y-135164039D01*
X171244039Y-134955302D01*
X171350000Y-134796719D01*
X171455961Y-134955302D01*
X171664698Y-135164039D01*
X171910147Y-135328042D01*
X172182875Y-135441010D01*
X172472401Y-135498600D01*
X172767599Y-135498600D01*
X173057125Y-135441010D01*
X173329853Y-135328042D01*
X173368752Y-135302050D01*
X180015000Y-135302050D01*
X180015000Y-135697949D01*
X180036487Y-135916110D01*
X180121401Y-136196033D01*
X180259294Y-136454013D01*
X180444866Y-136680134D01*
X180670986Y-136865706D01*
X180928966Y-137003599D01*
X181208889Y-137088513D01*
X181500000Y-137117185D01*
X181791110Y-137088513D01*
X182071033Y-137003599D01*
X182329013Y-136865706D01*
X182555134Y-136680134D01*
X182740706Y-136454014D01*
X182750000Y-136436626D01*
X182759294Y-136454013D01*
X182944866Y-136680134D01*
X183170986Y-136865706D01*
X183428966Y-137003599D01*
X183708889Y-137088513D01*
X184000000Y-137117185D01*
X184291110Y-137088513D01*
X184571033Y-137003599D01*
X184829013Y-136865706D01*
X185049945Y-136684392D01*
X185060498Y-136719180D01*
X185119463Y-136829494D01*
X185198815Y-136926185D01*
X185295506Y-137005537D01*
X185405820Y-137064502D01*
X185525518Y-137100812D01*
X185650000Y-137113072D01*
X186214250Y-137110000D01*
X186373000Y-136951250D01*
X186373000Y-135627000D01*
X186627000Y-135627000D01*
X186627000Y-136951250D01*
X186785750Y-137110000D01*
X187350000Y-137113072D01*
X187474482Y-137100812D01*
X187594180Y-137064502D01*
X187704494Y-137005537D01*
X187801185Y-136926185D01*
X187880537Y-136829494D01*
X187939502Y-136719180D01*
X187975812Y-136599482D01*
X187988072Y-136475000D01*
X187985000Y-135785750D01*
X187826250Y-135627000D01*
X186627000Y-135627000D01*
X186373000Y-135627000D01*
X186353000Y-135627000D01*
X186353000Y-135373000D01*
X186373000Y-135373000D01*
X186373000Y-134048750D01*
X186627000Y-134048750D01*
X186627000Y-135373000D01*
X187826250Y-135373000D01*
X187985000Y-135214250D01*
X187988072Y-134525000D01*
X187975812Y-134400518D01*
X187939502Y-134280820D01*
X187880537Y-134170506D01*
X187801185Y-134073815D01*
X187704494Y-133994463D01*
X187594180Y-133935498D01*
X187474482Y-133899188D01*
X187350000Y-133886928D01*
X186785750Y-133890000D01*
X186627000Y-134048750D01*
X186373000Y-134048750D01*
X186214250Y-133890000D01*
X185650000Y-133886928D01*
X185525518Y-133899188D01*
X185405820Y-133935498D01*
X185295506Y-133994463D01*
X185198815Y-134073815D01*
X185119463Y-134170506D01*
X185060498Y-134280820D01*
X185049945Y-134315608D01*
X184829014Y-134134294D01*
X184571034Y-133996401D01*
X184291111Y-133911487D01*
X184000000Y-133882815D01*
X183708890Y-133911487D01*
X183428967Y-133996401D01*
X183170987Y-134134294D01*
X182944866Y-134319866D01*
X182759294Y-134545986D01*
X182750000Y-134563374D01*
X182740706Y-134545986D01*
X182555134Y-134319866D01*
X182329014Y-134134294D01*
X182071034Y-133996401D01*
X181791111Y-133911487D01*
X181500000Y-133882815D01*
X181208890Y-133911487D01*
X180928967Y-133996401D01*
X180670987Y-134134294D01*
X180444866Y-134319866D01*
X180259294Y-134545986D01*
X180121401Y-134803966D01*
X180036487Y-135083889D01*
X180015000Y-135302050D01*
X173368752Y-135302050D01*
X173575302Y-135164039D01*
X173784039Y-134955302D01*
X173948042Y-134709853D01*
X174061010Y-134437125D01*
X174118600Y-134147599D01*
X174118600Y-133852401D01*
X174061010Y-133562875D01*
X173948042Y-133290147D01*
X173784039Y-133044698D01*
X173575302Y-132835961D01*
X173414187Y-132728308D01*
X173630293Y-132566854D01*
X173826817Y-132348488D01*
X173976964Y-132095978D01*
X174074963Y-131819027D01*
X173954464Y-131587000D01*
X172747000Y-131587000D01*
X172747000Y-131607000D01*
X172493000Y-131607000D01*
X172493000Y-131587000D01*
X172473000Y-131587000D01*
X172473000Y-131333000D01*
X172493000Y-131333000D01*
X172493000Y-131313000D01*
X172747000Y-131313000D01*
X172747000Y-131333000D01*
X173954464Y-131333000D01*
X174074963Y-131100973D01*
X173976964Y-130824022D01*
X173826817Y-130571512D01*
X173630293Y-130353146D01*
X173394944Y-130177316D01*
X173321796Y-130142405D01*
X185679405Y-117784796D01*
X188895000Y-117784796D01*
X188895000Y-118215204D01*
X188978969Y-118637341D01*
X189143678Y-119034985D01*
X189382800Y-119392856D01*
X189687144Y-119697200D01*
X190045015Y-119936322D01*
X190442659Y-120101031D01*
X190864796Y-120185000D01*
X191295204Y-120185000D01*
X191717341Y-120101031D01*
X192114985Y-119936322D01*
X192472856Y-119697200D01*
X192777200Y-119392856D01*
X193016322Y-119034985D01*
X193181031Y-118637341D01*
X193265000Y-118215204D01*
X193265000Y-117784796D01*
X193181031Y-117362659D01*
X193016322Y-116965015D01*
X192777200Y-116607144D01*
X192472856Y-116302800D01*
X192114985Y-116063678D01*
X191717341Y-115898969D01*
X191295204Y-115815000D01*
X190864796Y-115815000D01*
X190442659Y-115898969D01*
X190045015Y-116063678D01*
X189687144Y-116302800D01*
X189382800Y-116607144D01*
X189143678Y-116965015D01*
X188978969Y-117362659D01*
X188895000Y-117784796D01*
X185679405Y-117784796D01*
X191464202Y-112000000D01*
X194699147Y-112000000D01*
X194656686Y-112102510D01*
X194603000Y-112372408D01*
X194603000Y-112647592D01*
X194656686Y-112917490D01*
X194761995Y-113171727D01*
X194914880Y-113400535D01*
X195109465Y-113595120D01*
X195338273Y-113748005D01*
X195592510Y-113853314D01*
X195862408Y-113907000D01*
X196137592Y-113907000D01*
X196407490Y-113853314D01*
X196661727Y-113748005D01*
X196890535Y-113595120D01*
X197085120Y-113400535D01*
X197238005Y-113171727D01*
X197343314Y-112917490D01*
X197397000Y-112647592D01*
X197397000Y-112372408D01*
X197343314Y-112102510D01*
X197238005Y-111848273D01*
X197085120Y-111619465D01*
X197034178Y-111568523D01*
X197598404Y-111004298D01*
X197627401Y-110980501D01*
X197722374Y-110864776D01*
X197792946Y-110732747D01*
X197836403Y-110589486D01*
X197847400Y-110477833D01*
X197847400Y-110477825D01*
X197851076Y-110440500D01*
X197847400Y-110403175D01*
X197847400Y-108554723D01*
X197851076Y-108517400D01*
X197847400Y-108480077D01*
X197847400Y-108480067D01*
X197836403Y-108368414D01*
X197792946Y-108225153D01*
X197722374Y-108093124D01*
X197627401Y-107977399D01*
X197598403Y-107953601D01*
X197366372Y-107721570D01*
X197397000Y-107567592D01*
X197397000Y-107292408D01*
X197366372Y-107138430D01*
X197598403Y-106906399D01*
X197627401Y-106882601D01*
X197722374Y-106766876D01*
X197792946Y-106634847D01*
X197836403Y-106491586D01*
X197847400Y-106379933D01*
X197847400Y-106379923D01*
X197851076Y-106342600D01*
X197847400Y-106305277D01*
X197847400Y-93314723D01*
X197851076Y-93277400D01*
X197847400Y-93240077D01*
X197847400Y-93240067D01*
X197836403Y-93128414D01*
X197792946Y-92985153D01*
X197722374Y-92853124D01*
X197627401Y-92737399D01*
X197598404Y-92713602D01*
X197366372Y-92481570D01*
X197397000Y-92327592D01*
X197397000Y-92052408D01*
X197343314Y-91782510D01*
X197238005Y-91528273D01*
X197085120Y-91299465D01*
X196890535Y-91104880D01*
X196661727Y-90951995D01*
X196584485Y-90920000D01*
X196661727Y-90888005D01*
X196890535Y-90735120D01*
X197085120Y-90540535D01*
X197238005Y-90311727D01*
X197343314Y-90057490D01*
X197397000Y-89787592D01*
X197397000Y-89512408D01*
X197343314Y-89242510D01*
X197238005Y-88988273D01*
X197085120Y-88759465D01*
X196890535Y-88564880D01*
X196661727Y-88411995D01*
X196584485Y-88380000D01*
X196661727Y-88348005D01*
X196890535Y-88195120D01*
X197085120Y-88000535D01*
X197238005Y-87771727D01*
X197343314Y-87517490D01*
X197397000Y-87247592D01*
X197397000Y-86972408D01*
X197366372Y-86818430D01*
X197615104Y-86569698D01*
X197644101Y-86545901D01*
X197739074Y-86430176D01*
X197809646Y-86298147D01*
X197853103Y-86154886D01*
X197864100Y-86043233D01*
X197864100Y-86043224D01*
X197867776Y-86005901D01*
X197864100Y-85968578D01*
X197864100Y-84156825D01*
X197867776Y-84119500D01*
X197864100Y-84082175D01*
X197864100Y-84082167D01*
X197853103Y-83970514D01*
X197809646Y-83827253D01*
X197739074Y-83695224D01*
X197644101Y-83579499D01*
X197615102Y-83555700D01*
X197036874Y-82977472D01*
X197081977Y-82932369D01*
X196965567Y-82815959D01*
X197205656Y-82748980D01*
X197322756Y-82499952D01*
X197389023Y-82232865D01*
X197401910Y-81957983D01*
X197360922Y-81685867D01*
X197267636Y-81426977D01*
X197205656Y-81311020D01*
X196965565Y-81244040D01*
X196179605Y-82030000D01*
X196193748Y-82044143D01*
X196014143Y-82223748D01*
X196000000Y-82209605D01*
X195985858Y-82223748D01*
X195806253Y-82044143D01*
X195820395Y-82030000D01*
X195034435Y-81244040D01*
X194794344Y-81311020D01*
X194782855Y-81335453D01*
X194120000Y-80672599D01*
X194120000Y-78454250D01*
X194123000Y-78451250D01*
X194123000Y-77627000D01*
X194120000Y-77627000D01*
X194120000Y-77373000D01*
X194123000Y-77373000D01*
X194123000Y-76548750D01*
X194120000Y-76545750D01*
X194120000Y-75704801D01*
X194211729Y-75613072D01*
X194537500Y-75613072D01*
X194708316Y-75596248D01*
X194865001Y-75548718D01*
X194865000Y-76395792D01*
X194775000Y-76386928D01*
X194535750Y-76390000D01*
X194377000Y-76548750D01*
X194377000Y-77373000D01*
X194397000Y-77373000D01*
X194397000Y-77627000D01*
X194377000Y-77627000D01*
X194377000Y-78451250D01*
X194535750Y-78610000D01*
X194611454Y-78610972D01*
X194599928Y-78728000D01*
X194599928Y-80252000D01*
X194612188Y-80376482D01*
X194648498Y-80496180D01*
X194707463Y-80606494D01*
X194786815Y-80703185D01*
X194883506Y-80782537D01*
X194993820Y-80841502D01*
X195113518Y-80877812D01*
X195238000Y-80890072D01*
X195262683Y-80890072D01*
X195214040Y-81064435D01*
X196000000Y-81850395D01*
X196785960Y-81064435D01*
X196737317Y-80890072D01*
X196762000Y-80890072D01*
X196886482Y-80877812D01*
X197006180Y-80841502D01*
X197116494Y-80782537D01*
X197213185Y-80703185D01*
X197292537Y-80606494D01*
X197351502Y-80496180D01*
X197387812Y-80376482D01*
X197400072Y-80252000D01*
X197400072Y-78728000D01*
X197387812Y-78603518D01*
X197351502Y-78483820D01*
X197292537Y-78373506D01*
X197213185Y-78276815D01*
X197135000Y-78212650D01*
X197135000Y-77945396D01*
X197146248Y-77908316D01*
X197163072Y-77737500D01*
X197163072Y-77262500D01*
X197146248Y-77091684D01*
X197135000Y-77054604D01*
X197135000Y-74945396D01*
X197146248Y-74908316D01*
X197163072Y-74737500D01*
X197163072Y-74262500D01*
X197146248Y-74091684D01*
X197096423Y-73927433D01*
X197015512Y-73776058D01*
X196906623Y-73643377D01*
X196773942Y-73534488D01*
X196622567Y-73453577D01*
X196458316Y-73403752D01*
X196287500Y-73386928D01*
X196240646Y-73386928D01*
X196222499Y-73381423D01*
X196000000Y-73359509D01*
X195777502Y-73381423D01*
X195759355Y-73386928D01*
X195712500Y-73386928D01*
X195541684Y-73403752D01*
X195377433Y-73453577D01*
X195226058Y-73534488D01*
X195125000Y-73617425D01*
X195023942Y-73534488D01*
X194872567Y-73453577D01*
X194708316Y-73403752D01*
X194537500Y-73386928D01*
X193962500Y-73386928D01*
X193791684Y-73403752D01*
X193627433Y-73453577D01*
X193476058Y-73534488D01*
X193343377Y-73643377D01*
X193257648Y-73747837D01*
X193181031Y-73362659D01*
X193016322Y-72965015D01*
X192777200Y-72607144D01*
X192472856Y-72302800D01*
X192114985Y-72063678D01*
X191717341Y-71898969D01*
X191295204Y-71815000D01*
X190864796Y-71815000D01*
X190442659Y-71898969D01*
X190045015Y-72063678D01*
X189687144Y-72302800D01*
X189382800Y-72607144D01*
X189143678Y-72965015D01*
X188978969Y-73362659D01*
X188895000Y-73784796D01*
X188895000Y-74215204D01*
X188978969Y-74637341D01*
X189143678Y-75034985D01*
X189382800Y-75392856D01*
X189687144Y-75697200D01*
X190045015Y-75936322D01*
X190442659Y-76101031D01*
X190864796Y-76185000D01*
X191295204Y-76185000D01*
X191717341Y-76101031D01*
X192114985Y-75936322D01*
X192472856Y-75697200D01*
X192600001Y-75570055D01*
X192600000Y-80950077D01*
X192596324Y-80987400D01*
X192600000Y-81024722D01*
X192600000Y-81024732D01*
X192610997Y-81136385D01*
X192641086Y-81235576D01*
X192654454Y-81279646D01*
X192725026Y-81411676D01*
X192753420Y-81446274D01*
X192819999Y-81527401D01*
X192849003Y-81551204D01*
X193812699Y-82514900D01*
X188306124Y-82514900D01*
X188278668Y-82376871D01*
X188208186Y-82206711D01*
X188105862Y-82053572D01*
X187975628Y-81923338D01*
X187822489Y-81821014D01*
X187786725Y-81806200D01*
X187854486Y-81704789D01*
X187924968Y-81534629D01*
X187960900Y-81353989D01*
X187960900Y-81169811D01*
X187924968Y-80989171D01*
X187854486Y-80819011D01*
X187752162Y-80665872D01*
X187621928Y-80535638D01*
X187468789Y-80433314D01*
X187298629Y-80362832D01*
X187284572Y-80360036D01*
X187280846Y-80347753D01*
X187210274Y-80215724D01*
X187115301Y-80099999D01*
X186999576Y-80005026D01*
X186999527Y-80005000D01*
X186999576Y-80004974D01*
X187115301Y-79910001D01*
X187139104Y-79880997D01*
X188571204Y-78448898D01*
X188600201Y-78425101D01*
X188695174Y-78309376D01*
X188765746Y-78177347D01*
X188809203Y-78034086D01*
X188820200Y-77922433D01*
X188820200Y-77922425D01*
X188823876Y-77885100D01*
X188820200Y-77847775D01*
X188820200Y-72932025D01*
X188823876Y-72894700D01*
X188820200Y-72857375D01*
X188820200Y-72857367D01*
X188809203Y-72745714D01*
X188765746Y-72602453D01*
X188695174Y-72470424D01*
X188600201Y-72354699D01*
X188571203Y-72330901D01*
X186629304Y-70389003D01*
X186605501Y-70359999D01*
X186489776Y-70265026D01*
X186357747Y-70194454D01*
X186214486Y-70150997D01*
X186102833Y-70140000D01*
X186102822Y-70140000D01*
X186065500Y-70136324D01*
X186028178Y-70140000D01*
X167189902Y-70140000D01*
X166738903Y-69689002D01*
X166715101Y-69659999D01*
X166599376Y-69565026D01*
X166467347Y-69494454D01*
X166324086Y-69450997D01*
X166212433Y-69440000D01*
X166212422Y-69440000D01*
X166175100Y-69436324D01*
X166137778Y-69440000D01*
X162545535Y-69440000D01*
X162442889Y-69371414D01*
X162272729Y-69300932D01*
X162092089Y-69265000D01*
X161907911Y-69265000D01*
X161727271Y-69300932D01*
X161557111Y-69371414D01*
X161403972Y-69473738D01*
X161273738Y-69603972D01*
X161171414Y-69757111D01*
X161100932Y-69927271D01*
X161065000Y-70107911D01*
X161065000Y-70292089D01*
X161100932Y-70472729D01*
X161171414Y-70642889D01*
X161273738Y-70796028D01*
X161403972Y-70926262D01*
X161557111Y-71028586D01*
X161727271Y-71099068D01*
X161907911Y-71135000D01*
X162092089Y-71135000D01*
X162272729Y-71099068D01*
X162442889Y-71028586D01*
X162545535Y-70960000D01*
X163010750Y-70960000D01*
X163048750Y-70998000D01*
X163873000Y-70998000D01*
X163873000Y-70978000D01*
X164127000Y-70978000D01*
X164127000Y-70998000D01*
X164951250Y-70998000D01*
X164989250Y-70960000D01*
X165451521Y-70960000D01*
X165342986Y-71072592D01*
X165227298Y-71252803D01*
X165155592Y-71455999D01*
X165282498Y-71623000D01*
X166640392Y-71623000D01*
X166726114Y-71649003D01*
X166837767Y-71660000D01*
X166837776Y-71660000D01*
X166875099Y-71663676D01*
X166912422Y-71660000D01*
X174861772Y-71660000D01*
X174847011Y-71666114D01*
X174693872Y-71768438D01*
X174563638Y-71898672D01*
X174461314Y-72051811D01*
X174390832Y-72221971D01*
X174366748Y-72343049D01*
X168858407Y-77851392D01*
X168807259Y-77682780D01*
X168706509Y-77494290D01*
X168682471Y-77465000D01*
X168706509Y-77435710D01*
X168807259Y-77247220D01*
X168869300Y-77042697D01*
X168890249Y-76830000D01*
X168869300Y-76617303D01*
X168807259Y-76412780D01*
X168706509Y-76224290D01*
X168682471Y-76195000D01*
X168706509Y-76165710D01*
X168807259Y-75977220D01*
X168869300Y-75772697D01*
X168890249Y-75560000D01*
X168869300Y-75347303D01*
X168807259Y-75142780D01*
X168706509Y-74954290D01*
X168682471Y-74925000D01*
X168706509Y-74895710D01*
X168807259Y-74707220D01*
X168869300Y-74502697D01*
X168890249Y-74290000D01*
X168869300Y-74077303D01*
X168807259Y-73872780D01*
X168706509Y-73684290D01*
X168682471Y-73655000D01*
X168706509Y-73625710D01*
X168807259Y-73437220D01*
X168869300Y-73232697D01*
X168890249Y-73020000D01*
X168869300Y-72807303D01*
X168807259Y-72602780D01*
X168706509Y-72414290D01*
X168683463Y-72386208D01*
X168772702Y-72247197D01*
X168844408Y-72044001D01*
X168717502Y-71877000D01*
X167127000Y-71877000D01*
X167127000Y-71892017D01*
X167055752Y-71885000D01*
X166873000Y-71885000D01*
X166873000Y-71877000D01*
X165282498Y-71877000D01*
X165276419Y-71885000D01*
X165067287Y-71885000D01*
X165100812Y-71774482D01*
X165113072Y-71650000D01*
X165110000Y-71410750D01*
X164951250Y-71252000D01*
X164127000Y-71252000D01*
X164127000Y-71272000D01*
X163873000Y-71272000D01*
X163873000Y-71252000D01*
X163048750Y-71252000D01*
X162890000Y-71410750D01*
X162886928Y-71650000D01*
X162899188Y-71774482D01*
X162935498Y-71894180D01*
X162994463Y-72004494D01*
X163054099Y-72077161D01*
X163034488Y-72101058D01*
X162953577Y-72252433D01*
X162925771Y-72344096D01*
X162904868Y-72365000D01*
X162345132Y-72365000D01*
X161499229Y-71519098D01*
X161471423Y-71427433D01*
X161390512Y-71276058D01*
X161281623Y-71143377D01*
X161148942Y-71034488D01*
X160997567Y-70953577D01*
X160833316Y-70903752D01*
X160662500Y-70886928D01*
X160615645Y-70886928D01*
X160597498Y-70881423D01*
X160375000Y-70859509D01*
X160152502Y-70881423D01*
X160134355Y-70886928D01*
X160087500Y-70886928D01*
X159916684Y-70903752D01*
X159752433Y-70953577D01*
X159601058Y-71034488D01*
X159500000Y-71117425D01*
X159398942Y-71034488D01*
X159247567Y-70953577D01*
X159083316Y-70903752D01*
X158912500Y-70886928D01*
X158337500Y-70886928D01*
X158166684Y-70903752D01*
X158002433Y-70953577D01*
X157851058Y-71034488D01*
X157718377Y-71143377D01*
X157609488Y-71276058D01*
X157528577Y-71427433D01*
X157478752Y-71591684D01*
X157461928Y-71762500D01*
X157461928Y-72237500D01*
X157478752Y-72408316D01*
X157528577Y-72572567D01*
X157609488Y-72723942D01*
X157718377Y-72856623D01*
X157851058Y-72965512D01*
X157865000Y-72972964D01*
X157865001Y-74606968D01*
X157861324Y-74644300D01*
X157865001Y-74681633D01*
X157875998Y-74793286D01*
X157881371Y-74810998D01*
X157919454Y-74936546D01*
X157990026Y-75068576D01*
X158056017Y-75148985D01*
X158085000Y-75184301D01*
X158113998Y-75208099D01*
X158555600Y-75649702D01*
X158555601Y-76486264D01*
X158487014Y-76588911D01*
X158416532Y-76759071D01*
X158389076Y-76897100D01*
X153574302Y-76897100D01*
X153498700Y-76821498D01*
X153498700Y-75901022D01*
X153502376Y-75863699D01*
X153498700Y-75826376D01*
X153498700Y-75826367D01*
X153487703Y-75714714D01*
X153444246Y-75571453D01*
X153373674Y-75439424D01*
X153278701Y-75323699D01*
X153249703Y-75299901D01*
X153038072Y-75088270D01*
X153038072Y-74762500D01*
X153021248Y-74591684D01*
X152971423Y-74427433D01*
X152890512Y-74276058D01*
X152781623Y-74143377D01*
X152648942Y-74034488D01*
X152497567Y-73953577D01*
X152333316Y-73903752D01*
X152162500Y-73886928D01*
X151587500Y-73886928D01*
X151416684Y-73903752D01*
X151252433Y-73953577D01*
X151101058Y-74034488D01*
X151010000Y-74109218D01*
X151010000Y-72972964D01*
X151023942Y-72965512D01*
X151125000Y-72882575D01*
X151226058Y-72965512D01*
X151377433Y-73046423D01*
X151541684Y-73096248D01*
X151712500Y-73113072D01*
X151759354Y-73113072D01*
X151777501Y-73118577D01*
X152000000Y-73140491D01*
X152222498Y-73118577D01*
X152240645Y-73113072D01*
X152287500Y-73113072D01*
X152458316Y-73096248D01*
X152622567Y-73046423D01*
X152773942Y-72965512D01*
X152906623Y-72856623D01*
X153015512Y-72723942D01*
X153096423Y-72572567D01*
X153146248Y-72408316D01*
X153163072Y-72237500D01*
X153163072Y-71762500D01*
X153146248Y-71591684D01*
X153135000Y-71554604D01*
X153135000Y-70070131D01*
X154441989Y-68763144D01*
X154548284Y-68633623D01*
X154653676Y-68436447D01*
X154718577Y-68222499D01*
X154740491Y-68000000D01*
X154718577Y-67777501D01*
X154653676Y-67563553D01*
X154548284Y-67366377D01*
X154477291Y-67279872D01*
X193265000Y-67279872D01*
X193265000Y-67720128D01*
X193350890Y-68151925D01*
X193519369Y-68558669D01*
X193763962Y-68924729D01*
X194075271Y-69236038D01*
X194441331Y-69480631D01*
X194848075Y-69649110D01*
X195279872Y-69735000D01*
X195720128Y-69735000D01*
X196151925Y-69649110D01*
X196558669Y-69480631D01*
X196924729Y-69236038D01*
X197236038Y-68924729D01*
X197480631Y-68558669D01*
X197649110Y-68151925D01*
X197735000Y-67720128D01*
X197735000Y-67279872D01*
X197649110Y-66848075D01*
X197480631Y-66441331D01*
X197236038Y-66075271D01*
X196924729Y-65763962D01*
X196558669Y-65519369D01*
X196151925Y-65350890D01*
X195720128Y-65265000D01*
X195279872Y-65265000D01*
X194848075Y-65350890D01*
X194441331Y-65519369D01*
X194075271Y-65763962D01*
X193763962Y-66075271D01*
X193519369Y-66441331D01*
X193350890Y-66848075D01*
X193265000Y-67279872D01*
X154477291Y-67279872D01*
X154406449Y-67193551D01*
X154233623Y-67051716D01*
X154036447Y-66946324D01*
X153822499Y-66881423D01*
X153600000Y-66859509D01*
X153377501Y-66881423D01*
X153163553Y-66946324D01*
X152966377Y-67051716D01*
X152836856Y-67158011D01*
X151236860Y-68758009D01*
X151193552Y-68793551D01*
X151051717Y-68966377D01*
X151046721Y-68975724D01*
X150946324Y-69163554D01*
X150881423Y-69377502D01*
X150859509Y-69600000D01*
X150865001Y-69655761D01*
X150865000Y-70951282D01*
X150708316Y-70903752D01*
X150537500Y-70886928D01*
X149962500Y-70886928D01*
X149791684Y-70903752D01*
X149627433Y-70953577D01*
X149476058Y-71034488D01*
X149343377Y-71143377D01*
X149234488Y-71276058D01*
X149153577Y-71427433D01*
X149103752Y-71591684D01*
X149086928Y-71762500D01*
X149086928Y-72237500D01*
X149103752Y-72408316D01*
X149153577Y-72572567D01*
X149234488Y-72723942D01*
X149343377Y-72856623D01*
X149476058Y-72965512D01*
X149490000Y-72972964D01*
X149490001Y-73960222D01*
X149351058Y-74034488D01*
X149218377Y-74143377D01*
X149109488Y-74276058D01*
X149028577Y-74427433D01*
X148978752Y-74591684D01*
X148961928Y-74762500D01*
X148961928Y-75237500D01*
X148978752Y-75408316D01*
X149028577Y-75572567D01*
X149109488Y-75723942D01*
X149218377Y-75856623D01*
X149351058Y-75965512D01*
X149502433Y-76046423D01*
X149666684Y-76096248D01*
X149837500Y-76113072D01*
X150163270Y-76113072D01*
X150263501Y-76213303D01*
X150263501Y-77037249D01*
X150252000Y-77048750D01*
X150252000Y-77873000D01*
X150263500Y-77873000D01*
X150263500Y-78122698D01*
X150259198Y-78127000D01*
X150252000Y-78127000D01*
X150252000Y-78134198D01*
X150239198Y-78147000D01*
X149998000Y-78147000D01*
X149998000Y-78127000D01*
X149123750Y-78127000D01*
X148965000Y-78285750D01*
X148961928Y-78475000D01*
X148974188Y-78599482D01*
X149010498Y-78719180D01*
X149069463Y-78829494D01*
X149148815Y-78926185D01*
X149245506Y-79005537D01*
X149333583Y-79052616D01*
X146341699Y-82044500D01*
X124366735Y-82044500D01*
X124264089Y-81975914D01*
X124093929Y-81905432D01*
X123913289Y-81869500D01*
X123729111Y-81869500D01*
X123548471Y-81905432D01*
X123411668Y-81962097D01*
X123408922Y-81943867D01*
X123315636Y-81684977D01*
X123253656Y-81569020D01*
X123013565Y-81502040D01*
X122227605Y-82288000D01*
X122241748Y-82302143D01*
X122062143Y-82481748D01*
X122048000Y-82467605D01*
X122033858Y-82481748D01*
X121854253Y-82302143D01*
X121868395Y-82288000D01*
X121082435Y-81502040D01*
X120842344Y-81569020D01*
X120725244Y-81818048D01*
X120658977Y-82085135D01*
X120646090Y-82360017D01*
X120687078Y-82632133D01*
X120726883Y-82742600D01*
X112090022Y-82742600D01*
X112052699Y-82738924D01*
X112015376Y-82742600D01*
X112015367Y-82742600D01*
X111903714Y-82753597D01*
X111760453Y-82797054D01*
X111628424Y-82867626D01*
X111612385Y-82880789D01*
X111541696Y-82938801D01*
X111541692Y-82938805D01*
X111512699Y-82962599D01*
X111488905Y-82991592D01*
X103100303Y-91380196D01*
X102946632Y-91226525D01*
X102703411Y-91064010D01*
X102433158Y-90952068D01*
X102146260Y-90895000D01*
X101853740Y-90895000D01*
X101566842Y-90952068D01*
X101296589Y-91064010D01*
X101053368Y-91226525D01*
X100846525Y-91433368D01*
X100684010Y-91676589D01*
X100572068Y-91946842D01*
X100515000Y-92233740D01*
X100515000Y-92526260D01*
X100572068Y-92813158D01*
X100684010Y-93083411D01*
X100846525Y-93326632D01*
X101053368Y-93533475D01*
X101227760Y-93650000D01*
X101053368Y-93766525D01*
X100846525Y-93973368D01*
X100684010Y-94216589D01*
X100572068Y-94486842D01*
X100515000Y-94773740D01*
X100515000Y-95066260D01*
X100572068Y-95353158D01*
X100684010Y-95623411D01*
X100846525Y-95866632D01*
X101053368Y-96073475D01*
X101227760Y-96190000D01*
X101053368Y-96306525D01*
X100846525Y-96513368D01*
X100684010Y-96756589D01*
X100572068Y-97026842D01*
X100515000Y-97313740D01*
X100515000Y-97606260D01*
X100572068Y-97893158D01*
X100684010Y-98163411D01*
X100846525Y-98406632D01*
X100978380Y-98538487D01*
X100905820Y-98560498D01*
X100795506Y-98619463D01*
X100698815Y-98698815D01*
X100619463Y-98795506D01*
X100560498Y-98905820D01*
X100524188Y-99025518D01*
X100511928Y-99150000D01*
X99710000Y-99150000D01*
X99710000Y-73784796D01*
X112815000Y-73784796D01*
X112815000Y-74215204D01*
X112898969Y-74637341D01*
X113063678Y-75034985D01*
X113302800Y-75392856D01*
X113607144Y-75697200D01*
X113965015Y-75936322D01*
X114362659Y-76101031D01*
X114784796Y-76185000D01*
X115215204Y-76185000D01*
X115637341Y-76101031D01*
X116034985Y-75936322D01*
X116392856Y-75697200D01*
X116697200Y-75392856D01*
X116936322Y-75034985D01*
X117101031Y-74637341D01*
X117185000Y-74215204D01*
X117185000Y-73784796D01*
X117101031Y-73362659D01*
X116936322Y-72965015D01*
X116697200Y-72607144D01*
X116392856Y-72302800D01*
X116034985Y-72063678D01*
X115637341Y-71898969D01*
X115215204Y-71815000D01*
X114784796Y-71815000D01*
X114362659Y-71898969D01*
X113965015Y-72063678D01*
X113607144Y-72302800D01*
X113302800Y-72607144D01*
X113063678Y-72965015D01*
X112898969Y-73362659D01*
X112815000Y-73784796D01*
X99710000Y-73784796D01*
X99710000Y-67279872D01*
X100265000Y-67279872D01*
X100265000Y-67720128D01*
X100350890Y-68151925D01*
X100519369Y-68558669D01*
X100763962Y-68924729D01*
X101075271Y-69236038D01*
X101441331Y-69480631D01*
X101848075Y-69649110D01*
X102279872Y-69735000D01*
X102720128Y-69735000D01*
X103151925Y-69649110D01*
X103558669Y-69480631D01*
X103924729Y-69236038D01*
X104236038Y-68924729D01*
X104480631Y-68558669D01*
X104649110Y-68151925D01*
X104735000Y-67720128D01*
X104735000Y-67279872D01*
X104661509Y-66910408D01*
X120651000Y-66910408D01*
X120651000Y-67185592D01*
X120704686Y-67455490D01*
X120809995Y-67709727D01*
X120962880Y-67938535D01*
X121157465Y-68133120D01*
X121386273Y-68286005D01*
X121463515Y-68318000D01*
X121386273Y-68349995D01*
X121157465Y-68502880D01*
X120962880Y-68697465D01*
X120809995Y-68926273D01*
X120704686Y-69180510D01*
X120651000Y-69450408D01*
X120651000Y-69725592D01*
X120704686Y-69995490D01*
X120809995Y-70249727D01*
X120962880Y-70478535D01*
X121157465Y-70673120D01*
X121386273Y-70826005D01*
X121463515Y-70858000D01*
X121386273Y-70889995D01*
X121157465Y-71042880D01*
X120962880Y-71237465D01*
X120809995Y-71466273D01*
X120704686Y-71720510D01*
X120651000Y-71990408D01*
X120651000Y-72265592D01*
X120704686Y-72535490D01*
X120809995Y-72789727D01*
X120962880Y-73018535D01*
X121157465Y-73213120D01*
X121386273Y-73366005D01*
X121463515Y-73398000D01*
X121386273Y-73429995D01*
X121157465Y-73582880D01*
X120962880Y-73777465D01*
X120809995Y-74006273D01*
X120704686Y-74260510D01*
X120651000Y-74530408D01*
X120651000Y-74805592D01*
X120704686Y-75075490D01*
X120809995Y-75329727D01*
X120962880Y-75558535D01*
X121157465Y-75753120D01*
X121386273Y-75906005D01*
X121463515Y-75938000D01*
X121386273Y-75969995D01*
X121157465Y-76122880D01*
X120962880Y-76317465D01*
X120809995Y-76546273D01*
X120704686Y-76800510D01*
X120651000Y-77070408D01*
X120651000Y-77345592D01*
X120704686Y-77615490D01*
X120809995Y-77869727D01*
X120962880Y-78098535D01*
X121157465Y-78293120D01*
X121386273Y-78446005D01*
X121463515Y-78478000D01*
X121386273Y-78509995D01*
X121157465Y-78662880D01*
X120962880Y-78857465D01*
X120809995Y-79086273D01*
X120704686Y-79340510D01*
X120651000Y-79610408D01*
X120651000Y-79885592D01*
X120704686Y-80155490D01*
X120809995Y-80409727D01*
X120962880Y-80638535D01*
X121157465Y-80833120D01*
X121386273Y-80986005D01*
X121457943Y-81015692D01*
X121444977Y-81020364D01*
X121329020Y-81082344D01*
X121262040Y-81322435D01*
X122048000Y-82108395D01*
X122833960Y-81322435D01*
X122766980Y-81082344D01*
X122631240Y-81018515D01*
X122709727Y-80986005D01*
X122938535Y-80833120D01*
X123133120Y-80638535D01*
X123286005Y-80409727D01*
X123391314Y-80155490D01*
X123445000Y-79885592D01*
X123445000Y-79610408D01*
X123391314Y-79340510D01*
X123286005Y-79086273D01*
X123133120Y-78857465D01*
X122938535Y-78662880D01*
X122709727Y-78509995D01*
X122632485Y-78478000D01*
X122709727Y-78446005D01*
X122938535Y-78293120D01*
X123133120Y-78098535D01*
X123286005Y-77869727D01*
X123391314Y-77615490D01*
X123409313Y-77525000D01*
X148961928Y-77525000D01*
X148965000Y-77714250D01*
X149123750Y-77873000D01*
X149998000Y-77873000D01*
X149998000Y-77048750D01*
X149839250Y-76890000D01*
X149600000Y-76886928D01*
X149475518Y-76899188D01*
X149355820Y-76935498D01*
X149245506Y-76994463D01*
X149148815Y-77073815D01*
X149069463Y-77170506D01*
X149010498Y-77280820D01*
X148974188Y-77400518D01*
X148961928Y-77525000D01*
X123409313Y-77525000D01*
X123445000Y-77345592D01*
X123445000Y-77070408D01*
X123391314Y-76800510D01*
X123286005Y-76546273D01*
X123133120Y-76317465D01*
X122938535Y-76122880D01*
X122709727Y-75969995D01*
X122632485Y-75938000D01*
X122709727Y-75906005D01*
X122938535Y-75753120D01*
X123133120Y-75558535D01*
X123220341Y-75428000D01*
X126305350Y-75428000D01*
X126351058Y-75465512D01*
X126502433Y-75546423D01*
X126666684Y-75596248D01*
X126837500Y-75613072D01*
X127412500Y-75613072D01*
X127583316Y-75596248D01*
X127747567Y-75546423D01*
X127898942Y-75465512D01*
X128000000Y-75382575D01*
X128101058Y-75465512D01*
X128252433Y-75546423D01*
X128416684Y-75596248D01*
X128587500Y-75613072D01*
X129162500Y-75613072D01*
X129333316Y-75596248D01*
X129497567Y-75546423D01*
X129648942Y-75465512D01*
X129781623Y-75356623D01*
X129860920Y-75260000D01*
X130014080Y-75260000D01*
X130093377Y-75356623D01*
X130226058Y-75465512D01*
X130377433Y-75546423D01*
X130541684Y-75596248D01*
X130712500Y-75613072D01*
X131287500Y-75613072D01*
X131458316Y-75596248D01*
X131622567Y-75546423D01*
X131773942Y-75465512D01*
X131797839Y-75445901D01*
X131870506Y-75505537D01*
X131980820Y-75564502D01*
X132100518Y-75600812D01*
X132225000Y-75613072D01*
X132464250Y-75610000D01*
X132623000Y-75451250D01*
X132623000Y-74627000D01*
X132877000Y-74627000D01*
X132877000Y-75451250D01*
X133035750Y-75610000D01*
X133275000Y-75613072D01*
X133399482Y-75600812D01*
X133519180Y-75564502D01*
X133629494Y-75505537D01*
X133726185Y-75426185D01*
X133805537Y-75329494D01*
X133864502Y-75219180D01*
X133900812Y-75099482D01*
X133913072Y-74975000D01*
X133910000Y-74785750D01*
X133751250Y-74627000D01*
X132877000Y-74627000D01*
X132623000Y-74627000D01*
X132603000Y-74627000D01*
X132603000Y-74373000D01*
X132623000Y-74373000D01*
X132623000Y-74353000D01*
X132877000Y-74353000D01*
X132877000Y-74373000D01*
X133751250Y-74373000D01*
X133910000Y-74214250D01*
X133913072Y-74025000D01*
X133902632Y-73919000D01*
X146226567Y-73919000D01*
X146263900Y-73922677D01*
X146301233Y-73919000D01*
X146412886Y-73908003D01*
X146556147Y-73864546D01*
X146688176Y-73793974D01*
X146803901Y-73699001D01*
X146898874Y-73583276D01*
X146969446Y-73451247D01*
X147012903Y-73307986D01*
X147027577Y-73159000D01*
X147023900Y-73121667D01*
X147023900Y-73050901D01*
X148951649Y-71123153D01*
X149072729Y-71099068D01*
X149242889Y-71028586D01*
X149396028Y-70926262D01*
X149526262Y-70796028D01*
X149628586Y-70642889D01*
X149699068Y-70472729D01*
X149735000Y-70292089D01*
X149735000Y-70107911D01*
X149699068Y-69927271D01*
X149628586Y-69757111D01*
X149526262Y-69603972D01*
X149396028Y-69473738D01*
X149242889Y-69371414D01*
X149072729Y-69300932D01*
X148892089Y-69265000D01*
X148707911Y-69265000D01*
X148527271Y-69300932D01*
X148357111Y-69371414D01*
X148203972Y-69473738D01*
X148073738Y-69603972D01*
X147971414Y-69757111D01*
X147900932Y-69927271D01*
X147876847Y-70048351D01*
X145752898Y-72172301D01*
X145723900Y-72196099D01*
X145628926Y-72311824D01*
X145582329Y-72399000D01*
X132378322Y-72399000D01*
X132340999Y-72395324D01*
X132303676Y-72399000D01*
X132303667Y-72399000D01*
X132192014Y-72409997D01*
X132048753Y-72453454D01*
X131916724Y-72524026D01*
X131916722Y-72524027D01*
X131916723Y-72524027D01*
X131829996Y-72595201D01*
X131829992Y-72595205D01*
X131800999Y-72618999D01*
X131777205Y-72647992D01*
X131038270Y-73386928D01*
X130712500Y-73386928D01*
X130541684Y-73403752D01*
X130377433Y-73453577D01*
X130226058Y-73534488D01*
X130093377Y-73643377D01*
X130014080Y-73740000D01*
X129860920Y-73740000D01*
X129781623Y-73643377D01*
X129648942Y-73534488D01*
X129497567Y-73453577D01*
X129333316Y-73403752D01*
X129299391Y-73400411D01*
X130939803Y-71760000D01*
X144762678Y-71760000D01*
X144800000Y-71763676D01*
X144837322Y-71760000D01*
X144837333Y-71760000D01*
X144948986Y-71749003D01*
X145092247Y-71705546D01*
X145224276Y-71634974D01*
X145340001Y-71540001D01*
X145363804Y-71510997D01*
X146551649Y-70323153D01*
X146672729Y-70299068D01*
X146842889Y-70228586D01*
X146996028Y-70126262D01*
X147126262Y-69996028D01*
X147228586Y-69842889D01*
X147299068Y-69672729D01*
X147335000Y-69492089D01*
X147335000Y-69307911D01*
X147299068Y-69127271D01*
X147228586Y-68957111D01*
X147126262Y-68803972D01*
X146996028Y-68673738D01*
X146842889Y-68571414D01*
X146672729Y-68500932D01*
X146492089Y-68465000D01*
X146307911Y-68465000D01*
X146127271Y-68500932D01*
X145957111Y-68571414D01*
X145803972Y-68673738D01*
X145673738Y-68803972D01*
X145571414Y-68957111D01*
X145500932Y-69127271D01*
X145476847Y-69248351D01*
X144485199Y-70240000D01*
X130662322Y-70240000D01*
X130624999Y-70236324D01*
X130587676Y-70240000D01*
X130587667Y-70240000D01*
X130476014Y-70250997D01*
X130332753Y-70294454D01*
X130200724Y-70365026D01*
X130200722Y-70365027D01*
X130200723Y-70365027D01*
X130113996Y-70436201D01*
X130113992Y-70436205D01*
X130084999Y-70459999D01*
X130061205Y-70488992D01*
X127163271Y-73386928D01*
X126837500Y-73386928D01*
X126666684Y-73403752D01*
X126502433Y-73453577D01*
X126351058Y-73534488D01*
X126218377Y-73643377D01*
X126109488Y-73776058D01*
X126038964Y-73908000D01*
X123220341Y-73908000D01*
X123133120Y-73777465D01*
X122938535Y-73582880D01*
X122709727Y-73429995D01*
X122632485Y-73398000D01*
X122709727Y-73366005D01*
X122938535Y-73213120D01*
X123133120Y-73018535D01*
X123286005Y-72789727D01*
X123391314Y-72535490D01*
X123445000Y-72265592D01*
X123445000Y-71990408D01*
X123391314Y-71720510D01*
X123286005Y-71466273D01*
X123133120Y-71237465D01*
X122938535Y-71042880D01*
X122709727Y-70889995D01*
X122632485Y-70858000D01*
X122709727Y-70826005D01*
X122938535Y-70673120D01*
X123133120Y-70478535D01*
X123286005Y-70249727D01*
X123391314Y-69995490D01*
X123445000Y-69725592D01*
X123445000Y-69450408D01*
X123391314Y-69180510D01*
X123286005Y-68926273D01*
X123133120Y-68697465D01*
X122938535Y-68502880D01*
X122709727Y-68349995D01*
X122632485Y-68318000D01*
X122709727Y-68286005D01*
X122938535Y-68133120D01*
X123133120Y-67938535D01*
X123286005Y-67709727D01*
X123391314Y-67455490D01*
X123445000Y-67185592D01*
X123445000Y-66910408D01*
X123391314Y-66640510D01*
X123286005Y-66386273D01*
X123133120Y-66157465D01*
X122938535Y-65962880D01*
X122709727Y-65809995D01*
X122455490Y-65704686D01*
X122185592Y-65651000D01*
X121910408Y-65651000D01*
X121640510Y-65704686D01*
X121386273Y-65809995D01*
X121157465Y-65962880D01*
X120962880Y-66157465D01*
X120809995Y-66386273D01*
X120704686Y-66640510D01*
X120651000Y-66910408D01*
X104661509Y-66910408D01*
X104649110Y-66848075D01*
X104480631Y-66441331D01*
X104236038Y-66075271D01*
X103924729Y-65763962D01*
X103558669Y-65519369D01*
X103151925Y-65350890D01*
X102720128Y-65265000D01*
X102279872Y-65265000D01*
X101848075Y-65350890D01*
X101441331Y-65519369D01*
X101075271Y-65763962D01*
X100763962Y-66075271D01*
X100519369Y-66441331D01*
X100350890Y-66848075D01*
X100265000Y-67279872D01*
X99710000Y-67279872D01*
X99710000Y-64710000D01*
X198290000Y-64710000D01*
X198290001Y-126215161D01*
G37*
G04 #@! TD.AperFunction*
D28*
X185147000Y-71877000D02*
X185127000Y-71877000D01*
X185127000Y-71897000D01*
X184873000Y-71897000D01*
X184873000Y-71877000D01*
X183282498Y-71877000D01*
X183155592Y-72044001D01*
X183227298Y-72247197D01*
X183316537Y-72386208D01*
X183293491Y-72414290D01*
X183192741Y-72602780D01*
X183130700Y-72807303D01*
X183109751Y-73020000D01*
X183130700Y-73232697D01*
X183192741Y-73437220D01*
X183252048Y-73548176D01*
X183132453Y-73584454D01*
X183000424Y-73655026D01*
X182884699Y-73749999D01*
X182860901Y-73778997D01*
X180954903Y-75684996D01*
X180925899Y-75708799D01*
X180880863Y-75763676D01*
X180830926Y-75824524D01*
X180787373Y-75906005D01*
X180760354Y-75956554D01*
X180716897Y-76099815D01*
X180705900Y-76211468D01*
X180705900Y-76211478D01*
X180702224Y-76248800D01*
X180705900Y-76286122D01*
X180705901Y-87470068D01*
X180702224Y-87507400D01*
X180705901Y-87544733D01*
X180708643Y-87572567D01*
X180716898Y-87656385D01*
X180760354Y-87799646D01*
X180830926Y-87931676D01*
X180832644Y-87933769D01*
X180657697Y-87880700D01*
X180445000Y-87859751D01*
X180232304Y-87880700D01*
X180027781Y-87942741D01*
X179839291Y-88043491D01*
X179810001Y-88067529D01*
X179780710Y-88043491D01*
X179592220Y-87942741D01*
X179387697Y-87880700D01*
X179175000Y-87859751D01*
X178962304Y-87880700D01*
X178757781Y-87942741D01*
X178569291Y-88043491D01*
X178540001Y-88067529D01*
X178510710Y-88043491D01*
X178322220Y-87942741D01*
X178117697Y-87880700D01*
X177905000Y-87859751D01*
X177692304Y-87880700D01*
X177487781Y-87942741D01*
X177299291Y-88043491D01*
X177270001Y-88067529D01*
X177240710Y-88043491D01*
X177052220Y-87942741D01*
X176847697Y-87880700D01*
X176635000Y-87859751D01*
X176422304Y-87880700D01*
X176217781Y-87942741D01*
X176029291Y-88043491D01*
X176000001Y-88067529D01*
X175970710Y-88043491D01*
X175782220Y-87942741D01*
X175577697Y-87880700D01*
X175365000Y-87859751D01*
X175152304Y-87880700D01*
X174947781Y-87942741D01*
X174759291Y-88043491D01*
X174730001Y-88067529D01*
X174700710Y-88043491D01*
X174512220Y-87942741D01*
X174307697Y-87880700D01*
X174095000Y-87859751D01*
X173882304Y-87880700D01*
X173677781Y-87942741D01*
X173489291Y-88043491D01*
X173460001Y-88067529D01*
X173430710Y-88043491D01*
X173242220Y-87942741D01*
X173037697Y-87880700D01*
X172825000Y-87859751D01*
X172612304Y-87880700D01*
X172407781Y-87942741D01*
X172219291Y-88043491D01*
X172190001Y-88067529D01*
X172160710Y-88043491D01*
X171972220Y-87942741D01*
X171767697Y-87880700D01*
X171555000Y-87859751D01*
X171342304Y-87880700D01*
X171137781Y-87942741D01*
X170949291Y-88043491D01*
X170921209Y-88066538D01*
X170782197Y-87977298D01*
X170579001Y-87905592D01*
X170412000Y-88032498D01*
X170412000Y-89623000D01*
X170432000Y-89623000D01*
X170432000Y-89877000D01*
X170412000Y-89877000D01*
X170412000Y-91467502D01*
X170579001Y-91594408D01*
X170782197Y-91522702D01*
X170921208Y-91433463D01*
X170949290Y-91456509D01*
X171137780Y-91557259D01*
X171342303Y-91619300D01*
X171555000Y-91640249D01*
X171767696Y-91619300D01*
X171972219Y-91557259D01*
X172160710Y-91456509D01*
X172190000Y-91432471D01*
X172219290Y-91456509D01*
X172407780Y-91557259D01*
X172612303Y-91619300D01*
X172825000Y-91640249D01*
X173037696Y-91619300D01*
X173242219Y-91557259D01*
X173430710Y-91456509D01*
X173460000Y-91432471D01*
X173489290Y-91456509D01*
X173677780Y-91557259D01*
X173882303Y-91619300D01*
X174095000Y-91640249D01*
X174307696Y-91619300D01*
X174512219Y-91557259D01*
X174700710Y-91456509D01*
X174730000Y-91432471D01*
X174759290Y-91456509D01*
X174947780Y-91557259D01*
X175152303Y-91619300D01*
X175365000Y-91640249D01*
X175577696Y-91619300D01*
X175782219Y-91557259D01*
X175970710Y-91456509D01*
X176000000Y-91432471D01*
X176029290Y-91456509D01*
X176217780Y-91557259D01*
X176422303Y-91619300D01*
X176635000Y-91640249D01*
X176847696Y-91619300D01*
X177052219Y-91557259D01*
X177240710Y-91456509D01*
X177270000Y-91432471D01*
X177299290Y-91456509D01*
X177487780Y-91557259D01*
X177628310Y-91599888D01*
X147660403Y-121567796D01*
X147631399Y-121591599D01*
X147590046Y-121641988D01*
X147536426Y-121707324D01*
X147490336Y-121793552D01*
X147465854Y-121839354D01*
X147422397Y-121982615D01*
X147411400Y-122094268D01*
X147411400Y-122094278D01*
X147407724Y-122131600D01*
X147411400Y-122168923D01*
X147411401Y-123509068D01*
X147407724Y-123546400D01*
X147422398Y-123695385D01*
X147465854Y-123838646D01*
X147536426Y-123970676D01*
X147607362Y-124057111D01*
X147631400Y-124086401D01*
X147660398Y-124110199D01*
X147886928Y-124336729D01*
X147886928Y-124662500D01*
X147903752Y-124833316D01*
X147953577Y-124997567D01*
X148034488Y-125148942D01*
X148143377Y-125281623D01*
X148276058Y-125390512D01*
X148427433Y-125471423D01*
X148591684Y-125521248D01*
X148762500Y-125538072D01*
X149237500Y-125538072D01*
X149408316Y-125521248D01*
X149572567Y-125471423D01*
X149723942Y-125390512D01*
X149856623Y-125281623D01*
X149865000Y-125271415D01*
X149865000Y-125744248D01*
X149859509Y-125800000D01*
X149865000Y-125855751D01*
X149881423Y-126022498D01*
X149946324Y-126236446D01*
X150051716Y-126433623D01*
X150193551Y-126606449D01*
X150236864Y-126641995D01*
X151236856Y-127641989D01*
X151366377Y-127748284D01*
X151563553Y-127853676D01*
X151752351Y-127910948D01*
X150488998Y-129174301D01*
X150460000Y-129198099D01*
X150436202Y-129227097D01*
X150436201Y-129227098D01*
X150365026Y-129313824D01*
X150294454Y-129445854D01*
X150250998Y-129589115D01*
X150236324Y-129738100D01*
X150240001Y-129775432D01*
X150240000Y-133597405D01*
X150170986Y-133634294D01*
X149950055Y-133815608D01*
X149939502Y-133780820D01*
X149880537Y-133670506D01*
X149801185Y-133573815D01*
X149704494Y-133494463D01*
X149594180Y-133435498D01*
X149474482Y-133399188D01*
X149350000Y-133386928D01*
X148785750Y-133390000D01*
X148627000Y-133548750D01*
X148627000Y-134873000D01*
X148647000Y-134873000D01*
X148647000Y-135127000D01*
X148627000Y-135127000D01*
X148627000Y-135147000D01*
X148373000Y-135147000D01*
X148373000Y-135127000D01*
X147173750Y-135127000D01*
X147015000Y-135285750D01*
X147013721Y-135572700D01*
X143534844Y-135572700D01*
X143611343Y-135320516D01*
X143635000Y-135080322D01*
X143635000Y-134025000D01*
X147011928Y-134025000D01*
X147015000Y-134714250D01*
X147173750Y-134873000D01*
X148373000Y-134873000D01*
X148373000Y-133548750D01*
X148214250Y-133390000D01*
X147650000Y-133386928D01*
X147525518Y-133399188D01*
X147405820Y-133435498D01*
X147295506Y-133494463D01*
X147198815Y-133573815D01*
X147119463Y-133670506D01*
X147060498Y-133780820D01*
X147024188Y-133900518D01*
X147011928Y-134025000D01*
X143635000Y-134025000D01*
X143635000Y-133080319D01*
X143642911Y-132999999D01*
X143633161Y-132901010D01*
X143611343Y-132679484D01*
X143517852Y-132371285D01*
X143366031Y-132087248D01*
X143161714Y-131838286D01*
X143099318Y-131787079D01*
X142710132Y-131397893D01*
X142723942Y-131390512D01*
X142856623Y-131281623D01*
X142965512Y-131148942D01*
X143046423Y-130997567D01*
X143096248Y-130833316D01*
X143113072Y-130662500D01*
X143113072Y-130615644D01*
X143118576Y-130597500D01*
X143140490Y-130375001D01*
X143129164Y-130260000D01*
X144406578Y-130260000D01*
X144443900Y-130263676D01*
X144481222Y-130260000D01*
X144481233Y-130260000D01*
X144592886Y-130249003D01*
X144736147Y-130205546D01*
X144868176Y-130134974D01*
X144983901Y-130040001D01*
X145007704Y-130010997D01*
X147016403Y-128002299D01*
X147045401Y-127978501D01*
X147140374Y-127862776D01*
X147210946Y-127730747D01*
X147254403Y-127587486D01*
X147265400Y-127475833D01*
X147265400Y-127475824D01*
X147269076Y-127438501D01*
X147265400Y-127401178D01*
X147265400Y-121298601D01*
X169907803Y-98656199D01*
X169936801Y-98632401D01*
X170031774Y-98516676D01*
X170102346Y-98384647D01*
X170145803Y-98241386D01*
X170156800Y-98129733D01*
X170156800Y-98129724D01*
X170160476Y-98092401D01*
X170156800Y-98055078D01*
X170156800Y-91468414D01*
X170158000Y-91467502D01*
X170158000Y-89877000D01*
X170156800Y-89877000D01*
X170156800Y-89623000D01*
X170158000Y-89623000D01*
X170158000Y-88032498D01*
X170156800Y-88031586D01*
X170156800Y-85308822D01*
X170160476Y-85271499D01*
X170156800Y-85234176D01*
X170156800Y-85234167D01*
X170145803Y-85122514D01*
X170102346Y-84979253D01*
X170031774Y-84847224D01*
X170004090Y-84813491D01*
X169960599Y-84760496D01*
X169960595Y-84760492D01*
X169936801Y-84731499D01*
X169907809Y-84707706D01*
X169323834Y-84123733D01*
X169410629Y-84106468D01*
X169580789Y-84035986D01*
X169733928Y-83933662D01*
X169864162Y-83803428D01*
X169966486Y-83650289D01*
X170036968Y-83480129D01*
X170072900Y-83299489D01*
X170072900Y-83115311D01*
X170036968Y-82934671D01*
X169966486Y-82764511D01*
X169864162Y-82611372D01*
X169733928Y-82481138D01*
X169687327Y-82450000D01*
X172061928Y-82450000D01*
X172074188Y-82574482D01*
X172110498Y-82694180D01*
X172169463Y-82804494D01*
X172248815Y-82901185D01*
X172345506Y-82980537D01*
X172455820Y-83039502D01*
X172575518Y-83075812D01*
X172700000Y-83088072D01*
X175414250Y-83085000D01*
X175573000Y-82926250D01*
X175573000Y-79577000D01*
X175827000Y-79577000D01*
X175827000Y-82926250D01*
X175985750Y-83085000D01*
X178700000Y-83088072D01*
X178824482Y-83075812D01*
X178944180Y-83039502D01*
X179054494Y-82980537D01*
X179151185Y-82901185D01*
X179230537Y-82804494D01*
X179289502Y-82694180D01*
X179325812Y-82574482D01*
X179338072Y-82450000D01*
X179335000Y-79735750D01*
X179176250Y-79577000D01*
X175827000Y-79577000D01*
X175573000Y-79577000D01*
X172223750Y-79577000D01*
X172065000Y-79735750D01*
X172061928Y-82450000D01*
X169687327Y-82450000D01*
X169580789Y-82378814D01*
X169410629Y-82308332D01*
X169242064Y-82274802D01*
X169280846Y-82202247D01*
X169324303Y-82058986D01*
X169338977Y-81910000D01*
X169335300Y-81872667D01*
X169335300Y-79524101D01*
X172062321Y-76797081D01*
X172065000Y-79164250D01*
X172223750Y-79323000D01*
X175573000Y-79323000D01*
X175573000Y-75973750D01*
X175827000Y-75973750D01*
X175827000Y-79323000D01*
X179176250Y-79323000D01*
X179335000Y-79164250D01*
X179338072Y-76450000D01*
X179325812Y-76325518D01*
X179289502Y-76205820D01*
X179230537Y-76095506D01*
X179151185Y-75998815D01*
X179054494Y-75919463D01*
X178944180Y-75860498D01*
X178824482Y-75824188D01*
X178700000Y-75811928D01*
X175985750Y-75815000D01*
X175827000Y-75973750D01*
X175573000Y-75973750D01*
X175414250Y-75815000D01*
X173047081Y-75812321D01*
X175441551Y-73417852D01*
X175562629Y-73393768D01*
X175732789Y-73323286D01*
X175885928Y-73220962D01*
X176016162Y-73090728D01*
X176118486Y-72937589D01*
X176188968Y-72767429D01*
X176224900Y-72586789D01*
X176224900Y-72402611D01*
X176188968Y-72221971D01*
X176118486Y-72051811D01*
X176016162Y-71898672D01*
X175885928Y-71768438D01*
X175732789Y-71666114D01*
X175718028Y-71660000D01*
X185147000Y-71660000D01*
X185147000Y-71877000D01*
G04 #@! TA.AperFunction,Conductor*
D29*
G36*
X185147000Y-71877000D02*
G01*
X185127000Y-71877000D01*
X185127000Y-71897000D01*
X184873000Y-71897000D01*
X184873000Y-71877000D01*
X183282498Y-71877000D01*
X183155592Y-72044001D01*
X183227298Y-72247197D01*
X183316537Y-72386208D01*
X183293491Y-72414290D01*
X183192741Y-72602780D01*
X183130700Y-72807303D01*
X183109751Y-73020000D01*
X183130700Y-73232697D01*
X183192741Y-73437220D01*
X183252048Y-73548176D01*
X183132453Y-73584454D01*
X183000424Y-73655026D01*
X182884699Y-73749999D01*
X182860901Y-73778997D01*
X180954903Y-75684996D01*
X180925899Y-75708799D01*
X180880863Y-75763676D01*
X180830926Y-75824524D01*
X180787373Y-75906005D01*
X180760354Y-75956554D01*
X180716897Y-76099815D01*
X180705900Y-76211468D01*
X180705900Y-76211478D01*
X180702224Y-76248800D01*
X180705900Y-76286122D01*
X180705901Y-87470068D01*
X180702224Y-87507400D01*
X180705901Y-87544733D01*
X180708643Y-87572567D01*
X180716898Y-87656385D01*
X180760354Y-87799646D01*
X180830926Y-87931676D01*
X180832644Y-87933769D01*
X180657697Y-87880700D01*
X180445000Y-87859751D01*
X180232304Y-87880700D01*
X180027781Y-87942741D01*
X179839291Y-88043491D01*
X179810001Y-88067529D01*
X179780710Y-88043491D01*
X179592220Y-87942741D01*
X179387697Y-87880700D01*
X179175000Y-87859751D01*
X178962304Y-87880700D01*
X178757781Y-87942741D01*
X178569291Y-88043491D01*
X178540001Y-88067529D01*
X178510710Y-88043491D01*
X178322220Y-87942741D01*
X178117697Y-87880700D01*
X177905000Y-87859751D01*
X177692304Y-87880700D01*
X177487781Y-87942741D01*
X177299291Y-88043491D01*
X177270001Y-88067529D01*
X177240710Y-88043491D01*
X177052220Y-87942741D01*
X176847697Y-87880700D01*
X176635000Y-87859751D01*
X176422304Y-87880700D01*
X176217781Y-87942741D01*
X176029291Y-88043491D01*
X176000001Y-88067529D01*
X175970710Y-88043491D01*
X175782220Y-87942741D01*
X175577697Y-87880700D01*
X175365000Y-87859751D01*
X175152304Y-87880700D01*
X174947781Y-87942741D01*
X174759291Y-88043491D01*
X174730001Y-88067529D01*
X174700710Y-88043491D01*
X174512220Y-87942741D01*
X174307697Y-87880700D01*
X174095000Y-87859751D01*
X173882304Y-87880700D01*
X173677781Y-87942741D01*
X173489291Y-88043491D01*
X173460001Y-88067529D01*
X173430710Y-88043491D01*
X173242220Y-87942741D01*
X173037697Y-87880700D01*
X172825000Y-87859751D01*
X172612304Y-87880700D01*
X172407781Y-87942741D01*
X172219291Y-88043491D01*
X172190001Y-88067529D01*
X172160710Y-88043491D01*
X171972220Y-87942741D01*
X171767697Y-87880700D01*
X171555000Y-87859751D01*
X171342304Y-87880700D01*
X171137781Y-87942741D01*
X170949291Y-88043491D01*
X170921209Y-88066538D01*
X170782197Y-87977298D01*
X170579001Y-87905592D01*
X170412000Y-88032498D01*
X170412000Y-89623000D01*
X170432000Y-89623000D01*
X170432000Y-89877000D01*
X170412000Y-89877000D01*
X170412000Y-91467502D01*
X170579001Y-91594408D01*
X170782197Y-91522702D01*
X170921208Y-91433463D01*
X170949290Y-91456509D01*
X171137780Y-91557259D01*
X171342303Y-91619300D01*
X171555000Y-91640249D01*
X171767696Y-91619300D01*
X171972219Y-91557259D01*
X172160710Y-91456509D01*
X172190000Y-91432471D01*
X172219290Y-91456509D01*
X172407780Y-91557259D01*
X172612303Y-91619300D01*
X172825000Y-91640249D01*
X173037696Y-91619300D01*
X173242219Y-91557259D01*
X173430710Y-91456509D01*
X173460000Y-91432471D01*
X173489290Y-91456509D01*
X173677780Y-91557259D01*
X173882303Y-91619300D01*
X174095000Y-91640249D01*
X174307696Y-91619300D01*
X174512219Y-91557259D01*
X174700710Y-91456509D01*
X174730000Y-91432471D01*
X174759290Y-91456509D01*
X174947780Y-91557259D01*
X175152303Y-91619300D01*
X175365000Y-91640249D01*
X175577696Y-91619300D01*
X175782219Y-91557259D01*
X175970710Y-91456509D01*
X176000000Y-91432471D01*
X176029290Y-91456509D01*
X176217780Y-91557259D01*
X176422303Y-91619300D01*
X176635000Y-91640249D01*
X176847696Y-91619300D01*
X177052219Y-91557259D01*
X177240710Y-91456509D01*
X177270000Y-91432471D01*
X177299290Y-91456509D01*
X177487780Y-91557259D01*
X177628310Y-91599888D01*
X147660403Y-121567796D01*
X147631399Y-121591599D01*
X147590046Y-121641988D01*
X147536426Y-121707324D01*
X147490336Y-121793552D01*
X147465854Y-121839354D01*
X147422397Y-121982615D01*
X147411400Y-122094268D01*
X147411400Y-122094278D01*
X147407724Y-122131600D01*
X147411400Y-122168923D01*
X147411401Y-123509068D01*
X147407724Y-123546400D01*
X147422398Y-123695385D01*
X147465854Y-123838646D01*
X147536426Y-123970676D01*
X147607362Y-124057111D01*
X147631400Y-124086401D01*
X147660398Y-124110199D01*
X147886928Y-124336729D01*
X147886928Y-124662500D01*
X147903752Y-124833316D01*
X147953577Y-124997567D01*
X148034488Y-125148942D01*
X148143377Y-125281623D01*
X148276058Y-125390512D01*
X148427433Y-125471423D01*
X148591684Y-125521248D01*
X148762500Y-125538072D01*
X149237500Y-125538072D01*
X149408316Y-125521248D01*
X149572567Y-125471423D01*
X149723942Y-125390512D01*
X149856623Y-125281623D01*
X149865000Y-125271415D01*
X149865000Y-125744248D01*
X149859509Y-125800000D01*
X149865000Y-125855751D01*
X149881423Y-126022498D01*
X149946324Y-126236446D01*
X150051716Y-126433623D01*
X150193551Y-126606449D01*
X150236864Y-126641995D01*
X151236856Y-127641989D01*
X151366377Y-127748284D01*
X151563553Y-127853676D01*
X151752351Y-127910948D01*
X150488998Y-129174301D01*
X150460000Y-129198099D01*
X150436202Y-129227097D01*
X150436201Y-129227098D01*
X150365026Y-129313824D01*
X150294454Y-129445854D01*
X150250998Y-129589115D01*
X150236324Y-129738100D01*
X150240001Y-129775432D01*
X150240000Y-133597405D01*
X150170986Y-133634294D01*
X149950055Y-133815608D01*
X149939502Y-133780820D01*
X149880537Y-133670506D01*
X149801185Y-133573815D01*
X149704494Y-133494463D01*
X149594180Y-133435498D01*
X149474482Y-133399188D01*
X149350000Y-133386928D01*
X148785750Y-133390000D01*
X148627000Y-133548750D01*
X148627000Y-134873000D01*
X148647000Y-134873000D01*
X148647000Y-135127000D01*
X148627000Y-135127000D01*
X148627000Y-135147000D01*
X148373000Y-135147000D01*
X148373000Y-135127000D01*
X147173750Y-135127000D01*
X147015000Y-135285750D01*
X147013721Y-135572700D01*
X143534844Y-135572700D01*
X143611343Y-135320516D01*
X143635000Y-135080322D01*
X143635000Y-134025000D01*
X147011928Y-134025000D01*
X147015000Y-134714250D01*
X147173750Y-134873000D01*
X148373000Y-134873000D01*
X148373000Y-133548750D01*
X148214250Y-133390000D01*
X147650000Y-133386928D01*
X147525518Y-133399188D01*
X147405820Y-133435498D01*
X147295506Y-133494463D01*
X147198815Y-133573815D01*
X147119463Y-133670506D01*
X147060498Y-133780820D01*
X147024188Y-133900518D01*
X147011928Y-134025000D01*
X143635000Y-134025000D01*
X143635000Y-133080319D01*
X143642911Y-132999999D01*
X143633161Y-132901010D01*
X143611343Y-132679484D01*
X143517852Y-132371285D01*
X143366031Y-132087248D01*
X143161714Y-131838286D01*
X143099318Y-131787079D01*
X142710132Y-131397893D01*
X142723942Y-131390512D01*
X142856623Y-131281623D01*
X142965512Y-131148942D01*
X143046423Y-130997567D01*
X143096248Y-130833316D01*
X143113072Y-130662500D01*
X143113072Y-130615644D01*
X143118576Y-130597500D01*
X143140490Y-130375001D01*
X143129164Y-130260000D01*
X144406578Y-130260000D01*
X144443900Y-130263676D01*
X144481222Y-130260000D01*
X144481233Y-130260000D01*
X144592886Y-130249003D01*
X144736147Y-130205546D01*
X144868176Y-130134974D01*
X144983901Y-130040001D01*
X145007704Y-130010997D01*
X147016403Y-128002299D01*
X147045401Y-127978501D01*
X147140374Y-127862776D01*
X147210946Y-127730747D01*
X147254403Y-127587486D01*
X147265400Y-127475833D01*
X147265400Y-127475824D01*
X147269076Y-127438501D01*
X147265400Y-127401178D01*
X147265400Y-121298601D01*
X169907803Y-98656199D01*
X169936801Y-98632401D01*
X170031774Y-98516676D01*
X170102346Y-98384647D01*
X170145803Y-98241386D01*
X170156800Y-98129733D01*
X170156800Y-98129724D01*
X170160476Y-98092401D01*
X170156800Y-98055078D01*
X170156800Y-91468414D01*
X170158000Y-91467502D01*
X170158000Y-89877000D01*
X170156800Y-89877000D01*
X170156800Y-89623000D01*
X170158000Y-89623000D01*
X170158000Y-88032498D01*
X170156800Y-88031586D01*
X170156800Y-85308822D01*
X170160476Y-85271499D01*
X170156800Y-85234176D01*
X170156800Y-85234167D01*
X170145803Y-85122514D01*
X170102346Y-84979253D01*
X170031774Y-84847224D01*
X170004090Y-84813491D01*
X169960599Y-84760496D01*
X169960595Y-84760492D01*
X169936801Y-84731499D01*
X169907809Y-84707706D01*
X169323834Y-84123733D01*
X169410629Y-84106468D01*
X169580789Y-84035986D01*
X169733928Y-83933662D01*
X169864162Y-83803428D01*
X169966486Y-83650289D01*
X170036968Y-83480129D01*
X170072900Y-83299489D01*
X170072900Y-83115311D01*
X170036968Y-82934671D01*
X169966486Y-82764511D01*
X169864162Y-82611372D01*
X169733928Y-82481138D01*
X169687327Y-82450000D01*
X172061928Y-82450000D01*
X172074188Y-82574482D01*
X172110498Y-82694180D01*
X172169463Y-82804494D01*
X172248815Y-82901185D01*
X172345506Y-82980537D01*
X172455820Y-83039502D01*
X172575518Y-83075812D01*
X172700000Y-83088072D01*
X175414250Y-83085000D01*
X175573000Y-82926250D01*
X175573000Y-79577000D01*
X175827000Y-79577000D01*
X175827000Y-82926250D01*
X175985750Y-83085000D01*
X178700000Y-83088072D01*
X178824482Y-83075812D01*
X178944180Y-83039502D01*
X179054494Y-82980537D01*
X179151185Y-82901185D01*
X179230537Y-82804494D01*
X179289502Y-82694180D01*
X179325812Y-82574482D01*
X179338072Y-82450000D01*
X179335000Y-79735750D01*
X179176250Y-79577000D01*
X175827000Y-79577000D01*
X175573000Y-79577000D01*
X172223750Y-79577000D01*
X172065000Y-79735750D01*
X172061928Y-82450000D01*
X169687327Y-82450000D01*
X169580789Y-82378814D01*
X169410629Y-82308332D01*
X169242064Y-82274802D01*
X169280846Y-82202247D01*
X169324303Y-82058986D01*
X169338977Y-81910000D01*
X169335300Y-81872667D01*
X169335300Y-79524101D01*
X172062321Y-76797081D01*
X172065000Y-79164250D01*
X172223750Y-79323000D01*
X175573000Y-79323000D01*
X175573000Y-75973750D01*
X175827000Y-75973750D01*
X175827000Y-79323000D01*
X179176250Y-79323000D01*
X179335000Y-79164250D01*
X179338072Y-76450000D01*
X179325812Y-76325518D01*
X179289502Y-76205820D01*
X179230537Y-76095506D01*
X179151185Y-75998815D01*
X179054494Y-75919463D01*
X178944180Y-75860498D01*
X178824482Y-75824188D01*
X178700000Y-75811928D01*
X175985750Y-75815000D01*
X175827000Y-75973750D01*
X175573000Y-75973750D01*
X175414250Y-75815000D01*
X173047081Y-75812321D01*
X175441551Y-73417852D01*
X175562629Y-73393768D01*
X175732789Y-73323286D01*
X175885928Y-73220962D01*
X176016162Y-73090728D01*
X176118486Y-72937589D01*
X176188968Y-72767429D01*
X176224900Y-72586789D01*
X176224900Y-72402611D01*
X176188968Y-72221971D01*
X176118486Y-72051811D01*
X176016162Y-71898672D01*
X175885928Y-71768438D01*
X175732789Y-71666114D01*
X175718028Y-71660000D01*
X185147000Y-71660000D01*
X185147000Y-71877000D01*
G37*
G04 #@! TD.AperFunction*
D28*
X146358905Y-87501008D02*
X146382699Y-87530001D01*
X146411692Y-87553795D01*
X146411696Y-87553799D01*
X146482385Y-87611811D01*
X146498424Y-87624974D01*
X146630453Y-87695546D01*
X146773714Y-87739003D01*
X146885367Y-87750000D01*
X146885376Y-87750000D01*
X146922699Y-87753676D01*
X146960022Y-87750000D01*
X164664700Y-87750000D01*
X164664701Y-88302064D01*
X164596114Y-88404711D01*
X164525632Y-88574871D01*
X164489700Y-88755511D01*
X164489700Y-88939689D01*
X164525632Y-89120329D01*
X164596114Y-89290489D01*
X164698438Y-89443628D01*
X164828672Y-89573862D01*
X164981811Y-89676186D01*
X165151971Y-89746668D01*
X165332611Y-89782600D01*
X165516789Y-89782600D01*
X165697429Y-89746668D01*
X165867589Y-89676186D01*
X166020728Y-89573862D01*
X166150962Y-89443628D01*
X166216863Y-89345000D01*
X167010198Y-89345000D01*
X167031147Y-89365949D01*
X167055232Y-89487029D01*
X167125714Y-89657189D01*
X167228038Y-89810328D01*
X167358272Y-89940562D01*
X167511411Y-90042886D01*
X167681571Y-90113368D01*
X167862211Y-90149300D01*
X168046389Y-90149300D01*
X168227029Y-90113368D01*
X168397189Y-90042886D01*
X168550328Y-89940562D01*
X168636800Y-89854090D01*
X168636801Y-97777597D01*
X145994403Y-120419996D01*
X145965399Y-120443799D01*
X145910271Y-120510974D01*
X145870426Y-120559524D01*
X145836605Y-120622799D01*
X145799854Y-120691554D01*
X145756397Y-120834815D01*
X145745400Y-120946468D01*
X145745400Y-120946478D01*
X145741724Y-120983800D01*
X145745400Y-121021123D01*
X145745401Y-127123697D01*
X144129099Y-128740000D01*
X143572238Y-128740000D01*
X143712915Y-128599323D01*
X143866030Y-128412752D01*
X144017852Y-128128714D01*
X144111343Y-127820517D01*
X144142911Y-127500000D01*
X144111343Y-127179484D01*
X144017852Y-126871286D01*
X143866030Y-126587248D01*
X143661713Y-126338287D01*
X143635000Y-126316364D01*
X143635000Y-108580322D01*
X143642911Y-108500000D01*
X143611343Y-108179483D01*
X143517852Y-107871285D01*
X143500214Y-107838286D01*
X143366031Y-107587248D01*
X143161714Y-107338286D01*
X143099318Y-107287080D01*
X142635000Y-106822761D01*
X142635000Y-92000000D01*
X142622799Y-91876118D01*
X142586664Y-91756996D01*
X142527983Y-91647213D01*
X142449013Y-91550987D01*
X142352787Y-91472017D01*
X142243004Y-91413336D01*
X142123882Y-91377201D01*
X142000000Y-91365000D01*
X135085000Y-91365000D01*
X135085000Y-90030322D01*
X135092911Y-89950000D01*
X135061343Y-89629483D01*
X134967852Y-89321285D01*
X134945403Y-89279286D01*
X134816031Y-89037248D01*
X134611714Y-88788286D01*
X134549320Y-88737081D01*
X130074838Y-84262600D01*
X143120499Y-84262600D01*
X146358905Y-87501008D01*
G04 #@! TA.AperFunction,Conductor*
D29*
G36*
X146358905Y-87501008D02*
G01*
X146382699Y-87530001D01*
X146411692Y-87553795D01*
X146411696Y-87553799D01*
X146482385Y-87611811D01*
X146498424Y-87624974D01*
X146630453Y-87695546D01*
X146773714Y-87739003D01*
X146885367Y-87750000D01*
X146885376Y-87750000D01*
X146922699Y-87753676D01*
X146960022Y-87750000D01*
X164664700Y-87750000D01*
X164664701Y-88302064D01*
X164596114Y-88404711D01*
X164525632Y-88574871D01*
X164489700Y-88755511D01*
X164489700Y-88939689D01*
X164525632Y-89120329D01*
X164596114Y-89290489D01*
X164698438Y-89443628D01*
X164828672Y-89573862D01*
X164981811Y-89676186D01*
X165151971Y-89746668D01*
X165332611Y-89782600D01*
X165516789Y-89782600D01*
X165697429Y-89746668D01*
X165867589Y-89676186D01*
X166020728Y-89573862D01*
X166150962Y-89443628D01*
X166216863Y-89345000D01*
X167010198Y-89345000D01*
X167031147Y-89365949D01*
X167055232Y-89487029D01*
X167125714Y-89657189D01*
X167228038Y-89810328D01*
X167358272Y-89940562D01*
X167511411Y-90042886D01*
X167681571Y-90113368D01*
X167862211Y-90149300D01*
X168046389Y-90149300D01*
X168227029Y-90113368D01*
X168397189Y-90042886D01*
X168550328Y-89940562D01*
X168636800Y-89854090D01*
X168636801Y-97777597D01*
X145994403Y-120419996D01*
X145965399Y-120443799D01*
X145910271Y-120510974D01*
X145870426Y-120559524D01*
X145836605Y-120622799D01*
X145799854Y-120691554D01*
X145756397Y-120834815D01*
X145745400Y-120946468D01*
X145745400Y-120946478D01*
X145741724Y-120983800D01*
X145745400Y-121021123D01*
X145745401Y-127123697D01*
X144129099Y-128740000D01*
X143572238Y-128740000D01*
X143712915Y-128599323D01*
X143866030Y-128412752D01*
X144017852Y-128128714D01*
X144111343Y-127820517D01*
X144142911Y-127500000D01*
X144111343Y-127179484D01*
X144017852Y-126871286D01*
X143866030Y-126587248D01*
X143661713Y-126338287D01*
X143635000Y-126316364D01*
X143635000Y-108580322D01*
X143642911Y-108500000D01*
X143611343Y-108179483D01*
X143517852Y-107871285D01*
X143500214Y-107838286D01*
X143366031Y-107587248D01*
X143161714Y-107338286D01*
X143099318Y-107287080D01*
X142635000Y-106822761D01*
X142635000Y-92000000D01*
X142622799Y-91876118D01*
X142586664Y-91756996D01*
X142527983Y-91647213D01*
X142449013Y-91550987D01*
X142352787Y-91472017D01*
X142243004Y-91413336D01*
X142123882Y-91377201D01*
X142000000Y-91365000D01*
X135085000Y-91365000D01*
X135085000Y-90030322D01*
X135092911Y-89950000D01*
X135061343Y-89629483D01*
X134967852Y-89321285D01*
X134945403Y-89279286D01*
X134816031Y-89037248D01*
X134611714Y-88788286D01*
X134549320Y-88737081D01*
X130074838Y-84262600D01*
X143120499Y-84262600D01*
X146358905Y-87501008D01*
G37*
G04 #@! TD.AperFunction*
D28*
X131815000Y-90627239D02*
X131815000Y-91365000D01*
X130000000Y-91365000D01*
X129876118Y-91377201D01*
X129756996Y-91413336D01*
X129647213Y-91472017D01*
X129550987Y-91550987D01*
X129472017Y-91647213D01*
X129413336Y-91756996D01*
X129377201Y-91876118D01*
X129365000Y-92000000D01*
X129365000Y-96719063D01*
X129299482Y-96699188D01*
X129175000Y-96686928D01*
X128285750Y-96690000D01*
X128127000Y-96848750D01*
X128127000Y-98323000D01*
X128147000Y-98323000D01*
X128147000Y-98577000D01*
X128127000Y-98577000D01*
X128127000Y-100051250D01*
X128285750Y-100210000D01*
X129175000Y-100213072D01*
X129299482Y-100200812D01*
X129365000Y-100180937D01*
X129365000Y-101908059D01*
X129264851Y-101854528D01*
X129098255Y-101803992D01*
X128925001Y-101786928D01*
X127074999Y-101786928D01*
X126901745Y-101803992D01*
X126735149Y-101854528D01*
X126622014Y-101915000D01*
X124530319Y-101915000D01*
X124449999Y-101907089D01*
X124369680Y-101915000D01*
X124369678Y-101915000D01*
X124129484Y-101938657D01*
X123821285Y-102032148D01*
X123537248Y-102183969D01*
X123288286Y-102388286D01*
X123237080Y-102450681D01*
X123007726Y-102680035D01*
X122965512Y-102601058D01*
X122882575Y-102500000D01*
X122965512Y-102398942D01*
X123046275Y-102247845D01*
X123209714Y-102113714D01*
X123414031Y-101864752D01*
X123565852Y-101580715D01*
X123659343Y-101272516D01*
X123683000Y-101032322D01*
X123683000Y-99575000D01*
X126186928Y-99575000D01*
X126199188Y-99699482D01*
X126235498Y-99819180D01*
X126294463Y-99929494D01*
X126373815Y-100026185D01*
X126470506Y-100105537D01*
X126580820Y-100164502D01*
X126700518Y-100200812D01*
X126825000Y-100213072D01*
X127714250Y-100210000D01*
X127873000Y-100051250D01*
X127873000Y-98577000D01*
X126348750Y-98577000D01*
X126190000Y-98735750D01*
X126186928Y-99575000D01*
X123683000Y-99575000D01*
X123683000Y-97325000D01*
X126186928Y-97325000D01*
X126190000Y-98164250D01*
X126348750Y-98323000D01*
X127873000Y-98323000D01*
X127873000Y-96848750D01*
X127714250Y-96690000D01*
X126825000Y-96686928D01*
X126700518Y-96699188D01*
X126580820Y-96735498D01*
X126470506Y-96794463D01*
X126373815Y-96873815D01*
X126294463Y-96970506D01*
X126235498Y-97080820D01*
X126199188Y-97200518D01*
X126186928Y-97325000D01*
X123683000Y-97325000D01*
X123683000Y-89827678D01*
X123659343Y-89587484D01*
X123565852Y-89279285D01*
X123437560Y-89039268D01*
X123435812Y-89021518D01*
X123399502Y-88901820D01*
X123340537Y-88791506D01*
X123261185Y-88694815D01*
X123164494Y-88615463D01*
X123128604Y-88596279D01*
X123209714Y-88529714D01*
X123414031Y-88280752D01*
X123565852Y-87996715D01*
X123659343Y-87688516D01*
X123690911Y-87368000D01*
X123659343Y-87047484D01*
X123565852Y-86739285D01*
X123418175Y-86463000D01*
X127650762Y-86463000D01*
X131815000Y-90627239D01*
G04 #@! TA.AperFunction,Conductor*
D29*
G36*
X131815000Y-90627239D02*
G01*
X131815000Y-91365000D01*
X130000000Y-91365000D01*
X129876118Y-91377201D01*
X129756996Y-91413336D01*
X129647213Y-91472017D01*
X129550987Y-91550987D01*
X129472017Y-91647213D01*
X129413336Y-91756996D01*
X129377201Y-91876118D01*
X129365000Y-92000000D01*
X129365000Y-96719063D01*
X129299482Y-96699188D01*
X129175000Y-96686928D01*
X128285750Y-96690000D01*
X128127000Y-96848750D01*
X128127000Y-98323000D01*
X128147000Y-98323000D01*
X128147000Y-98577000D01*
X128127000Y-98577000D01*
X128127000Y-100051250D01*
X128285750Y-100210000D01*
X129175000Y-100213072D01*
X129299482Y-100200812D01*
X129365000Y-100180937D01*
X129365000Y-101908059D01*
X129264851Y-101854528D01*
X129098255Y-101803992D01*
X128925001Y-101786928D01*
X127074999Y-101786928D01*
X126901745Y-101803992D01*
X126735149Y-101854528D01*
X126622014Y-101915000D01*
X124530319Y-101915000D01*
X124449999Y-101907089D01*
X124369680Y-101915000D01*
X124369678Y-101915000D01*
X124129484Y-101938657D01*
X123821285Y-102032148D01*
X123537248Y-102183969D01*
X123288286Y-102388286D01*
X123237080Y-102450681D01*
X123007726Y-102680035D01*
X122965512Y-102601058D01*
X122882575Y-102500000D01*
X122965512Y-102398942D01*
X123046275Y-102247845D01*
X123209714Y-102113714D01*
X123414031Y-101864752D01*
X123565852Y-101580715D01*
X123659343Y-101272516D01*
X123683000Y-101032322D01*
X123683000Y-99575000D01*
X126186928Y-99575000D01*
X126199188Y-99699482D01*
X126235498Y-99819180D01*
X126294463Y-99929494D01*
X126373815Y-100026185D01*
X126470506Y-100105537D01*
X126580820Y-100164502D01*
X126700518Y-100200812D01*
X126825000Y-100213072D01*
X127714250Y-100210000D01*
X127873000Y-100051250D01*
X127873000Y-98577000D01*
X126348750Y-98577000D01*
X126190000Y-98735750D01*
X126186928Y-99575000D01*
X123683000Y-99575000D01*
X123683000Y-97325000D01*
X126186928Y-97325000D01*
X126190000Y-98164250D01*
X126348750Y-98323000D01*
X127873000Y-98323000D01*
X127873000Y-96848750D01*
X127714250Y-96690000D01*
X126825000Y-96686928D01*
X126700518Y-96699188D01*
X126580820Y-96735498D01*
X126470506Y-96794463D01*
X126373815Y-96873815D01*
X126294463Y-96970506D01*
X126235498Y-97080820D01*
X126199188Y-97200518D01*
X126186928Y-97325000D01*
X123683000Y-97325000D01*
X123683000Y-89827678D01*
X123659343Y-89587484D01*
X123565852Y-89279285D01*
X123437560Y-89039268D01*
X123435812Y-89021518D01*
X123399502Y-88901820D01*
X123340537Y-88791506D01*
X123261185Y-88694815D01*
X123164494Y-88615463D01*
X123128604Y-88596279D01*
X123209714Y-88529714D01*
X123414031Y-88280752D01*
X123565852Y-87996715D01*
X123659343Y-87688516D01*
X123690911Y-87368000D01*
X123659343Y-87047484D01*
X123565852Y-86739285D01*
X123418175Y-86463000D01*
X127650762Y-86463000D01*
X131815000Y-90627239D01*
G37*
G04 #@! TD.AperFunction*
M02*
