G04 #@! TF.GenerationSoftware,KiCad,Pcbnew,5.1.7-a382d34a8~87~ubuntu18.04.1*
G04 #@! TF.CreationDate,2020-12-04T06:12:41+00:00*
G04 #@! TF.ProjectId,display,64697370-6c61-4792-9e6b-696361645f70,1.0*
G04 #@! TF.SameCoordinates,Original*
G04 #@! TF.FileFunction,Copper,L2,Bot*
G04 #@! TF.FilePolarity,Positive*
%FSLAX46Y46*%
G04 Gerber Fmt 4.6, Leading zero omitted, Abs format (unit mm)*
G04 Created by KiCad (PCBNEW 5.1.7-a382d34a8~87~ubuntu18.04.1) date 2020-12-04 06:12:41*
%MOMM*%
%LPD*%
G01*
G04 APERTURE LIST*
G04 #@! TA.AperFunction,ComponentPad*
%ADD10R,1.524000X1.524000*%
G04 #@! TD*
G04 #@! TA.AperFunction,ComponentPad*
%ADD11C,1.524000*%
G04 #@! TD*
G04 #@! TA.AperFunction,ComponentPad*
%ADD12R,1.700000X1.700000*%
G04 #@! TD*
G04 #@! TA.AperFunction,ComponentPad*
%ADD13O,1.700000X1.700000*%
G04 #@! TD*
G04 #@! TA.AperFunction,ComponentPad*
%ADD14O,1.700000X2.000000*%
G04 #@! TD*
G04 #@! TA.AperFunction,ComponentPad*
%ADD15R,1.727200X1.727200*%
G04 #@! TD*
G04 #@! TA.AperFunction,ComponentPad*
%ADD16O,1.727200X1.727200*%
G04 #@! TD*
G04 #@! TA.AperFunction,ComponentPad*
%ADD17O,1.700000X1.950000*%
G04 #@! TD*
G04 #@! TA.AperFunction,ComponentPad*
%ADD18O,3.014980X1.506220*%
G04 #@! TD*
G04 #@! TA.AperFunction,ViaPad*
%ADD19C,0.600000*%
G04 #@! TD*
G04 #@! TA.AperFunction,Conductor*
%ADD20C,0.250000*%
G04 #@! TD*
G04 #@! TA.AperFunction,Conductor*
%ADD21C,2.000000*%
G04 #@! TD*
G04 #@! TA.AperFunction,Conductor*
%ADD22C,1.000000*%
G04 #@! TD*
G04 #@! TA.AperFunction,Conductor*
%ADD23C,0.254000*%
G04 #@! TD*
G04 #@! TA.AperFunction,Conductor*
%ADD24C,0.100000*%
G04 #@! TD*
G04 APERTURE END LIST*
G04 #@! TA.AperFunction,SMDPad,CuDef*
G36*
G01*
X150075000Y-128225000D02*
X147925000Y-128225000D01*
G75*
G02*
X147675000Y-127975000I0J250000D01*
G01*
X147675000Y-127050000D01*
G75*
G02*
X147925000Y-126800000I250000J0D01*
G01*
X150075000Y-126800000D01*
G75*
G02*
X150325000Y-127050000I0J-250000D01*
G01*
X150325000Y-127975000D01*
G75*
G02*
X150075000Y-128225000I-250000J0D01*
G01*
G37*
G04 #@! TD.AperFunction*
G04 #@! TA.AperFunction,SMDPad,CuDef*
G36*
G01*
X150075000Y-131200000D02*
X147925000Y-131200000D01*
G75*
G02*
X147675000Y-130950000I0J250000D01*
G01*
X147675000Y-130025000D01*
G75*
G02*
X147925000Y-129775000I250000J0D01*
G01*
X150075000Y-129775000D01*
G75*
G02*
X150325000Y-130025000I0J-250000D01*
G01*
X150325000Y-130950000D01*
G75*
G02*
X150075000Y-131200000I-250000J0D01*
G01*
G37*
G04 #@! TD.AperFunction*
G04 #@! TA.AperFunction,SMDPad,CuDef*
G36*
G01*
X148288000Y-69075000D02*
X148288000Y-66925000D01*
G75*
G02*
X148538000Y-66675000I250000J0D01*
G01*
X149463000Y-66675000D01*
G75*
G02*
X149713000Y-66925000I0J-250000D01*
G01*
X149713000Y-69075000D01*
G75*
G02*
X149463000Y-69325000I-250000J0D01*
G01*
X148538000Y-69325000D01*
G75*
G02*
X148288000Y-69075000I0J250000D01*
G01*
G37*
G04 #@! TD.AperFunction*
G04 #@! TA.AperFunction,SMDPad,CuDef*
G36*
G01*
X151263000Y-69075000D02*
X151263000Y-66925000D01*
G75*
G02*
X151513000Y-66675000I250000J0D01*
G01*
X152438000Y-66675000D01*
G75*
G02*
X152688000Y-66925000I0J-250000D01*
G01*
X152688000Y-69075000D01*
G75*
G02*
X152438000Y-69325000I-250000J0D01*
G01*
X151513000Y-69325000D01*
G75*
G02*
X151263000Y-69075000I0J250000D01*
G01*
G37*
G04 #@! TD.AperFunction*
D10*
X196000000Y-79490000D03*
D11*
X196000000Y-82030000D03*
X196000000Y-84570000D03*
X196000000Y-87110000D03*
X196000000Y-89650000D03*
X196000000Y-92190000D03*
X196000000Y-94730000D03*
X196000000Y-97270000D03*
X196000000Y-99810000D03*
X196000000Y-102350000D03*
X196000000Y-104890000D03*
X196000000Y-107430000D03*
X196000000Y-109970000D03*
X196000000Y-112510000D03*
X115000000Y-92190000D03*
X115000000Y-94730000D03*
X115000000Y-97270000D03*
X115000000Y-99810000D03*
D12*
X102000000Y-100000000D03*
D13*
X102000000Y-97460000D03*
X102000000Y-94920000D03*
X102000000Y-92380000D03*
G04 #@! TA.AperFunction,ComponentPad*
G36*
G01*
X124150000Y-135750000D02*
X124150000Y-134250000D01*
G75*
G02*
X124400000Y-134000000I250000J0D01*
G01*
X125600000Y-134000000D01*
G75*
G02*
X125850000Y-134250000I0J-250000D01*
G01*
X125850000Y-135750000D01*
G75*
G02*
X125600000Y-136000000I-250000J0D01*
G01*
X124400000Y-136000000D01*
G75*
G02*
X124150000Y-135750000I0J250000D01*
G01*
G37*
G04 #@! TD.AperFunction*
D14*
X127500000Y-135000000D03*
D15*
X165000000Y-134000000D03*
D16*
X165000000Y-131460000D03*
X167540000Y-134000000D03*
X167540000Y-131460000D03*
X170080000Y-134000000D03*
X170080000Y-131460000D03*
X172620000Y-134000000D03*
X172620000Y-131460000D03*
G04 #@! TA.AperFunction,ComponentPad*
G36*
G01*
X187350000Y-134775000D02*
X187350000Y-136225000D01*
G75*
G02*
X187100000Y-136475000I-250000J0D01*
G01*
X185900000Y-136475000D01*
G75*
G02*
X185650000Y-136225000I0J250000D01*
G01*
X185650000Y-134775000D01*
G75*
G02*
X185900000Y-134525000I250000J0D01*
G01*
X187100000Y-134525000D01*
G75*
G02*
X187350000Y-134775000I0J-250000D01*
G01*
G37*
G04 #@! TD.AperFunction*
D17*
X184000000Y-135500000D03*
X181500000Y-135500000D03*
G04 #@! TA.AperFunction,ComponentPad*
G36*
G01*
X147650000Y-135725000D02*
X147650000Y-134275000D01*
G75*
G02*
X147900000Y-134025000I250000J0D01*
G01*
X149100000Y-134025000D01*
G75*
G02*
X149350000Y-134275000I0J-250000D01*
G01*
X149350000Y-135725000D01*
G75*
G02*
X149100000Y-135975000I-250000J0D01*
G01*
X147900000Y-135975000D01*
G75*
G02*
X147650000Y-135725000I0J250000D01*
G01*
G37*
G04 #@! TD.AperFunction*
X151000000Y-135000000D03*
X153500000Y-135000000D03*
X156000000Y-135000000D03*
X142000000Y-135000000D03*
X139500000Y-135000000D03*
X137000000Y-135000000D03*
G04 #@! TA.AperFunction,ComponentPad*
G36*
G01*
X133650000Y-135725000D02*
X133650000Y-134275000D01*
G75*
G02*
X133900000Y-134025000I250000J0D01*
G01*
X135100000Y-134025000D01*
G75*
G02*
X135350000Y-134275000I0J-250000D01*
G01*
X135350000Y-135725000D01*
G75*
G02*
X135100000Y-135975000I-250000J0D01*
G01*
X133900000Y-135975000D01*
G75*
G02*
X133650000Y-135725000I0J250000D01*
G01*
G37*
G04 #@! TD.AperFunction*
D10*
X122048000Y-89908000D03*
D11*
X122048000Y-87368000D03*
X122048000Y-84828000D03*
X122048000Y-82288000D03*
X122048000Y-79748000D03*
X122048000Y-77208000D03*
X122048000Y-74668000D03*
X122048000Y-72128000D03*
X122048000Y-69588000D03*
X122048000Y-67048000D03*
D18*
X109751340Y-131247900D03*
X116248660Y-131247900D03*
X109751340Y-126752100D03*
X116248660Y-126752100D03*
X127497660Y-126752100D03*
X121000340Y-126752100D03*
X127497660Y-131247900D03*
X121000340Y-131247900D03*
X189751340Y-131247900D03*
X196248660Y-131247900D03*
X189751340Y-126752100D03*
X196248660Y-126752100D03*
D19*
X126124000Y-98045100D03*
X124883500Y-111300000D03*
X153233502Y-106500000D03*
X148233502Y-101500000D03*
X139000000Y-124500000D03*
X162000000Y-74000000D03*
X128328000Y-84828000D03*
X163000000Y-123000000D03*
X159800000Y-119000000D03*
X142000000Y-121600000D03*
X152000000Y-126800000D03*
X146400000Y-69400000D03*
X153600000Y-68000000D03*
X175289900Y-72494700D03*
X187404800Y-77187400D03*
X187379600Y-82649600D03*
X187025900Y-81261900D03*
X183396800Y-98895800D03*
X168760900Y-86829000D03*
X169137900Y-83207400D03*
X165424700Y-88847600D03*
X123821200Y-82804500D03*
X167954300Y-89214300D03*
X182091300Y-77719000D03*
X182573300Y-78368900D03*
X132250000Y-125505300D03*
X159315600Y-77031800D03*
X133382300Y-124131200D03*
X183712400Y-89149300D03*
X162318600Y-82722500D03*
X148800000Y-70200000D03*
X162000000Y-70200000D03*
D20*
X122048000Y-82288000D02*
X126124000Y-86364000D01*
X126124000Y-86364000D02*
X126124000Y-98045100D01*
X124883500Y-111300000D02*
X126124000Y-110059500D01*
X126124000Y-110059500D02*
X126124000Y-98045100D01*
X124725200Y-130308200D02*
X124725200Y-111458300D01*
X124725200Y-111458300D02*
X124883500Y-111300000D01*
X148500000Y-135000000D02*
X149825400Y-136325400D01*
X149825400Y-136325400D02*
X158675200Y-136325400D01*
X158675200Y-136325400D02*
X162189600Y-132811000D01*
X162189600Y-132811000D02*
X170451600Y-132811000D01*
X170451600Y-132811000D02*
X171431100Y-131831500D01*
X171431100Y-131831500D02*
X171431100Y-131460000D01*
X172620000Y-131460000D02*
X171431100Y-131460000D01*
X134500000Y-135000000D02*
X135809200Y-136309200D01*
X135809200Y-136309200D02*
X147190800Y-136309200D01*
X147190800Y-136309200D02*
X148500000Y-135000000D01*
X124725200Y-130308200D02*
X125664900Y-131247900D01*
X122833100Y-131247900D02*
X123772800Y-130308200D01*
X123772800Y-130308200D02*
X124725200Y-130308200D01*
X125664900Y-131247900D02*
X125000000Y-131912800D01*
X125000000Y-131912800D02*
X125000000Y-135000000D01*
X121000300Y-131247900D02*
X122833100Y-131247900D01*
X127497700Y-131247900D02*
X125664900Y-131247900D01*
D21*
X134500000Y-125233502D02*
X153233502Y-106500000D01*
X134500000Y-135000000D02*
X134500000Y-125233502D01*
X148233502Y-101500000D02*
X150733502Y-99000000D01*
D22*
X149000000Y-134500000D02*
X148500000Y-135000000D01*
X149000000Y-130487500D02*
X149000000Y-134500000D01*
D21*
X165000000Y-131460000D02*
X158040000Y-124500000D01*
X158040000Y-124500000D02*
X139000000Y-124500000D01*
X162000000Y-74000000D02*
X186500000Y-74000000D01*
X186500000Y-74000000D02*
X191990000Y-79490000D01*
X191990000Y-79490000D02*
X196000000Y-79490000D01*
X159000000Y-74000000D02*
X162000000Y-74000000D01*
X128328000Y-84828000D02*
X129672000Y-84828000D01*
X129672000Y-84828000D02*
X140500000Y-74000000D01*
X140500000Y-74000000D02*
X159000000Y-74000000D01*
X159000000Y-74000000D02*
X162000000Y-74000000D01*
X163000000Y-123000000D02*
X163000000Y-122200000D01*
X163000000Y-122200000D02*
X159800000Y-119000000D01*
X159800000Y-119000000D02*
X145000000Y-119000000D01*
X142400000Y-121600000D02*
X142000000Y-121600000D01*
X145000000Y-119000000D02*
X142400000Y-121600000D01*
D22*
X149000000Y-127512500D02*
X151287500Y-127512500D01*
X151287500Y-127512500D02*
X152000000Y-126800000D01*
X149000500Y-68000000D02*
X147800000Y-68000000D01*
X147800000Y-68000000D02*
X146400000Y-69400000D01*
X153600000Y-68000000D02*
X151975500Y-68000000D01*
D20*
X196000000Y-89650000D02*
X197359100Y-88290900D01*
X197359100Y-88290900D02*
X197359100Y-78857700D01*
X197359100Y-78857700D02*
X194381300Y-75879900D01*
X194381300Y-75879900D02*
X190254300Y-75879900D01*
X190254300Y-75879900D02*
X186869100Y-72494700D01*
X186869100Y-72494700D02*
X175289900Y-72494700D01*
X187404800Y-77187400D02*
X186173600Y-75956200D01*
X186173600Y-75956200D02*
X141014200Y-75956200D01*
X141014200Y-75956200D02*
X130788400Y-86182000D01*
X130788400Y-86182000D02*
X127797900Y-86182000D01*
X127797900Y-86182000D02*
X125844600Y-84228700D01*
X125844600Y-84228700D02*
X125844600Y-81978000D01*
X125844600Y-81978000D02*
X122523700Y-78657100D01*
X122523700Y-78657100D02*
X121564400Y-78657100D01*
X121564400Y-78657100D02*
X116174600Y-84046900D01*
X116174600Y-84046900D02*
X116174600Y-93555400D01*
X116174600Y-93555400D02*
X115000000Y-94730000D01*
X196000000Y-92190000D02*
X194547400Y-90737400D01*
X194547400Y-90737400D02*
X194547400Y-84330000D01*
X194547400Y-84330000D02*
X187404800Y-77187400D01*
X103175300Y-94920000D02*
X103365300Y-94730000D01*
X103365300Y-94730000D02*
X115000000Y-94730000D01*
X102000000Y-94920000D02*
X103175300Y-94920000D01*
X196000000Y-94730000D02*
X187379600Y-86109600D01*
X187379600Y-86109600D02*
X187379600Y-82649600D01*
X173214500Y-134000000D02*
X169927800Y-137286700D01*
X169927800Y-137286700D02*
X124075600Y-137286700D01*
X124075600Y-137286700D02*
X118717100Y-131928200D01*
X118717100Y-131928200D02*
X118717100Y-103717100D01*
X118717100Y-103717100D02*
X115000000Y-100000000D01*
X173214500Y-134000000D02*
X176046800Y-136832300D01*
X176046800Y-136832300D02*
X184468400Y-136832300D01*
X184468400Y-136832300D02*
X185249500Y-136051200D01*
X185249500Y-136051200D02*
X185249500Y-126744600D01*
X185249500Y-126744600D02*
X197134200Y-114859900D01*
X197134200Y-114859900D02*
X197134200Y-103484200D01*
X197134200Y-103484200D02*
X196000000Y-102350000D01*
X115000000Y-100000000D02*
X115000000Y-99810000D01*
X103175300Y-100000000D02*
X115000000Y-100000000D01*
X172620000Y-134000000D02*
X173214500Y-134000000D01*
X196000000Y-94730000D02*
X197087400Y-95817400D01*
X197087400Y-95817400D02*
X197087400Y-101262600D01*
X197087400Y-101262600D02*
X196000000Y-102350000D01*
X102000000Y-100000000D02*
X103175300Y-100000000D01*
X196000000Y-99810000D02*
X186754200Y-90564200D01*
X186754200Y-90564200D02*
X186754200Y-81533600D01*
X186754200Y-81533600D02*
X187025900Y-81261900D01*
X196000000Y-99810000D02*
X194910500Y-100899500D01*
X194910500Y-100899500D02*
X194910500Y-108880500D01*
X194910500Y-108880500D02*
X196000000Y-109970000D01*
X166351100Y-134000000D02*
X166351100Y-134891700D01*
X166351100Y-134891700D02*
X164413500Y-136829300D01*
X164413500Y-136829300D02*
X124301000Y-136829300D01*
X124301000Y-136829300D02*
X119167500Y-131695800D01*
X119167500Y-131695800D02*
X119167500Y-101627500D01*
X119167500Y-101627500D02*
X115000000Y-97460000D01*
X115000000Y-97460000D02*
X115000000Y-97270000D01*
X115000000Y-97460000D02*
X103175300Y-97460000D01*
X102000000Y-97460000D02*
X103175300Y-97460000D01*
X167540000Y-134000000D02*
X166351100Y-134000000D01*
X168760900Y-86829000D02*
X180827700Y-98895800D01*
X180827700Y-98895800D02*
X183396800Y-98895800D01*
X196000000Y-112510000D02*
X185243900Y-101753900D01*
X185243900Y-101753900D02*
X185243900Y-79405400D01*
X185243900Y-79405400D02*
X182932200Y-77093700D01*
X182932200Y-77093700D02*
X175251600Y-77093700D01*
X175251600Y-77093700D02*
X169137900Y-83207400D01*
X167540000Y-131460000D02*
X167540000Y-130271100D01*
X167540000Y-130271100D02*
X165424700Y-128155800D01*
X165424700Y-128155800D02*
X165424700Y-88847600D01*
X102000000Y-92380000D02*
X114810000Y-92380000D01*
X114810000Y-92380000D02*
X115000000Y-92190000D01*
X122048000Y-87368000D02*
X120960600Y-86280600D01*
X120960600Y-86280600D02*
X120960600Y-81814400D01*
X120960600Y-81814400D02*
X121617600Y-81157400D01*
X121617600Y-81157400D02*
X122455300Y-81157400D01*
X122455300Y-81157400D02*
X123821200Y-82523300D01*
X123821200Y-82523300D02*
X123821200Y-82804500D01*
X170080000Y-130271100D02*
X167954300Y-128145400D01*
X167954300Y-128145400D02*
X167954300Y-89214300D01*
X170080000Y-131460000D02*
X170080000Y-130271100D01*
X182091300Y-77719000D02*
X182829000Y-77719000D01*
X182829000Y-77719000D02*
X184788000Y-79678000D01*
X184788000Y-79678000D02*
X184788000Y-133411700D01*
X184788000Y-133411700D02*
X184000000Y-134199700D01*
X184000000Y-135500000D02*
X184000000Y-134199700D01*
X182573300Y-78368900D02*
X184337700Y-80133300D01*
X184337700Y-80133300D02*
X184337700Y-116398000D01*
X184337700Y-116398000D02*
X182675300Y-118060400D01*
X182675300Y-118060400D02*
X182675300Y-135500000D01*
X181500000Y-135500000D02*
X182675300Y-135500000D01*
X196248700Y-126752100D02*
X197584600Y-125416200D01*
X197584600Y-125416200D02*
X197584600Y-94776700D01*
X197584600Y-94776700D02*
X196427200Y-93619300D01*
X196427200Y-93619300D02*
X195842800Y-93619300D01*
X195842800Y-93619300D02*
X194097000Y-91873500D01*
X194097000Y-91873500D02*
X194097000Y-87413600D01*
X194097000Y-87413600D02*
X183089900Y-76406500D01*
X183089900Y-76406500D02*
X159056600Y-76406500D01*
X159056600Y-76406500D02*
X148786300Y-86676800D01*
X148786300Y-86676800D02*
X127655800Y-86676800D01*
X127655800Y-86676800D02*
X124943900Y-83964900D01*
X124943900Y-83964900D02*
X124943900Y-82643900D01*
X124943900Y-82643900D02*
X122048000Y-79748000D01*
X196248700Y-131247900D02*
X198084100Y-129412500D01*
X198084100Y-129412500D02*
X198084100Y-78285000D01*
X198084100Y-78285000D02*
X191649900Y-71850800D01*
X191649900Y-71850800D02*
X127405200Y-71850800D01*
X127405200Y-71850800D02*
X122048000Y-77208000D01*
X159315600Y-77031800D02*
X132250000Y-104097400D01*
X132250000Y-104097400D02*
X132250000Y-125505300D01*
X162318600Y-86203700D02*
X162318600Y-95194900D01*
X162318600Y-95194900D02*
X133382300Y-124131200D01*
X162318600Y-82722500D02*
X162318600Y-86203700D01*
X162318600Y-86203700D02*
X180766800Y-86203700D01*
X180766800Y-86203700D02*
X183712400Y-89149300D01*
X148800000Y-70200000D02*
X162000000Y-70200000D01*
D23*
X198290000Y-77416098D02*
X192213704Y-71339803D01*
X192189901Y-71310799D01*
X192074176Y-71215826D01*
X191942147Y-71145254D01*
X191798886Y-71101797D01*
X191687233Y-71090800D01*
X191687222Y-71090800D01*
X191649900Y-71087124D01*
X191612578Y-71090800D01*
X162292690Y-71090800D01*
X162442889Y-71028586D01*
X162596028Y-70926262D01*
X162726262Y-70796028D01*
X162828586Y-70642889D01*
X162899068Y-70472729D01*
X162935000Y-70292089D01*
X162935000Y-70107911D01*
X162899068Y-69927271D01*
X162828586Y-69757111D01*
X162726262Y-69603972D01*
X162596028Y-69473738D01*
X162442889Y-69371414D01*
X162272729Y-69300932D01*
X162092089Y-69265000D01*
X161907911Y-69265000D01*
X161727271Y-69300932D01*
X161557111Y-69371414D01*
X161454465Y-69440000D01*
X153245029Y-69440000D01*
X153258472Y-69414850D01*
X153309008Y-69248254D01*
X153320163Y-69135000D01*
X153655752Y-69135000D01*
X153822499Y-69118577D01*
X154036447Y-69053676D01*
X154233623Y-68948284D01*
X154406449Y-68806449D01*
X154548284Y-68633623D01*
X154653676Y-68436447D01*
X154718577Y-68222499D01*
X154740491Y-68000000D01*
X154718577Y-67777501D01*
X154653676Y-67563553D01*
X154548284Y-67366377D01*
X154477291Y-67279872D01*
X193265000Y-67279872D01*
X193265000Y-67720128D01*
X193350890Y-68151925D01*
X193519369Y-68558669D01*
X193763962Y-68924729D01*
X194075271Y-69236038D01*
X194441331Y-69480631D01*
X194848075Y-69649110D01*
X195279872Y-69735000D01*
X195720128Y-69735000D01*
X196151925Y-69649110D01*
X196558669Y-69480631D01*
X196924729Y-69236038D01*
X197236038Y-68924729D01*
X197480631Y-68558669D01*
X197649110Y-68151925D01*
X197735000Y-67720128D01*
X197735000Y-67279872D01*
X197649110Y-66848075D01*
X197480631Y-66441331D01*
X197236038Y-66075271D01*
X196924729Y-65763962D01*
X196558669Y-65519369D01*
X196151925Y-65350890D01*
X195720128Y-65265000D01*
X195279872Y-65265000D01*
X194848075Y-65350890D01*
X194441331Y-65519369D01*
X194075271Y-65763962D01*
X193763962Y-66075271D01*
X193519369Y-66441331D01*
X193350890Y-66848075D01*
X193265000Y-67279872D01*
X154477291Y-67279872D01*
X154406449Y-67193551D01*
X154233623Y-67051716D01*
X154036447Y-66946324D01*
X153822499Y-66881423D01*
X153655752Y-66865000D01*
X153320163Y-66865000D01*
X153309008Y-66751746D01*
X153258472Y-66585150D01*
X153176405Y-66431614D01*
X153065962Y-66297038D01*
X152931386Y-66186595D01*
X152777850Y-66104528D01*
X152611254Y-66053992D01*
X152438000Y-66036928D01*
X151513000Y-66036928D01*
X151339746Y-66053992D01*
X151173150Y-66104528D01*
X151019614Y-66186595D01*
X150885038Y-66297038D01*
X150774595Y-66431614D01*
X150692528Y-66585150D01*
X150641992Y-66751746D01*
X150624928Y-66925000D01*
X150624928Y-69075000D01*
X150641992Y-69248254D01*
X150692528Y-69414850D01*
X150705971Y-69440000D01*
X150270029Y-69440000D01*
X150283472Y-69414850D01*
X150334008Y-69248254D01*
X150351072Y-69075000D01*
X150351072Y-66925000D01*
X150334008Y-66751746D01*
X150283472Y-66585150D01*
X150201405Y-66431614D01*
X150090962Y-66297038D01*
X149956386Y-66186595D01*
X149802850Y-66104528D01*
X149636254Y-66053992D01*
X149463000Y-66036928D01*
X148538000Y-66036928D01*
X148364746Y-66053992D01*
X148198150Y-66104528D01*
X148044614Y-66186595D01*
X147910038Y-66297038D01*
X147799595Y-66431614D01*
X147717528Y-66585150D01*
X147666992Y-66751746D01*
X147654971Y-66873793D01*
X147577501Y-66881423D01*
X147363553Y-66946324D01*
X147166377Y-67051716D01*
X146993551Y-67193551D01*
X146958008Y-67236860D01*
X145558012Y-68636857D01*
X145451717Y-68766378D01*
X145346324Y-68963554D01*
X145281423Y-69177502D01*
X145259509Y-69400000D01*
X145281423Y-69622498D01*
X145346324Y-69836446D01*
X145451717Y-70033622D01*
X145593552Y-70206448D01*
X145766378Y-70348283D01*
X145963554Y-70453676D01*
X146177502Y-70518577D01*
X146400000Y-70540491D01*
X146622498Y-70518577D01*
X146836446Y-70453676D01*
X147033622Y-70348283D01*
X147163143Y-70241988D01*
X147816341Y-69588791D01*
X147910038Y-69702962D01*
X147973045Y-69754670D01*
X147971414Y-69757111D01*
X147900932Y-69927271D01*
X147865000Y-70107911D01*
X147865000Y-70292089D01*
X147900932Y-70472729D01*
X147971414Y-70642889D01*
X148073738Y-70796028D01*
X148203972Y-70926262D01*
X148357111Y-71028586D01*
X148507310Y-71090800D01*
X127442523Y-71090800D01*
X127405200Y-71087124D01*
X127367877Y-71090800D01*
X127367867Y-71090800D01*
X127256214Y-71101797D01*
X127112953Y-71145254D01*
X126980923Y-71215826D01*
X126897283Y-71284468D01*
X126865199Y-71310799D01*
X126841401Y-71339797D01*
X123445000Y-74736199D01*
X123445000Y-74530408D01*
X123391314Y-74260510D01*
X123286005Y-74006273D01*
X123133120Y-73777465D01*
X122938535Y-73582880D01*
X122709727Y-73429995D01*
X122632485Y-73398000D01*
X122709727Y-73366005D01*
X122938535Y-73213120D01*
X123133120Y-73018535D01*
X123286005Y-72789727D01*
X123391314Y-72535490D01*
X123445000Y-72265592D01*
X123445000Y-71990408D01*
X123391314Y-71720510D01*
X123286005Y-71466273D01*
X123133120Y-71237465D01*
X122938535Y-71042880D01*
X122709727Y-70889995D01*
X122632485Y-70858000D01*
X122709727Y-70826005D01*
X122938535Y-70673120D01*
X123133120Y-70478535D01*
X123286005Y-70249727D01*
X123391314Y-69995490D01*
X123445000Y-69725592D01*
X123445000Y-69450408D01*
X123391314Y-69180510D01*
X123286005Y-68926273D01*
X123133120Y-68697465D01*
X122938535Y-68502880D01*
X122709727Y-68349995D01*
X122632485Y-68318000D01*
X122709727Y-68286005D01*
X122938535Y-68133120D01*
X123133120Y-67938535D01*
X123286005Y-67709727D01*
X123391314Y-67455490D01*
X123445000Y-67185592D01*
X123445000Y-66910408D01*
X123391314Y-66640510D01*
X123286005Y-66386273D01*
X123133120Y-66157465D01*
X122938535Y-65962880D01*
X122709727Y-65809995D01*
X122455490Y-65704686D01*
X122185592Y-65651000D01*
X121910408Y-65651000D01*
X121640510Y-65704686D01*
X121386273Y-65809995D01*
X121157465Y-65962880D01*
X120962880Y-66157465D01*
X120809995Y-66386273D01*
X120704686Y-66640510D01*
X120651000Y-66910408D01*
X120651000Y-67185592D01*
X120704686Y-67455490D01*
X120809995Y-67709727D01*
X120962880Y-67938535D01*
X121157465Y-68133120D01*
X121386273Y-68286005D01*
X121463515Y-68318000D01*
X121386273Y-68349995D01*
X121157465Y-68502880D01*
X120962880Y-68697465D01*
X120809995Y-68926273D01*
X120704686Y-69180510D01*
X120651000Y-69450408D01*
X120651000Y-69725592D01*
X120704686Y-69995490D01*
X120809995Y-70249727D01*
X120962880Y-70478535D01*
X121157465Y-70673120D01*
X121386273Y-70826005D01*
X121463515Y-70858000D01*
X121386273Y-70889995D01*
X121157465Y-71042880D01*
X120962880Y-71237465D01*
X120809995Y-71466273D01*
X120704686Y-71720510D01*
X120651000Y-71990408D01*
X120651000Y-72265592D01*
X120704686Y-72535490D01*
X120809995Y-72789727D01*
X120962880Y-73018535D01*
X121157465Y-73213120D01*
X121386273Y-73366005D01*
X121463515Y-73398000D01*
X121386273Y-73429995D01*
X121157465Y-73582880D01*
X120962880Y-73777465D01*
X120809995Y-74006273D01*
X120704686Y-74260510D01*
X120651000Y-74530408D01*
X120651000Y-74805592D01*
X120704686Y-75075490D01*
X120809995Y-75329727D01*
X120962880Y-75558535D01*
X121157465Y-75753120D01*
X121386273Y-75906005D01*
X121463515Y-75938000D01*
X121386273Y-75969995D01*
X121157465Y-76122880D01*
X120962880Y-76317465D01*
X120809995Y-76546273D01*
X120704686Y-76800510D01*
X120651000Y-77070408D01*
X120651000Y-77345592D01*
X120704686Y-77615490D01*
X120809995Y-77869727D01*
X120962880Y-78098535D01*
X121005037Y-78140692D01*
X121000601Y-78146097D01*
X115663603Y-83483096D01*
X115634599Y-83506899D01*
X115584310Y-83568177D01*
X115539626Y-83622624D01*
X115510549Y-83677023D01*
X115469054Y-83754654D01*
X115425597Y-83897915D01*
X115414600Y-84009568D01*
X115414600Y-84009578D01*
X115410924Y-84046900D01*
X115414600Y-84084222D01*
X115414601Y-90849631D01*
X115407490Y-90846686D01*
X115137592Y-90793000D01*
X114862408Y-90793000D01*
X114592510Y-90846686D01*
X114338273Y-90951995D01*
X114109465Y-91104880D01*
X113914880Y-91299465D01*
X113761995Y-91528273D01*
X113724000Y-91620000D01*
X103278178Y-91620000D01*
X103153475Y-91433368D01*
X102946632Y-91226525D01*
X102703411Y-91064010D01*
X102433158Y-90952068D01*
X102146260Y-90895000D01*
X101853740Y-90895000D01*
X101566842Y-90952068D01*
X101296589Y-91064010D01*
X101053368Y-91226525D01*
X100846525Y-91433368D01*
X100684010Y-91676589D01*
X100572068Y-91946842D01*
X100515000Y-92233740D01*
X100515000Y-92526260D01*
X100572068Y-92813158D01*
X100684010Y-93083411D01*
X100846525Y-93326632D01*
X101053368Y-93533475D01*
X101227760Y-93650000D01*
X101053368Y-93766525D01*
X100846525Y-93973368D01*
X100684010Y-94216589D01*
X100572068Y-94486842D01*
X100515000Y-94773740D01*
X100515000Y-95066260D01*
X100572068Y-95353158D01*
X100684010Y-95623411D01*
X100846525Y-95866632D01*
X101053368Y-96073475D01*
X101227760Y-96190000D01*
X101053368Y-96306525D01*
X100846525Y-96513368D01*
X100684010Y-96756589D01*
X100572068Y-97026842D01*
X100515000Y-97313740D01*
X100515000Y-97606260D01*
X100572068Y-97893158D01*
X100684010Y-98163411D01*
X100846525Y-98406632D01*
X100978380Y-98538487D01*
X100905820Y-98560498D01*
X100795506Y-98619463D01*
X100698815Y-98698815D01*
X100619463Y-98795506D01*
X100560498Y-98905820D01*
X100524188Y-99025518D01*
X100511928Y-99150000D01*
X100511928Y-100850000D01*
X100524188Y-100974482D01*
X100560498Y-101094180D01*
X100619463Y-101204494D01*
X100698815Y-101301185D01*
X100795506Y-101380537D01*
X100905820Y-101439502D01*
X101025518Y-101475812D01*
X101150000Y-101488072D01*
X102850000Y-101488072D01*
X102974482Y-101475812D01*
X103094180Y-101439502D01*
X103204494Y-101380537D01*
X103301185Y-101301185D01*
X103380537Y-101204494D01*
X103439502Y-101094180D01*
X103475812Y-100974482D01*
X103488072Y-100850000D01*
X103488072Y-100760000D01*
X113974345Y-100760000D01*
X114109465Y-100895120D01*
X114338273Y-101048005D01*
X114592510Y-101153314D01*
X114862408Y-101207000D01*
X115132199Y-101207000D01*
X117957101Y-104031903D01*
X117957100Y-125739358D01*
X117777964Y-125592345D01*
X117536817Y-125463449D01*
X117275157Y-125384075D01*
X117071229Y-125363990D01*
X115426091Y-125363990D01*
X115222163Y-125384075D01*
X114960503Y-125463449D01*
X114719356Y-125592345D01*
X114507989Y-125765809D01*
X114334525Y-125977176D01*
X114205629Y-126218323D01*
X114126255Y-126479983D01*
X114099454Y-126752100D01*
X114126255Y-127024217D01*
X114205629Y-127285877D01*
X114334525Y-127527024D01*
X114507989Y-127738391D01*
X114719356Y-127911855D01*
X114960503Y-128040751D01*
X115222163Y-128120125D01*
X115426091Y-128140210D01*
X117071229Y-128140210D01*
X117275157Y-128120125D01*
X117536817Y-128040751D01*
X117777964Y-127911855D01*
X117957100Y-127764842D01*
X117957100Y-130240493D01*
X117879830Y-130164287D01*
X117651580Y-130014055D01*
X117398407Y-129911239D01*
X117130040Y-129859790D01*
X116375660Y-129859790D01*
X116375660Y-131120900D01*
X116395660Y-131120900D01*
X116395660Y-131374900D01*
X116375660Y-131374900D01*
X116375660Y-132636010D01*
X117130040Y-132636010D01*
X117398407Y-132584561D01*
X117651580Y-132481745D01*
X117879830Y-132331513D01*
X118007155Y-132205942D01*
X118011554Y-132220446D01*
X118082126Y-132352476D01*
X118121971Y-132401026D01*
X118177099Y-132468201D01*
X118206103Y-132492004D01*
X123511805Y-137797708D01*
X123535599Y-137826701D01*
X123564592Y-137850495D01*
X123564596Y-137850499D01*
X123635285Y-137908511D01*
X123651324Y-137921674D01*
X123783353Y-137992246D01*
X123926614Y-138035703D01*
X124038267Y-138046700D01*
X124038276Y-138046700D01*
X124075599Y-138050376D01*
X124112922Y-138046700D01*
X169890478Y-138046700D01*
X169927800Y-138050376D01*
X169965122Y-138046700D01*
X169965133Y-138046700D01*
X170076786Y-138035703D01*
X170220047Y-137992246D01*
X170352076Y-137921674D01*
X170467801Y-137826701D01*
X170491604Y-137797697D01*
X172796438Y-135492864D01*
X173057125Y-135441010D01*
X173329853Y-135328042D01*
X173412511Y-135272812D01*
X175483001Y-137343303D01*
X175506799Y-137372301D01*
X175535797Y-137396099D01*
X175622523Y-137467274D01*
X175748939Y-137534845D01*
X175754553Y-137537846D01*
X175897814Y-137581303D01*
X176009467Y-137592300D01*
X176009476Y-137592300D01*
X176046799Y-137595976D01*
X176084122Y-137592300D01*
X184431078Y-137592300D01*
X184468400Y-137595976D01*
X184505722Y-137592300D01*
X184505733Y-137592300D01*
X184617386Y-137581303D01*
X184760647Y-137537846D01*
X184892676Y-137467274D01*
X185008401Y-137372301D01*
X185032203Y-137343298D01*
X185095629Y-137279872D01*
X193265000Y-137279872D01*
X193265000Y-137720128D01*
X193350890Y-138151925D01*
X193519369Y-138558669D01*
X193763962Y-138924729D01*
X194075271Y-139236038D01*
X194441331Y-139480631D01*
X194848075Y-139649110D01*
X195279872Y-139735000D01*
X195720128Y-139735000D01*
X196151925Y-139649110D01*
X196558669Y-139480631D01*
X196924729Y-139236038D01*
X197236038Y-138924729D01*
X197480631Y-138558669D01*
X197649110Y-138151925D01*
X197735000Y-137720128D01*
X197735000Y-137279872D01*
X197649110Y-136848075D01*
X197480631Y-136441331D01*
X197236038Y-136075271D01*
X196924729Y-135763962D01*
X196558669Y-135519369D01*
X196151925Y-135350890D01*
X195720128Y-135265000D01*
X195279872Y-135265000D01*
X194848075Y-135350890D01*
X194441331Y-135519369D01*
X194075271Y-135763962D01*
X193763962Y-136075271D01*
X193519369Y-136441331D01*
X193350890Y-136848075D01*
X193265000Y-137279872D01*
X185095629Y-137279872D01*
X185344028Y-137031473D01*
X185405820Y-137064502D01*
X185525518Y-137100812D01*
X185650000Y-137113072D01*
X186214250Y-137110000D01*
X186373000Y-136951250D01*
X186373000Y-135627000D01*
X186627000Y-135627000D01*
X186627000Y-136951250D01*
X186785750Y-137110000D01*
X187350000Y-137113072D01*
X187474482Y-137100812D01*
X187594180Y-137064502D01*
X187704494Y-137005537D01*
X187801185Y-136926185D01*
X187880537Y-136829494D01*
X187939502Y-136719180D01*
X187975812Y-136599482D01*
X187988072Y-136475000D01*
X187985000Y-135785750D01*
X187826250Y-135627000D01*
X186627000Y-135627000D01*
X186373000Y-135627000D01*
X186353000Y-135627000D01*
X186353000Y-135373000D01*
X186373000Y-135373000D01*
X186373000Y-134048750D01*
X186627000Y-134048750D01*
X186627000Y-135373000D01*
X187826250Y-135373000D01*
X187985000Y-135214250D01*
X187988072Y-134525000D01*
X187975812Y-134400518D01*
X187939502Y-134280820D01*
X187880537Y-134170506D01*
X187801185Y-134073815D01*
X187704494Y-133994463D01*
X187594180Y-133935498D01*
X187474482Y-133899188D01*
X187350000Y-133886928D01*
X186785750Y-133890000D01*
X186627000Y-134048750D01*
X186373000Y-134048750D01*
X186214250Y-133890000D01*
X186009500Y-133888885D01*
X186009500Y-131247900D01*
X187602134Y-131247900D01*
X187628935Y-131520017D01*
X187708309Y-131781677D01*
X187837205Y-132022824D01*
X188010669Y-132234191D01*
X188222036Y-132407655D01*
X188463183Y-132536551D01*
X188724843Y-132615925D01*
X188928771Y-132636010D01*
X190573909Y-132636010D01*
X190777837Y-132615925D01*
X191039497Y-132536551D01*
X191280644Y-132407655D01*
X191492011Y-132234191D01*
X191665475Y-132022824D01*
X191794371Y-131781677D01*
X191873745Y-131520017D01*
X191900546Y-131247900D01*
X191873745Y-130975783D01*
X191794371Y-130714123D01*
X191665475Y-130472976D01*
X191492011Y-130261609D01*
X191280644Y-130088145D01*
X191039497Y-129959249D01*
X190777837Y-129879875D01*
X190573909Y-129859790D01*
X188928771Y-129859790D01*
X188724843Y-129879875D01*
X188463183Y-129959249D01*
X188222036Y-130088145D01*
X188010669Y-130261609D01*
X187837205Y-130472976D01*
X187708309Y-130714123D01*
X187628935Y-130975783D01*
X187602134Y-131247900D01*
X186009500Y-131247900D01*
X186009500Y-127059401D01*
X186316801Y-126752100D01*
X187602134Y-126752100D01*
X187628935Y-127024217D01*
X187708309Y-127285877D01*
X187837205Y-127527024D01*
X188010669Y-127738391D01*
X188222036Y-127911855D01*
X188463183Y-128040751D01*
X188724843Y-128120125D01*
X188928771Y-128140210D01*
X190573909Y-128140210D01*
X190777837Y-128120125D01*
X191039497Y-128040751D01*
X191280644Y-127911855D01*
X191492011Y-127738391D01*
X191665475Y-127527024D01*
X191794371Y-127285877D01*
X191873745Y-127024217D01*
X191900546Y-126752100D01*
X191873745Y-126479983D01*
X191794371Y-126218323D01*
X191665475Y-125977176D01*
X191492011Y-125765809D01*
X191280644Y-125592345D01*
X191039497Y-125463449D01*
X190777837Y-125384075D01*
X190573909Y-125363990D01*
X188928771Y-125363990D01*
X188724843Y-125384075D01*
X188463183Y-125463449D01*
X188222036Y-125592345D01*
X188010669Y-125765809D01*
X187837205Y-125977176D01*
X187708309Y-126218323D01*
X187628935Y-126479983D01*
X187602134Y-126752100D01*
X186316801Y-126752100D01*
X196824600Y-116244302D01*
X196824600Y-125101398D01*
X196562008Y-125363990D01*
X195426091Y-125363990D01*
X195222163Y-125384075D01*
X194960503Y-125463449D01*
X194719356Y-125592345D01*
X194507989Y-125765809D01*
X194334525Y-125977176D01*
X194205629Y-126218323D01*
X194126255Y-126479983D01*
X194099454Y-126752100D01*
X194126255Y-127024217D01*
X194205629Y-127285877D01*
X194334525Y-127527024D01*
X194507989Y-127738391D01*
X194719356Y-127911855D01*
X194960503Y-128040751D01*
X195222163Y-128120125D01*
X195426091Y-128140210D01*
X197071229Y-128140210D01*
X197275157Y-128120125D01*
X197324100Y-128105278D01*
X197324100Y-129097698D01*
X196562009Y-129859790D01*
X195426091Y-129859790D01*
X195222163Y-129879875D01*
X194960503Y-129959249D01*
X194719356Y-130088145D01*
X194507989Y-130261609D01*
X194334525Y-130472976D01*
X194205629Y-130714123D01*
X194126255Y-130975783D01*
X194099454Y-131247900D01*
X194126255Y-131520017D01*
X194205629Y-131781677D01*
X194334525Y-132022824D01*
X194507989Y-132234191D01*
X194719356Y-132407655D01*
X194960503Y-132536551D01*
X195222163Y-132615925D01*
X195426091Y-132636010D01*
X197071229Y-132636010D01*
X197275157Y-132615925D01*
X197536817Y-132536551D01*
X197777964Y-132407655D01*
X197989331Y-132234191D01*
X198162795Y-132022824D01*
X198290001Y-131784839D01*
X198290001Y-140290000D01*
X99710000Y-140290000D01*
X99710000Y-137279872D01*
X100265000Y-137279872D01*
X100265000Y-137720128D01*
X100350890Y-138151925D01*
X100519369Y-138558669D01*
X100763962Y-138924729D01*
X101075271Y-139236038D01*
X101441331Y-139480631D01*
X101848075Y-139649110D01*
X102279872Y-139735000D01*
X102720128Y-139735000D01*
X103151925Y-139649110D01*
X103558669Y-139480631D01*
X103924729Y-139236038D01*
X104236038Y-138924729D01*
X104480631Y-138558669D01*
X104649110Y-138151925D01*
X104735000Y-137720128D01*
X104735000Y-137279872D01*
X104649110Y-136848075D01*
X104480631Y-136441331D01*
X104236038Y-136075271D01*
X103924729Y-135763962D01*
X103558669Y-135519369D01*
X103151925Y-135350890D01*
X102720128Y-135265000D01*
X102279872Y-135265000D01*
X101848075Y-135350890D01*
X101441331Y-135519369D01*
X101075271Y-135763962D01*
X100763962Y-136075271D01*
X100519369Y-136441331D01*
X100350890Y-136848075D01*
X100265000Y-137279872D01*
X99710000Y-137279872D01*
X99710000Y-131589574D01*
X107651557Y-131589574D01*
X107665913Y-131661772D01*
X107772231Y-131913494D01*
X107925615Y-132139638D01*
X108120170Y-132331513D01*
X108348420Y-132481745D01*
X108601593Y-132584561D01*
X108869960Y-132636010D01*
X109624340Y-132636010D01*
X109624340Y-131374900D01*
X109878340Y-131374900D01*
X109878340Y-132636010D01*
X110632720Y-132636010D01*
X110901087Y-132584561D01*
X111154260Y-132481745D01*
X111382510Y-132331513D01*
X111577065Y-132139638D01*
X111730449Y-131913494D01*
X111836767Y-131661772D01*
X111851123Y-131589574D01*
X114148877Y-131589574D01*
X114163233Y-131661772D01*
X114269551Y-131913494D01*
X114422935Y-132139638D01*
X114617490Y-132331513D01*
X114845740Y-132481745D01*
X115098913Y-132584561D01*
X115367280Y-132636010D01*
X116121660Y-132636010D01*
X116121660Y-131374900D01*
X114271498Y-131374900D01*
X114148877Y-131589574D01*
X111851123Y-131589574D01*
X111728502Y-131374900D01*
X109878340Y-131374900D01*
X109624340Y-131374900D01*
X107774178Y-131374900D01*
X107651557Y-131589574D01*
X99710000Y-131589574D01*
X99710000Y-130906226D01*
X107651557Y-130906226D01*
X107774178Y-131120900D01*
X109624340Y-131120900D01*
X109624340Y-129859790D01*
X109878340Y-129859790D01*
X109878340Y-131120900D01*
X111728502Y-131120900D01*
X111851123Y-130906226D01*
X114148877Y-130906226D01*
X114271498Y-131120900D01*
X116121660Y-131120900D01*
X116121660Y-129859790D01*
X115367280Y-129859790D01*
X115098913Y-129911239D01*
X114845740Y-130014055D01*
X114617490Y-130164287D01*
X114422935Y-130356162D01*
X114269551Y-130582306D01*
X114163233Y-130834028D01*
X114148877Y-130906226D01*
X111851123Y-130906226D01*
X111836767Y-130834028D01*
X111730449Y-130582306D01*
X111577065Y-130356162D01*
X111382510Y-130164287D01*
X111154260Y-130014055D01*
X110901087Y-129911239D01*
X110632720Y-129859790D01*
X109878340Y-129859790D01*
X109624340Y-129859790D01*
X108869960Y-129859790D01*
X108601593Y-129911239D01*
X108348420Y-130014055D01*
X108120170Y-130164287D01*
X107925615Y-130356162D01*
X107772231Y-130582306D01*
X107665913Y-130834028D01*
X107651557Y-130906226D01*
X99710000Y-130906226D01*
X99710000Y-126752100D01*
X107602134Y-126752100D01*
X107628935Y-127024217D01*
X107708309Y-127285877D01*
X107837205Y-127527024D01*
X108010669Y-127738391D01*
X108222036Y-127911855D01*
X108463183Y-128040751D01*
X108724843Y-128120125D01*
X108928771Y-128140210D01*
X110573909Y-128140210D01*
X110777837Y-128120125D01*
X111039497Y-128040751D01*
X111280644Y-127911855D01*
X111492011Y-127738391D01*
X111665475Y-127527024D01*
X111794371Y-127285877D01*
X111873745Y-127024217D01*
X111900546Y-126752100D01*
X111873745Y-126479983D01*
X111794371Y-126218323D01*
X111665475Y-125977176D01*
X111492011Y-125765809D01*
X111280644Y-125592345D01*
X111039497Y-125463449D01*
X110777837Y-125384075D01*
X110573909Y-125363990D01*
X108928771Y-125363990D01*
X108724843Y-125384075D01*
X108463183Y-125463449D01*
X108222036Y-125592345D01*
X108010669Y-125765809D01*
X107837205Y-125977176D01*
X107708309Y-126218323D01*
X107628935Y-126479983D01*
X107602134Y-126752100D01*
X99710000Y-126752100D01*
X99710000Y-117784796D01*
X112815000Y-117784796D01*
X112815000Y-118215204D01*
X112898969Y-118637341D01*
X113063678Y-119034985D01*
X113302800Y-119392856D01*
X113607144Y-119697200D01*
X113965015Y-119936322D01*
X114362659Y-120101031D01*
X114784796Y-120185000D01*
X115215204Y-120185000D01*
X115637341Y-120101031D01*
X116034985Y-119936322D01*
X116392856Y-119697200D01*
X116697200Y-119392856D01*
X116936322Y-119034985D01*
X117101031Y-118637341D01*
X117185000Y-118215204D01*
X117185000Y-117784796D01*
X117101031Y-117362659D01*
X116936322Y-116965015D01*
X116697200Y-116607144D01*
X116392856Y-116302800D01*
X116034985Y-116063678D01*
X115637341Y-115898969D01*
X115215204Y-115815000D01*
X114784796Y-115815000D01*
X114362659Y-115898969D01*
X113965015Y-116063678D01*
X113607144Y-116302800D01*
X113302800Y-116607144D01*
X113063678Y-116965015D01*
X112898969Y-117362659D01*
X112815000Y-117784796D01*
X99710000Y-117784796D01*
X99710000Y-73784796D01*
X112815000Y-73784796D01*
X112815000Y-74215204D01*
X112898969Y-74637341D01*
X113063678Y-75034985D01*
X113302800Y-75392856D01*
X113607144Y-75697200D01*
X113965015Y-75936322D01*
X114362659Y-76101031D01*
X114784796Y-76185000D01*
X115215204Y-76185000D01*
X115637341Y-76101031D01*
X116034985Y-75936322D01*
X116392856Y-75697200D01*
X116697200Y-75392856D01*
X116936322Y-75034985D01*
X117101031Y-74637341D01*
X117185000Y-74215204D01*
X117185000Y-73784796D01*
X117101031Y-73362659D01*
X116936322Y-72965015D01*
X116697200Y-72607144D01*
X116392856Y-72302800D01*
X116034985Y-72063678D01*
X115637341Y-71898969D01*
X115215204Y-71815000D01*
X114784796Y-71815000D01*
X114362659Y-71898969D01*
X113965015Y-72063678D01*
X113607144Y-72302800D01*
X113302800Y-72607144D01*
X113063678Y-72965015D01*
X112898969Y-73362659D01*
X112815000Y-73784796D01*
X99710000Y-73784796D01*
X99710000Y-67279872D01*
X100265000Y-67279872D01*
X100265000Y-67720128D01*
X100350890Y-68151925D01*
X100519369Y-68558669D01*
X100763962Y-68924729D01*
X101075271Y-69236038D01*
X101441331Y-69480631D01*
X101848075Y-69649110D01*
X102279872Y-69735000D01*
X102720128Y-69735000D01*
X103151925Y-69649110D01*
X103558669Y-69480631D01*
X103924729Y-69236038D01*
X104236038Y-68924729D01*
X104480631Y-68558669D01*
X104649110Y-68151925D01*
X104735000Y-67720128D01*
X104735000Y-67279872D01*
X104649110Y-66848075D01*
X104480631Y-66441331D01*
X104236038Y-66075271D01*
X103924729Y-65763962D01*
X103558669Y-65519369D01*
X103151925Y-65350890D01*
X102720128Y-65265000D01*
X102279872Y-65265000D01*
X101848075Y-65350890D01*
X101441331Y-65519369D01*
X101075271Y-65763962D01*
X100763962Y-66075271D01*
X100519369Y-66441331D01*
X100350890Y-66848075D01*
X100265000Y-67279872D01*
X99710000Y-67279872D01*
X99710000Y-64710000D01*
X198290000Y-64710000D01*
X198290000Y-77416098D01*
G04 #@! TA.AperFunction,Conductor*
D24*
G36*
X198290000Y-77416098D02*
G01*
X192213704Y-71339803D01*
X192189901Y-71310799D01*
X192074176Y-71215826D01*
X191942147Y-71145254D01*
X191798886Y-71101797D01*
X191687233Y-71090800D01*
X191687222Y-71090800D01*
X191649900Y-71087124D01*
X191612578Y-71090800D01*
X162292690Y-71090800D01*
X162442889Y-71028586D01*
X162596028Y-70926262D01*
X162726262Y-70796028D01*
X162828586Y-70642889D01*
X162899068Y-70472729D01*
X162935000Y-70292089D01*
X162935000Y-70107911D01*
X162899068Y-69927271D01*
X162828586Y-69757111D01*
X162726262Y-69603972D01*
X162596028Y-69473738D01*
X162442889Y-69371414D01*
X162272729Y-69300932D01*
X162092089Y-69265000D01*
X161907911Y-69265000D01*
X161727271Y-69300932D01*
X161557111Y-69371414D01*
X161454465Y-69440000D01*
X153245029Y-69440000D01*
X153258472Y-69414850D01*
X153309008Y-69248254D01*
X153320163Y-69135000D01*
X153655752Y-69135000D01*
X153822499Y-69118577D01*
X154036447Y-69053676D01*
X154233623Y-68948284D01*
X154406449Y-68806449D01*
X154548284Y-68633623D01*
X154653676Y-68436447D01*
X154718577Y-68222499D01*
X154740491Y-68000000D01*
X154718577Y-67777501D01*
X154653676Y-67563553D01*
X154548284Y-67366377D01*
X154477291Y-67279872D01*
X193265000Y-67279872D01*
X193265000Y-67720128D01*
X193350890Y-68151925D01*
X193519369Y-68558669D01*
X193763962Y-68924729D01*
X194075271Y-69236038D01*
X194441331Y-69480631D01*
X194848075Y-69649110D01*
X195279872Y-69735000D01*
X195720128Y-69735000D01*
X196151925Y-69649110D01*
X196558669Y-69480631D01*
X196924729Y-69236038D01*
X197236038Y-68924729D01*
X197480631Y-68558669D01*
X197649110Y-68151925D01*
X197735000Y-67720128D01*
X197735000Y-67279872D01*
X197649110Y-66848075D01*
X197480631Y-66441331D01*
X197236038Y-66075271D01*
X196924729Y-65763962D01*
X196558669Y-65519369D01*
X196151925Y-65350890D01*
X195720128Y-65265000D01*
X195279872Y-65265000D01*
X194848075Y-65350890D01*
X194441331Y-65519369D01*
X194075271Y-65763962D01*
X193763962Y-66075271D01*
X193519369Y-66441331D01*
X193350890Y-66848075D01*
X193265000Y-67279872D01*
X154477291Y-67279872D01*
X154406449Y-67193551D01*
X154233623Y-67051716D01*
X154036447Y-66946324D01*
X153822499Y-66881423D01*
X153655752Y-66865000D01*
X153320163Y-66865000D01*
X153309008Y-66751746D01*
X153258472Y-66585150D01*
X153176405Y-66431614D01*
X153065962Y-66297038D01*
X152931386Y-66186595D01*
X152777850Y-66104528D01*
X152611254Y-66053992D01*
X152438000Y-66036928D01*
X151513000Y-66036928D01*
X151339746Y-66053992D01*
X151173150Y-66104528D01*
X151019614Y-66186595D01*
X150885038Y-66297038D01*
X150774595Y-66431614D01*
X150692528Y-66585150D01*
X150641992Y-66751746D01*
X150624928Y-66925000D01*
X150624928Y-69075000D01*
X150641992Y-69248254D01*
X150692528Y-69414850D01*
X150705971Y-69440000D01*
X150270029Y-69440000D01*
X150283472Y-69414850D01*
X150334008Y-69248254D01*
X150351072Y-69075000D01*
X150351072Y-66925000D01*
X150334008Y-66751746D01*
X150283472Y-66585150D01*
X150201405Y-66431614D01*
X150090962Y-66297038D01*
X149956386Y-66186595D01*
X149802850Y-66104528D01*
X149636254Y-66053992D01*
X149463000Y-66036928D01*
X148538000Y-66036928D01*
X148364746Y-66053992D01*
X148198150Y-66104528D01*
X148044614Y-66186595D01*
X147910038Y-66297038D01*
X147799595Y-66431614D01*
X147717528Y-66585150D01*
X147666992Y-66751746D01*
X147654971Y-66873793D01*
X147577501Y-66881423D01*
X147363553Y-66946324D01*
X147166377Y-67051716D01*
X146993551Y-67193551D01*
X146958008Y-67236860D01*
X145558012Y-68636857D01*
X145451717Y-68766378D01*
X145346324Y-68963554D01*
X145281423Y-69177502D01*
X145259509Y-69400000D01*
X145281423Y-69622498D01*
X145346324Y-69836446D01*
X145451717Y-70033622D01*
X145593552Y-70206448D01*
X145766378Y-70348283D01*
X145963554Y-70453676D01*
X146177502Y-70518577D01*
X146400000Y-70540491D01*
X146622498Y-70518577D01*
X146836446Y-70453676D01*
X147033622Y-70348283D01*
X147163143Y-70241988D01*
X147816341Y-69588791D01*
X147910038Y-69702962D01*
X147973045Y-69754670D01*
X147971414Y-69757111D01*
X147900932Y-69927271D01*
X147865000Y-70107911D01*
X147865000Y-70292089D01*
X147900932Y-70472729D01*
X147971414Y-70642889D01*
X148073738Y-70796028D01*
X148203972Y-70926262D01*
X148357111Y-71028586D01*
X148507310Y-71090800D01*
X127442523Y-71090800D01*
X127405200Y-71087124D01*
X127367877Y-71090800D01*
X127367867Y-71090800D01*
X127256214Y-71101797D01*
X127112953Y-71145254D01*
X126980923Y-71215826D01*
X126897283Y-71284468D01*
X126865199Y-71310799D01*
X126841401Y-71339797D01*
X123445000Y-74736199D01*
X123445000Y-74530408D01*
X123391314Y-74260510D01*
X123286005Y-74006273D01*
X123133120Y-73777465D01*
X122938535Y-73582880D01*
X122709727Y-73429995D01*
X122632485Y-73398000D01*
X122709727Y-73366005D01*
X122938535Y-73213120D01*
X123133120Y-73018535D01*
X123286005Y-72789727D01*
X123391314Y-72535490D01*
X123445000Y-72265592D01*
X123445000Y-71990408D01*
X123391314Y-71720510D01*
X123286005Y-71466273D01*
X123133120Y-71237465D01*
X122938535Y-71042880D01*
X122709727Y-70889995D01*
X122632485Y-70858000D01*
X122709727Y-70826005D01*
X122938535Y-70673120D01*
X123133120Y-70478535D01*
X123286005Y-70249727D01*
X123391314Y-69995490D01*
X123445000Y-69725592D01*
X123445000Y-69450408D01*
X123391314Y-69180510D01*
X123286005Y-68926273D01*
X123133120Y-68697465D01*
X122938535Y-68502880D01*
X122709727Y-68349995D01*
X122632485Y-68318000D01*
X122709727Y-68286005D01*
X122938535Y-68133120D01*
X123133120Y-67938535D01*
X123286005Y-67709727D01*
X123391314Y-67455490D01*
X123445000Y-67185592D01*
X123445000Y-66910408D01*
X123391314Y-66640510D01*
X123286005Y-66386273D01*
X123133120Y-66157465D01*
X122938535Y-65962880D01*
X122709727Y-65809995D01*
X122455490Y-65704686D01*
X122185592Y-65651000D01*
X121910408Y-65651000D01*
X121640510Y-65704686D01*
X121386273Y-65809995D01*
X121157465Y-65962880D01*
X120962880Y-66157465D01*
X120809995Y-66386273D01*
X120704686Y-66640510D01*
X120651000Y-66910408D01*
X120651000Y-67185592D01*
X120704686Y-67455490D01*
X120809995Y-67709727D01*
X120962880Y-67938535D01*
X121157465Y-68133120D01*
X121386273Y-68286005D01*
X121463515Y-68318000D01*
X121386273Y-68349995D01*
X121157465Y-68502880D01*
X120962880Y-68697465D01*
X120809995Y-68926273D01*
X120704686Y-69180510D01*
X120651000Y-69450408D01*
X120651000Y-69725592D01*
X120704686Y-69995490D01*
X120809995Y-70249727D01*
X120962880Y-70478535D01*
X121157465Y-70673120D01*
X121386273Y-70826005D01*
X121463515Y-70858000D01*
X121386273Y-70889995D01*
X121157465Y-71042880D01*
X120962880Y-71237465D01*
X120809995Y-71466273D01*
X120704686Y-71720510D01*
X120651000Y-71990408D01*
X120651000Y-72265592D01*
X120704686Y-72535490D01*
X120809995Y-72789727D01*
X120962880Y-73018535D01*
X121157465Y-73213120D01*
X121386273Y-73366005D01*
X121463515Y-73398000D01*
X121386273Y-73429995D01*
X121157465Y-73582880D01*
X120962880Y-73777465D01*
X120809995Y-74006273D01*
X120704686Y-74260510D01*
X120651000Y-74530408D01*
X120651000Y-74805592D01*
X120704686Y-75075490D01*
X120809995Y-75329727D01*
X120962880Y-75558535D01*
X121157465Y-75753120D01*
X121386273Y-75906005D01*
X121463515Y-75938000D01*
X121386273Y-75969995D01*
X121157465Y-76122880D01*
X120962880Y-76317465D01*
X120809995Y-76546273D01*
X120704686Y-76800510D01*
X120651000Y-77070408D01*
X120651000Y-77345592D01*
X120704686Y-77615490D01*
X120809995Y-77869727D01*
X120962880Y-78098535D01*
X121005037Y-78140692D01*
X121000601Y-78146097D01*
X115663603Y-83483096D01*
X115634599Y-83506899D01*
X115584310Y-83568177D01*
X115539626Y-83622624D01*
X115510549Y-83677023D01*
X115469054Y-83754654D01*
X115425597Y-83897915D01*
X115414600Y-84009568D01*
X115414600Y-84009578D01*
X115410924Y-84046900D01*
X115414600Y-84084222D01*
X115414601Y-90849631D01*
X115407490Y-90846686D01*
X115137592Y-90793000D01*
X114862408Y-90793000D01*
X114592510Y-90846686D01*
X114338273Y-90951995D01*
X114109465Y-91104880D01*
X113914880Y-91299465D01*
X113761995Y-91528273D01*
X113724000Y-91620000D01*
X103278178Y-91620000D01*
X103153475Y-91433368D01*
X102946632Y-91226525D01*
X102703411Y-91064010D01*
X102433158Y-90952068D01*
X102146260Y-90895000D01*
X101853740Y-90895000D01*
X101566842Y-90952068D01*
X101296589Y-91064010D01*
X101053368Y-91226525D01*
X100846525Y-91433368D01*
X100684010Y-91676589D01*
X100572068Y-91946842D01*
X100515000Y-92233740D01*
X100515000Y-92526260D01*
X100572068Y-92813158D01*
X100684010Y-93083411D01*
X100846525Y-93326632D01*
X101053368Y-93533475D01*
X101227760Y-93650000D01*
X101053368Y-93766525D01*
X100846525Y-93973368D01*
X100684010Y-94216589D01*
X100572068Y-94486842D01*
X100515000Y-94773740D01*
X100515000Y-95066260D01*
X100572068Y-95353158D01*
X100684010Y-95623411D01*
X100846525Y-95866632D01*
X101053368Y-96073475D01*
X101227760Y-96190000D01*
X101053368Y-96306525D01*
X100846525Y-96513368D01*
X100684010Y-96756589D01*
X100572068Y-97026842D01*
X100515000Y-97313740D01*
X100515000Y-97606260D01*
X100572068Y-97893158D01*
X100684010Y-98163411D01*
X100846525Y-98406632D01*
X100978380Y-98538487D01*
X100905820Y-98560498D01*
X100795506Y-98619463D01*
X100698815Y-98698815D01*
X100619463Y-98795506D01*
X100560498Y-98905820D01*
X100524188Y-99025518D01*
X100511928Y-99150000D01*
X100511928Y-100850000D01*
X100524188Y-100974482D01*
X100560498Y-101094180D01*
X100619463Y-101204494D01*
X100698815Y-101301185D01*
X100795506Y-101380537D01*
X100905820Y-101439502D01*
X101025518Y-101475812D01*
X101150000Y-101488072D01*
X102850000Y-101488072D01*
X102974482Y-101475812D01*
X103094180Y-101439502D01*
X103204494Y-101380537D01*
X103301185Y-101301185D01*
X103380537Y-101204494D01*
X103439502Y-101094180D01*
X103475812Y-100974482D01*
X103488072Y-100850000D01*
X103488072Y-100760000D01*
X113974345Y-100760000D01*
X114109465Y-100895120D01*
X114338273Y-101048005D01*
X114592510Y-101153314D01*
X114862408Y-101207000D01*
X115132199Y-101207000D01*
X117957101Y-104031903D01*
X117957100Y-125739358D01*
X117777964Y-125592345D01*
X117536817Y-125463449D01*
X117275157Y-125384075D01*
X117071229Y-125363990D01*
X115426091Y-125363990D01*
X115222163Y-125384075D01*
X114960503Y-125463449D01*
X114719356Y-125592345D01*
X114507989Y-125765809D01*
X114334525Y-125977176D01*
X114205629Y-126218323D01*
X114126255Y-126479983D01*
X114099454Y-126752100D01*
X114126255Y-127024217D01*
X114205629Y-127285877D01*
X114334525Y-127527024D01*
X114507989Y-127738391D01*
X114719356Y-127911855D01*
X114960503Y-128040751D01*
X115222163Y-128120125D01*
X115426091Y-128140210D01*
X117071229Y-128140210D01*
X117275157Y-128120125D01*
X117536817Y-128040751D01*
X117777964Y-127911855D01*
X117957100Y-127764842D01*
X117957100Y-130240493D01*
X117879830Y-130164287D01*
X117651580Y-130014055D01*
X117398407Y-129911239D01*
X117130040Y-129859790D01*
X116375660Y-129859790D01*
X116375660Y-131120900D01*
X116395660Y-131120900D01*
X116395660Y-131374900D01*
X116375660Y-131374900D01*
X116375660Y-132636010D01*
X117130040Y-132636010D01*
X117398407Y-132584561D01*
X117651580Y-132481745D01*
X117879830Y-132331513D01*
X118007155Y-132205942D01*
X118011554Y-132220446D01*
X118082126Y-132352476D01*
X118121971Y-132401026D01*
X118177099Y-132468201D01*
X118206103Y-132492004D01*
X123511805Y-137797708D01*
X123535599Y-137826701D01*
X123564592Y-137850495D01*
X123564596Y-137850499D01*
X123635285Y-137908511D01*
X123651324Y-137921674D01*
X123783353Y-137992246D01*
X123926614Y-138035703D01*
X124038267Y-138046700D01*
X124038276Y-138046700D01*
X124075599Y-138050376D01*
X124112922Y-138046700D01*
X169890478Y-138046700D01*
X169927800Y-138050376D01*
X169965122Y-138046700D01*
X169965133Y-138046700D01*
X170076786Y-138035703D01*
X170220047Y-137992246D01*
X170352076Y-137921674D01*
X170467801Y-137826701D01*
X170491604Y-137797697D01*
X172796438Y-135492864D01*
X173057125Y-135441010D01*
X173329853Y-135328042D01*
X173412511Y-135272812D01*
X175483001Y-137343303D01*
X175506799Y-137372301D01*
X175535797Y-137396099D01*
X175622523Y-137467274D01*
X175748939Y-137534845D01*
X175754553Y-137537846D01*
X175897814Y-137581303D01*
X176009467Y-137592300D01*
X176009476Y-137592300D01*
X176046799Y-137595976D01*
X176084122Y-137592300D01*
X184431078Y-137592300D01*
X184468400Y-137595976D01*
X184505722Y-137592300D01*
X184505733Y-137592300D01*
X184617386Y-137581303D01*
X184760647Y-137537846D01*
X184892676Y-137467274D01*
X185008401Y-137372301D01*
X185032203Y-137343298D01*
X185095629Y-137279872D01*
X193265000Y-137279872D01*
X193265000Y-137720128D01*
X193350890Y-138151925D01*
X193519369Y-138558669D01*
X193763962Y-138924729D01*
X194075271Y-139236038D01*
X194441331Y-139480631D01*
X194848075Y-139649110D01*
X195279872Y-139735000D01*
X195720128Y-139735000D01*
X196151925Y-139649110D01*
X196558669Y-139480631D01*
X196924729Y-139236038D01*
X197236038Y-138924729D01*
X197480631Y-138558669D01*
X197649110Y-138151925D01*
X197735000Y-137720128D01*
X197735000Y-137279872D01*
X197649110Y-136848075D01*
X197480631Y-136441331D01*
X197236038Y-136075271D01*
X196924729Y-135763962D01*
X196558669Y-135519369D01*
X196151925Y-135350890D01*
X195720128Y-135265000D01*
X195279872Y-135265000D01*
X194848075Y-135350890D01*
X194441331Y-135519369D01*
X194075271Y-135763962D01*
X193763962Y-136075271D01*
X193519369Y-136441331D01*
X193350890Y-136848075D01*
X193265000Y-137279872D01*
X185095629Y-137279872D01*
X185344028Y-137031473D01*
X185405820Y-137064502D01*
X185525518Y-137100812D01*
X185650000Y-137113072D01*
X186214250Y-137110000D01*
X186373000Y-136951250D01*
X186373000Y-135627000D01*
X186627000Y-135627000D01*
X186627000Y-136951250D01*
X186785750Y-137110000D01*
X187350000Y-137113072D01*
X187474482Y-137100812D01*
X187594180Y-137064502D01*
X187704494Y-137005537D01*
X187801185Y-136926185D01*
X187880537Y-136829494D01*
X187939502Y-136719180D01*
X187975812Y-136599482D01*
X187988072Y-136475000D01*
X187985000Y-135785750D01*
X187826250Y-135627000D01*
X186627000Y-135627000D01*
X186373000Y-135627000D01*
X186353000Y-135627000D01*
X186353000Y-135373000D01*
X186373000Y-135373000D01*
X186373000Y-134048750D01*
X186627000Y-134048750D01*
X186627000Y-135373000D01*
X187826250Y-135373000D01*
X187985000Y-135214250D01*
X187988072Y-134525000D01*
X187975812Y-134400518D01*
X187939502Y-134280820D01*
X187880537Y-134170506D01*
X187801185Y-134073815D01*
X187704494Y-133994463D01*
X187594180Y-133935498D01*
X187474482Y-133899188D01*
X187350000Y-133886928D01*
X186785750Y-133890000D01*
X186627000Y-134048750D01*
X186373000Y-134048750D01*
X186214250Y-133890000D01*
X186009500Y-133888885D01*
X186009500Y-131247900D01*
X187602134Y-131247900D01*
X187628935Y-131520017D01*
X187708309Y-131781677D01*
X187837205Y-132022824D01*
X188010669Y-132234191D01*
X188222036Y-132407655D01*
X188463183Y-132536551D01*
X188724843Y-132615925D01*
X188928771Y-132636010D01*
X190573909Y-132636010D01*
X190777837Y-132615925D01*
X191039497Y-132536551D01*
X191280644Y-132407655D01*
X191492011Y-132234191D01*
X191665475Y-132022824D01*
X191794371Y-131781677D01*
X191873745Y-131520017D01*
X191900546Y-131247900D01*
X191873745Y-130975783D01*
X191794371Y-130714123D01*
X191665475Y-130472976D01*
X191492011Y-130261609D01*
X191280644Y-130088145D01*
X191039497Y-129959249D01*
X190777837Y-129879875D01*
X190573909Y-129859790D01*
X188928771Y-129859790D01*
X188724843Y-129879875D01*
X188463183Y-129959249D01*
X188222036Y-130088145D01*
X188010669Y-130261609D01*
X187837205Y-130472976D01*
X187708309Y-130714123D01*
X187628935Y-130975783D01*
X187602134Y-131247900D01*
X186009500Y-131247900D01*
X186009500Y-127059401D01*
X186316801Y-126752100D01*
X187602134Y-126752100D01*
X187628935Y-127024217D01*
X187708309Y-127285877D01*
X187837205Y-127527024D01*
X188010669Y-127738391D01*
X188222036Y-127911855D01*
X188463183Y-128040751D01*
X188724843Y-128120125D01*
X188928771Y-128140210D01*
X190573909Y-128140210D01*
X190777837Y-128120125D01*
X191039497Y-128040751D01*
X191280644Y-127911855D01*
X191492011Y-127738391D01*
X191665475Y-127527024D01*
X191794371Y-127285877D01*
X191873745Y-127024217D01*
X191900546Y-126752100D01*
X191873745Y-126479983D01*
X191794371Y-126218323D01*
X191665475Y-125977176D01*
X191492011Y-125765809D01*
X191280644Y-125592345D01*
X191039497Y-125463449D01*
X190777837Y-125384075D01*
X190573909Y-125363990D01*
X188928771Y-125363990D01*
X188724843Y-125384075D01*
X188463183Y-125463449D01*
X188222036Y-125592345D01*
X188010669Y-125765809D01*
X187837205Y-125977176D01*
X187708309Y-126218323D01*
X187628935Y-126479983D01*
X187602134Y-126752100D01*
X186316801Y-126752100D01*
X196824600Y-116244302D01*
X196824600Y-125101398D01*
X196562008Y-125363990D01*
X195426091Y-125363990D01*
X195222163Y-125384075D01*
X194960503Y-125463449D01*
X194719356Y-125592345D01*
X194507989Y-125765809D01*
X194334525Y-125977176D01*
X194205629Y-126218323D01*
X194126255Y-126479983D01*
X194099454Y-126752100D01*
X194126255Y-127024217D01*
X194205629Y-127285877D01*
X194334525Y-127527024D01*
X194507989Y-127738391D01*
X194719356Y-127911855D01*
X194960503Y-128040751D01*
X195222163Y-128120125D01*
X195426091Y-128140210D01*
X197071229Y-128140210D01*
X197275157Y-128120125D01*
X197324100Y-128105278D01*
X197324100Y-129097698D01*
X196562009Y-129859790D01*
X195426091Y-129859790D01*
X195222163Y-129879875D01*
X194960503Y-129959249D01*
X194719356Y-130088145D01*
X194507989Y-130261609D01*
X194334525Y-130472976D01*
X194205629Y-130714123D01*
X194126255Y-130975783D01*
X194099454Y-131247900D01*
X194126255Y-131520017D01*
X194205629Y-131781677D01*
X194334525Y-132022824D01*
X194507989Y-132234191D01*
X194719356Y-132407655D01*
X194960503Y-132536551D01*
X195222163Y-132615925D01*
X195426091Y-132636010D01*
X197071229Y-132636010D01*
X197275157Y-132615925D01*
X197536817Y-132536551D01*
X197777964Y-132407655D01*
X197989331Y-132234191D01*
X198162795Y-132022824D01*
X198290001Y-131784839D01*
X198290001Y-140290000D01*
X99710000Y-140290000D01*
X99710000Y-137279872D01*
X100265000Y-137279872D01*
X100265000Y-137720128D01*
X100350890Y-138151925D01*
X100519369Y-138558669D01*
X100763962Y-138924729D01*
X101075271Y-139236038D01*
X101441331Y-139480631D01*
X101848075Y-139649110D01*
X102279872Y-139735000D01*
X102720128Y-139735000D01*
X103151925Y-139649110D01*
X103558669Y-139480631D01*
X103924729Y-139236038D01*
X104236038Y-138924729D01*
X104480631Y-138558669D01*
X104649110Y-138151925D01*
X104735000Y-137720128D01*
X104735000Y-137279872D01*
X104649110Y-136848075D01*
X104480631Y-136441331D01*
X104236038Y-136075271D01*
X103924729Y-135763962D01*
X103558669Y-135519369D01*
X103151925Y-135350890D01*
X102720128Y-135265000D01*
X102279872Y-135265000D01*
X101848075Y-135350890D01*
X101441331Y-135519369D01*
X101075271Y-135763962D01*
X100763962Y-136075271D01*
X100519369Y-136441331D01*
X100350890Y-136848075D01*
X100265000Y-137279872D01*
X99710000Y-137279872D01*
X99710000Y-131589574D01*
X107651557Y-131589574D01*
X107665913Y-131661772D01*
X107772231Y-131913494D01*
X107925615Y-132139638D01*
X108120170Y-132331513D01*
X108348420Y-132481745D01*
X108601593Y-132584561D01*
X108869960Y-132636010D01*
X109624340Y-132636010D01*
X109624340Y-131374900D01*
X109878340Y-131374900D01*
X109878340Y-132636010D01*
X110632720Y-132636010D01*
X110901087Y-132584561D01*
X111154260Y-132481745D01*
X111382510Y-132331513D01*
X111577065Y-132139638D01*
X111730449Y-131913494D01*
X111836767Y-131661772D01*
X111851123Y-131589574D01*
X114148877Y-131589574D01*
X114163233Y-131661772D01*
X114269551Y-131913494D01*
X114422935Y-132139638D01*
X114617490Y-132331513D01*
X114845740Y-132481745D01*
X115098913Y-132584561D01*
X115367280Y-132636010D01*
X116121660Y-132636010D01*
X116121660Y-131374900D01*
X114271498Y-131374900D01*
X114148877Y-131589574D01*
X111851123Y-131589574D01*
X111728502Y-131374900D01*
X109878340Y-131374900D01*
X109624340Y-131374900D01*
X107774178Y-131374900D01*
X107651557Y-131589574D01*
X99710000Y-131589574D01*
X99710000Y-130906226D01*
X107651557Y-130906226D01*
X107774178Y-131120900D01*
X109624340Y-131120900D01*
X109624340Y-129859790D01*
X109878340Y-129859790D01*
X109878340Y-131120900D01*
X111728502Y-131120900D01*
X111851123Y-130906226D01*
X114148877Y-130906226D01*
X114271498Y-131120900D01*
X116121660Y-131120900D01*
X116121660Y-129859790D01*
X115367280Y-129859790D01*
X115098913Y-129911239D01*
X114845740Y-130014055D01*
X114617490Y-130164287D01*
X114422935Y-130356162D01*
X114269551Y-130582306D01*
X114163233Y-130834028D01*
X114148877Y-130906226D01*
X111851123Y-130906226D01*
X111836767Y-130834028D01*
X111730449Y-130582306D01*
X111577065Y-130356162D01*
X111382510Y-130164287D01*
X111154260Y-130014055D01*
X110901087Y-129911239D01*
X110632720Y-129859790D01*
X109878340Y-129859790D01*
X109624340Y-129859790D01*
X108869960Y-129859790D01*
X108601593Y-129911239D01*
X108348420Y-130014055D01*
X108120170Y-130164287D01*
X107925615Y-130356162D01*
X107772231Y-130582306D01*
X107665913Y-130834028D01*
X107651557Y-130906226D01*
X99710000Y-130906226D01*
X99710000Y-126752100D01*
X107602134Y-126752100D01*
X107628935Y-127024217D01*
X107708309Y-127285877D01*
X107837205Y-127527024D01*
X108010669Y-127738391D01*
X108222036Y-127911855D01*
X108463183Y-128040751D01*
X108724843Y-128120125D01*
X108928771Y-128140210D01*
X110573909Y-128140210D01*
X110777837Y-128120125D01*
X111039497Y-128040751D01*
X111280644Y-127911855D01*
X111492011Y-127738391D01*
X111665475Y-127527024D01*
X111794371Y-127285877D01*
X111873745Y-127024217D01*
X111900546Y-126752100D01*
X111873745Y-126479983D01*
X111794371Y-126218323D01*
X111665475Y-125977176D01*
X111492011Y-125765809D01*
X111280644Y-125592345D01*
X111039497Y-125463449D01*
X110777837Y-125384075D01*
X110573909Y-125363990D01*
X108928771Y-125363990D01*
X108724843Y-125384075D01*
X108463183Y-125463449D01*
X108222036Y-125592345D01*
X108010669Y-125765809D01*
X107837205Y-125977176D01*
X107708309Y-126218323D01*
X107628935Y-126479983D01*
X107602134Y-126752100D01*
X99710000Y-126752100D01*
X99710000Y-117784796D01*
X112815000Y-117784796D01*
X112815000Y-118215204D01*
X112898969Y-118637341D01*
X113063678Y-119034985D01*
X113302800Y-119392856D01*
X113607144Y-119697200D01*
X113965015Y-119936322D01*
X114362659Y-120101031D01*
X114784796Y-120185000D01*
X115215204Y-120185000D01*
X115637341Y-120101031D01*
X116034985Y-119936322D01*
X116392856Y-119697200D01*
X116697200Y-119392856D01*
X116936322Y-119034985D01*
X117101031Y-118637341D01*
X117185000Y-118215204D01*
X117185000Y-117784796D01*
X117101031Y-117362659D01*
X116936322Y-116965015D01*
X116697200Y-116607144D01*
X116392856Y-116302800D01*
X116034985Y-116063678D01*
X115637341Y-115898969D01*
X115215204Y-115815000D01*
X114784796Y-115815000D01*
X114362659Y-115898969D01*
X113965015Y-116063678D01*
X113607144Y-116302800D01*
X113302800Y-116607144D01*
X113063678Y-116965015D01*
X112898969Y-117362659D01*
X112815000Y-117784796D01*
X99710000Y-117784796D01*
X99710000Y-73784796D01*
X112815000Y-73784796D01*
X112815000Y-74215204D01*
X112898969Y-74637341D01*
X113063678Y-75034985D01*
X113302800Y-75392856D01*
X113607144Y-75697200D01*
X113965015Y-75936322D01*
X114362659Y-76101031D01*
X114784796Y-76185000D01*
X115215204Y-76185000D01*
X115637341Y-76101031D01*
X116034985Y-75936322D01*
X116392856Y-75697200D01*
X116697200Y-75392856D01*
X116936322Y-75034985D01*
X117101031Y-74637341D01*
X117185000Y-74215204D01*
X117185000Y-73784796D01*
X117101031Y-73362659D01*
X116936322Y-72965015D01*
X116697200Y-72607144D01*
X116392856Y-72302800D01*
X116034985Y-72063678D01*
X115637341Y-71898969D01*
X115215204Y-71815000D01*
X114784796Y-71815000D01*
X114362659Y-71898969D01*
X113965015Y-72063678D01*
X113607144Y-72302800D01*
X113302800Y-72607144D01*
X113063678Y-72965015D01*
X112898969Y-73362659D01*
X112815000Y-73784796D01*
X99710000Y-73784796D01*
X99710000Y-67279872D01*
X100265000Y-67279872D01*
X100265000Y-67720128D01*
X100350890Y-68151925D01*
X100519369Y-68558669D01*
X100763962Y-68924729D01*
X101075271Y-69236038D01*
X101441331Y-69480631D01*
X101848075Y-69649110D01*
X102279872Y-69735000D01*
X102720128Y-69735000D01*
X103151925Y-69649110D01*
X103558669Y-69480631D01*
X103924729Y-69236038D01*
X104236038Y-68924729D01*
X104480631Y-68558669D01*
X104649110Y-68151925D01*
X104735000Y-67720128D01*
X104735000Y-67279872D01*
X104649110Y-66848075D01*
X104480631Y-66441331D01*
X104236038Y-66075271D01*
X103924729Y-65763962D01*
X103558669Y-65519369D01*
X103151925Y-65350890D01*
X102720128Y-65265000D01*
X102279872Y-65265000D01*
X101848075Y-65350890D01*
X101441331Y-65519369D01*
X101075271Y-65763962D01*
X100763962Y-66075271D01*
X100519369Y-66441331D01*
X100350890Y-66848075D01*
X100265000Y-67279872D01*
X99710000Y-67279872D01*
X99710000Y-64710000D01*
X198290000Y-64710000D01*
X198290000Y-77416098D01*
G37*
G04 #@! TD.AperFunction*
D23*
X120962880Y-80638535D02*
X121012272Y-80687927D01*
X120449598Y-81250601D01*
X120420600Y-81274399D01*
X120396802Y-81303397D01*
X120396801Y-81303398D01*
X120325626Y-81390124D01*
X120255054Y-81522154D01*
X120211598Y-81665415D01*
X120196924Y-81814400D01*
X120200601Y-81851732D01*
X120200600Y-86243277D01*
X120196924Y-86280600D01*
X120200600Y-86317922D01*
X120200600Y-86317932D01*
X120211597Y-86429585D01*
X120243233Y-86533876D01*
X120255054Y-86572846D01*
X120325626Y-86704876D01*
X120351917Y-86736911D01*
X120420599Y-86820601D01*
X120449602Y-86844404D01*
X120681628Y-87076429D01*
X120651000Y-87230408D01*
X120651000Y-87505592D01*
X120704686Y-87775490D01*
X120809995Y-88029727D01*
X120962880Y-88258535D01*
X121157465Y-88453120D01*
X121245465Y-88511920D01*
X121161518Y-88520188D01*
X121041820Y-88556498D01*
X120931506Y-88615463D01*
X120834815Y-88694815D01*
X120755463Y-88791506D01*
X120696498Y-88901820D01*
X120660188Y-89021518D01*
X120647928Y-89146000D01*
X120647928Y-90670000D01*
X120660188Y-90794482D01*
X120696498Y-90914180D01*
X120755463Y-91024494D01*
X120834815Y-91121185D01*
X120931506Y-91200537D01*
X121041820Y-91259502D01*
X121161518Y-91295812D01*
X121286000Y-91308072D01*
X122810000Y-91308072D01*
X122934482Y-91295812D01*
X123054180Y-91259502D01*
X123164494Y-91200537D01*
X123261185Y-91121185D01*
X123340537Y-91024494D01*
X123399502Y-90914180D01*
X123435812Y-90794482D01*
X123448072Y-90670000D01*
X123448072Y-89146000D01*
X123435812Y-89021518D01*
X123399502Y-88901820D01*
X123340537Y-88791506D01*
X123261185Y-88694815D01*
X123164494Y-88615463D01*
X123054180Y-88556498D01*
X122934482Y-88520188D01*
X122850535Y-88511920D01*
X122938535Y-88453120D01*
X123133120Y-88258535D01*
X123286005Y-88029727D01*
X123391314Y-87775490D01*
X123445000Y-87505592D01*
X123445000Y-87230408D01*
X123391314Y-86960510D01*
X123286005Y-86706273D01*
X123133120Y-86477465D01*
X122938535Y-86282880D01*
X122709727Y-86129995D01*
X122632485Y-86098000D01*
X122709727Y-86066005D01*
X122938535Y-85913120D01*
X123133120Y-85718535D01*
X123286005Y-85489727D01*
X123391314Y-85235490D01*
X123445000Y-84965592D01*
X123445000Y-84690408D01*
X123391314Y-84420510D01*
X123286005Y-84166273D01*
X123133120Y-83937465D01*
X122938535Y-83742880D01*
X122709727Y-83589995D01*
X122638057Y-83560308D01*
X122651023Y-83555636D01*
X122766980Y-83493656D01*
X122833959Y-83253567D01*
X122950369Y-83369977D01*
X123024795Y-83295551D01*
X123094938Y-83400528D01*
X123225172Y-83530762D01*
X123378311Y-83633086D01*
X123548471Y-83703568D01*
X123729111Y-83739500D01*
X123913289Y-83739500D01*
X124093929Y-83703568D01*
X124183900Y-83666301D01*
X124183900Y-83927577D01*
X124180224Y-83964900D01*
X124183900Y-84002222D01*
X124183900Y-84002232D01*
X124194897Y-84113885D01*
X124220803Y-84199286D01*
X124238354Y-84257146D01*
X124308926Y-84389176D01*
X124344406Y-84432408D01*
X124403899Y-84504901D01*
X124432903Y-84528704D01*
X127092001Y-87187803D01*
X127115799Y-87216801D01*
X127231524Y-87311774D01*
X127363553Y-87382346D01*
X127506814Y-87425803D01*
X127618467Y-87436800D01*
X127618475Y-87436800D01*
X127655800Y-87440476D01*
X127693125Y-87436800D01*
X147835798Y-87436800D01*
X131739003Y-103533596D01*
X131709999Y-103557399D01*
X131684882Y-103588005D01*
X131615026Y-103673124D01*
X131591521Y-103717099D01*
X131544454Y-103805154D01*
X131500997Y-103948415D01*
X131490000Y-104060068D01*
X131490000Y-104060078D01*
X131486324Y-104097400D01*
X131490000Y-104134722D01*
X131490001Y-124959763D01*
X131421414Y-125062411D01*
X131350932Y-125232571D01*
X131315000Y-125413211D01*
X131315000Y-125597389D01*
X131350932Y-125778029D01*
X131421414Y-125948189D01*
X131523738Y-126101328D01*
X131653972Y-126231562D01*
X131807111Y-126333886D01*
X131977271Y-126404368D01*
X132157911Y-126440300D01*
X132342089Y-126440300D01*
X132522729Y-126404368D01*
X132692889Y-126333886D01*
X132846028Y-126231562D01*
X132976262Y-126101328D01*
X133078586Y-125948189D01*
X133149068Y-125778029D01*
X133185000Y-125597389D01*
X133185000Y-125413211D01*
X133149068Y-125232571D01*
X133078586Y-125062411D01*
X133037033Y-125000222D01*
X133109571Y-125030268D01*
X133290211Y-125066200D01*
X133474389Y-125066200D01*
X133655029Y-125030268D01*
X133825189Y-124959786D01*
X133978328Y-124857462D01*
X134108562Y-124727228D01*
X134210886Y-124574089D01*
X134281368Y-124403929D01*
X134305453Y-124282848D01*
X162829603Y-95758699D01*
X162858601Y-95734901D01*
X162913165Y-95668415D01*
X162953574Y-95619177D01*
X163024146Y-95487147D01*
X163026617Y-95479002D01*
X163067603Y-95343886D01*
X163078600Y-95232233D01*
X163078600Y-95232223D01*
X163082276Y-95194900D01*
X163078600Y-95157577D01*
X163078600Y-86963700D01*
X167834376Y-86963700D01*
X167861832Y-87101729D01*
X167932314Y-87271889D01*
X168034638Y-87425028D01*
X168164872Y-87555262D01*
X168318011Y-87657586D01*
X168488171Y-87728068D01*
X168609252Y-87752153D01*
X180263901Y-99406803D01*
X180287699Y-99435801D01*
X180403424Y-99530774D01*
X180535453Y-99601346D01*
X180678714Y-99644803D01*
X180790367Y-99655800D01*
X180790376Y-99655800D01*
X180827699Y-99659476D01*
X180865022Y-99655800D01*
X182851265Y-99655800D01*
X182953911Y-99724386D01*
X183124071Y-99794868D01*
X183304711Y-99830800D01*
X183488889Y-99830800D01*
X183577701Y-99813134D01*
X183577701Y-116083197D01*
X182164303Y-117496596D01*
X182135299Y-117520399D01*
X182080171Y-117587574D01*
X182040326Y-117636124D01*
X181969755Y-117768153D01*
X181969754Y-117768154D01*
X181926297Y-117911415D01*
X181915300Y-118023068D01*
X181915300Y-118023078D01*
X181911624Y-118060400D01*
X181915300Y-118097722D01*
X181915301Y-133949160D01*
X181791111Y-133911487D01*
X181500000Y-133882815D01*
X181208890Y-133911487D01*
X180928967Y-133996401D01*
X180670987Y-134134294D01*
X180444866Y-134319866D01*
X180259294Y-134545986D01*
X180121401Y-134803966D01*
X180036487Y-135083889D01*
X180015000Y-135302050D01*
X180015000Y-135697949D01*
X180036487Y-135916110D01*
X180083867Y-136072300D01*
X176361602Y-136072300D01*
X174112864Y-133823563D01*
X174061010Y-133562875D01*
X173948042Y-133290147D01*
X173784039Y-133044698D01*
X173575302Y-132835961D01*
X173414187Y-132728308D01*
X173630293Y-132566854D01*
X173826817Y-132348488D01*
X173976964Y-132095978D01*
X174074963Y-131819027D01*
X173954464Y-131587000D01*
X172747000Y-131587000D01*
X172747000Y-131607000D01*
X172493000Y-131607000D01*
X172493000Y-131587000D01*
X172473000Y-131587000D01*
X172473000Y-131333000D01*
X172493000Y-131333000D01*
X172493000Y-130126183D01*
X172747000Y-130126183D01*
X172747000Y-131333000D01*
X173954464Y-131333000D01*
X174074963Y-131100973D01*
X173976964Y-130824022D01*
X173826817Y-130571512D01*
X173630293Y-130353146D01*
X173394944Y-130177316D01*
X173129814Y-130050778D01*
X172979026Y-130005042D01*
X172747000Y-130126183D01*
X172493000Y-130126183D01*
X172260974Y-130005042D01*
X172110186Y-130050778D01*
X171845056Y-130177316D01*
X171609707Y-130353146D01*
X171413183Y-130571512D01*
X171354559Y-130670103D01*
X171244039Y-130504698D01*
X171035302Y-130295961D01*
X170832799Y-130160653D01*
X170829003Y-130122114D01*
X170785546Y-129978853D01*
X170714974Y-129846824D01*
X170620001Y-129731099D01*
X170591003Y-129707301D01*
X168714300Y-127830599D01*
X168714300Y-89759835D01*
X168782886Y-89657189D01*
X168853368Y-89487029D01*
X168889300Y-89306389D01*
X168889300Y-89122211D01*
X168853368Y-88941571D01*
X168782886Y-88771411D01*
X168680562Y-88618272D01*
X168550328Y-88488038D01*
X168397189Y-88385714D01*
X168227029Y-88315232D01*
X168046389Y-88279300D01*
X167862211Y-88279300D01*
X167681571Y-88315232D01*
X167511411Y-88385714D01*
X167358272Y-88488038D01*
X167228038Y-88618272D01*
X167125714Y-88771411D01*
X167055232Y-88941571D01*
X167019300Y-89122211D01*
X167019300Y-89306389D01*
X167055232Y-89487029D01*
X167125714Y-89657189D01*
X167194301Y-89759837D01*
X167194300Y-128108078D01*
X167190624Y-128145400D01*
X167194300Y-128182722D01*
X167194300Y-128182732D01*
X167205297Y-128294385D01*
X167223529Y-128354488D01*
X167248754Y-128437646D01*
X167319326Y-128569676D01*
X167359171Y-128618226D01*
X167414299Y-128685401D01*
X167443303Y-128709204D01*
X169077379Y-130343280D01*
X168915961Y-130504698D01*
X168810000Y-130663281D01*
X168704039Y-130504698D01*
X168495302Y-130295961D01*
X168292799Y-130160653D01*
X168289003Y-130122114D01*
X168245546Y-129978853D01*
X168231460Y-129952501D01*
X168174974Y-129846823D01*
X168103799Y-129760097D01*
X168080001Y-129731099D01*
X168051003Y-129707301D01*
X166184700Y-127840999D01*
X166184700Y-89393135D01*
X166253286Y-89290489D01*
X166323768Y-89120329D01*
X166359700Y-88939689D01*
X166359700Y-88755511D01*
X166323768Y-88574871D01*
X166253286Y-88404711D01*
X166150962Y-88251572D01*
X166020728Y-88121338D01*
X165867589Y-88019014D01*
X165697429Y-87948532D01*
X165516789Y-87912600D01*
X165332611Y-87912600D01*
X165151971Y-87948532D01*
X164981811Y-88019014D01*
X164828672Y-88121338D01*
X164698438Y-88251572D01*
X164596114Y-88404711D01*
X164525632Y-88574871D01*
X164489700Y-88755511D01*
X164489700Y-88939689D01*
X164525632Y-89120329D01*
X164596114Y-89290489D01*
X164664701Y-89393137D01*
X164664700Y-128118478D01*
X164661024Y-128155800D01*
X164664700Y-128193122D01*
X164664700Y-128193132D01*
X164675697Y-128304785D01*
X164715999Y-128437646D01*
X164719154Y-128448046D01*
X164789726Y-128580076D01*
X164829571Y-128628626D01*
X164884699Y-128695801D01*
X164913703Y-128719604D01*
X166537379Y-130343280D01*
X166375961Y-130504698D01*
X166355833Y-130534822D01*
X166212915Y-130360676D01*
X159252925Y-123400687D01*
X159201714Y-123338286D01*
X158952752Y-123133969D01*
X158668715Y-122982148D01*
X158360516Y-122888657D01*
X158120322Y-122865000D01*
X158120319Y-122865000D01*
X158040000Y-122857089D01*
X157959681Y-122865000D01*
X143435859Y-122865000D01*
X143561714Y-122761714D01*
X143612925Y-122699313D01*
X145677239Y-120635000D01*
X159122762Y-120635000D01*
X161365000Y-122877239D01*
X161365000Y-123080321D01*
X161388657Y-123320515D01*
X161482148Y-123628714D01*
X161633969Y-123912751D01*
X161838286Y-124161714D01*
X162087248Y-124366031D01*
X162371285Y-124517852D01*
X162679484Y-124611343D01*
X163000000Y-124642911D01*
X163320515Y-124611343D01*
X163628714Y-124517852D01*
X163912751Y-124366031D01*
X164161714Y-124161714D01*
X164366031Y-123912752D01*
X164517852Y-123628715D01*
X164611343Y-123320516D01*
X164635000Y-123080322D01*
X164635000Y-122280319D01*
X164642911Y-122199999D01*
X164635000Y-122119678D01*
X164611343Y-121879484D01*
X164517852Y-121571285D01*
X164366031Y-121287248D01*
X164161714Y-121038286D01*
X164099319Y-120987080D01*
X161012925Y-117900687D01*
X160961714Y-117838286D01*
X160712752Y-117633969D01*
X160428715Y-117482148D01*
X160120516Y-117388657D01*
X159880322Y-117365000D01*
X159880319Y-117365000D01*
X159800000Y-117357089D01*
X159719681Y-117365000D01*
X145080319Y-117365000D01*
X144999999Y-117357089D01*
X144919680Y-117365000D01*
X144919678Y-117365000D01*
X144679484Y-117388657D01*
X144371285Y-117482148D01*
X144087248Y-117633969D01*
X143838286Y-117838286D01*
X143787080Y-117900681D01*
X141701248Y-119986513D01*
X141679484Y-119988657D01*
X141371285Y-120082148D01*
X141087248Y-120233969D01*
X140838286Y-120438286D01*
X140633969Y-120687248D01*
X140482148Y-120971285D01*
X140388657Y-121279484D01*
X140357089Y-121600000D01*
X140388657Y-121920516D01*
X140482148Y-122228715D01*
X140633969Y-122512752D01*
X140838286Y-122761714D01*
X140964141Y-122865000D01*
X138919678Y-122865000D01*
X138679484Y-122888657D01*
X138371285Y-122982148D01*
X138087248Y-123133969D01*
X137838286Y-123338286D01*
X137633969Y-123587248D01*
X137482148Y-123871285D01*
X137388657Y-124179484D01*
X137357089Y-124500000D01*
X137388657Y-124820516D01*
X137482148Y-125128715D01*
X137633969Y-125412752D01*
X137838286Y-125661714D01*
X138087248Y-125866031D01*
X138371285Y-126017852D01*
X138679484Y-126111343D01*
X138919678Y-126135000D01*
X151059869Y-126135000D01*
X150817369Y-126377500D01*
X150648692Y-126377500D01*
X150568386Y-126311595D01*
X150414850Y-126229528D01*
X150248254Y-126178992D01*
X150075000Y-126161928D01*
X147925000Y-126161928D01*
X147751746Y-126178992D01*
X147585150Y-126229528D01*
X147431614Y-126311595D01*
X147297038Y-126422038D01*
X147186595Y-126556614D01*
X147104528Y-126710150D01*
X147053992Y-126876746D01*
X147036928Y-127050000D01*
X147036928Y-127975000D01*
X147053992Y-128148254D01*
X147104528Y-128314850D01*
X147186595Y-128468386D01*
X147297038Y-128602962D01*
X147431614Y-128713405D01*
X147585150Y-128795472D01*
X147751746Y-128846008D01*
X147925000Y-128863072D01*
X150075000Y-128863072D01*
X150248254Y-128846008D01*
X150414850Y-128795472D01*
X150568386Y-128713405D01*
X150648692Y-128647500D01*
X151231749Y-128647500D01*
X151287500Y-128652991D01*
X151343251Y-128647500D01*
X151343252Y-128647500D01*
X151509999Y-128631077D01*
X151723947Y-128566176D01*
X151921123Y-128460784D01*
X152093949Y-128318949D01*
X152129496Y-128275635D01*
X152841988Y-127563143D01*
X152948283Y-127433623D01*
X153053675Y-127236447D01*
X153118577Y-127022500D01*
X153140490Y-126800001D01*
X153118577Y-126577502D01*
X153053675Y-126363554D01*
X152948283Y-126166378D01*
X152922532Y-126135000D01*
X157362762Y-126135000D01*
X163815609Y-132587848D01*
X163781906Y-132605863D01*
X163685215Y-132685215D01*
X163605863Y-132781906D01*
X163546898Y-132892220D01*
X163510588Y-133011918D01*
X163498328Y-133136400D01*
X163498328Y-134863600D01*
X163510588Y-134988082D01*
X163546898Y-135107780D01*
X163605863Y-135218094D01*
X163685215Y-135314785D01*
X163781906Y-135394137D01*
X163892220Y-135453102D01*
X164011918Y-135489412D01*
X164136400Y-135501672D01*
X164666327Y-135501672D01*
X164098699Y-136069300D01*
X157146093Y-136069300D01*
X157240706Y-135954014D01*
X157378599Y-135696033D01*
X157463513Y-135416110D01*
X157485000Y-135197949D01*
X157485000Y-134802050D01*
X157463513Y-134583889D01*
X157378599Y-134303966D01*
X157240706Y-134045986D01*
X157055134Y-133819866D01*
X156829013Y-133634294D01*
X156571033Y-133496401D01*
X156291110Y-133411487D01*
X156000000Y-133382815D01*
X155708889Y-133411487D01*
X155428966Y-133496401D01*
X155170986Y-133634294D01*
X154944866Y-133819866D01*
X154759294Y-134045987D01*
X154750000Y-134063374D01*
X154740706Y-134045986D01*
X154555134Y-133819866D01*
X154329013Y-133634294D01*
X154071033Y-133496401D01*
X153791110Y-133411487D01*
X153500000Y-133382815D01*
X153208889Y-133411487D01*
X152928966Y-133496401D01*
X152670986Y-133634294D01*
X152444866Y-133819866D01*
X152259294Y-134045987D01*
X152250000Y-134063374D01*
X152240706Y-134045986D01*
X152055134Y-133819866D01*
X151829013Y-133634294D01*
X151571033Y-133496401D01*
X151291110Y-133411487D01*
X151000000Y-133382815D01*
X150708889Y-133411487D01*
X150428966Y-133496401D01*
X150170986Y-133634294D01*
X149950055Y-133815608D01*
X149939502Y-133780820D01*
X149880537Y-133670506D01*
X149801185Y-133573815D01*
X149704494Y-133494463D01*
X149594180Y-133435498D01*
X149474482Y-133399188D01*
X149350000Y-133386928D01*
X148785750Y-133390000D01*
X148627000Y-133548750D01*
X148627000Y-134873000D01*
X148647000Y-134873000D01*
X148647000Y-135127000D01*
X148627000Y-135127000D01*
X148627000Y-135147000D01*
X148373000Y-135147000D01*
X148373000Y-135127000D01*
X147173750Y-135127000D01*
X147015000Y-135285750D01*
X147011928Y-135975000D01*
X147021215Y-136069300D01*
X143146093Y-136069300D01*
X143240706Y-135954014D01*
X143378599Y-135696033D01*
X143463513Y-135416110D01*
X143485000Y-135197949D01*
X143485000Y-134802050D01*
X143463513Y-134583889D01*
X143378599Y-134303966D01*
X143240706Y-134045986D01*
X143223484Y-134025000D01*
X147011928Y-134025000D01*
X147015000Y-134714250D01*
X147173750Y-134873000D01*
X148373000Y-134873000D01*
X148373000Y-133548750D01*
X148214250Y-133390000D01*
X147650000Y-133386928D01*
X147525518Y-133399188D01*
X147405820Y-133435498D01*
X147295506Y-133494463D01*
X147198815Y-133573815D01*
X147119463Y-133670506D01*
X147060498Y-133780820D01*
X147024188Y-133900518D01*
X147011928Y-134025000D01*
X143223484Y-134025000D01*
X143055134Y-133819866D01*
X142829013Y-133634294D01*
X142571033Y-133496401D01*
X142291110Y-133411487D01*
X142000000Y-133382815D01*
X141708889Y-133411487D01*
X141428966Y-133496401D01*
X141170986Y-133634294D01*
X140944866Y-133819866D01*
X140759294Y-134045987D01*
X140750000Y-134063374D01*
X140740706Y-134045986D01*
X140555134Y-133819866D01*
X140329013Y-133634294D01*
X140071033Y-133496401D01*
X139791110Y-133411487D01*
X139500000Y-133382815D01*
X139208889Y-133411487D01*
X138928966Y-133496401D01*
X138670986Y-133634294D01*
X138444866Y-133819866D01*
X138259294Y-134045987D01*
X138250000Y-134063374D01*
X138240706Y-134045986D01*
X138055134Y-133819866D01*
X137829013Y-133634294D01*
X137571033Y-133496401D01*
X137291110Y-133411487D01*
X137000000Y-133382815D01*
X136708889Y-133411487D01*
X136428966Y-133496401D01*
X136170986Y-133634294D01*
X135950055Y-133815608D01*
X135939502Y-133780820D01*
X135880537Y-133670506D01*
X135801185Y-133573815D01*
X135704494Y-133494463D01*
X135594180Y-133435498D01*
X135474482Y-133399188D01*
X135350000Y-133386928D01*
X134785750Y-133390000D01*
X134627000Y-133548750D01*
X134627000Y-134873000D01*
X134647000Y-134873000D01*
X134647000Y-135127000D01*
X134627000Y-135127000D01*
X134627000Y-135147000D01*
X134373000Y-135147000D01*
X134373000Y-135127000D01*
X133173750Y-135127000D01*
X133015000Y-135285750D01*
X133011928Y-135975000D01*
X133021215Y-136069300D01*
X128666610Y-136069300D01*
X128740706Y-135979014D01*
X128878599Y-135721033D01*
X128963513Y-135441110D01*
X128985000Y-135222949D01*
X128985000Y-134777050D01*
X128963513Y-134558889D01*
X128878599Y-134278966D01*
X128742852Y-134025000D01*
X133011928Y-134025000D01*
X133015000Y-134714250D01*
X133173750Y-134873000D01*
X134373000Y-134873000D01*
X134373000Y-133548750D01*
X134214250Y-133390000D01*
X133650000Y-133386928D01*
X133525518Y-133399188D01*
X133405820Y-133435498D01*
X133295506Y-133494463D01*
X133198815Y-133573815D01*
X133119463Y-133670506D01*
X133060498Y-133780820D01*
X133024188Y-133900518D01*
X133011928Y-134025000D01*
X128742852Y-134025000D01*
X128740706Y-134020986D01*
X128555134Y-133794866D01*
X128329013Y-133609294D01*
X128071033Y-133471401D01*
X127791110Y-133386487D01*
X127500000Y-133357815D01*
X127208889Y-133386487D01*
X126928966Y-133471401D01*
X126670986Y-133609294D01*
X126450055Y-133790608D01*
X126439502Y-133755820D01*
X126380537Y-133645506D01*
X126301185Y-133548815D01*
X126204494Y-133469463D01*
X126094180Y-133410498D01*
X125974482Y-133374188D01*
X125850000Y-133361928D01*
X125285750Y-133365000D01*
X125127000Y-133523750D01*
X125127000Y-134873000D01*
X125147000Y-134873000D01*
X125147000Y-135127000D01*
X125127000Y-135127000D01*
X125127000Y-135147000D01*
X124873000Y-135147000D01*
X124873000Y-135127000D01*
X124853000Y-135127000D01*
X124853000Y-134873000D01*
X124873000Y-134873000D01*
X124873000Y-133523750D01*
X124714250Y-133365000D01*
X124150000Y-133361928D01*
X124025518Y-133374188D01*
X123905820Y-133410498D01*
X123795506Y-133469463D01*
X123698815Y-133548815D01*
X123619463Y-133645506D01*
X123560498Y-133755820D01*
X123524188Y-133875518D01*
X123511928Y-134000000D01*
X123515000Y-134714250D01*
X123673748Y-134872998D01*
X123515000Y-134872998D01*
X123515000Y-134968498D01*
X121182511Y-132636010D01*
X121881720Y-132636010D01*
X122150087Y-132584561D01*
X122403260Y-132481745D01*
X122631510Y-132331513D01*
X122826065Y-132139638D01*
X122979449Y-131913494D01*
X123085767Y-131661772D01*
X123100123Y-131589574D01*
X125397877Y-131589574D01*
X125412233Y-131661772D01*
X125518551Y-131913494D01*
X125671935Y-132139638D01*
X125866490Y-132331513D01*
X126094740Y-132481745D01*
X126347913Y-132584561D01*
X126616280Y-132636010D01*
X127370660Y-132636010D01*
X127370660Y-131374900D01*
X127624660Y-131374900D01*
X127624660Y-132636010D01*
X128379040Y-132636010D01*
X128647407Y-132584561D01*
X128900580Y-132481745D01*
X129128830Y-132331513D01*
X129323385Y-132139638D01*
X129476769Y-131913494D01*
X129583087Y-131661772D01*
X129597443Y-131589574D01*
X129474822Y-131374900D01*
X127624660Y-131374900D01*
X127370660Y-131374900D01*
X125520498Y-131374900D01*
X125397877Y-131589574D01*
X123100123Y-131589574D01*
X122977502Y-131374900D01*
X121127340Y-131374900D01*
X121127340Y-131394900D01*
X120873340Y-131394900D01*
X120873340Y-131374900D01*
X120853340Y-131374900D01*
X120853340Y-131200000D01*
X147036928Y-131200000D01*
X147049188Y-131324482D01*
X147085498Y-131444180D01*
X147144463Y-131554494D01*
X147223815Y-131651185D01*
X147320506Y-131730537D01*
X147430820Y-131789502D01*
X147550518Y-131825812D01*
X147675000Y-131838072D01*
X148714250Y-131835000D01*
X148873000Y-131676250D01*
X148873000Y-130614500D01*
X149127000Y-130614500D01*
X149127000Y-131676250D01*
X149285750Y-131835000D01*
X150325000Y-131838072D01*
X150449482Y-131825812D01*
X150569180Y-131789502D01*
X150679494Y-131730537D01*
X150776185Y-131651185D01*
X150855537Y-131554494D01*
X150914502Y-131444180D01*
X150950812Y-131324482D01*
X150963072Y-131200000D01*
X150960000Y-130773250D01*
X150801250Y-130614500D01*
X149127000Y-130614500D01*
X148873000Y-130614500D01*
X147198750Y-130614500D01*
X147040000Y-130773250D01*
X147036928Y-131200000D01*
X120853340Y-131200000D01*
X120853340Y-131120900D01*
X120873340Y-131120900D01*
X120873340Y-129859790D01*
X121127340Y-129859790D01*
X121127340Y-131120900D01*
X122977502Y-131120900D01*
X123100123Y-130906226D01*
X125397877Y-130906226D01*
X125520498Y-131120900D01*
X127370660Y-131120900D01*
X127370660Y-129859790D01*
X127624660Y-129859790D01*
X127624660Y-131120900D01*
X129474822Y-131120900D01*
X129597443Y-130906226D01*
X129583087Y-130834028D01*
X129476769Y-130582306D01*
X129323385Y-130356162D01*
X129128830Y-130164287D01*
X128900580Y-130014055D01*
X128647407Y-129911239D01*
X128379040Y-129859790D01*
X127624660Y-129859790D01*
X127370660Y-129859790D01*
X126616280Y-129859790D01*
X126347913Y-129911239D01*
X126094740Y-130014055D01*
X125866490Y-130164287D01*
X125671935Y-130356162D01*
X125518551Y-130582306D01*
X125412233Y-130834028D01*
X125397877Y-130906226D01*
X123100123Y-130906226D01*
X123085767Y-130834028D01*
X122979449Y-130582306D01*
X122826065Y-130356162D01*
X122631510Y-130164287D01*
X122403260Y-130014055D01*
X122150087Y-129911239D01*
X121881720Y-129859790D01*
X121127340Y-129859790D01*
X120873340Y-129859790D01*
X120118960Y-129859790D01*
X119927500Y-129896495D01*
X119927500Y-129775000D01*
X147036928Y-129775000D01*
X147040000Y-130201750D01*
X147198750Y-130360500D01*
X148873000Y-130360500D01*
X148873000Y-129298750D01*
X149127000Y-129298750D01*
X149127000Y-130360500D01*
X150801250Y-130360500D01*
X150960000Y-130201750D01*
X150963072Y-129775000D01*
X150950812Y-129650518D01*
X150914502Y-129530820D01*
X150855537Y-129420506D01*
X150776185Y-129323815D01*
X150679494Y-129244463D01*
X150569180Y-129185498D01*
X150449482Y-129149188D01*
X150325000Y-129136928D01*
X149285750Y-129140000D01*
X149127000Y-129298750D01*
X148873000Y-129298750D01*
X148714250Y-129140000D01*
X147675000Y-129136928D01*
X147550518Y-129149188D01*
X147430820Y-129185498D01*
X147320506Y-129244463D01*
X147223815Y-129323815D01*
X147144463Y-129420506D01*
X147085498Y-129530820D01*
X147049188Y-129650518D01*
X147036928Y-129775000D01*
X119927500Y-129775000D01*
X119927500Y-128106067D01*
X119973843Y-128120125D01*
X120177771Y-128140210D01*
X121822909Y-128140210D01*
X122026837Y-128120125D01*
X122288497Y-128040751D01*
X122529644Y-127911855D01*
X122741011Y-127738391D01*
X122914475Y-127527024D01*
X123043371Y-127285877D01*
X123122745Y-127024217D01*
X123149546Y-126752100D01*
X125348454Y-126752100D01*
X125375255Y-127024217D01*
X125454629Y-127285877D01*
X125583525Y-127527024D01*
X125756989Y-127738391D01*
X125968356Y-127911855D01*
X126209503Y-128040751D01*
X126471163Y-128120125D01*
X126675091Y-128140210D01*
X128320229Y-128140210D01*
X128524157Y-128120125D01*
X128785817Y-128040751D01*
X129026964Y-127911855D01*
X129238331Y-127738391D01*
X129411795Y-127527024D01*
X129540691Y-127285877D01*
X129620065Y-127024217D01*
X129646866Y-126752100D01*
X129620065Y-126479983D01*
X129540691Y-126218323D01*
X129411795Y-125977176D01*
X129238331Y-125765809D01*
X129026964Y-125592345D01*
X128785817Y-125463449D01*
X128524157Y-125384075D01*
X128320229Y-125363990D01*
X126675091Y-125363990D01*
X126471163Y-125384075D01*
X126209503Y-125463449D01*
X125968356Y-125592345D01*
X125756989Y-125765809D01*
X125583525Y-125977176D01*
X125454629Y-126218323D01*
X125375255Y-126479983D01*
X125348454Y-126752100D01*
X123149546Y-126752100D01*
X123122745Y-126479983D01*
X123043371Y-126218323D01*
X122914475Y-125977176D01*
X122741011Y-125765809D01*
X122529644Y-125592345D01*
X122288497Y-125463449D01*
X122026837Y-125384075D01*
X121822909Y-125363990D01*
X120177771Y-125363990D01*
X119973843Y-125384075D01*
X119927500Y-125398133D01*
X119927500Y-101664822D01*
X119931176Y-101627499D01*
X119927500Y-101590177D01*
X119927500Y-101590167D01*
X119916503Y-101478514D01*
X119873046Y-101335253D01*
X119854167Y-101299933D01*
X119802474Y-101203223D01*
X119731299Y-101116497D01*
X119707501Y-101087499D01*
X119678503Y-101063701D01*
X116328370Y-97713569D01*
X116343314Y-97677490D01*
X116397000Y-97407592D01*
X116397000Y-97132408D01*
X116343314Y-96862510D01*
X116238005Y-96608273D01*
X116085120Y-96379465D01*
X115890535Y-96184880D01*
X115661727Y-96031995D01*
X115584485Y-96000000D01*
X115661727Y-95968005D01*
X115890535Y-95815120D01*
X116085120Y-95620535D01*
X116238005Y-95391727D01*
X116343314Y-95137490D01*
X116397000Y-94867592D01*
X116397000Y-94592408D01*
X116366372Y-94438430D01*
X116685603Y-94119199D01*
X116714601Y-94095401D01*
X116809574Y-93979676D01*
X116880146Y-93847647D01*
X116923603Y-93704386D01*
X116934600Y-93592733D01*
X116934600Y-93592724D01*
X116938276Y-93555401D01*
X116934600Y-93518078D01*
X116934600Y-84361701D01*
X120840669Y-80455633D01*
X120962880Y-80638535D01*
G04 #@! TA.AperFunction,Conductor*
D24*
G36*
X120962880Y-80638535D02*
G01*
X121012272Y-80687927D01*
X120449598Y-81250601D01*
X120420600Y-81274399D01*
X120396802Y-81303397D01*
X120396801Y-81303398D01*
X120325626Y-81390124D01*
X120255054Y-81522154D01*
X120211598Y-81665415D01*
X120196924Y-81814400D01*
X120200601Y-81851732D01*
X120200600Y-86243277D01*
X120196924Y-86280600D01*
X120200600Y-86317922D01*
X120200600Y-86317932D01*
X120211597Y-86429585D01*
X120243233Y-86533876D01*
X120255054Y-86572846D01*
X120325626Y-86704876D01*
X120351917Y-86736911D01*
X120420599Y-86820601D01*
X120449602Y-86844404D01*
X120681628Y-87076429D01*
X120651000Y-87230408D01*
X120651000Y-87505592D01*
X120704686Y-87775490D01*
X120809995Y-88029727D01*
X120962880Y-88258535D01*
X121157465Y-88453120D01*
X121245465Y-88511920D01*
X121161518Y-88520188D01*
X121041820Y-88556498D01*
X120931506Y-88615463D01*
X120834815Y-88694815D01*
X120755463Y-88791506D01*
X120696498Y-88901820D01*
X120660188Y-89021518D01*
X120647928Y-89146000D01*
X120647928Y-90670000D01*
X120660188Y-90794482D01*
X120696498Y-90914180D01*
X120755463Y-91024494D01*
X120834815Y-91121185D01*
X120931506Y-91200537D01*
X121041820Y-91259502D01*
X121161518Y-91295812D01*
X121286000Y-91308072D01*
X122810000Y-91308072D01*
X122934482Y-91295812D01*
X123054180Y-91259502D01*
X123164494Y-91200537D01*
X123261185Y-91121185D01*
X123340537Y-91024494D01*
X123399502Y-90914180D01*
X123435812Y-90794482D01*
X123448072Y-90670000D01*
X123448072Y-89146000D01*
X123435812Y-89021518D01*
X123399502Y-88901820D01*
X123340537Y-88791506D01*
X123261185Y-88694815D01*
X123164494Y-88615463D01*
X123054180Y-88556498D01*
X122934482Y-88520188D01*
X122850535Y-88511920D01*
X122938535Y-88453120D01*
X123133120Y-88258535D01*
X123286005Y-88029727D01*
X123391314Y-87775490D01*
X123445000Y-87505592D01*
X123445000Y-87230408D01*
X123391314Y-86960510D01*
X123286005Y-86706273D01*
X123133120Y-86477465D01*
X122938535Y-86282880D01*
X122709727Y-86129995D01*
X122632485Y-86098000D01*
X122709727Y-86066005D01*
X122938535Y-85913120D01*
X123133120Y-85718535D01*
X123286005Y-85489727D01*
X123391314Y-85235490D01*
X123445000Y-84965592D01*
X123445000Y-84690408D01*
X123391314Y-84420510D01*
X123286005Y-84166273D01*
X123133120Y-83937465D01*
X122938535Y-83742880D01*
X122709727Y-83589995D01*
X122638057Y-83560308D01*
X122651023Y-83555636D01*
X122766980Y-83493656D01*
X122833959Y-83253567D01*
X122950369Y-83369977D01*
X123024795Y-83295551D01*
X123094938Y-83400528D01*
X123225172Y-83530762D01*
X123378311Y-83633086D01*
X123548471Y-83703568D01*
X123729111Y-83739500D01*
X123913289Y-83739500D01*
X124093929Y-83703568D01*
X124183900Y-83666301D01*
X124183900Y-83927577D01*
X124180224Y-83964900D01*
X124183900Y-84002222D01*
X124183900Y-84002232D01*
X124194897Y-84113885D01*
X124220803Y-84199286D01*
X124238354Y-84257146D01*
X124308926Y-84389176D01*
X124344406Y-84432408D01*
X124403899Y-84504901D01*
X124432903Y-84528704D01*
X127092001Y-87187803D01*
X127115799Y-87216801D01*
X127231524Y-87311774D01*
X127363553Y-87382346D01*
X127506814Y-87425803D01*
X127618467Y-87436800D01*
X127618475Y-87436800D01*
X127655800Y-87440476D01*
X127693125Y-87436800D01*
X147835798Y-87436800D01*
X131739003Y-103533596D01*
X131709999Y-103557399D01*
X131684882Y-103588005D01*
X131615026Y-103673124D01*
X131591521Y-103717099D01*
X131544454Y-103805154D01*
X131500997Y-103948415D01*
X131490000Y-104060068D01*
X131490000Y-104060078D01*
X131486324Y-104097400D01*
X131490000Y-104134722D01*
X131490001Y-124959763D01*
X131421414Y-125062411D01*
X131350932Y-125232571D01*
X131315000Y-125413211D01*
X131315000Y-125597389D01*
X131350932Y-125778029D01*
X131421414Y-125948189D01*
X131523738Y-126101328D01*
X131653972Y-126231562D01*
X131807111Y-126333886D01*
X131977271Y-126404368D01*
X132157911Y-126440300D01*
X132342089Y-126440300D01*
X132522729Y-126404368D01*
X132692889Y-126333886D01*
X132846028Y-126231562D01*
X132976262Y-126101328D01*
X133078586Y-125948189D01*
X133149068Y-125778029D01*
X133185000Y-125597389D01*
X133185000Y-125413211D01*
X133149068Y-125232571D01*
X133078586Y-125062411D01*
X133037033Y-125000222D01*
X133109571Y-125030268D01*
X133290211Y-125066200D01*
X133474389Y-125066200D01*
X133655029Y-125030268D01*
X133825189Y-124959786D01*
X133978328Y-124857462D01*
X134108562Y-124727228D01*
X134210886Y-124574089D01*
X134281368Y-124403929D01*
X134305453Y-124282848D01*
X162829603Y-95758699D01*
X162858601Y-95734901D01*
X162913165Y-95668415D01*
X162953574Y-95619177D01*
X163024146Y-95487147D01*
X163026617Y-95479002D01*
X163067603Y-95343886D01*
X163078600Y-95232233D01*
X163078600Y-95232223D01*
X163082276Y-95194900D01*
X163078600Y-95157577D01*
X163078600Y-86963700D01*
X167834376Y-86963700D01*
X167861832Y-87101729D01*
X167932314Y-87271889D01*
X168034638Y-87425028D01*
X168164872Y-87555262D01*
X168318011Y-87657586D01*
X168488171Y-87728068D01*
X168609252Y-87752153D01*
X180263901Y-99406803D01*
X180287699Y-99435801D01*
X180403424Y-99530774D01*
X180535453Y-99601346D01*
X180678714Y-99644803D01*
X180790367Y-99655800D01*
X180790376Y-99655800D01*
X180827699Y-99659476D01*
X180865022Y-99655800D01*
X182851265Y-99655800D01*
X182953911Y-99724386D01*
X183124071Y-99794868D01*
X183304711Y-99830800D01*
X183488889Y-99830800D01*
X183577701Y-99813134D01*
X183577701Y-116083197D01*
X182164303Y-117496596D01*
X182135299Y-117520399D01*
X182080171Y-117587574D01*
X182040326Y-117636124D01*
X181969755Y-117768153D01*
X181969754Y-117768154D01*
X181926297Y-117911415D01*
X181915300Y-118023068D01*
X181915300Y-118023078D01*
X181911624Y-118060400D01*
X181915300Y-118097722D01*
X181915301Y-133949160D01*
X181791111Y-133911487D01*
X181500000Y-133882815D01*
X181208890Y-133911487D01*
X180928967Y-133996401D01*
X180670987Y-134134294D01*
X180444866Y-134319866D01*
X180259294Y-134545986D01*
X180121401Y-134803966D01*
X180036487Y-135083889D01*
X180015000Y-135302050D01*
X180015000Y-135697949D01*
X180036487Y-135916110D01*
X180083867Y-136072300D01*
X176361602Y-136072300D01*
X174112864Y-133823563D01*
X174061010Y-133562875D01*
X173948042Y-133290147D01*
X173784039Y-133044698D01*
X173575302Y-132835961D01*
X173414187Y-132728308D01*
X173630293Y-132566854D01*
X173826817Y-132348488D01*
X173976964Y-132095978D01*
X174074963Y-131819027D01*
X173954464Y-131587000D01*
X172747000Y-131587000D01*
X172747000Y-131607000D01*
X172493000Y-131607000D01*
X172493000Y-131587000D01*
X172473000Y-131587000D01*
X172473000Y-131333000D01*
X172493000Y-131333000D01*
X172493000Y-130126183D01*
X172747000Y-130126183D01*
X172747000Y-131333000D01*
X173954464Y-131333000D01*
X174074963Y-131100973D01*
X173976964Y-130824022D01*
X173826817Y-130571512D01*
X173630293Y-130353146D01*
X173394944Y-130177316D01*
X173129814Y-130050778D01*
X172979026Y-130005042D01*
X172747000Y-130126183D01*
X172493000Y-130126183D01*
X172260974Y-130005042D01*
X172110186Y-130050778D01*
X171845056Y-130177316D01*
X171609707Y-130353146D01*
X171413183Y-130571512D01*
X171354559Y-130670103D01*
X171244039Y-130504698D01*
X171035302Y-130295961D01*
X170832799Y-130160653D01*
X170829003Y-130122114D01*
X170785546Y-129978853D01*
X170714974Y-129846824D01*
X170620001Y-129731099D01*
X170591003Y-129707301D01*
X168714300Y-127830599D01*
X168714300Y-89759835D01*
X168782886Y-89657189D01*
X168853368Y-89487029D01*
X168889300Y-89306389D01*
X168889300Y-89122211D01*
X168853368Y-88941571D01*
X168782886Y-88771411D01*
X168680562Y-88618272D01*
X168550328Y-88488038D01*
X168397189Y-88385714D01*
X168227029Y-88315232D01*
X168046389Y-88279300D01*
X167862211Y-88279300D01*
X167681571Y-88315232D01*
X167511411Y-88385714D01*
X167358272Y-88488038D01*
X167228038Y-88618272D01*
X167125714Y-88771411D01*
X167055232Y-88941571D01*
X167019300Y-89122211D01*
X167019300Y-89306389D01*
X167055232Y-89487029D01*
X167125714Y-89657189D01*
X167194301Y-89759837D01*
X167194300Y-128108078D01*
X167190624Y-128145400D01*
X167194300Y-128182722D01*
X167194300Y-128182732D01*
X167205297Y-128294385D01*
X167223529Y-128354488D01*
X167248754Y-128437646D01*
X167319326Y-128569676D01*
X167359171Y-128618226D01*
X167414299Y-128685401D01*
X167443303Y-128709204D01*
X169077379Y-130343280D01*
X168915961Y-130504698D01*
X168810000Y-130663281D01*
X168704039Y-130504698D01*
X168495302Y-130295961D01*
X168292799Y-130160653D01*
X168289003Y-130122114D01*
X168245546Y-129978853D01*
X168231460Y-129952501D01*
X168174974Y-129846823D01*
X168103799Y-129760097D01*
X168080001Y-129731099D01*
X168051003Y-129707301D01*
X166184700Y-127840999D01*
X166184700Y-89393135D01*
X166253286Y-89290489D01*
X166323768Y-89120329D01*
X166359700Y-88939689D01*
X166359700Y-88755511D01*
X166323768Y-88574871D01*
X166253286Y-88404711D01*
X166150962Y-88251572D01*
X166020728Y-88121338D01*
X165867589Y-88019014D01*
X165697429Y-87948532D01*
X165516789Y-87912600D01*
X165332611Y-87912600D01*
X165151971Y-87948532D01*
X164981811Y-88019014D01*
X164828672Y-88121338D01*
X164698438Y-88251572D01*
X164596114Y-88404711D01*
X164525632Y-88574871D01*
X164489700Y-88755511D01*
X164489700Y-88939689D01*
X164525632Y-89120329D01*
X164596114Y-89290489D01*
X164664701Y-89393137D01*
X164664700Y-128118478D01*
X164661024Y-128155800D01*
X164664700Y-128193122D01*
X164664700Y-128193132D01*
X164675697Y-128304785D01*
X164715999Y-128437646D01*
X164719154Y-128448046D01*
X164789726Y-128580076D01*
X164829571Y-128628626D01*
X164884699Y-128695801D01*
X164913703Y-128719604D01*
X166537379Y-130343280D01*
X166375961Y-130504698D01*
X166355833Y-130534822D01*
X166212915Y-130360676D01*
X159252925Y-123400687D01*
X159201714Y-123338286D01*
X158952752Y-123133969D01*
X158668715Y-122982148D01*
X158360516Y-122888657D01*
X158120322Y-122865000D01*
X158120319Y-122865000D01*
X158040000Y-122857089D01*
X157959681Y-122865000D01*
X143435859Y-122865000D01*
X143561714Y-122761714D01*
X143612925Y-122699313D01*
X145677239Y-120635000D01*
X159122762Y-120635000D01*
X161365000Y-122877239D01*
X161365000Y-123080321D01*
X161388657Y-123320515D01*
X161482148Y-123628714D01*
X161633969Y-123912751D01*
X161838286Y-124161714D01*
X162087248Y-124366031D01*
X162371285Y-124517852D01*
X162679484Y-124611343D01*
X163000000Y-124642911D01*
X163320515Y-124611343D01*
X163628714Y-124517852D01*
X163912751Y-124366031D01*
X164161714Y-124161714D01*
X164366031Y-123912752D01*
X164517852Y-123628715D01*
X164611343Y-123320516D01*
X164635000Y-123080322D01*
X164635000Y-122280319D01*
X164642911Y-122199999D01*
X164635000Y-122119678D01*
X164611343Y-121879484D01*
X164517852Y-121571285D01*
X164366031Y-121287248D01*
X164161714Y-121038286D01*
X164099319Y-120987080D01*
X161012925Y-117900687D01*
X160961714Y-117838286D01*
X160712752Y-117633969D01*
X160428715Y-117482148D01*
X160120516Y-117388657D01*
X159880322Y-117365000D01*
X159880319Y-117365000D01*
X159800000Y-117357089D01*
X159719681Y-117365000D01*
X145080319Y-117365000D01*
X144999999Y-117357089D01*
X144919680Y-117365000D01*
X144919678Y-117365000D01*
X144679484Y-117388657D01*
X144371285Y-117482148D01*
X144087248Y-117633969D01*
X143838286Y-117838286D01*
X143787080Y-117900681D01*
X141701248Y-119986513D01*
X141679484Y-119988657D01*
X141371285Y-120082148D01*
X141087248Y-120233969D01*
X140838286Y-120438286D01*
X140633969Y-120687248D01*
X140482148Y-120971285D01*
X140388657Y-121279484D01*
X140357089Y-121600000D01*
X140388657Y-121920516D01*
X140482148Y-122228715D01*
X140633969Y-122512752D01*
X140838286Y-122761714D01*
X140964141Y-122865000D01*
X138919678Y-122865000D01*
X138679484Y-122888657D01*
X138371285Y-122982148D01*
X138087248Y-123133969D01*
X137838286Y-123338286D01*
X137633969Y-123587248D01*
X137482148Y-123871285D01*
X137388657Y-124179484D01*
X137357089Y-124500000D01*
X137388657Y-124820516D01*
X137482148Y-125128715D01*
X137633969Y-125412752D01*
X137838286Y-125661714D01*
X138087248Y-125866031D01*
X138371285Y-126017852D01*
X138679484Y-126111343D01*
X138919678Y-126135000D01*
X151059869Y-126135000D01*
X150817369Y-126377500D01*
X150648692Y-126377500D01*
X150568386Y-126311595D01*
X150414850Y-126229528D01*
X150248254Y-126178992D01*
X150075000Y-126161928D01*
X147925000Y-126161928D01*
X147751746Y-126178992D01*
X147585150Y-126229528D01*
X147431614Y-126311595D01*
X147297038Y-126422038D01*
X147186595Y-126556614D01*
X147104528Y-126710150D01*
X147053992Y-126876746D01*
X147036928Y-127050000D01*
X147036928Y-127975000D01*
X147053992Y-128148254D01*
X147104528Y-128314850D01*
X147186595Y-128468386D01*
X147297038Y-128602962D01*
X147431614Y-128713405D01*
X147585150Y-128795472D01*
X147751746Y-128846008D01*
X147925000Y-128863072D01*
X150075000Y-128863072D01*
X150248254Y-128846008D01*
X150414850Y-128795472D01*
X150568386Y-128713405D01*
X150648692Y-128647500D01*
X151231749Y-128647500D01*
X151287500Y-128652991D01*
X151343251Y-128647500D01*
X151343252Y-128647500D01*
X151509999Y-128631077D01*
X151723947Y-128566176D01*
X151921123Y-128460784D01*
X152093949Y-128318949D01*
X152129496Y-128275635D01*
X152841988Y-127563143D01*
X152948283Y-127433623D01*
X153053675Y-127236447D01*
X153118577Y-127022500D01*
X153140490Y-126800001D01*
X153118577Y-126577502D01*
X153053675Y-126363554D01*
X152948283Y-126166378D01*
X152922532Y-126135000D01*
X157362762Y-126135000D01*
X163815609Y-132587848D01*
X163781906Y-132605863D01*
X163685215Y-132685215D01*
X163605863Y-132781906D01*
X163546898Y-132892220D01*
X163510588Y-133011918D01*
X163498328Y-133136400D01*
X163498328Y-134863600D01*
X163510588Y-134988082D01*
X163546898Y-135107780D01*
X163605863Y-135218094D01*
X163685215Y-135314785D01*
X163781906Y-135394137D01*
X163892220Y-135453102D01*
X164011918Y-135489412D01*
X164136400Y-135501672D01*
X164666327Y-135501672D01*
X164098699Y-136069300D01*
X157146093Y-136069300D01*
X157240706Y-135954014D01*
X157378599Y-135696033D01*
X157463513Y-135416110D01*
X157485000Y-135197949D01*
X157485000Y-134802050D01*
X157463513Y-134583889D01*
X157378599Y-134303966D01*
X157240706Y-134045986D01*
X157055134Y-133819866D01*
X156829013Y-133634294D01*
X156571033Y-133496401D01*
X156291110Y-133411487D01*
X156000000Y-133382815D01*
X155708889Y-133411487D01*
X155428966Y-133496401D01*
X155170986Y-133634294D01*
X154944866Y-133819866D01*
X154759294Y-134045987D01*
X154750000Y-134063374D01*
X154740706Y-134045986D01*
X154555134Y-133819866D01*
X154329013Y-133634294D01*
X154071033Y-133496401D01*
X153791110Y-133411487D01*
X153500000Y-133382815D01*
X153208889Y-133411487D01*
X152928966Y-133496401D01*
X152670986Y-133634294D01*
X152444866Y-133819866D01*
X152259294Y-134045987D01*
X152250000Y-134063374D01*
X152240706Y-134045986D01*
X152055134Y-133819866D01*
X151829013Y-133634294D01*
X151571033Y-133496401D01*
X151291110Y-133411487D01*
X151000000Y-133382815D01*
X150708889Y-133411487D01*
X150428966Y-133496401D01*
X150170986Y-133634294D01*
X149950055Y-133815608D01*
X149939502Y-133780820D01*
X149880537Y-133670506D01*
X149801185Y-133573815D01*
X149704494Y-133494463D01*
X149594180Y-133435498D01*
X149474482Y-133399188D01*
X149350000Y-133386928D01*
X148785750Y-133390000D01*
X148627000Y-133548750D01*
X148627000Y-134873000D01*
X148647000Y-134873000D01*
X148647000Y-135127000D01*
X148627000Y-135127000D01*
X148627000Y-135147000D01*
X148373000Y-135147000D01*
X148373000Y-135127000D01*
X147173750Y-135127000D01*
X147015000Y-135285750D01*
X147011928Y-135975000D01*
X147021215Y-136069300D01*
X143146093Y-136069300D01*
X143240706Y-135954014D01*
X143378599Y-135696033D01*
X143463513Y-135416110D01*
X143485000Y-135197949D01*
X143485000Y-134802050D01*
X143463513Y-134583889D01*
X143378599Y-134303966D01*
X143240706Y-134045986D01*
X143223484Y-134025000D01*
X147011928Y-134025000D01*
X147015000Y-134714250D01*
X147173750Y-134873000D01*
X148373000Y-134873000D01*
X148373000Y-133548750D01*
X148214250Y-133390000D01*
X147650000Y-133386928D01*
X147525518Y-133399188D01*
X147405820Y-133435498D01*
X147295506Y-133494463D01*
X147198815Y-133573815D01*
X147119463Y-133670506D01*
X147060498Y-133780820D01*
X147024188Y-133900518D01*
X147011928Y-134025000D01*
X143223484Y-134025000D01*
X143055134Y-133819866D01*
X142829013Y-133634294D01*
X142571033Y-133496401D01*
X142291110Y-133411487D01*
X142000000Y-133382815D01*
X141708889Y-133411487D01*
X141428966Y-133496401D01*
X141170986Y-133634294D01*
X140944866Y-133819866D01*
X140759294Y-134045987D01*
X140750000Y-134063374D01*
X140740706Y-134045986D01*
X140555134Y-133819866D01*
X140329013Y-133634294D01*
X140071033Y-133496401D01*
X139791110Y-133411487D01*
X139500000Y-133382815D01*
X139208889Y-133411487D01*
X138928966Y-133496401D01*
X138670986Y-133634294D01*
X138444866Y-133819866D01*
X138259294Y-134045987D01*
X138250000Y-134063374D01*
X138240706Y-134045986D01*
X138055134Y-133819866D01*
X137829013Y-133634294D01*
X137571033Y-133496401D01*
X137291110Y-133411487D01*
X137000000Y-133382815D01*
X136708889Y-133411487D01*
X136428966Y-133496401D01*
X136170986Y-133634294D01*
X135950055Y-133815608D01*
X135939502Y-133780820D01*
X135880537Y-133670506D01*
X135801185Y-133573815D01*
X135704494Y-133494463D01*
X135594180Y-133435498D01*
X135474482Y-133399188D01*
X135350000Y-133386928D01*
X134785750Y-133390000D01*
X134627000Y-133548750D01*
X134627000Y-134873000D01*
X134647000Y-134873000D01*
X134647000Y-135127000D01*
X134627000Y-135127000D01*
X134627000Y-135147000D01*
X134373000Y-135147000D01*
X134373000Y-135127000D01*
X133173750Y-135127000D01*
X133015000Y-135285750D01*
X133011928Y-135975000D01*
X133021215Y-136069300D01*
X128666610Y-136069300D01*
X128740706Y-135979014D01*
X128878599Y-135721033D01*
X128963513Y-135441110D01*
X128985000Y-135222949D01*
X128985000Y-134777050D01*
X128963513Y-134558889D01*
X128878599Y-134278966D01*
X128742852Y-134025000D01*
X133011928Y-134025000D01*
X133015000Y-134714250D01*
X133173750Y-134873000D01*
X134373000Y-134873000D01*
X134373000Y-133548750D01*
X134214250Y-133390000D01*
X133650000Y-133386928D01*
X133525518Y-133399188D01*
X133405820Y-133435498D01*
X133295506Y-133494463D01*
X133198815Y-133573815D01*
X133119463Y-133670506D01*
X133060498Y-133780820D01*
X133024188Y-133900518D01*
X133011928Y-134025000D01*
X128742852Y-134025000D01*
X128740706Y-134020986D01*
X128555134Y-133794866D01*
X128329013Y-133609294D01*
X128071033Y-133471401D01*
X127791110Y-133386487D01*
X127500000Y-133357815D01*
X127208889Y-133386487D01*
X126928966Y-133471401D01*
X126670986Y-133609294D01*
X126450055Y-133790608D01*
X126439502Y-133755820D01*
X126380537Y-133645506D01*
X126301185Y-133548815D01*
X126204494Y-133469463D01*
X126094180Y-133410498D01*
X125974482Y-133374188D01*
X125850000Y-133361928D01*
X125285750Y-133365000D01*
X125127000Y-133523750D01*
X125127000Y-134873000D01*
X125147000Y-134873000D01*
X125147000Y-135127000D01*
X125127000Y-135127000D01*
X125127000Y-135147000D01*
X124873000Y-135147000D01*
X124873000Y-135127000D01*
X124853000Y-135127000D01*
X124853000Y-134873000D01*
X124873000Y-134873000D01*
X124873000Y-133523750D01*
X124714250Y-133365000D01*
X124150000Y-133361928D01*
X124025518Y-133374188D01*
X123905820Y-133410498D01*
X123795506Y-133469463D01*
X123698815Y-133548815D01*
X123619463Y-133645506D01*
X123560498Y-133755820D01*
X123524188Y-133875518D01*
X123511928Y-134000000D01*
X123515000Y-134714250D01*
X123673748Y-134872998D01*
X123515000Y-134872998D01*
X123515000Y-134968498D01*
X121182511Y-132636010D01*
X121881720Y-132636010D01*
X122150087Y-132584561D01*
X122403260Y-132481745D01*
X122631510Y-132331513D01*
X122826065Y-132139638D01*
X122979449Y-131913494D01*
X123085767Y-131661772D01*
X123100123Y-131589574D01*
X125397877Y-131589574D01*
X125412233Y-131661772D01*
X125518551Y-131913494D01*
X125671935Y-132139638D01*
X125866490Y-132331513D01*
X126094740Y-132481745D01*
X126347913Y-132584561D01*
X126616280Y-132636010D01*
X127370660Y-132636010D01*
X127370660Y-131374900D01*
X127624660Y-131374900D01*
X127624660Y-132636010D01*
X128379040Y-132636010D01*
X128647407Y-132584561D01*
X128900580Y-132481745D01*
X129128830Y-132331513D01*
X129323385Y-132139638D01*
X129476769Y-131913494D01*
X129583087Y-131661772D01*
X129597443Y-131589574D01*
X129474822Y-131374900D01*
X127624660Y-131374900D01*
X127370660Y-131374900D01*
X125520498Y-131374900D01*
X125397877Y-131589574D01*
X123100123Y-131589574D01*
X122977502Y-131374900D01*
X121127340Y-131374900D01*
X121127340Y-131394900D01*
X120873340Y-131394900D01*
X120873340Y-131374900D01*
X120853340Y-131374900D01*
X120853340Y-131200000D01*
X147036928Y-131200000D01*
X147049188Y-131324482D01*
X147085498Y-131444180D01*
X147144463Y-131554494D01*
X147223815Y-131651185D01*
X147320506Y-131730537D01*
X147430820Y-131789502D01*
X147550518Y-131825812D01*
X147675000Y-131838072D01*
X148714250Y-131835000D01*
X148873000Y-131676250D01*
X148873000Y-130614500D01*
X149127000Y-130614500D01*
X149127000Y-131676250D01*
X149285750Y-131835000D01*
X150325000Y-131838072D01*
X150449482Y-131825812D01*
X150569180Y-131789502D01*
X150679494Y-131730537D01*
X150776185Y-131651185D01*
X150855537Y-131554494D01*
X150914502Y-131444180D01*
X150950812Y-131324482D01*
X150963072Y-131200000D01*
X150960000Y-130773250D01*
X150801250Y-130614500D01*
X149127000Y-130614500D01*
X148873000Y-130614500D01*
X147198750Y-130614500D01*
X147040000Y-130773250D01*
X147036928Y-131200000D01*
X120853340Y-131200000D01*
X120853340Y-131120900D01*
X120873340Y-131120900D01*
X120873340Y-129859790D01*
X121127340Y-129859790D01*
X121127340Y-131120900D01*
X122977502Y-131120900D01*
X123100123Y-130906226D01*
X125397877Y-130906226D01*
X125520498Y-131120900D01*
X127370660Y-131120900D01*
X127370660Y-129859790D01*
X127624660Y-129859790D01*
X127624660Y-131120900D01*
X129474822Y-131120900D01*
X129597443Y-130906226D01*
X129583087Y-130834028D01*
X129476769Y-130582306D01*
X129323385Y-130356162D01*
X129128830Y-130164287D01*
X128900580Y-130014055D01*
X128647407Y-129911239D01*
X128379040Y-129859790D01*
X127624660Y-129859790D01*
X127370660Y-129859790D01*
X126616280Y-129859790D01*
X126347913Y-129911239D01*
X126094740Y-130014055D01*
X125866490Y-130164287D01*
X125671935Y-130356162D01*
X125518551Y-130582306D01*
X125412233Y-130834028D01*
X125397877Y-130906226D01*
X123100123Y-130906226D01*
X123085767Y-130834028D01*
X122979449Y-130582306D01*
X122826065Y-130356162D01*
X122631510Y-130164287D01*
X122403260Y-130014055D01*
X122150087Y-129911239D01*
X121881720Y-129859790D01*
X121127340Y-129859790D01*
X120873340Y-129859790D01*
X120118960Y-129859790D01*
X119927500Y-129896495D01*
X119927500Y-129775000D01*
X147036928Y-129775000D01*
X147040000Y-130201750D01*
X147198750Y-130360500D01*
X148873000Y-130360500D01*
X148873000Y-129298750D01*
X149127000Y-129298750D01*
X149127000Y-130360500D01*
X150801250Y-130360500D01*
X150960000Y-130201750D01*
X150963072Y-129775000D01*
X150950812Y-129650518D01*
X150914502Y-129530820D01*
X150855537Y-129420506D01*
X150776185Y-129323815D01*
X150679494Y-129244463D01*
X150569180Y-129185498D01*
X150449482Y-129149188D01*
X150325000Y-129136928D01*
X149285750Y-129140000D01*
X149127000Y-129298750D01*
X148873000Y-129298750D01*
X148714250Y-129140000D01*
X147675000Y-129136928D01*
X147550518Y-129149188D01*
X147430820Y-129185498D01*
X147320506Y-129244463D01*
X147223815Y-129323815D01*
X147144463Y-129420506D01*
X147085498Y-129530820D01*
X147049188Y-129650518D01*
X147036928Y-129775000D01*
X119927500Y-129775000D01*
X119927500Y-128106067D01*
X119973843Y-128120125D01*
X120177771Y-128140210D01*
X121822909Y-128140210D01*
X122026837Y-128120125D01*
X122288497Y-128040751D01*
X122529644Y-127911855D01*
X122741011Y-127738391D01*
X122914475Y-127527024D01*
X123043371Y-127285877D01*
X123122745Y-127024217D01*
X123149546Y-126752100D01*
X125348454Y-126752100D01*
X125375255Y-127024217D01*
X125454629Y-127285877D01*
X125583525Y-127527024D01*
X125756989Y-127738391D01*
X125968356Y-127911855D01*
X126209503Y-128040751D01*
X126471163Y-128120125D01*
X126675091Y-128140210D01*
X128320229Y-128140210D01*
X128524157Y-128120125D01*
X128785817Y-128040751D01*
X129026964Y-127911855D01*
X129238331Y-127738391D01*
X129411795Y-127527024D01*
X129540691Y-127285877D01*
X129620065Y-127024217D01*
X129646866Y-126752100D01*
X129620065Y-126479983D01*
X129540691Y-126218323D01*
X129411795Y-125977176D01*
X129238331Y-125765809D01*
X129026964Y-125592345D01*
X128785817Y-125463449D01*
X128524157Y-125384075D01*
X128320229Y-125363990D01*
X126675091Y-125363990D01*
X126471163Y-125384075D01*
X126209503Y-125463449D01*
X125968356Y-125592345D01*
X125756989Y-125765809D01*
X125583525Y-125977176D01*
X125454629Y-126218323D01*
X125375255Y-126479983D01*
X125348454Y-126752100D01*
X123149546Y-126752100D01*
X123122745Y-126479983D01*
X123043371Y-126218323D01*
X122914475Y-125977176D01*
X122741011Y-125765809D01*
X122529644Y-125592345D01*
X122288497Y-125463449D01*
X122026837Y-125384075D01*
X121822909Y-125363990D01*
X120177771Y-125363990D01*
X119973843Y-125384075D01*
X119927500Y-125398133D01*
X119927500Y-101664822D01*
X119931176Y-101627499D01*
X119927500Y-101590177D01*
X119927500Y-101590167D01*
X119916503Y-101478514D01*
X119873046Y-101335253D01*
X119854167Y-101299933D01*
X119802474Y-101203223D01*
X119731299Y-101116497D01*
X119707501Y-101087499D01*
X119678503Y-101063701D01*
X116328370Y-97713569D01*
X116343314Y-97677490D01*
X116397000Y-97407592D01*
X116397000Y-97132408D01*
X116343314Y-96862510D01*
X116238005Y-96608273D01*
X116085120Y-96379465D01*
X115890535Y-96184880D01*
X115661727Y-96031995D01*
X115584485Y-96000000D01*
X115661727Y-95968005D01*
X115890535Y-95815120D01*
X116085120Y-95620535D01*
X116238005Y-95391727D01*
X116343314Y-95137490D01*
X116397000Y-94867592D01*
X116397000Y-94592408D01*
X116366372Y-94438430D01*
X116685603Y-94119199D01*
X116714601Y-94095401D01*
X116809574Y-93979676D01*
X116880146Y-93847647D01*
X116923603Y-93704386D01*
X116934600Y-93592733D01*
X116934600Y-93592724D01*
X116938276Y-93555401D01*
X116934600Y-93518078D01*
X116934600Y-84361701D01*
X120840669Y-80455633D01*
X120962880Y-80638535D01*
G37*
G04 #@! TD.AperFunction*
D23*
X168986252Y-82284247D02*
X168865171Y-82308332D01*
X168695011Y-82378814D01*
X168541872Y-82481138D01*
X168411638Y-82611372D01*
X168309314Y-82764511D01*
X168238832Y-82934671D01*
X168202900Y-83115311D01*
X168202900Y-83299489D01*
X168238832Y-83480129D01*
X168309314Y-83650289D01*
X168411638Y-83803428D01*
X168541872Y-83933662D01*
X168695011Y-84035986D01*
X168865171Y-84106468D01*
X169045811Y-84142400D01*
X169229989Y-84142400D01*
X169410629Y-84106468D01*
X169580789Y-84035986D01*
X169733928Y-83933662D01*
X169864162Y-83803428D01*
X169966486Y-83650289D01*
X170036968Y-83480129D01*
X170061053Y-83359048D01*
X175566403Y-77853700D01*
X181164776Y-77853700D01*
X181192232Y-77991729D01*
X181262714Y-78161889D01*
X181365038Y-78315028D01*
X181495272Y-78445262D01*
X181648411Y-78547586D01*
X181656164Y-78550797D01*
X181674232Y-78641629D01*
X181744714Y-78811789D01*
X181847038Y-78964928D01*
X181977272Y-79095162D01*
X182130411Y-79197486D01*
X182300571Y-79267968D01*
X182421651Y-79292053D01*
X183577700Y-80448103D01*
X183577700Y-87939798D01*
X181330604Y-85692703D01*
X181306801Y-85663699D01*
X181191076Y-85568726D01*
X181059047Y-85498154D01*
X180915786Y-85454697D01*
X180804133Y-85443700D01*
X180804122Y-85443700D01*
X180766800Y-85440024D01*
X180729478Y-85443700D01*
X163078600Y-85443700D01*
X163078600Y-83268035D01*
X163147186Y-83165389D01*
X163217668Y-82995229D01*
X163253600Y-82814589D01*
X163253600Y-82630411D01*
X163217668Y-82449771D01*
X163147186Y-82279611D01*
X163044862Y-82126472D01*
X162914628Y-81996238D01*
X162761489Y-81893914D01*
X162591329Y-81823432D01*
X162410689Y-81787500D01*
X162226511Y-81787500D01*
X162045871Y-81823432D01*
X161875711Y-81893914D01*
X161722572Y-81996238D01*
X161592338Y-82126472D01*
X161490014Y-82279611D01*
X161419532Y-82449771D01*
X161383600Y-82630411D01*
X161383600Y-82814589D01*
X161419532Y-82995229D01*
X161490014Y-83165389D01*
X161558600Y-83268036D01*
X161558601Y-86166357D01*
X161554923Y-86203700D01*
X161558600Y-86241033D01*
X161558601Y-94880097D01*
X133230652Y-123208047D01*
X133109571Y-123232132D01*
X133010000Y-123273375D01*
X133010000Y-104412201D01*
X159467249Y-77954953D01*
X159588329Y-77930868D01*
X159758489Y-77860386D01*
X159911628Y-77758062D01*
X160041862Y-77627828D01*
X160144186Y-77474689D01*
X160214668Y-77304529D01*
X160242124Y-77166500D01*
X174103997Y-77166500D01*
X168986252Y-82284247D01*
G04 #@! TA.AperFunction,Conductor*
D24*
G36*
X168986252Y-82284247D02*
G01*
X168865171Y-82308332D01*
X168695011Y-82378814D01*
X168541872Y-82481138D01*
X168411638Y-82611372D01*
X168309314Y-82764511D01*
X168238832Y-82934671D01*
X168202900Y-83115311D01*
X168202900Y-83299489D01*
X168238832Y-83480129D01*
X168309314Y-83650289D01*
X168411638Y-83803428D01*
X168541872Y-83933662D01*
X168695011Y-84035986D01*
X168865171Y-84106468D01*
X169045811Y-84142400D01*
X169229989Y-84142400D01*
X169410629Y-84106468D01*
X169580789Y-84035986D01*
X169733928Y-83933662D01*
X169864162Y-83803428D01*
X169966486Y-83650289D01*
X170036968Y-83480129D01*
X170061053Y-83359048D01*
X175566403Y-77853700D01*
X181164776Y-77853700D01*
X181192232Y-77991729D01*
X181262714Y-78161889D01*
X181365038Y-78315028D01*
X181495272Y-78445262D01*
X181648411Y-78547586D01*
X181656164Y-78550797D01*
X181674232Y-78641629D01*
X181744714Y-78811789D01*
X181847038Y-78964928D01*
X181977272Y-79095162D01*
X182130411Y-79197486D01*
X182300571Y-79267968D01*
X182421651Y-79292053D01*
X183577700Y-80448103D01*
X183577700Y-87939798D01*
X181330604Y-85692703D01*
X181306801Y-85663699D01*
X181191076Y-85568726D01*
X181059047Y-85498154D01*
X180915786Y-85454697D01*
X180804133Y-85443700D01*
X180804122Y-85443700D01*
X180766800Y-85440024D01*
X180729478Y-85443700D01*
X163078600Y-85443700D01*
X163078600Y-83268035D01*
X163147186Y-83165389D01*
X163217668Y-82995229D01*
X163253600Y-82814589D01*
X163253600Y-82630411D01*
X163217668Y-82449771D01*
X163147186Y-82279611D01*
X163044862Y-82126472D01*
X162914628Y-81996238D01*
X162761489Y-81893914D01*
X162591329Y-81823432D01*
X162410689Y-81787500D01*
X162226511Y-81787500D01*
X162045871Y-81823432D01*
X161875711Y-81893914D01*
X161722572Y-81996238D01*
X161592338Y-82126472D01*
X161490014Y-82279611D01*
X161419532Y-82449771D01*
X161383600Y-82630411D01*
X161383600Y-82814589D01*
X161419532Y-82995229D01*
X161490014Y-83165389D01*
X161558600Y-83268036D01*
X161558601Y-86166357D01*
X161554923Y-86203700D01*
X161558600Y-86241033D01*
X161558601Y-94880097D01*
X133230652Y-123208047D01*
X133109571Y-123232132D01*
X133010000Y-123273375D01*
X133010000Y-104412201D01*
X159467249Y-77954953D01*
X159588329Y-77930868D01*
X159758489Y-77860386D01*
X159911628Y-77758062D01*
X160041862Y-77627828D01*
X160144186Y-77474689D01*
X160214668Y-77304529D01*
X160242124Y-77166500D01*
X174103997Y-77166500D01*
X168986252Y-82284247D01*
G37*
G04 #@! TD.AperFunction*
D23*
X194918023Y-81127631D02*
X195034433Y-81244041D01*
X194794344Y-81311020D01*
X194677244Y-81560048D01*
X194610977Y-81827135D01*
X194598090Y-82102017D01*
X194639078Y-82374133D01*
X194732364Y-82633023D01*
X194794344Y-82748980D01*
X195034435Y-82815960D01*
X195820395Y-82030000D01*
X195806253Y-82015858D01*
X195985858Y-81836253D01*
X196000000Y-81850395D01*
X196014143Y-81836253D01*
X196193748Y-82015858D01*
X196179605Y-82030000D01*
X196193748Y-82044143D01*
X196014143Y-82223748D01*
X196000000Y-82209605D01*
X195214040Y-82995565D01*
X195281020Y-83235656D01*
X195416760Y-83299485D01*
X195338273Y-83331995D01*
X195109465Y-83484880D01*
X194943273Y-83651072D01*
X192417202Y-81125000D01*
X194920654Y-81125000D01*
X194918023Y-81127631D01*
G04 #@! TA.AperFunction,Conductor*
D24*
G36*
X194918023Y-81127631D02*
G01*
X195034433Y-81244041D01*
X194794344Y-81311020D01*
X194677244Y-81560048D01*
X194610977Y-81827135D01*
X194598090Y-82102017D01*
X194639078Y-82374133D01*
X194732364Y-82633023D01*
X194794344Y-82748980D01*
X195034435Y-82815960D01*
X195820395Y-82030000D01*
X195806253Y-82015858D01*
X195985858Y-81836253D01*
X196000000Y-81850395D01*
X196014143Y-81836253D01*
X196193748Y-82015858D01*
X196179605Y-82030000D01*
X196193748Y-82044143D01*
X196014143Y-82223748D01*
X196000000Y-82209605D01*
X195214040Y-82995565D01*
X195281020Y-83235656D01*
X195416760Y-83299485D01*
X195338273Y-83331995D01*
X195109465Y-83484880D01*
X194943273Y-83651072D01*
X192417202Y-81125000D01*
X194920654Y-81125000D01*
X194918023Y-81127631D01*
G37*
G04 #@! TD.AperFunction*
D23*
X122241748Y-82273858D02*
X122227605Y-82288000D01*
X122241748Y-82302143D01*
X122062143Y-82481748D01*
X122048000Y-82467605D01*
X122033858Y-82481748D01*
X121854253Y-82302143D01*
X121868395Y-82288000D01*
X121854253Y-82273858D01*
X122033858Y-82094253D01*
X122048000Y-82108395D01*
X122062143Y-82094253D01*
X122241748Y-82273858D01*
G04 #@! TA.AperFunction,Conductor*
D24*
G36*
X122241748Y-82273858D02*
G01*
X122227605Y-82288000D01*
X122241748Y-82302143D01*
X122062143Y-82481748D01*
X122048000Y-82467605D01*
X122033858Y-82481748D01*
X121854253Y-82302143D01*
X121868395Y-82288000D01*
X121854253Y-82273858D01*
X122033858Y-82094253D01*
X122048000Y-82108395D01*
X122062143Y-82094253D01*
X122241748Y-82273858D01*
G37*
G04 #@! TD.AperFunction*
M02*
