G04 #@! TF.GenerationSoftware,KiCad,Pcbnew,5.1.7-a382d34a8~87~ubuntu18.04.1*
G04 #@! TF.CreationDate,2020-12-04T06:12:41+00:00*
G04 #@! TF.ProjectId,display,64697370-6c61-4792-9e6b-696361645f70,1.0*
G04 #@! TF.SameCoordinates,Original*
G04 #@! TF.FileFunction,Legend,Bot*
G04 #@! TF.FilePolarity,Positive*
%FSLAX46Y46*%
G04 Gerber Fmt 4.6, Leading zero omitted, Abs format (unit mm)*
G04 Created by KiCad (PCBNEW 5.1.7-a382d34a8~87~ubuntu18.04.1) date 2020-12-04 06:12:41*
%MOMM*%
%LPD*%
G01*
G04 APERTURE LIST*
%ADD10C,0.120000*%
%ADD11C,0.150000*%
%ADD12C,0.203200*%
%ADD13C,0.101600*%
G04 APERTURE END LIST*
D10*
X147415000Y-131460000D02*
X147415000Y-127400000D01*
X150585000Y-131460000D02*
X147415000Y-131460000D01*
X150585000Y-127400000D02*
X150585000Y-131460000D01*
X152088000Y-69585000D02*
X148028000Y-69585000D01*
X148028000Y-69585000D02*
X148028000Y-66415000D01*
X148028000Y-66415000D02*
X152088000Y-66415000D01*
D11*
X172000000Y-71000000D02*
X172000000Y-89000000D01*
X172000000Y-89000000D02*
X145000000Y-89000000D01*
X145000000Y-89000000D02*
X145000000Y-71000000D01*
X118400000Y-71000000D02*
X118400000Y-121000000D01*
X187600000Y-71000000D02*
X187600000Y-121000000D01*
X198000000Y-121000000D02*
X112000000Y-121000000D01*
X112000000Y-121000000D02*
X112000000Y-71000000D01*
X112000000Y-71000000D02*
X198000000Y-71000000D01*
X198000000Y-71000000D02*
X198000000Y-121000000D01*
D12*
X114747520Y-129000000D02*
G75*
G03*
X114747520Y-129000000I-1747520J0D01*
G01*
X109901200Y-128001780D02*
X109901200Y-129998220D01*
X114498600Y-125901200D02*
X111501400Y-125901200D01*
X116098800Y-128001780D02*
X116098800Y-129998220D01*
X114498600Y-132098800D02*
X111501400Y-132098800D01*
X125747600Y-132098800D02*
X122750400Y-132098800D01*
X127347800Y-128001780D02*
X127347800Y-129998220D01*
X125747600Y-125901200D02*
X122750400Y-125901200D01*
X121150200Y-128001780D02*
X121150200Y-129998220D01*
X125996520Y-129000000D02*
G75*
G03*
X125996520Y-129000000I-1747520J0D01*
G01*
X194747520Y-129000000D02*
G75*
G03*
X194747520Y-129000000I-1747520J0D01*
G01*
X189901200Y-128001780D02*
X189901200Y-129998220D01*
X194498600Y-125901200D02*
X191501400Y-125901200D01*
X196098800Y-128001780D02*
X196098800Y-129998220D01*
X194498600Y-132098800D02*
X191501400Y-132098800D01*
D11*
X151732380Y-128261904D02*
X150732380Y-128261904D01*
X150732380Y-128500000D01*
X150780000Y-128642857D01*
X150875238Y-128738095D01*
X150970476Y-128785714D01*
X151160952Y-128833333D01*
X151303809Y-128833333D01*
X151494285Y-128785714D01*
X151589523Y-128738095D01*
X151684761Y-128642857D01*
X151732380Y-128500000D01*
X151732380Y-128261904D01*
X151732380Y-129785714D02*
X151732380Y-129214285D01*
X151732380Y-129500000D02*
X150732380Y-129500000D01*
X150875238Y-129404761D01*
X150970476Y-129309523D01*
X151018095Y-129214285D01*
X151226095Y-70732380D02*
X151226095Y-69732380D01*
X150988000Y-69732380D01*
X150845142Y-69780000D01*
X150749904Y-69875238D01*
X150702285Y-69970476D01*
X150654666Y-70160952D01*
X150654666Y-70303809D01*
X150702285Y-70494285D01*
X150749904Y-70589523D01*
X150845142Y-70684761D01*
X150988000Y-70732380D01*
X151226095Y-70732380D01*
X150273714Y-69827619D02*
X150226095Y-69780000D01*
X150130857Y-69732380D01*
X149892761Y-69732380D01*
X149797523Y-69780000D01*
X149749904Y-69827619D01*
X149702285Y-69922857D01*
X149702285Y-70018095D01*
X149749904Y-70160952D01*
X150321333Y-70732380D01*
X149702285Y-70732380D01*
X155214285Y-69452380D02*
X155214285Y-68452380D01*
X154976190Y-68452380D01*
X154833333Y-68500000D01*
X154738095Y-68595238D01*
X154690476Y-68690476D01*
X154642857Y-68880952D01*
X154642857Y-69023809D01*
X154690476Y-69214285D01*
X154738095Y-69309523D01*
X154833333Y-69404761D01*
X154976190Y-69452380D01*
X155214285Y-69452380D01*
X154261904Y-69404761D02*
X154119047Y-69452380D01*
X153880952Y-69452380D01*
X153785714Y-69404761D01*
X153738095Y-69357142D01*
X153690476Y-69261904D01*
X153690476Y-69166666D01*
X153738095Y-69071428D01*
X153785714Y-69023809D01*
X153880952Y-68976190D01*
X154071428Y-68928571D01*
X154166666Y-68880952D01*
X154214285Y-68833333D01*
X154261904Y-68738095D01*
X154261904Y-68642857D01*
X154214285Y-68547619D01*
X154166666Y-68500000D01*
X154071428Y-68452380D01*
X153833333Y-68452380D01*
X153690476Y-68500000D01*
X152738095Y-69452380D02*
X153309523Y-69452380D01*
X153023809Y-69452380D02*
X153023809Y-68452380D01*
X153119047Y-68595238D01*
X153214285Y-68690476D01*
X153309523Y-68738095D01*
D13*
X118217619Y-129264047D02*
X118036190Y-129324523D01*
X117733809Y-129324523D01*
X117612857Y-129264047D01*
X117552380Y-129203571D01*
X117491904Y-129082619D01*
X117491904Y-128961666D01*
X117552380Y-128840714D01*
X117612857Y-128780238D01*
X117733809Y-128719761D01*
X117975714Y-128659285D01*
X118096666Y-128598809D01*
X118157142Y-128538333D01*
X118217619Y-128417380D01*
X118217619Y-128296428D01*
X118157142Y-128175476D01*
X118096666Y-128115000D01*
X117975714Y-128054523D01*
X117673333Y-128054523D01*
X117491904Y-128115000D01*
X116282380Y-129324523D02*
X117008095Y-129324523D01*
X116645238Y-129324523D02*
X116645238Y-128054523D01*
X116766190Y-128235952D01*
X116887142Y-128356904D01*
X117008095Y-128417380D01*
X129967959Y-129514047D02*
X129786530Y-129574523D01*
X129484149Y-129574523D01*
X129363197Y-129514047D01*
X129302720Y-129453571D01*
X129242244Y-129332619D01*
X129242244Y-129211666D01*
X129302720Y-129090714D01*
X129363197Y-129030238D01*
X129484149Y-128969761D01*
X129726054Y-128909285D01*
X129847006Y-128848809D01*
X129907482Y-128788333D01*
X129967959Y-128667380D01*
X129967959Y-128546428D01*
X129907482Y-128425476D01*
X129847006Y-128365000D01*
X129726054Y-128304523D01*
X129423673Y-128304523D01*
X129242244Y-128365000D01*
X128758435Y-128425476D02*
X128697959Y-128365000D01*
X128577006Y-128304523D01*
X128274625Y-128304523D01*
X128153673Y-128365000D01*
X128093197Y-128425476D01*
X128032720Y-128546428D01*
X128032720Y-128667380D01*
X128093197Y-128848809D01*
X128818911Y-129574523D01*
X128032720Y-129574523D01*
X193967619Y-124514047D02*
X193786190Y-124574523D01*
X193483809Y-124574523D01*
X193362857Y-124514047D01*
X193302380Y-124453571D01*
X193241904Y-124332619D01*
X193241904Y-124211666D01*
X193302380Y-124090714D01*
X193362857Y-124030238D01*
X193483809Y-123969761D01*
X193725714Y-123909285D01*
X193846666Y-123848809D01*
X193907142Y-123788333D01*
X193967619Y-123667380D01*
X193967619Y-123546428D01*
X193907142Y-123425476D01*
X193846666Y-123365000D01*
X193725714Y-123304523D01*
X193423333Y-123304523D01*
X193241904Y-123365000D01*
X192818571Y-123304523D02*
X192032380Y-123304523D01*
X192455714Y-123788333D01*
X192274285Y-123788333D01*
X192153333Y-123848809D01*
X192092857Y-123909285D01*
X192032380Y-124030238D01*
X192032380Y-124332619D01*
X192092857Y-124453571D01*
X192153333Y-124514047D01*
X192274285Y-124574523D01*
X192637142Y-124574523D01*
X192758095Y-124514047D01*
X192818571Y-124453571D01*
M02*
