M48
; DRILL file {KiCad 5.1.7-a382d34a8~87~ubuntu18.04.1} date Fri Dec  4 06:12:42 2020
; FORMAT={-:-/ absolute / inch / decimal}
; #@! TF.CreationDate,2020-12-04T06:12:42+00:00
; #@! TF.GenerationSoftware,Kicad,Pcbnew,5.1.7-a382d34a8~87~ubuntu18.04.1
; #@! TF.FileFunction,Plated,1,2,PTH
FMAT,2
INCH
T1C0.0157
T2C0.0300
T3C0.0374
T4C0.0393
T5C0.0394
T6C0.0400
%
G90
G05
T1
X4.8749Y-3.26
X4.9167Y-4.3819
X4.9655Y-3.86
X5.0523Y-3.3397
X5.2067Y-4.9412
X5.2513Y-4.8871
X5.4724Y-4.9016
X5.5906Y-4.7874
X5.7638Y-2.7323
X5.836Y-3.9961
X5.8583Y-2.7638
X5.9843Y-4.9921
X6.0328Y-4.1929
X6.0472Y-2.6772
X6.2723Y-3.0327
X6.2913Y-4.685
X6.378Y-2.7638
X6.378Y-2.9134
X6.3905Y-3.2568
X6.4173Y-4.8425
X6.5128Y-3.4979
X6.6124Y-3.5124
X6.6441Y-3.4185
X6.659Y-3.2759
X6.9012Y-2.8541
X7.1689Y-3.0598
X7.1879Y-3.0854
X7.2203Y-3.8935
X7.2328Y-3.5098
X7.3632Y-3.1993
X7.3771Y-3.2539
X7.3781Y-3.0389
T2
X4.805Y-2.6397
X4.805Y-2.7397
X4.805Y-2.8397
X4.805Y-2.9397
X4.805Y-3.0397
X4.805Y-3.1397
X4.805Y-3.2397
X4.805Y-3.3397
X4.805Y-3.4397
X4.805Y-3.5397
X4.5276Y-3.6295
X4.5276Y-3.7295
X4.5276Y-3.8295
X4.5276Y-3.9295
X7.7165Y-3.1295
X7.7165Y-3.2295
X7.7165Y-3.3295
X7.7165Y-3.4295
X7.7165Y-3.5295
X7.7165Y-3.6295
X7.7165Y-3.7295
X7.7165Y-3.8295
X7.7165Y-3.9295
X7.7165Y-4.0295
X7.7165Y-4.1295
X7.7165Y-4.2295
X7.7165Y-4.3295
X7.7165Y-4.4295
T3
X7.1457Y-5.3346
X7.2441Y-5.3346
X7.3425Y-5.3346
X5.2953Y-5.315
X5.3937Y-5.315
X5.4921Y-5.315
X5.5906Y-5.315
X5.8465Y-5.315
X5.9449Y-5.315
X6.0433Y-5.315
X6.1417Y-5.315
T4
X4.3209Y-4.9902
X4.3209Y-5.1672
X4.5767Y-4.9902
X4.5767Y-5.1672
X7.4705Y-4.9902
X7.4705Y-5.1672
X7.7263Y-4.9902
X7.7263Y-5.1672
X4.7638Y-4.9902
X4.7638Y-5.1672
X5.0196Y-4.9902
X5.0196Y-5.1672
T5
X4.9213Y-5.315
X5.0197Y-5.315
X4.0157Y-3.637
X4.0157Y-3.737
X4.0157Y-3.837
X4.0157Y-3.937
T6
X6.4961Y-5.1756
X6.4961Y-5.2756
X6.5961Y-5.1756
X6.5961Y-5.2756
X6.6961Y-5.1756
X6.6961Y-5.2756
X6.7961Y-5.1756
X6.7961Y-5.2756
T0
M30
